%TF.GenerationSoftware,KiCad,Pcbnew,(6.0.7)*%
%TF.CreationDate,2022-08-15T11:29:02+02:00*%
%TF.ProjectId,atsd_tracker,61747364-5f74-4726-9163-6b65722e6b69,rev?*%
%TF.SameCoordinates,Original*%
%TF.FileFunction,Paste,Top*%
%TF.FilePolarity,Positive*%
%FSLAX46Y46*%
G04 Gerber Fmt 4.6, Leading zero omitted, Abs format (unit mm)*
G04 Created by KiCad (PCBNEW (6.0.7)) date 2022-08-15 11:29:02*
%MOMM*%
%LPD*%
G01*
G04 APERTURE LIST*
G04 Aperture macros list*
%AMRoundRect*
0 Rectangle with rounded corners*
0 $1 Rounding radius*
0 $2 $3 $4 $5 $6 $7 $8 $9 X,Y pos of 4 corners*
0 Add a 4 corners polygon primitive as box body*
4,1,4,$2,$3,$4,$5,$6,$7,$8,$9,$2,$3,0*
0 Add four circle primitives for the rounded corners*
1,1,$1+$1,$2,$3*
1,1,$1+$1,$4,$5*
1,1,$1+$1,$6,$7*
1,1,$1+$1,$8,$9*
0 Add four rect primitives between the rounded corners*
20,1,$1+$1,$2,$3,$4,$5,0*
20,1,$1+$1,$4,$5,$6,$7,0*
20,1,$1+$1,$6,$7,$8,$9,0*
20,1,$1+$1,$8,$9,$2,$3,0*%
G04 Aperture macros list end*
%ADD10R,0.500000X0.600000*%
%ADD11R,0.600000X0.500000*%
%ADD12R,1.143000X0.635000*%
%ADD13R,0.889000X1.397000*%
%ADD14R,1.397000X0.889000*%
%ADD15R,0.797560X0.797560*%
%ADD16RoundRect,0.050000X-0.350000X-0.050000X0.350000X-0.050000X0.350000X0.050000X-0.350000X0.050000X0*%
%ADD17RoundRect,0.050000X0.050000X-0.350000X0.050000X0.350000X-0.050000X0.350000X-0.050000X-0.350000X0*%
%ADD18RoundRect,0.225000X0.225000X-0.225000X0.225000X0.225000X-0.225000X0.225000X-0.225000X-0.225000X0*%
%ADD19R,4.700000X4.700000*%
%ADD20R,1.100000X0.600000*%
%ADD21R,1.800000X0.700000*%
%ADD22R,1.800000X0.800000*%
%ADD23R,1.220000X0.910000*%
%ADD24R,1.400000X1.200000*%
%ADD25R,0.900000X0.800000*%
%ADD26R,0.800000X0.350000*%
%ADD27R,0.350000X0.800000*%
%ADD28R,1.275000X1.275000*%
%ADD29R,0.500000X1.000000*%
G04 APERTURE END LIST*
D10*
%TO.C,R128*%
X72100000Y-94300000D03*
X71100000Y-94300000D03*
%TD*%
%TO.C,R127*%
X72100000Y-93200000D03*
X71100000Y-93200000D03*
%TD*%
D11*
%TO.C,R126*%
X72700000Y-96400000D03*
X72700000Y-95400000D03*
%TD*%
D10*
%TO.C,R125*%
X69999999Y-90999999D03*
X70999999Y-90999999D03*
%TD*%
%TO.C,R124*%
X93700000Y-93400000D03*
X92700000Y-93400000D03*
%TD*%
D11*
%TO.C,R123*%
X91000000Y-93400000D03*
X91000000Y-92400000D03*
%TD*%
%TO.C,R122*%
X89000000Y-85100000D03*
X89000000Y-84100000D03*
%TD*%
%TO.C,R121*%
X90600000Y-85100000D03*
X90600000Y-84100000D03*
%TD*%
%TO.C,R120*%
X92200000Y-85100000D03*
X92200000Y-84100000D03*
%TD*%
D10*
%TO.C,R119*%
X90170000Y-110350000D03*
X91170000Y-110350000D03*
%TD*%
D11*
%TO.C,R118*%
X91170000Y-112350000D03*
X91170000Y-111350000D03*
%TD*%
D12*
%TO.C,R117*%
X93378834Y-108150000D03*
X93378834Y-109674000D03*
%TD*%
%TO.C,R116*%
X93378834Y-110650000D03*
X93378834Y-112174000D03*
%TD*%
D11*
%TO.C,R115*%
X99000000Y-101150000D03*
X99000000Y-102150000D03*
%TD*%
%TO.C,R114*%
X97750000Y-101150000D03*
X97750000Y-102150000D03*
%TD*%
%TO.C,R113*%
X96500000Y-101150000D03*
X96500000Y-102150000D03*
%TD*%
%TO.C,R112*%
X99000000Y-79000000D03*
X99000000Y-80000000D03*
%TD*%
%TO.C,R111*%
X97750000Y-79000000D03*
X97750000Y-80000000D03*
%TD*%
%TO.C,R110*%
X96500000Y-79000000D03*
X96500000Y-80000000D03*
%TD*%
D12*
%TO.C,R109*%
X82445000Y-111138000D03*
X82445000Y-112662000D03*
%TD*%
D11*
%TO.C,R108*%
X99000000Y-108900000D03*
X99000000Y-107900000D03*
%TD*%
%TO.C,R107*%
X97750000Y-108900000D03*
X97750000Y-107900000D03*
%TD*%
%TO.C,R106*%
X96500000Y-108900000D03*
X96500000Y-107900000D03*
%TD*%
%TO.C,R105*%
X99000000Y-87000000D03*
X99000000Y-86000000D03*
%TD*%
%TO.C,R104*%
X97750000Y-87000000D03*
X97750000Y-86000000D03*
%TD*%
%TO.C,R103*%
X96500000Y-87000000D03*
X96500000Y-86000000D03*
%TD*%
D12*
%TO.C,R102*%
X77695000Y-109888000D03*
X77695000Y-111412000D03*
%TD*%
%TO.C,R101*%
X73945000Y-109912000D03*
X73945000Y-108388000D03*
%TD*%
D10*
%TO.C,L110*%
X110000000Y-90400000D03*
X111000000Y-90400000D03*
%TD*%
D11*
%TO.C,L109*%
X115100000Y-92300000D03*
X115100000Y-93300000D03*
%TD*%
%TO.C,L108*%
X115100000Y-95200000D03*
X115100000Y-94200000D03*
%TD*%
%TO.C,L107*%
X68000000Y-87750000D03*
X68000000Y-88750000D03*
%TD*%
D10*
%TO.C,L106*%
X118900000Y-93300000D03*
X117900000Y-93300000D03*
%TD*%
%TO.C,L105*%
X118900000Y-94200000D03*
X117900000Y-94200000D03*
%TD*%
D11*
%TO.C,L104*%
X120600000Y-92300000D03*
X120600000Y-93300000D03*
%TD*%
%TO.C,L103*%
X120600000Y-94200000D03*
X120600000Y-95200000D03*
%TD*%
D10*
%TO.C,L102*%
X122400000Y-94200000D03*
X121400000Y-94200000D03*
%TD*%
%TO.C,L101*%
X125400000Y-93300000D03*
X124400000Y-93300000D03*
%TD*%
%TO.C,C129*%
X108250000Y-97500000D03*
X109250000Y-97500000D03*
%TD*%
D11*
%TO.C,C128*%
X114600000Y-97000000D03*
X114600000Y-96000000D03*
%TD*%
%TO.C,C127*%
X113750000Y-97000000D03*
X113750000Y-96000000D03*
%TD*%
%TO.C,C126*%
X113800000Y-90400000D03*
X113800000Y-91400000D03*
%TD*%
D10*
%TO.C,C125*%
X110000000Y-89650000D03*
X111000000Y-89650000D03*
%TD*%
D11*
%TO.C,C124*%
X114200000Y-92300000D03*
X114200000Y-93300000D03*
%TD*%
%TO.C,C123*%
X114200000Y-95200000D03*
X114200000Y-94200000D03*
%TD*%
%TO.C,C122*%
X69250000Y-90000000D03*
X69250000Y-91000000D03*
%TD*%
D10*
%TO.C,C121*%
X69750000Y-87750000D03*
X68750000Y-87750000D03*
%TD*%
%TO.C,C120*%
X116100000Y-93300000D03*
X117100000Y-93300000D03*
%TD*%
%TO.C,C119*%
X116100000Y-94200000D03*
X117100000Y-94200000D03*
%TD*%
D11*
%TO.C,C118*%
X119700000Y-92300000D03*
X119700000Y-93300000D03*
%TD*%
%TO.C,C117*%
X119700000Y-95200000D03*
X119700000Y-94200000D03*
%TD*%
D10*
%TO.C,C116*%
X121400000Y-93300000D03*
X122400000Y-93300000D03*
%TD*%
D11*
%TO.C,C115*%
X123400000Y-94800000D03*
X123400000Y-93800000D03*
%TD*%
D10*
%TO.C,C114*%
X124400000Y-94200000D03*
X125400000Y-94200000D03*
%TD*%
D11*
%TO.C,C113*%
X126400000Y-94800000D03*
X126400000Y-93800000D03*
%TD*%
D10*
%TO.C,C112*%
X94750000Y-98750000D03*
X95750000Y-98750000D03*
%TD*%
D11*
%TO.C,C111*%
X102500000Y-92400000D03*
X102500000Y-93400000D03*
%TD*%
D10*
%TO.C,C110*%
X98750000Y-98750000D03*
X97750000Y-98750000D03*
%TD*%
%TO.C,C109*%
X96750000Y-89500000D03*
X97750000Y-89500000D03*
%TD*%
D11*
%TO.C,C108*%
X91900000Y-94400000D03*
X91900000Y-93400000D03*
%TD*%
D10*
%TO.C,C107*%
X102000000Y-102500000D03*
X103000000Y-102500000D03*
%TD*%
D11*
%TO.C,C106*%
X105000000Y-99750000D03*
X105000000Y-100750000D03*
%TD*%
D13*
%TO.C,C105*%
X91147500Y-104650000D03*
X89242500Y-104650000D03*
%TD*%
D14*
%TO.C,C104*%
X88695000Y-112102500D03*
X88695000Y-110197500D03*
%TD*%
D12*
%TO.C,C103*%
X86445000Y-108662000D03*
X86445000Y-107138000D03*
%TD*%
D14*
%TO.C,C102*%
X80445000Y-104447500D03*
X80445000Y-106352500D03*
%TD*%
D13*
%TO.C,C101*%
X77647500Y-104650000D03*
X75742500Y-104650000D03*
%TD*%
D15*
%TO.C,D101*%
X80694300Y-111400000D03*
X79195700Y-111400000D03*
%TD*%
D16*
%TO.C,U103*%
X95000000Y-91800000D03*
X95000000Y-92200000D03*
X95000000Y-92600000D03*
X95000000Y-93000000D03*
X95000000Y-93400000D03*
X95000000Y-93800000D03*
X95000000Y-94200000D03*
X95000000Y-94600000D03*
X95000000Y-95000000D03*
X95000000Y-95400000D03*
X95000000Y-95800000D03*
X95000000Y-96200000D03*
D17*
X95800000Y-97000000D03*
X96200000Y-97000000D03*
X96600000Y-97000000D03*
X97000000Y-97000000D03*
X97400000Y-97000000D03*
X97800000Y-97000000D03*
X98200000Y-97000000D03*
X98600000Y-97000000D03*
X99000000Y-97000000D03*
X99400000Y-97000000D03*
X99800000Y-97000000D03*
X100200000Y-97000000D03*
D16*
X101000000Y-96200000D03*
X101000000Y-95800000D03*
X101000000Y-95400000D03*
X101000000Y-95000000D03*
X101000000Y-94600000D03*
X101000000Y-94200000D03*
X101000000Y-93800000D03*
X101000000Y-93400000D03*
X101000000Y-93000000D03*
X101000000Y-92600000D03*
X101000000Y-92200000D03*
X101000000Y-91800000D03*
D17*
X100200000Y-91000000D03*
X99800000Y-91000000D03*
X99400000Y-91000000D03*
X99000000Y-91000000D03*
X98600000Y-91000000D03*
X98200000Y-91000000D03*
X97800000Y-91000000D03*
X97400000Y-91000000D03*
X97000000Y-91000000D03*
X96600000Y-91000000D03*
X96200000Y-91000000D03*
X95800000Y-91000000D03*
D18*
X95050000Y-91050000D03*
D19*
X98000000Y-94000000D03*
D18*
X100950000Y-96950000D03*
X95050000Y-96950000D03*
X100950000Y-91050000D03*
%TD*%
D15*
%TO.C,D103*%
X92200000Y-82749300D03*
X92200000Y-81250700D03*
%TD*%
%TO.C,D104*%
X90600000Y-82749300D03*
X90600000Y-81250700D03*
%TD*%
%TO.C,D105*%
X89000000Y-82749300D03*
X89000000Y-81250700D03*
%TD*%
D20*
%TO.C,U101*%
X78295000Y-108350000D03*
X78295000Y-107400000D03*
X78295000Y-106450000D03*
X75595000Y-106450000D03*
X75595000Y-108350000D03*
%TD*%
D21*
%TO.C,U105*%
X84000000Y-95400000D03*
D22*
X84000000Y-94300000D03*
X84000000Y-93200000D03*
X84000000Y-92100000D03*
X84000000Y-91000000D03*
X84000000Y-89900000D03*
X84000000Y-88800000D03*
X84000000Y-87700000D03*
D21*
X84000000Y-86600000D03*
X74500000Y-86600000D03*
D22*
X74500000Y-87700000D03*
X74500000Y-88800000D03*
X74500000Y-89900000D03*
X74500000Y-91000000D03*
X74500000Y-92100000D03*
X74500000Y-93200000D03*
X74500000Y-94300000D03*
D21*
X74500000Y-95400000D03*
%TD*%
D23*
%TO.C,D102*%
X84445000Y-110535000D03*
X84445000Y-107265000D03*
%TD*%
D24*
%TO.C,X101*%
X103600000Y-99400000D03*
X101400000Y-99400000D03*
X101400000Y-101100000D03*
X103600000Y-101100000D03*
%TD*%
D25*
%TO.C,Q101*%
X82445000Y-109850000D03*
X82445000Y-107950000D03*
X80445000Y-108900000D03*
%TD*%
D26*
%TO.C,U106*%
X112350000Y-95000000D03*
X112350000Y-94500000D03*
X112350000Y-94000000D03*
X112350000Y-93500000D03*
X112350000Y-93000000D03*
D27*
X111250000Y-91900000D03*
X110750000Y-91900000D03*
X110250000Y-91900000D03*
X109750000Y-91900000D03*
X109250000Y-91900000D03*
D26*
X108150000Y-93000000D03*
X108150000Y-93500000D03*
X108150000Y-94000000D03*
X108150000Y-94500000D03*
X108150000Y-95000000D03*
D27*
X109250000Y-96100000D03*
X109750000Y-96100000D03*
X110250000Y-96100000D03*
X110750000Y-96100000D03*
X111250000Y-96100000D03*
D28*
X110987500Y-94737500D03*
X109512500Y-94737500D03*
X110987500Y-93262500D03*
X109512500Y-93262500D03*
%TD*%
D24*
%TO.C,X102*%
X111850000Y-98650000D03*
X109650000Y-98650000D03*
X109650000Y-100350000D03*
X111850000Y-100350000D03*
%TD*%
D29*
%TO.C,U102*%
X89245000Y-108750000D03*
X90195000Y-108750000D03*
X91145000Y-108750000D03*
X91145000Y-106550000D03*
X89245000Y-106550000D03*
%TD*%
M02*
