%TF.GenerationSoftware,KiCad,Pcbnew,(6.0.7)*%
%TF.CreationDate,2022-08-15T11:29:02+02:00*%
%TF.ProjectId,atsd_tracker,61747364-5f74-4726-9163-6b65722e6b69,rev?*%
%TF.SameCoordinates,Original*%
%TF.FileFunction,Legend,Top*%
%TF.FilePolarity,Positive*%
%FSLAX46Y46*%
G04 Gerber Fmt 4.6, Leading zero omitted, Abs format (unit mm)*
G04 Created by KiCad (PCBNEW (6.0.7)) date 2022-08-15 11:29:02*
%MOMM*%
%LPD*%
G01*
G04 APERTURE LIST*
G04 Aperture macros list*
%AMRoundRect*
0 Rectangle with rounded corners*
0 $1 Rounding radius*
0 $2 $3 $4 $5 $6 $7 $8 $9 X,Y pos of 4 corners*
0 Add a 4 corners polygon primitive as box body*
4,1,4,$2,$3,$4,$5,$6,$7,$8,$9,$2,$3,0*
0 Add four circle primitives for the rounded corners*
1,1,$1+$1,$2,$3*
1,1,$1+$1,$4,$5*
1,1,$1+$1,$6,$7*
1,1,$1+$1,$8,$9*
0 Add four rect primitives between the rounded corners*
20,1,$1+$1,$2,$3,$4,$5,0*
20,1,$1+$1,$4,$5,$6,$7,0*
20,1,$1+$1,$6,$7,$8,$9,0*
20,1,$1+$1,$8,$9,$2,$3,0*%
G04 Aperture macros list end*
%ADD10C,0.300000*%
%ADD11C,0.150000*%
%ADD12C,0.114300*%
%ADD13C,0.109220*%
%ADD14C,0.127000*%
%ADD15C,0.120000*%
%ADD16C,0.099060*%
%ADD17C,0.063500*%
%ADD18C,0.066040*%
%ADD19C,0.250000*%
%ADD20C,2.500000*%
%ADD21C,2.700000*%
%ADD22R,0.500000X0.600000*%
%ADD23R,0.600000X0.500000*%
%ADD24R,1.143000X0.635000*%
%ADD25R,0.889000X1.397000*%
%ADD26R,1.397000X0.889000*%
%ADD27C,4.200000*%
%ADD28R,0.797560X0.797560*%
%ADD29RoundRect,0.250000X0.750000X-0.600000X0.750000X0.600000X-0.750000X0.600000X-0.750000X-0.600000X0*%
%ADD30O,2.000000X1.700000*%
%ADD31RoundRect,0.050000X-0.350000X-0.050000X0.350000X-0.050000X0.350000X0.050000X-0.350000X0.050000X0*%
%ADD32RoundRect,0.050000X0.050000X-0.350000X0.050000X0.350000X-0.050000X0.350000X-0.050000X-0.350000X0*%
%ADD33RoundRect,0.225000X0.225000X-0.225000X0.225000X0.225000X-0.225000X0.225000X-0.225000X-0.225000X0*%
%ADD34C,0.600000*%
%ADD35R,4.700000X4.700000*%
%ADD36R,1.100000X0.600000*%
%ADD37R,1.800000X0.700000*%
%ADD38R,1.800000X0.800000*%
%ADD39R,1.220000X0.910000*%
%ADD40R,1.000000X1.000000*%
%ADD41O,1.000000X1.000000*%
%ADD42R,1.700000X1.700000*%
%ADD43O,1.700000X1.700000*%
%ADD44R,1.400000X1.200000*%
%ADD45R,0.900000X0.800000*%
%ADD46R,0.800000X0.350000*%
%ADD47R,0.350000X0.800000*%
%ADD48R,1.475000X1.475000*%
%ADD49C,0.737500*%
%ADD50R,0.500000X1.000000*%
G04 APERTURE END LIST*
D10*
X79623571Y-100907142D02*
X80766428Y-100907142D01*
X63723571Y-109407142D02*
X64866428Y-109407142D01*
X79623571Y-102807142D02*
X80766428Y-102807142D01*
X80195000Y-103378571D02*
X80195000Y-102235714D01*
X89492857Y-99492857D02*
X89707142Y-99564285D01*
X89778571Y-99635714D01*
X89850000Y-99778571D01*
X89850000Y-99992857D01*
X89778571Y-100135714D01*
X89707142Y-100207142D01*
X89564285Y-100278571D01*
X88992857Y-100278571D01*
X88992857Y-98778571D01*
X89492857Y-98778571D01*
X89635714Y-98850000D01*
X89707142Y-98921428D01*
X89778571Y-99064285D01*
X89778571Y-99207142D01*
X89707142Y-99350000D01*
X89635714Y-99421428D01*
X89492857Y-99492857D01*
X88992857Y-99492857D01*
X90421428Y-99850000D02*
X91135714Y-99850000D01*
X90278571Y-100278571D02*
X90778571Y-98778571D01*
X91278571Y-100278571D01*
X91564285Y-98778571D02*
X92421428Y-98778571D01*
X91992857Y-100278571D02*
X91992857Y-98778571D01*
X63723571Y-106907142D02*
X64866428Y-106907142D01*
X64295000Y-107478571D02*
X64295000Y-106335714D01*
D11*
%TO.C,R128*%
X68089404Y-94987261D02*
X67877738Y-94684880D01*
X67726547Y-94987261D02*
X67726547Y-94352261D01*
X67968452Y-94352261D01*
X68028928Y-94382500D01*
X68059166Y-94412738D01*
X68089404Y-94473214D01*
X68089404Y-94563928D01*
X68059166Y-94624404D01*
X68028928Y-94654642D01*
X67968452Y-94684880D01*
X67726547Y-94684880D01*
X68694166Y-94987261D02*
X68331309Y-94987261D01*
X68512738Y-94987261D02*
X68512738Y-94352261D01*
X68452261Y-94442976D01*
X68391785Y-94503452D01*
X68331309Y-94533690D01*
X68936071Y-94412738D02*
X68966309Y-94382500D01*
X69026785Y-94352261D01*
X69177976Y-94352261D01*
X69238452Y-94382500D01*
X69268690Y-94412738D01*
X69298928Y-94473214D01*
X69298928Y-94533690D01*
X69268690Y-94624404D01*
X68905833Y-94987261D01*
X69298928Y-94987261D01*
X69661785Y-94624404D02*
X69601309Y-94594166D01*
X69571071Y-94563928D01*
X69540833Y-94503452D01*
X69540833Y-94473214D01*
X69571071Y-94412738D01*
X69601309Y-94382500D01*
X69661785Y-94352261D01*
X69782738Y-94352261D01*
X69843214Y-94382500D01*
X69873452Y-94412738D01*
X69903690Y-94473214D01*
X69903690Y-94503452D01*
X69873452Y-94563928D01*
X69843214Y-94594166D01*
X69782738Y-94624404D01*
X69661785Y-94624404D01*
X69601309Y-94654642D01*
X69571071Y-94684880D01*
X69540833Y-94745357D01*
X69540833Y-94866309D01*
X69571071Y-94926785D01*
X69601309Y-94957023D01*
X69661785Y-94987261D01*
X69782738Y-94987261D01*
X69843214Y-94957023D01*
X69873452Y-94926785D01*
X69903690Y-94866309D01*
X69903690Y-94745357D01*
X69873452Y-94684880D01*
X69843214Y-94654642D01*
X69782738Y-94624404D01*
%TO.C,R127*%
X68089404Y-93887261D02*
X67877738Y-93584880D01*
X67726547Y-93887261D02*
X67726547Y-93252261D01*
X67968452Y-93252261D01*
X68028928Y-93282500D01*
X68059166Y-93312738D01*
X68089404Y-93373214D01*
X68089404Y-93463928D01*
X68059166Y-93524404D01*
X68028928Y-93554642D01*
X67968452Y-93584880D01*
X67726547Y-93584880D01*
X68694166Y-93887261D02*
X68331309Y-93887261D01*
X68512738Y-93887261D02*
X68512738Y-93252261D01*
X68452261Y-93342976D01*
X68391785Y-93403452D01*
X68331309Y-93433690D01*
X68936071Y-93312738D02*
X68966309Y-93282500D01*
X69026785Y-93252261D01*
X69177976Y-93252261D01*
X69238452Y-93282500D01*
X69268690Y-93312738D01*
X69298928Y-93373214D01*
X69298928Y-93433690D01*
X69268690Y-93524404D01*
X68905833Y-93887261D01*
X69298928Y-93887261D01*
X69510595Y-93252261D02*
X69933928Y-93252261D01*
X69661785Y-93887261D01*
%TO.C,R126*%
X72987261Y-99410595D02*
X72684880Y-99622261D01*
X72987261Y-99773452D02*
X72352261Y-99773452D01*
X72352261Y-99531547D01*
X72382500Y-99471071D01*
X72412738Y-99440833D01*
X72473214Y-99410595D01*
X72563928Y-99410595D01*
X72624404Y-99440833D01*
X72654642Y-99471071D01*
X72684880Y-99531547D01*
X72684880Y-99773452D01*
X72987261Y-98805833D02*
X72987261Y-99168690D01*
X72987261Y-98987261D02*
X72352261Y-98987261D01*
X72442976Y-99047738D01*
X72503452Y-99108214D01*
X72533690Y-99168690D01*
X72412738Y-98563928D02*
X72382500Y-98533690D01*
X72352261Y-98473214D01*
X72352261Y-98322023D01*
X72382500Y-98261547D01*
X72412738Y-98231309D01*
X72473214Y-98201071D01*
X72533690Y-98201071D01*
X72624404Y-98231309D01*
X72987261Y-98594166D01*
X72987261Y-98201071D01*
X72352261Y-97656785D02*
X72352261Y-97777738D01*
X72382500Y-97838214D01*
X72412738Y-97868452D01*
X72503452Y-97928928D01*
X72624404Y-97959166D01*
X72866309Y-97959166D01*
X72926785Y-97928928D01*
X72957023Y-97898690D01*
X72987261Y-97838214D01*
X72987261Y-97717261D01*
X72957023Y-97656785D01*
X72926785Y-97626547D01*
X72866309Y-97596309D01*
X72715119Y-97596309D01*
X72654642Y-97626547D01*
X72624404Y-97656785D01*
X72594166Y-97717261D01*
X72594166Y-97838214D01*
X72624404Y-97898690D01*
X72654642Y-97928928D01*
X72715119Y-97959166D01*
%TO.C,R125*%
X69789403Y-92557260D02*
X69577737Y-92254879D01*
X69426546Y-92557260D02*
X69426546Y-91922260D01*
X69668451Y-91922260D01*
X69728927Y-91952499D01*
X69759165Y-91982737D01*
X69789403Y-92043213D01*
X69789403Y-92133927D01*
X69759165Y-92194403D01*
X69728927Y-92224641D01*
X69668451Y-92254879D01*
X69426546Y-92254879D01*
X70394165Y-92557260D02*
X70031308Y-92557260D01*
X70212737Y-92557260D02*
X70212737Y-91922260D01*
X70152260Y-92012975D01*
X70091784Y-92073451D01*
X70031308Y-92103689D01*
X70636070Y-91982737D02*
X70666308Y-91952499D01*
X70726784Y-91922260D01*
X70877975Y-91922260D01*
X70938451Y-91952499D01*
X70968689Y-91982737D01*
X70998927Y-92043213D01*
X70998927Y-92103689D01*
X70968689Y-92194403D01*
X70605832Y-92557260D01*
X70998927Y-92557260D01*
X71573451Y-91922260D02*
X71271070Y-91922260D01*
X71240832Y-92224641D01*
X71271070Y-92194403D01*
X71331546Y-92164165D01*
X71482737Y-92164165D01*
X71543213Y-92194403D01*
X71573451Y-92224641D01*
X71603689Y-92285118D01*
X71603689Y-92436308D01*
X71573451Y-92496784D01*
X71543213Y-92527022D01*
X71482737Y-92557260D01*
X71331546Y-92557260D01*
X71271070Y-92527022D01*
X71240832Y-92496784D01*
%TO.C,R124*%
X92289404Y-92587261D02*
X92077738Y-92284880D01*
X91926547Y-92587261D02*
X91926547Y-91952261D01*
X92168452Y-91952261D01*
X92228928Y-91982500D01*
X92259166Y-92012738D01*
X92289404Y-92073214D01*
X92289404Y-92163928D01*
X92259166Y-92224404D01*
X92228928Y-92254642D01*
X92168452Y-92284880D01*
X91926547Y-92284880D01*
X92894166Y-92587261D02*
X92531309Y-92587261D01*
X92712738Y-92587261D02*
X92712738Y-91952261D01*
X92652261Y-92042976D01*
X92591785Y-92103452D01*
X92531309Y-92133690D01*
X93136071Y-92012738D02*
X93166309Y-91982500D01*
X93226785Y-91952261D01*
X93377976Y-91952261D01*
X93438452Y-91982500D01*
X93468690Y-92012738D01*
X93498928Y-92073214D01*
X93498928Y-92133690D01*
X93468690Y-92224404D01*
X93105833Y-92587261D01*
X93498928Y-92587261D01*
X94043214Y-92163928D02*
X94043214Y-92587261D01*
X93892023Y-91922023D02*
X93740833Y-92375595D01*
X94133928Y-92375595D01*
%TO.C,R123*%
X91287261Y-91210595D02*
X90984880Y-91422261D01*
X91287261Y-91573452D02*
X90652261Y-91573452D01*
X90652261Y-91331547D01*
X90682500Y-91271071D01*
X90712738Y-91240833D01*
X90773214Y-91210595D01*
X90863928Y-91210595D01*
X90924404Y-91240833D01*
X90954642Y-91271071D01*
X90984880Y-91331547D01*
X90984880Y-91573452D01*
X91287261Y-90605833D02*
X91287261Y-90968690D01*
X91287261Y-90787261D02*
X90652261Y-90787261D01*
X90742976Y-90847738D01*
X90803452Y-90908214D01*
X90833690Y-90968690D01*
X90712738Y-90363928D02*
X90682500Y-90333690D01*
X90652261Y-90273214D01*
X90652261Y-90122023D01*
X90682500Y-90061547D01*
X90712738Y-90031309D01*
X90773214Y-90001071D01*
X90833690Y-90001071D01*
X90924404Y-90031309D01*
X91287261Y-90394166D01*
X91287261Y-90001071D01*
X90652261Y-89789404D02*
X90652261Y-89396309D01*
X90894166Y-89607976D01*
X90894166Y-89517261D01*
X90924404Y-89456785D01*
X90954642Y-89426547D01*
X91015119Y-89396309D01*
X91166309Y-89396309D01*
X91226785Y-89426547D01*
X91257023Y-89456785D01*
X91287261Y-89517261D01*
X91287261Y-89698690D01*
X91257023Y-89759166D01*
X91226785Y-89789404D01*
%TO.C,R122*%
X89287261Y-88110595D02*
X88984880Y-88322261D01*
X89287261Y-88473452D02*
X88652261Y-88473452D01*
X88652261Y-88231547D01*
X88682500Y-88171071D01*
X88712738Y-88140833D01*
X88773214Y-88110595D01*
X88863928Y-88110595D01*
X88924404Y-88140833D01*
X88954642Y-88171071D01*
X88984880Y-88231547D01*
X88984880Y-88473452D01*
X89287261Y-87505833D02*
X89287261Y-87868690D01*
X89287261Y-87687261D02*
X88652261Y-87687261D01*
X88742976Y-87747738D01*
X88803452Y-87808214D01*
X88833690Y-87868690D01*
X88712738Y-87263928D02*
X88682500Y-87233690D01*
X88652261Y-87173214D01*
X88652261Y-87022023D01*
X88682500Y-86961547D01*
X88712738Y-86931309D01*
X88773214Y-86901071D01*
X88833690Y-86901071D01*
X88924404Y-86931309D01*
X89287261Y-87294166D01*
X89287261Y-86901071D01*
X88712738Y-86659166D02*
X88682500Y-86628928D01*
X88652261Y-86568452D01*
X88652261Y-86417261D01*
X88682500Y-86356785D01*
X88712738Y-86326547D01*
X88773214Y-86296309D01*
X88833690Y-86296309D01*
X88924404Y-86326547D01*
X89287261Y-86689404D01*
X89287261Y-86296309D01*
%TO.C,R121*%
X90887261Y-88110595D02*
X90584880Y-88322261D01*
X90887261Y-88473452D02*
X90252261Y-88473452D01*
X90252261Y-88231547D01*
X90282500Y-88171071D01*
X90312738Y-88140833D01*
X90373214Y-88110595D01*
X90463928Y-88110595D01*
X90524404Y-88140833D01*
X90554642Y-88171071D01*
X90584880Y-88231547D01*
X90584880Y-88473452D01*
X90887261Y-87505833D02*
X90887261Y-87868690D01*
X90887261Y-87687261D02*
X90252261Y-87687261D01*
X90342976Y-87747738D01*
X90403452Y-87808214D01*
X90433690Y-87868690D01*
X90312738Y-87263928D02*
X90282500Y-87233690D01*
X90252261Y-87173214D01*
X90252261Y-87022023D01*
X90282500Y-86961547D01*
X90312738Y-86931309D01*
X90373214Y-86901071D01*
X90433690Y-86901071D01*
X90524404Y-86931309D01*
X90887261Y-87294166D01*
X90887261Y-86901071D01*
X90887261Y-86296309D02*
X90887261Y-86659166D01*
X90887261Y-86477738D02*
X90252261Y-86477738D01*
X90342976Y-86538214D01*
X90403452Y-86598690D01*
X90433690Y-86659166D01*
%TO.C,R120*%
X92487261Y-88110595D02*
X92184880Y-88322261D01*
X92487261Y-88473452D02*
X91852261Y-88473452D01*
X91852261Y-88231547D01*
X91882500Y-88171071D01*
X91912738Y-88140833D01*
X91973214Y-88110595D01*
X92063928Y-88110595D01*
X92124404Y-88140833D01*
X92154642Y-88171071D01*
X92184880Y-88231547D01*
X92184880Y-88473452D01*
X92487261Y-87505833D02*
X92487261Y-87868690D01*
X92487261Y-87687261D02*
X91852261Y-87687261D01*
X91942976Y-87747738D01*
X92003452Y-87808214D01*
X92033690Y-87868690D01*
X91912738Y-87263928D02*
X91882500Y-87233690D01*
X91852261Y-87173214D01*
X91852261Y-87022023D01*
X91882500Y-86961547D01*
X91912738Y-86931309D01*
X91973214Y-86901071D01*
X92033690Y-86901071D01*
X92124404Y-86931309D01*
X92487261Y-87294166D01*
X92487261Y-86901071D01*
X91852261Y-86507976D02*
X91852261Y-86447500D01*
X91882500Y-86387023D01*
X91912738Y-86356785D01*
X91973214Y-86326547D01*
X92094166Y-86296309D01*
X92245357Y-86296309D01*
X92366309Y-86326547D01*
X92426785Y-86356785D01*
X92457023Y-86387023D01*
X92487261Y-86447500D01*
X92487261Y-86507976D01*
X92457023Y-86568452D01*
X92426785Y-86598690D01*
X92366309Y-86628928D01*
X92245357Y-86659166D01*
X92094166Y-86659166D01*
X91973214Y-86628928D01*
X91912738Y-86598690D01*
X91882500Y-86568452D01*
X91852261Y-86507976D01*
%TO.C,R119*%
X90487261Y-113010595D02*
X90184880Y-113222261D01*
X90487261Y-113373452D02*
X89852261Y-113373452D01*
X89852261Y-113131547D01*
X89882500Y-113071071D01*
X89912738Y-113040833D01*
X89973214Y-113010595D01*
X90063928Y-113010595D01*
X90124404Y-113040833D01*
X90154642Y-113071071D01*
X90184880Y-113131547D01*
X90184880Y-113373452D01*
X90487261Y-112405833D02*
X90487261Y-112768690D01*
X90487261Y-112587261D02*
X89852261Y-112587261D01*
X89942976Y-112647738D01*
X90003452Y-112708214D01*
X90033690Y-112768690D01*
X90487261Y-111801071D02*
X90487261Y-112163928D01*
X90487261Y-111982500D02*
X89852261Y-111982500D01*
X89942976Y-112042976D01*
X90003452Y-112103452D01*
X90033690Y-112163928D01*
X90487261Y-111498690D02*
X90487261Y-111377738D01*
X90457023Y-111317261D01*
X90426785Y-111287023D01*
X90336071Y-111226547D01*
X90215119Y-111196309D01*
X89973214Y-111196309D01*
X89912738Y-111226547D01*
X89882500Y-111256785D01*
X89852261Y-111317261D01*
X89852261Y-111438214D01*
X89882500Y-111498690D01*
X89912738Y-111528928D01*
X89973214Y-111559166D01*
X90124404Y-111559166D01*
X90184880Y-111528928D01*
X90215119Y-111498690D01*
X90245357Y-111438214D01*
X90245357Y-111317261D01*
X90215119Y-111256785D01*
X90184880Y-111226547D01*
X90124404Y-111196309D01*
%TO.C,R118*%
X92487261Y-112560595D02*
X92184880Y-112772261D01*
X92487261Y-112923452D02*
X91852261Y-112923452D01*
X91852261Y-112681547D01*
X91882500Y-112621071D01*
X91912738Y-112590833D01*
X91973214Y-112560595D01*
X92063928Y-112560595D01*
X92124404Y-112590833D01*
X92154642Y-112621071D01*
X92184880Y-112681547D01*
X92184880Y-112923452D01*
X92487261Y-111955833D02*
X92487261Y-112318690D01*
X92487261Y-112137261D02*
X91852261Y-112137261D01*
X91942976Y-112197738D01*
X92003452Y-112258214D01*
X92033690Y-112318690D01*
X92487261Y-111351071D02*
X92487261Y-111713928D01*
X92487261Y-111532500D02*
X91852261Y-111532500D01*
X91942976Y-111592976D01*
X92003452Y-111653452D01*
X92033690Y-111713928D01*
X92124404Y-110988214D02*
X92094166Y-111048690D01*
X92063928Y-111078928D01*
X92003452Y-111109166D01*
X91973214Y-111109166D01*
X91912738Y-111078928D01*
X91882500Y-111048690D01*
X91852261Y-110988214D01*
X91852261Y-110867261D01*
X91882500Y-110806785D01*
X91912738Y-110776547D01*
X91973214Y-110746309D01*
X92003452Y-110746309D01*
X92063928Y-110776547D01*
X92094166Y-110806785D01*
X92124404Y-110867261D01*
X92124404Y-110988214D01*
X92154642Y-111048690D01*
X92184880Y-111078928D01*
X92245357Y-111109166D01*
X92366309Y-111109166D01*
X92426785Y-111078928D01*
X92457023Y-111048690D01*
X92487261Y-110988214D01*
X92487261Y-110867261D01*
X92457023Y-110806785D01*
X92426785Y-110776547D01*
X92366309Y-110746309D01*
X92245357Y-110746309D01*
X92184880Y-110776547D01*
X92154642Y-110806785D01*
X92124404Y-110867261D01*
D12*
%TO.C,R117*%
X94878643Y-109423628D02*
X94636738Y-109576028D01*
X94878643Y-109684885D02*
X94370643Y-109684885D01*
X94370643Y-109510714D01*
X94394834Y-109467171D01*
X94419024Y-109445400D01*
X94467405Y-109423628D01*
X94539976Y-109423628D01*
X94588357Y-109445400D01*
X94612548Y-109467171D01*
X94636738Y-109510714D01*
X94636738Y-109684885D01*
X94878643Y-108988200D02*
X94878643Y-109249457D01*
X94878643Y-109118828D02*
X94370643Y-109118828D01*
X94443214Y-109162371D01*
X94491595Y-109205914D01*
X94515786Y-109249457D01*
X94878643Y-108552771D02*
X94878643Y-108814028D01*
X94878643Y-108683400D02*
X94370643Y-108683400D01*
X94443214Y-108726942D01*
X94491595Y-108770485D01*
X94515786Y-108814028D01*
X94370643Y-108400371D02*
X94370643Y-108095571D01*
X94878643Y-108291514D01*
%TO.C,R116*%
X94878643Y-111923628D02*
X94636738Y-112076028D01*
X94878643Y-112184885D02*
X94370643Y-112184885D01*
X94370643Y-112010714D01*
X94394834Y-111967171D01*
X94419024Y-111945400D01*
X94467405Y-111923628D01*
X94539976Y-111923628D01*
X94588357Y-111945400D01*
X94612548Y-111967171D01*
X94636738Y-112010714D01*
X94636738Y-112184885D01*
X94878643Y-111488200D02*
X94878643Y-111749457D01*
X94878643Y-111618828D02*
X94370643Y-111618828D01*
X94443214Y-111662371D01*
X94491595Y-111705914D01*
X94515786Y-111749457D01*
X94878643Y-111052771D02*
X94878643Y-111314028D01*
X94878643Y-111183400D02*
X94370643Y-111183400D01*
X94443214Y-111226942D01*
X94491595Y-111270485D01*
X94515786Y-111314028D01*
X94370643Y-110660885D02*
X94370643Y-110747971D01*
X94394834Y-110791514D01*
X94419024Y-110813285D01*
X94491595Y-110856828D01*
X94588357Y-110878600D01*
X94781881Y-110878600D01*
X94830262Y-110856828D01*
X94854453Y-110835057D01*
X94878643Y-110791514D01*
X94878643Y-110704428D01*
X94854453Y-110660885D01*
X94830262Y-110639114D01*
X94781881Y-110617342D01*
X94660929Y-110617342D01*
X94612548Y-110639114D01*
X94588357Y-110660885D01*
X94564167Y-110704428D01*
X94564167Y-110791514D01*
X94588357Y-110835057D01*
X94612548Y-110856828D01*
X94660929Y-110878600D01*
D11*
%TO.C,R115*%
X100387261Y-102360595D02*
X100084880Y-102572261D01*
X100387261Y-102723452D02*
X99752261Y-102723452D01*
X99752261Y-102481547D01*
X99782500Y-102421071D01*
X99812738Y-102390833D01*
X99873214Y-102360595D01*
X99963928Y-102360595D01*
X100024404Y-102390833D01*
X100054642Y-102421071D01*
X100084880Y-102481547D01*
X100084880Y-102723452D01*
X100387261Y-101755833D02*
X100387261Y-102118690D01*
X100387261Y-101937261D02*
X99752261Y-101937261D01*
X99842976Y-101997738D01*
X99903452Y-102058214D01*
X99933690Y-102118690D01*
X100387261Y-101151071D02*
X100387261Y-101513928D01*
X100387261Y-101332500D02*
X99752261Y-101332500D01*
X99842976Y-101392976D01*
X99903452Y-101453452D01*
X99933690Y-101513928D01*
X99752261Y-100576547D02*
X99752261Y-100878928D01*
X100054642Y-100909166D01*
X100024404Y-100878928D01*
X99994166Y-100818452D01*
X99994166Y-100667261D01*
X100024404Y-100606785D01*
X100054642Y-100576547D01*
X100115119Y-100546309D01*
X100266309Y-100546309D01*
X100326785Y-100576547D01*
X100357023Y-100606785D01*
X100387261Y-100667261D01*
X100387261Y-100818452D01*
X100357023Y-100878928D01*
X100326785Y-100909166D01*
%TO.C,R114*%
X95787261Y-102360595D02*
X95484880Y-102572261D01*
X95787261Y-102723452D02*
X95152261Y-102723452D01*
X95152261Y-102481547D01*
X95182500Y-102421071D01*
X95212738Y-102390833D01*
X95273214Y-102360595D01*
X95363928Y-102360595D01*
X95424404Y-102390833D01*
X95454642Y-102421071D01*
X95484880Y-102481547D01*
X95484880Y-102723452D01*
X95787261Y-101755833D02*
X95787261Y-102118690D01*
X95787261Y-101937261D02*
X95152261Y-101937261D01*
X95242976Y-101997738D01*
X95303452Y-102058214D01*
X95333690Y-102118690D01*
X95787261Y-101151071D02*
X95787261Y-101513928D01*
X95787261Y-101332500D02*
X95152261Y-101332500D01*
X95242976Y-101392976D01*
X95303452Y-101453452D01*
X95333690Y-101513928D01*
X95363928Y-100606785D02*
X95787261Y-100606785D01*
X95122023Y-100757976D02*
X95575595Y-100909166D01*
X95575595Y-100516071D01*
%TO.C,R113*%
X94787261Y-102360595D02*
X94484880Y-102572261D01*
X94787261Y-102723452D02*
X94152261Y-102723452D01*
X94152261Y-102481547D01*
X94182500Y-102421071D01*
X94212738Y-102390833D01*
X94273214Y-102360595D01*
X94363928Y-102360595D01*
X94424404Y-102390833D01*
X94454642Y-102421071D01*
X94484880Y-102481547D01*
X94484880Y-102723452D01*
X94787261Y-101755833D02*
X94787261Y-102118690D01*
X94787261Y-101937261D02*
X94152261Y-101937261D01*
X94242976Y-101997738D01*
X94303452Y-102058214D01*
X94333690Y-102118690D01*
X94787261Y-101151071D02*
X94787261Y-101513928D01*
X94787261Y-101332500D02*
X94152261Y-101332500D01*
X94242976Y-101392976D01*
X94303452Y-101453452D01*
X94333690Y-101513928D01*
X94152261Y-100939404D02*
X94152261Y-100546309D01*
X94394166Y-100757976D01*
X94394166Y-100667261D01*
X94424404Y-100606785D01*
X94454642Y-100576547D01*
X94515119Y-100546309D01*
X94666309Y-100546309D01*
X94726785Y-100576547D01*
X94757023Y-100606785D01*
X94787261Y-100667261D01*
X94787261Y-100848690D01*
X94757023Y-100909166D01*
X94726785Y-100939404D01*
%TO.C,R112*%
X103387261Y-80210595D02*
X103084880Y-80422261D01*
X103387261Y-80573452D02*
X102752261Y-80573452D01*
X102752261Y-80331547D01*
X102782500Y-80271071D01*
X102812738Y-80240833D01*
X102873214Y-80210595D01*
X102963928Y-80210595D01*
X103024404Y-80240833D01*
X103054642Y-80271071D01*
X103084880Y-80331547D01*
X103084880Y-80573452D01*
X103387261Y-79605833D02*
X103387261Y-79968690D01*
X103387261Y-79787261D02*
X102752261Y-79787261D01*
X102842976Y-79847738D01*
X102903452Y-79908214D01*
X102933690Y-79968690D01*
X103387261Y-79001071D02*
X103387261Y-79363928D01*
X103387261Y-79182500D02*
X102752261Y-79182500D01*
X102842976Y-79242976D01*
X102903452Y-79303452D01*
X102933690Y-79363928D01*
X102812738Y-78759166D02*
X102782500Y-78728928D01*
X102752261Y-78668452D01*
X102752261Y-78517261D01*
X102782500Y-78456785D01*
X102812738Y-78426547D01*
X102873214Y-78396309D01*
X102933690Y-78396309D01*
X103024404Y-78426547D01*
X103387261Y-78789404D01*
X103387261Y-78396309D01*
%TO.C,R111*%
X101687261Y-80210595D02*
X101384880Y-80422261D01*
X101687261Y-80573452D02*
X101052261Y-80573452D01*
X101052261Y-80331547D01*
X101082500Y-80271071D01*
X101112738Y-80240833D01*
X101173214Y-80210595D01*
X101263928Y-80210595D01*
X101324404Y-80240833D01*
X101354642Y-80271071D01*
X101384880Y-80331547D01*
X101384880Y-80573452D01*
X101687261Y-79605833D02*
X101687261Y-79968690D01*
X101687261Y-79787261D02*
X101052261Y-79787261D01*
X101142976Y-79847738D01*
X101203452Y-79908214D01*
X101233690Y-79968690D01*
X101687261Y-79001071D02*
X101687261Y-79363928D01*
X101687261Y-79182500D02*
X101052261Y-79182500D01*
X101142976Y-79242976D01*
X101203452Y-79303452D01*
X101233690Y-79363928D01*
X101687261Y-78396309D02*
X101687261Y-78759166D01*
X101687261Y-78577738D02*
X101052261Y-78577738D01*
X101142976Y-78638214D01*
X101203452Y-78698690D01*
X101233690Y-78759166D01*
%TO.C,R110*%
X95517261Y-80210595D02*
X95214880Y-80422261D01*
X95517261Y-80573452D02*
X94882261Y-80573452D01*
X94882261Y-80331547D01*
X94912500Y-80271071D01*
X94942738Y-80240833D01*
X95003214Y-80210595D01*
X95093928Y-80210595D01*
X95154404Y-80240833D01*
X95184642Y-80271071D01*
X95214880Y-80331547D01*
X95214880Y-80573452D01*
X95517261Y-79605833D02*
X95517261Y-79968690D01*
X95517261Y-79787261D02*
X94882261Y-79787261D01*
X94972976Y-79847738D01*
X95033452Y-79908214D01*
X95063690Y-79968690D01*
X95517261Y-79001071D02*
X95517261Y-79363928D01*
X95517261Y-79182500D02*
X94882261Y-79182500D01*
X94972976Y-79242976D01*
X95033452Y-79303452D01*
X95063690Y-79363928D01*
X94882261Y-78607976D02*
X94882261Y-78547500D01*
X94912500Y-78487023D01*
X94942738Y-78456785D01*
X95003214Y-78426547D01*
X95124166Y-78396309D01*
X95275357Y-78396309D01*
X95396309Y-78426547D01*
X95456785Y-78456785D01*
X95487023Y-78487023D01*
X95517261Y-78547500D01*
X95517261Y-78607976D01*
X95487023Y-78668452D01*
X95456785Y-78698690D01*
X95396309Y-78728928D01*
X95275357Y-78759166D01*
X95124166Y-78759166D01*
X95003214Y-78728928D01*
X94942738Y-78698690D01*
X94912500Y-78668452D01*
X94882261Y-78607976D01*
D12*
%TO.C,R109*%
X85129809Y-112811628D02*
X84887904Y-112964028D01*
X85129809Y-113072885D02*
X84621809Y-113072885D01*
X84621809Y-112898714D01*
X84646000Y-112855171D01*
X84670190Y-112833400D01*
X84718571Y-112811628D01*
X84791142Y-112811628D01*
X84839523Y-112833400D01*
X84863714Y-112855171D01*
X84887904Y-112898714D01*
X84887904Y-113072885D01*
X85129809Y-112376200D02*
X85129809Y-112637457D01*
X85129809Y-112506828D02*
X84621809Y-112506828D01*
X84694380Y-112550371D01*
X84742761Y-112593914D01*
X84766952Y-112637457D01*
X84621809Y-112093171D02*
X84621809Y-112049628D01*
X84646000Y-112006085D01*
X84670190Y-111984314D01*
X84718571Y-111962542D01*
X84815333Y-111940771D01*
X84936285Y-111940771D01*
X85033047Y-111962542D01*
X85081428Y-111984314D01*
X85105619Y-112006085D01*
X85129809Y-112049628D01*
X85129809Y-112093171D01*
X85105619Y-112136714D01*
X85081428Y-112158485D01*
X85033047Y-112180257D01*
X84936285Y-112202028D01*
X84815333Y-112202028D01*
X84718571Y-112180257D01*
X84670190Y-112158485D01*
X84646000Y-112136714D01*
X84621809Y-112093171D01*
X85129809Y-111723057D02*
X85129809Y-111635971D01*
X85105619Y-111592428D01*
X85081428Y-111570657D01*
X85008857Y-111527114D01*
X84912095Y-111505342D01*
X84718571Y-111505342D01*
X84670190Y-111527114D01*
X84646000Y-111548885D01*
X84621809Y-111592428D01*
X84621809Y-111679514D01*
X84646000Y-111723057D01*
X84670190Y-111744828D01*
X84718571Y-111766600D01*
X84839523Y-111766600D01*
X84887904Y-111744828D01*
X84912095Y-111723057D01*
X84936285Y-111679514D01*
X84936285Y-111592428D01*
X84912095Y-111548885D01*
X84887904Y-111527114D01*
X84839523Y-111505342D01*
D11*
%TO.C,R108*%
X99287261Y-111910595D02*
X98984880Y-112122261D01*
X99287261Y-112273452D02*
X98652261Y-112273452D01*
X98652261Y-112031547D01*
X98682500Y-111971071D01*
X98712738Y-111940833D01*
X98773214Y-111910595D01*
X98863928Y-111910595D01*
X98924404Y-111940833D01*
X98954642Y-111971071D01*
X98984880Y-112031547D01*
X98984880Y-112273452D01*
X99287261Y-111305833D02*
X99287261Y-111668690D01*
X99287261Y-111487261D02*
X98652261Y-111487261D01*
X98742976Y-111547738D01*
X98803452Y-111608214D01*
X98833690Y-111668690D01*
X98652261Y-110912738D02*
X98652261Y-110852261D01*
X98682500Y-110791785D01*
X98712738Y-110761547D01*
X98773214Y-110731309D01*
X98894166Y-110701071D01*
X99045357Y-110701071D01*
X99166309Y-110731309D01*
X99226785Y-110761547D01*
X99257023Y-110791785D01*
X99287261Y-110852261D01*
X99287261Y-110912738D01*
X99257023Y-110973214D01*
X99226785Y-111003452D01*
X99166309Y-111033690D01*
X99045357Y-111063928D01*
X98894166Y-111063928D01*
X98773214Y-111033690D01*
X98712738Y-111003452D01*
X98682500Y-110973214D01*
X98652261Y-110912738D01*
X98924404Y-110338214D02*
X98894166Y-110398690D01*
X98863928Y-110428928D01*
X98803452Y-110459166D01*
X98773214Y-110459166D01*
X98712738Y-110428928D01*
X98682500Y-110398690D01*
X98652261Y-110338214D01*
X98652261Y-110217261D01*
X98682500Y-110156785D01*
X98712738Y-110126547D01*
X98773214Y-110096309D01*
X98803452Y-110096309D01*
X98863928Y-110126547D01*
X98894166Y-110156785D01*
X98924404Y-110217261D01*
X98924404Y-110338214D01*
X98954642Y-110398690D01*
X98984880Y-110428928D01*
X99045357Y-110459166D01*
X99166309Y-110459166D01*
X99226785Y-110428928D01*
X99257023Y-110398690D01*
X99287261Y-110338214D01*
X99287261Y-110217261D01*
X99257023Y-110156785D01*
X99226785Y-110126547D01*
X99166309Y-110096309D01*
X99045357Y-110096309D01*
X98984880Y-110126547D01*
X98954642Y-110156785D01*
X98924404Y-110217261D01*
%TO.C,R107*%
X97987261Y-111910595D02*
X97684880Y-112122261D01*
X97987261Y-112273452D02*
X97352261Y-112273452D01*
X97352261Y-112031547D01*
X97382500Y-111971071D01*
X97412738Y-111940833D01*
X97473214Y-111910595D01*
X97563928Y-111910595D01*
X97624404Y-111940833D01*
X97654642Y-111971071D01*
X97684880Y-112031547D01*
X97684880Y-112273452D01*
X97987261Y-111305833D02*
X97987261Y-111668690D01*
X97987261Y-111487261D02*
X97352261Y-111487261D01*
X97442976Y-111547738D01*
X97503452Y-111608214D01*
X97533690Y-111668690D01*
X97352261Y-110912738D02*
X97352261Y-110852261D01*
X97382500Y-110791785D01*
X97412738Y-110761547D01*
X97473214Y-110731309D01*
X97594166Y-110701071D01*
X97745357Y-110701071D01*
X97866309Y-110731309D01*
X97926785Y-110761547D01*
X97957023Y-110791785D01*
X97987261Y-110852261D01*
X97987261Y-110912738D01*
X97957023Y-110973214D01*
X97926785Y-111003452D01*
X97866309Y-111033690D01*
X97745357Y-111063928D01*
X97594166Y-111063928D01*
X97473214Y-111033690D01*
X97412738Y-111003452D01*
X97382500Y-110973214D01*
X97352261Y-110912738D01*
X97352261Y-110489404D02*
X97352261Y-110066071D01*
X97987261Y-110338214D01*
%TO.C,R106*%
X96787261Y-111910595D02*
X96484880Y-112122261D01*
X96787261Y-112273452D02*
X96152261Y-112273452D01*
X96152261Y-112031547D01*
X96182500Y-111971071D01*
X96212738Y-111940833D01*
X96273214Y-111910595D01*
X96363928Y-111910595D01*
X96424404Y-111940833D01*
X96454642Y-111971071D01*
X96484880Y-112031547D01*
X96484880Y-112273452D01*
X96787261Y-111305833D02*
X96787261Y-111668690D01*
X96787261Y-111487261D02*
X96152261Y-111487261D01*
X96242976Y-111547738D01*
X96303452Y-111608214D01*
X96333690Y-111668690D01*
X96152261Y-110912738D02*
X96152261Y-110852261D01*
X96182500Y-110791785D01*
X96212738Y-110761547D01*
X96273214Y-110731309D01*
X96394166Y-110701071D01*
X96545357Y-110701071D01*
X96666309Y-110731309D01*
X96726785Y-110761547D01*
X96757023Y-110791785D01*
X96787261Y-110852261D01*
X96787261Y-110912738D01*
X96757023Y-110973214D01*
X96726785Y-111003452D01*
X96666309Y-111033690D01*
X96545357Y-111063928D01*
X96394166Y-111063928D01*
X96273214Y-111033690D01*
X96212738Y-111003452D01*
X96182500Y-110973214D01*
X96152261Y-110912738D01*
X96152261Y-110156785D02*
X96152261Y-110277738D01*
X96182500Y-110338214D01*
X96212738Y-110368452D01*
X96303452Y-110428928D01*
X96424404Y-110459166D01*
X96666309Y-110459166D01*
X96726785Y-110428928D01*
X96757023Y-110398690D01*
X96787261Y-110338214D01*
X96787261Y-110217261D01*
X96757023Y-110156785D01*
X96726785Y-110126547D01*
X96666309Y-110096309D01*
X96515119Y-110096309D01*
X96454642Y-110126547D01*
X96424404Y-110156785D01*
X96394166Y-110217261D01*
X96394166Y-110338214D01*
X96424404Y-110398690D01*
X96454642Y-110428928D01*
X96515119Y-110459166D01*
%TO.C,R105*%
X102887261Y-87210595D02*
X102584880Y-87422261D01*
X102887261Y-87573452D02*
X102252261Y-87573452D01*
X102252261Y-87331547D01*
X102282500Y-87271071D01*
X102312738Y-87240833D01*
X102373214Y-87210595D01*
X102463928Y-87210595D01*
X102524404Y-87240833D01*
X102554642Y-87271071D01*
X102584880Y-87331547D01*
X102584880Y-87573452D01*
X102887261Y-86605833D02*
X102887261Y-86968690D01*
X102887261Y-86787261D02*
X102252261Y-86787261D01*
X102342976Y-86847738D01*
X102403452Y-86908214D01*
X102433690Y-86968690D01*
X102252261Y-86212738D02*
X102252261Y-86152261D01*
X102282500Y-86091785D01*
X102312738Y-86061547D01*
X102373214Y-86031309D01*
X102494166Y-86001071D01*
X102645357Y-86001071D01*
X102766309Y-86031309D01*
X102826785Y-86061547D01*
X102857023Y-86091785D01*
X102887261Y-86152261D01*
X102887261Y-86212738D01*
X102857023Y-86273214D01*
X102826785Y-86303452D01*
X102766309Y-86333690D01*
X102645357Y-86363928D01*
X102494166Y-86363928D01*
X102373214Y-86333690D01*
X102312738Y-86303452D01*
X102282500Y-86273214D01*
X102252261Y-86212738D01*
X102252261Y-85426547D02*
X102252261Y-85728928D01*
X102554642Y-85759166D01*
X102524404Y-85728928D01*
X102494166Y-85668452D01*
X102494166Y-85517261D01*
X102524404Y-85456785D01*
X102554642Y-85426547D01*
X102615119Y-85396309D01*
X102766309Y-85396309D01*
X102826785Y-85426547D01*
X102857023Y-85456785D01*
X102887261Y-85517261D01*
X102887261Y-85668452D01*
X102857023Y-85728928D01*
X102826785Y-85759166D01*
%TO.C,R104*%
X101287261Y-87210595D02*
X100984880Y-87422261D01*
X101287261Y-87573452D02*
X100652261Y-87573452D01*
X100652261Y-87331547D01*
X100682500Y-87271071D01*
X100712738Y-87240833D01*
X100773214Y-87210595D01*
X100863928Y-87210595D01*
X100924404Y-87240833D01*
X100954642Y-87271071D01*
X100984880Y-87331547D01*
X100984880Y-87573452D01*
X101287261Y-86605833D02*
X101287261Y-86968690D01*
X101287261Y-86787261D02*
X100652261Y-86787261D01*
X100742976Y-86847738D01*
X100803452Y-86908214D01*
X100833690Y-86968690D01*
X100652261Y-86212738D02*
X100652261Y-86152261D01*
X100682500Y-86091785D01*
X100712738Y-86061547D01*
X100773214Y-86031309D01*
X100894166Y-86001071D01*
X101045357Y-86001071D01*
X101166309Y-86031309D01*
X101226785Y-86061547D01*
X101257023Y-86091785D01*
X101287261Y-86152261D01*
X101287261Y-86212738D01*
X101257023Y-86273214D01*
X101226785Y-86303452D01*
X101166309Y-86333690D01*
X101045357Y-86363928D01*
X100894166Y-86363928D01*
X100773214Y-86333690D01*
X100712738Y-86303452D01*
X100682500Y-86273214D01*
X100652261Y-86212738D01*
X100863928Y-85456785D02*
X101287261Y-85456785D01*
X100622023Y-85607976D02*
X101075595Y-85759166D01*
X101075595Y-85366071D01*
%TO.C,R103*%
X95487261Y-87810595D02*
X95184880Y-88022261D01*
X95487261Y-88173452D02*
X94852261Y-88173452D01*
X94852261Y-87931547D01*
X94882500Y-87871071D01*
X94912738Y-87840833D01*
X94973214Y-87810595D01*
X95063928Y-87810595D01*
X95124404Y-87840833D01*
X95154642Y-87871071D01*
X95184880Y-87931547D01*
X95184880Y-88173452D01*
X95487261Y-87205833D02*
X95487261Y-87568690D01*
X95487261Y-87387261D02*
X94852261Y-87387261D01*
X94942976Y-87447738D01*
X95003452Y-87508214D01*
X95033690Y-87568690D01*
X94852261Y-86812738D02*
X94852261Y-86752261D01*
X94882500Y-86691785D01*
X94912738Y-86661547D01*
X94973214Y-86631309D01*
X95094166Y-86601071D01*
X95245357Y-86601071D01*
X95366309Y-86631309D01*
X95426785Y-86661547D01*
X95457023Y-86691785D01*
X95487261Y-86752261D01*
X95487261Y-86812738D01*
X95457023Y-86873214D01*
X95426785Y-86903452D01*
X95366309Y-86933690D01*
X95245357Y-86963928D01*
X95094166Y-86963928D01*
X94973214Y-86933690D01*
X94912738Y-86903452D01*
X94882500Y-86873214D01*
X94852261Y-86812738D01*
X94852261Y-86389404D02*
X94852261Y-85996309D01*
X95094166Y-86207976D01*
X95094166Y-86117261D01*
X95124404Y-86056785D01*
X95154642Y-86026547D01*
X95215119Y-85996309D01*
X95366309Y-85996309D01*
X95426785Y-86026547D01*
X95457023Y-86056785D01*
X95487261Y-86117261D01*
X95487261Y-86298690D01*
X95457023Y-86359166D01*
X95426785Y-86389404D01*
D12*
%TO.C,R102*%
X76729809Y-113111628D02*
X76487904Y-113264028D01*
X76729809Y-113372885D02*
X76221809Y-113372885D01*
X76221809Y-113198714D01*
X76246000Y-113155171D01*
X76270190Y-113133400D01*
X76318571Y-113111628D01*
X76391142Y-113111628D01*
X76439523Y-113133400D01*
X76463714Y-113155171D01*
X76487904Y-113198714D01*
X76487904Y-113372885D01*
X76729809Y-112676200D02*
X76729809Y-112937457D01*
X76729809Y-112806828D02*
X76221809Y-112806828D01*
X76294380Y-112850371D01*
X76342761Y-112893914D01*
X76366952Y-112937457D01*
X76221809Y-112393171D02*
X76221809Y-112349628D01*
X76246000Y-112306085D01*
X76270190Y-112284314D01*
X76318571Y-112262542D01*
X76415333Y-112240771D01*
X76536285Y-112240771D01*
X76633047Y-112262542D01*
X76681428Y-112284314D01*
X76705619Y-112306085D01*
X76729809Y-112349628D01*
X76729809Y-112393171D01*
X76705619Y-112436714D01*
X76681428Y-112458485D01*
X76633047Y-112480257D01*
X76536285Y-112502028D01*
X76415333Y-112502028D01*
X76318571Y-112480257D01*
X76270190Y-112458485D01*
X76246000Y-112436714D01*
X76221809Y-112393171D01*
X76270190Y-112066600D02*
X76246000Y-112044828D01*
X76221809Y-112001285D01*
X76221809Y-111892428D01*
X76246000Y-111848885D01*
X76270190Y-111827114D01*
X76318571Y-111805342D01*
X76366952Y-111805342D01*
X76439523Y-111827114D01*
X76729809Y-112088371D01*
X76729809Y-111805342D01*
%TO.C,R101*%
X72904809Y-109661628D02*
X72662904Y-109814028D01*
X72904809Y-109922885D02*
X72396809Y-109922885D01*
X72396809Y-109748714D01*
X72421000Y-109705171D01*
X72445190Y-109683400D01*
X72493571Y-109661628D01*
X72566142Y-109661628D01*
X72614523Y-109683400D01*
X72638714Y-109705171D01*
X72662904Y-109748714D01*
X72662904Y-109922885D01*
X72904809Y-109226200D02*
X72904809Y-109487457D01*
X72904809Y-109356828D02*
X72396809Y-109356828D01*
X72469380Y-109400371D01*
X72517761Y-109443914D01*
X72541952Y-109487457D01*
X72396809Y-108943171D02*
X72396809Y-108899628D01*
X72421000Y-108856085D01*
X72445190Y-108834314D01*
X72493571Y-108812542D01*
X72590333Y-108790771D01*
X72711285Y-108790771D01*
X72808047Y-108812542D01*
X72856428Y-108834314D01*
X72880619Y-108856085D01*
X72904809Y-108899628D01*
X72904809Y-108943171D01*
X72880619Y-108986714D01*
X72856428Y-109008485D01*
X72808047Y-109030257D01*
X72711285Y-109052028D01*
X72590333Y-109052028D01*
X72493571Y-109030257D01*
X72445190Y-109008485D01*
X72421000Y-108986714D01*
X72396809Y-108943171D01*
X72904809Y-108355342D02*
X72904809Y-108616600D01*
X72904809Y-108485971D02*
X72396809Y-108485971D01*
X72469380Y-108529514D01*
X72517761Y-108573057D01*
X72541952Y-108616600D01*
D11*
%TO.C,L110*%
X109789404Y-88587261D02*
X109487023Y-88587261D01*
X109487023Y-87952261D01*
X110333690Y-88587261D02*
X109970833Y-88587261D01*
X110152261Y-88587261D02*
X110152261Y-87952261D01*
X110091785Y-88042976D01*
X110031309Y-88103452D01*
X109970833Y-88133690D01*
X110938452Y-88587261D02*
X110575595Y-88587261D01*
X110757023Y-88587261D02*
X110757023Y-87952261D01*
X110696547Y-88042976D01*
X110636071Y-88103452D01*
X110575595Y-88133690D01*
X111331547Y-87952261D02*
X111392023Y-87952261D01*
X111452500Y-87982500D01*
X111482738Y-88012738D01*
X111512976Y-88073214D01*
X111543214Y-88194166D01*
X111543214Y-88345357D01*
X111512976Y-88466309D01*
X111482738Y-88526785D01*
X111452500Y-88557023D01*
X111392023Y-88587261D01*
X111331547Y-88587261D01*
X111271071Y-88557023D01*
X111240833Y-88526785D01*
X111210595Y-88466309D01*
X111180357Y-88345357D01*
X111180357Y-88194166D01*
X111210595Y-88073214D01*
X111240833Y-88012738D01*
X111271071Y-87982500D01*
X111331547Y-87952261D01*
%TO.C,L109*%
X116387261Y-90610595D02*
X116387261Y-90912976D01*
X115752261Y-90912976D01*
X116387261Y-90066309D02*
X116387261Y-90429166D01*
X116387261Y-90247738D02*
X115752261Y-90247738D01*
X115842976Y-90308214D01*
X115903452Y-90368690D01*
X115933690Y-90429166D01*
X115752261Y-89673214D02*
X115752261Y-89612738D01*
X115782500Y-89552261D01*
X115812738Y-89522023D01*
X115873214Y-89491785D01*
X115994166Y-89461547D01*
X116145357Y-89461547D01*
X116266309Y-89491785D01*
X116326785Y-89522023D01*
X116357023Y-89552261D01*
X116387261Y-89612738D01*
X116387261Y-89673214D01*
X116357023Y-89733690D01*
X116326785Y-89763928D01*
X116266309Y-89794166D01*
X116145357Y-89824404D01*
X115994166Y-89824404D01*
X115873214Y-89794166D01*
X115812738Y-89763928D01*
X115782500Y-89733690D01*
X115752261Y-89673214D01*
X116387261Y-89159166D02*
X116387261Y-89038214D01*
X116357023Y-88977738D01*
X116326785Y-88947500D01*
X116236071Y-88887023D01*
X116115119Y-88856785D01*
X115873214Y-88856785D01*
X115812738Y-88887023D01*
X115782500Y-88917261D01*
X115752261Y-88977738D01*
X115752261Y-89098690D01*
X115782500Y-89159166D01*
X115812738Y-89189404D01*
X115873214Y-89219642D01*
X116024404Y-89219642D01*
X116084880Y-89189404D01*
X116115119Y-89159166D01*
X116145357Y-89098690D01*
X116145357Y-88977738D01*
X116115119Y-88917261D01*
X116084880Y-88887023D01*
X116024404Y-88856785D01*
%TO.C,L108*%
X116887261Y-99010595D02*
X116887261Y-99312976D01*
X116252261Y-99312976D01*
X116887261Y-98466309D02*
X116887261Y-98829166D01*
X116887261Y-98647738D02*
X116252261Y-98647738D01*
X116342976Y-98708214D01*
X116403452Y-98768690D01*
X116433690Y-98829166D01*
X116252261Y-98073214D02*
X116252261Y-98012738D01*
X116282500Y-97952261D01*
X116312738Y-97922023D01*
X116373214Y-97891785D01*
X116494166Y-97861547D01*
X116645357Y-97861547D01*
X116766309Y-97891785D01*
X116826785Y-97922023D01*
X116857023Y-97952261D01*
X116887261Y-98012738D01*
X116887261Y-98073214D01*
X116857023Y-98133690D01*
X116826785Y-98163928D01*
X116766309Y-98194166D01*
X116645357Y-98224404D01*
X116494166Y-98224404D01*
X116373214Y-98194166D01*
X116312738Y-98163928D01*
X116282500Y-98133690D01*
X116252261Y-98073214D01*
X116524404Y-97498690D02*
X116494166Y-97559166D01*
X116463928Y-97589404D01*
X116403452Y-97619642D01*
X116373214Y-97619642D01*
X116312738Y-97589404D01*
X116282500Y-97559166D01*
X116252261Y-97498690D01*
X116252261Y-97377738D01*
X116282500Y-97317261D01*
X116312738Y-97287023D01*
X116373214Y-97256785D01*
X116403452Y-97256785D01*
X116463928Y-97287023D01*
X116494166Y-97317261D01*
X116524404Y-97377738D01*
X116524404Y-97498690D01*
X116554642Y-97559166D01*
X116584880Y-97589404D01*
X116645357Y-97619642D01*
X116766309Y-97619642D01*
X116826785Y-97589404D01*
X116857023Y-97559166D01*
X116887261Y-97498690D01*
X116887261Y-97377738D01*
X116857023Y-97317261D01*
X116826785Y-97287023D01*
X116766309Y-97256785D01*
X116645357Y-97256785D01*
X116584880Y-97287023D01*
X116554642Y-97317261D01*
X116524404Y-97377738D01*
%TO.C,L107*%
X66887261Y-90610595D02*
X66887261Y-90912976D01*
X66252261Y-90912976D01*
X66887261Y-90066309D02*
X66887261Y-90429166D01*
X66887261Y-90247738D02*
X66252261Y-90247738D01*
X66342976Y-90308214D01*
X66403452Y-90368690D01*
X66433690Y-90429166D01*
X66252261Y-89673214D02*
X66252261Y-89612738D01*
X66282500Y-89552261D01*
X66312738Y-89522023D01*
X66373214Y-89491785D01*
X66494166Y-89461547D01*
X66645357Y-89461547D01*
X66766309Y-89491785D01*
X66826785Y-89522023D01*
X66857023Y-89552261D01*
X66887261Y-89612738D01*
X66887261Y-89673214D01*
X66857023Y-89733690D01*
X66826785Y-89763928D01*
X66766309Y-89794166D01*
X66645357Y-89824404D01*
X66494166Y-89824404D01*
X66373214Y-89794166D01*
X66312738Y-89763928D01*
X66282500Y-89733690D01*
X66252261Y-89673214D01*
X66252261Y-89249880D02*
X66252261Y-88826547D01*
X66887261Y-89098690D01*
%TO.C,L106*%
X117189404Y-91087261D02*
X116887023Y-91087261D01*
X116887023Y-90452261D01*
X117733690Y-91087261D02*
X117370833Y-91087261D01*
X117552261Y-91087261D02*
X117552261Y-90452261D01*
X117491785Y-90542976D01*
X117431309Y-90603452D01*
X117370833Y-90633690D01*
X118126785Y-90452261D02*
X118187261Y-90452261D01*
X118247738Y-90482500D01*
X118277976Y-90512738D01*
X118308214Y-90573214D01*
X118338452Y-90694166D01*
X118338452Y-90845357D01*
X118308214Y-90966309D01*
X118277976Y-91026785D01*
X118247738Y-91057023D01*
X118187261Y-91087261D01*
X118126785Y-91087261D01*
X118066309Y-91057023D01*
X118036071Y-91026785D01*
X118005833Y-90966309D01*
X117975595Y-90845357D01*
X117975595Y-90694166D01*
X118005833Y-90573214D01*
X118036071Y-90512738D01*
X118066309Y-90482500D01*
X118126785Y-90452261D01*
X118882738Y-90452261D02*
X118761785Y-90452261D01*
X118701309Y-90482500D01*
X118671071Y-90512738D01*
X118610595Y-90603452D01*
X118580357Y-90724404D01*
X118580357Y-90966309D01*
X118610595Y-91026785D01*
X118640833Y-91057023D01*
X118701309Y-91087261D01*
X118822261Y-91087261D01*
X118882738Y-91057023D01*
X118912976Y-91026785D01*
X118943214Y-90966309D01*
X118943214Y-90815119D01*
X118912976Y-90754642D01*
X118882738Y-90724404D01*
X118822261Y-90694166D01*
X118701309Y-90694166D01*
X118640833Y-90724404D01*
X118610595Y-90754642D01*
X118580357Y-90815119D01*
%TO.C,L105*%
X117189404Y-92187261D02*
X116887023Y-92187261D01*
X116887023Y-91552261D01*
X117733690Y-92187261D02*
X117370833Y-92187261D01*
X117552261Y-92187261D02*
X117552261Y-91552261D01*
X117491785Y-91642976D01*
X117431309Y-91703452D01*
X117370833Y-91733690D01*
X118126785Y-91552261D02*
X118187261Y-91552261D01*
X118247738Y-91582500D01*
X118277976Y-91612738D01*
X118308214Y-91673214D01*
X118338452Y-91794166D01*
X118338452Y-91945357D01*
X118308214Y-92066309D01*
X118277976Y-92126785D01*
X118247738Y-92157023D01*
X118187261Y-92187261D01*
X118126785Y-92187261D01*
X118066309Y-92157023D01*
X118036071Y-92126785D01*
X118005833Y-92066309D01*
X117975595Y-91945357D01*
X117975595Y-91794166D01*
X118005833Y-91673214D01*
X118036071Y-91612738D01*
X118066309Y-91582500D01*
X118126785Y-91552261D01*
X118912976Y-91552261D02*
X118610595Y-91552261D01*
X118580357Y-91854642D01*
X118610595Y-91824404D01*
X118671071Y-91794166D01*
X118822261Y-91794166D01*
X118882738Y-91824404D01*
X118912976Y-91854642D01*
X118943214Y-91915119D01*
X118943214Y-92066309D01*
X118912976Y-92126785D01*
X118882738Y-92157023D01*
X118822261Y-92187261D01*
X118671071Y-92187261D01*
X118610595Y-92157023D01*
X118580357Y-92126785D01*
%TO.C,L104*%
X120887261Y-90210595D02*
X120887261Y-90512976D01*
X120252261Y-90512976D01*
X120887261Y-89666309D02*
X120887261Y-90029166D01*
X120887261Y-89847738D02*
X120252261Y-89847738D01*
X120342976Y-89908214D01*
X120403452Y-89968690D01*
X120433690Y-90029166D01*
X120252261Y-89273214D02*
X120252261Y-89212738D01*
X120282500Y-89152261D01*
X120312738Y-89122023D01*
X120373214Y-89091785D01*
X120494166Y-89061547D01*
X120645357Y-89061547D01*
X120766309Y-89091785D01*
X120826785Y-89122023D01*
X120857023Y-89152261D01*
X120887261Y-89212738D01*
X120887261Y-89273214D01*
X120857023Y-89333690D01*
X120826785Y-89363928D01*
X120766309Y-89394166D01*
X120645357Y-89424404D01*
X120494166Y-89424404D01*
X120373214Y-89394166D01*
X120312738Y-89363928D01*
X120282500Y-89333690D01*
X120252261Y-89273214D01*
X120463928Y-88517261D02*
X120887261Y-88517261D01*
X120222023Y-88668452D02*
X120675595Y-88819642D01*
X120675595Y-88426547D01*
%TO.C,L103*%
X120887261Y-98910595D02*
X120887261Y-99212976D01*
X120252261Y-99212976D01*
X120887261Y-98366309D02*
X120887261Y-98729166D01*
X120887261Y-98547738D02*
X120252261Y-98547738D01*
X120342976Y-98608214D01*
X120403452Y-98668690D01*
X120433690Y-98729166D01*
X120252261Y-97973214D02*
X120252261Y-97912738D01*
X120282500Y-97852261D01*
X120312738Y-97822023D01*
X120373214Y-97791785D01*
X120494166Y-97761547D01*
X120645357Y-97761547D01*
X120766309Y-97791785D01*
X120826785Y-97822023D01*
X120857023Y-97852261D01*
X120887261Y-97912738D01*
X120887261Y-97973214D01*
X120857023Y-98033690D01*
X120826785Y-98063928D01*
X120766309Y-98094166D01*
X120645357Y-98124404D01*
X120494166Y-98124404D01*
X120373214Y-98094166D01*
X120312738Y-98063928D01*
X120282500Y-98033690D01*
X120252261Y-97973214D01*
X120252261Y-97549880D02*
X120252261Y-97156785D01*
X120494166Y-97368452D01*
X120494166Y-97277738D01*
X120524404Y-97217261D01*
X120554642Y-97187023D01*
X120615119Y-97156785D01*
X120766309Y-97156785D01*
X120826785Y-97187023D01*
X120857023Y-97217261D01*
X120887261Y-97277738D01*
X120887261Y-97459166D01*
X120857023Y-97519642D01*
X120826785Y-97549880D01*
%TO.C,L102*%
X121689404Y-92187261D02*
X121387023Y-92187261D01*
X121387023Y-91552261D01*
X122233690Y-92187261D02*
X121870833Y-92187261D01*
X122052261Y-92187261D02*
X122052261Y-91552261D01*
X121991785Y-91642976D01*
X121931309Y-91703452D01*
X121870833Y-91733690D01*
X122626785Y-91552261D02*
X122687261Y-91552261D01*
X122747738Y-91582500D01*
X122777976Y-91612738D01*
X122808214Y-91673214D01*
X122838452Y-91794166D01*
X122838452Y-91945357D01*
X122808214Y-92066309D01*
X122777976Y-92126785D01*
X122747738Y-92157023D01*
X122687261Y-92187261D01*
X122626785Y-92187261D01*
X122566309Y-92157023D01*
X122536071Y-92126785D01*
X122505833Y-92066309D01*
X122475595Y-91945357D01*
X122475595Y-91794166D01*
X122505833Y-91673214D01*
X122536071Y-91612738D01*
X122566309Y-91582500D01*
X122626785Y-91552261D01*
X123080357Y-91612738D02*
X123110595Y-91582500D01*
X123171071Y-91552261D01*
X123322261Y-91552261D01*
X123382738Y-91582500D01*
X123412976Y-91612738D01*
X123443214Y-91673214D01*
X123443214Y-91733690D01*
X123412976Y-91824404D01*
X123050119Y-92187261D01*
X123443214Y-92187261D01*
%TO.C,L101*%
X124189404Y-91087261D02*
X123887023Y-91087261D01*
X123887023Y-90452261D01*
X124733690Y-91087261D02*
X124370833Y-91087261D01*
X124552261Y-91087261D02*
X124552261Y-90452261D01*
X124491785Y-90542976D01*
X124431309Y-90603452D01*
X124370833Y-90633690D01*
X125126785Y-90452261D02*
X125187261Y-90452261D01*
X125247738Y-90482500D01*
X125277976Y-90512738D01*
X125308214Y-90573214D01*
X125338452Y-90694166D01*
X125338452Y-90845357D01*
X125308214Y-90966309D01*
X125277976Y-91026785D01*
X125247738Y-91057023D01*
X125187261Y-91087261D01*
X125126785Y-91087261D01*
X125066309Y-91057023D01*
X125036071Y-91026785D01*
X125005833Y-90966309D01*
X124975595Y-90845357D01*
X124975595Y-90694166D01*
X125005833Y-90573214D01*
X125036071Y-90512738D01*
X125066309Y-90482500D01*
X125126785Y-90452261D01*
X125943214Y-91087261D02*
X125580357Y-91087261D01*
X125761785Y-91087261D02*
X125761785Y-90452261D01*
X125701309Y-90542976D01*
X125640833Y-90603452D01*
X125580357Y-90633690D01*
%TO.C,C129*%
X106889404Y-98926785D02*
X106859166Y-98957023D01*
X106768452Y-98987261D01*
X106707976Y-98987261D01*
X106617261Y-98957023D01*
X106556785Y-98896547D01*
X106526547Y-98836071D01*
X106496309Y-98715119D01*
X106496309Y-98624404D01*
X106526547Y-98503452D01*
X106556785Y-98442976D01*
X106617261Y-98382500D01*
X106707976Y-98352261D01*
X106768452Y-98352261D01*
X106859166Y-98382500D01*
X106889404Y-98412738D01*
X107494166Y-98987261D02*
X107131309Y-98987261D01*
X107312738Y-98987261D02*
X107312738Y-98352261D01*
X107252261Y-98442976D01*
X107191785Y-98503452D01*
X107131309Y-98533690D01*
X107736071Y-98412738D02*
X107766309Y-98382500D01*
X107826785Y-98352261D01*
X107977976Y-98352261D01*
X108038452Y-98382500D01*
X108068690Y-98412738D01*
X108098928Y-98473214D01*
X108098928Y-98533690D01*
X108068690Y-98624404D01*
X107705833Y-98987261D01*
X108098928Y-98987261D01*
X108401309Y-98987261D02*
X108522261Y-98987261D01*
X108582738Y-98957023D01*
X108612976Y-98926785D01*
X108673452Y-98836071D01*
X108703690Y-98715119D01*
X108703690Y-98473214D01*
X108673452Y-98412738D01*
X108643214Y-98382500D01*
X108582738Y-98352261D01*
X108461785Y-98352261D01*
X108401309Y-98382500D01*
X108371071Y-98412738D01*
X108340833Y-98473214D01*
X108340833Y-98624404D01*
X108371071Y-98684880D01*
X108401309Y-98715119D01*
X108461785Y-98745357D01*
X108582738Y-98745357D01*
X108643214Y-98715119D01*
X108673452Y-98684880D01*
X108703690Y-98624404D01*
%TO.C,C128*%
X115526785Y-102210595D02*
X115557023Y-102240833D01*
X115587261Y-102331547D01*
X115587261Y-102392023D01*
X115557023Y-102482738D01*
X115496547Y-102543214D01*
X115436071Y-102573452D01*
X115315119Y-102603690D01*
X115224404Y-102603690D01*
X115103452Y-102573452D01*
X115042976Y-102543214D01*
X114982500Y-102482738D01*
X114952261Y-102392023D01*
X114952261Y-102331547D01*
X114982500Y-102240833D01*
X115012738Y-102210595D01*
X115587261Y-101605833D02*
X115587261Y-101968690D01*
X115587261Y-101787261D02*
X114952261Y-101787261D01*
X115042976Y-101847738D01*
X115103452Y-101908214D01*
X115133690Y-101968690D01*
X115012738Y-101363928D02*
X114982500Y-101333690D01*
X114952261Y-101273214D01*
X114952261Y-101122023D01*
X114982500Y-101061547D01*
X115012738Y-101031309D01*
X115073214Y-101001071D01*
X115133690Y-101001071D01*
X115224404Y-101031309D01*
X115587261Y-101394166D01*
X115587261Y-101001071D01*
X115224404Y-100638214D02*
X115194166Y-100698690D01*
X115163928Y-100728928D01*
X115103452Y-100759166D01*
X115073214Y-100759166D01*
X115012738Y-100728928D01*
X114982500Y-100698690D01*
X114952261Y-100638214D01*
X114952261Y-100517261D01*
X114982500Y-100456785D01*
X115012738Y-100426547D01*
X115073214Y-100396309D01*
X115103452Y-100396309D01*
X115163928Y-100426547D01*
X115194166Y-100456785D01*
X115224404Y-100517261D01*
X115224404Y-100638214D01*
X115254642Y-100698690D01*
X115284880Y-100728928D01*
X115345357Y-100759166D01*
X115466309Y-100759166D01*
X115526785Y-100728928D01*
X115557023Y-100698690D01*
X115587261Y-100638214D01*
X115587261Y-100517261D01*
X115557023Y-100456785D01*
X115526785Y-100426547D01*
X115466309Y-100396309D01*
X115345357Y-100396309D01*
X115284880Y-100426547D01*
X115254642Y-100456785D01*
X115224404Y-100517261D01*
%TO.C,C127*%
X114426785Y-102210595D02*
X114457023Y-102240833D01*
X114487261Y-102331547D01*
X114487261Y-102392023D01*
X114457023Y-102482738D01*
X114396547Y-102543214D01*
X114336071Y-102573452D01*
X114215119Y-102603690D01*
X114124404Y-102603690D01*
X114003452Y-102573452D01*
X113942976Y-102543214D01*
X113882500Y-102482738D01*
X113852261Y-102392023D01*
X113852261Y-102331547D01*
X113882500Y-102240833D01*
X113912738Y-102210595D01*
X114487261Y-101605833D02*
X114487261Y-101968690D01*
X114487261Y-101787261D02*
X113852261Y-101787261D01*
X113942976Y-101847738D01*
X114003452Y-101908214D01*
X114033690Y-101968690D01*
X113912738Y-101363928D02*
X113882500Y-101333690D01*
X113852261Y-101273214D01*
X113852261Y-101122023D01*
X113882500Y-101061547D01*
X113912738Y-101031309D01*
X113973214Y-101001071D01*
X114033690Y-101001071D01*
X114124404Y-101031309D01*
X114487261Y-101394166D01*
X114487261Y-101001071D01*
X113852261Y-100789404D02*
X113852261Y-100366071D01*
X114487261Y-100638214D01*
%TO.C,C126*%
X112826785Y-90210595D02*
X112857023Y-90240833D01*
X112887261Y-90331547D01*
X112887261Y-90392023D01*
X112857023Y-90482738D01*
X112796547Y-90543214D01*
X112736071Y-90573452D01*
X112615119Y-90603690D01*
X112524404Y-90603690D01*
X112403452Y-90573452D01*
X112342976Y-90543214D01*
X112282500Y-90482738D01*
X112252261Y-90392023D01*
X112252261Y-90331547D01*
X112282500Y-90240833D01*
X112312738Y-90210595D01*
X112887261Y-89605833D02*
X112887261Y-89968690D01*
X112887261Y-89787261D02*
X112252261Y-89787261D01*
X112342976Y-89847738D01*
X112403452Y-89908214D01*
X112433690Y-89968690D01*
X112312738Y-89363928D02*
X112282500Y-89333690D01*
X112252261Y-89273214D01*
X112252261Y-89122023D01*
X112282500Y-89061547D01*
X112312738Y-89031309D01*
X112373214Y-89001071D01*
X112433690Y-89001071D01*
X112524404Y-89031309D01*
X112887261Y-89394166D01*
X112887261Y-89001071D01*
X112252261Y-88456785D02*
X112252261Y-88577738D01*
X112282500Y-88638214D01*
X112312738Y-88668452D01*
X112403452Y-88728928D01*
X112524404Y-88759166D01*
X112766309Y-88759166D01*
X112826785Y-88728928D01*
X112857023Y-88698690D01*
X112887261Y-88638214D01*
X112887261Y-88517261D01*
X112857023Y-88456785D01*
X112826785Y-88426547D01*
X112766309Y-88396309D01*
X112615119Y-88396309D01*
X112554642Y-88426547D01*
X112524404Y-88456785D01*
X112494166Y-88517261D01*
X112494166Y-88638214D01*
X112524404Y-88698690D01*
X112554642Y-88728928D01*
X112615119Y-88759166D01*
%TO.C,C125*%
X109789404Y-87526785D02*
X109759166Y-87557023D01*
X109668452Y-87587261D01*
X109607976Y-87587261D01*
X109517261Y-87557023D01*
X109456785Y-87496547D01*
X109426547Y-87436071D01*
X109396309Y-87315119D01*
X109396309Y-87224404D01*
X109426547Y-87103452D01*
X109456785Y-87042976D01*
X109517261Y-86982500D01*
X109607976Y-86952261D01*
X109668452Y-86952261D01*
X109759166Y-86982500D01*
X109789404Y-87012738D01*
X110394166Y-87587261D02*
X110031309Y-87587261D01*
X110212738Y-87587261D02*
X110212738Y-86952261D01*
X110152261Y-87042976D01*
X110091785Y-87103452D01*
X110031309Y-87133690D01*
X110636071Y-87012738D02*
X110666309Y-86982500D01*
X110726785Y-86952261D01*
X110877976Y-86952261D01*
X110938452Y-86982500D01*
X110968690Y-87012738D01*
X110998928Y-87073214D01*
X110998928Y-87133690D01*
X110968690Y-87224404D01*
X110605833Y-87587261D01*
X110998928Y-87587261D01*
X111573452Y-86952261D02*
X111271071Y-86952261D01*
X111240833Y-87254642D01*
X111271071Y-87224404D01*
X111331547Y-87194166D01*
X111482738Y-87194166D01*
X111543214Y-87224404D01*
X111573452Y-87254642D01*
X111603690Y-87315119D01*
X111603690Y-87466309D01*
X111573452Y-87526785D01*
X111543214Y-87557023D01*
X111482738Y-87587261D01*
X111331547Y-87587261D01*
X111271071Y-87557023D01*
X111240833Y-87526785D01*
%TO.C,C124*%
X115326785Y-90610595D02*
X115357023Y-90640833D01*
X115387261Y-90731547D01*
X115387261Y-90792023D01*
X115357023Y-90882738D01*
X115296547Y-90943214D01*
X115236071Y-90973452D01*
X115115119Y-91003690D01*
X115024404Y-91003690D01*
X114903452Y-90973452D01*
X114842976Y-90943214D01*
X114782500Y-90882738D01*
X114752261Y-90792023D01*
X114752261Y-90731547D01*
X114782500Y-90640833D01*
X114812738Y-90610595D01*
X115387261Y-90005833D02*
X115387261Y-90368690D01*
X115387261Y-90187261D02*
X114752261Y-90187261D01*
X114842976Y-90247738D01*
X114903452Y-90308214D01*
X114933690Y-90368690D01*
X114812738Y-89763928D02*
X114782500Y-89733690D01*
X114752261Y-89673214D01*
X114752261Y-89522023D01*
X114782500Y-89461547D01*
X114812738Y-89431309D01*
X114873214Y-89401071D01*
X114933690Y-89401071D01*
X115024404Y-89431309D01*
X115387261Y-89794166D01*
X115387261Y-89401071D01*
X114963928Y-88856785D02*
X115387261Y-88856785D01*
X114722023Y-89007976D02*
X115175595Y-89159166D01*
X115175595Y-88766071D01*
%TO.C,C123*%
X115826785Y-99010595D02*
X115857023Y-99040833D01*
X115887261Y-99131547D01*
X115887261Y-99192023D01*
X115857023Y-99282738D01*
X115796547Y-99343214D01*
X115736071Y-99373452D01*
X115615119Y-99403690D01*
X115524404Y-99403690D01*
X115403452Y-99373452D01*
X115342976Y-99343214D01*
X115282500Y-99282738D01*
X115252261Y-99192023D01*
X115252261Y-99131547D01*
X115282500Y-99040833D01*
X115312738Y-99010595D01*
X115887261Y-98405833D02*
X115887261Y-98768690D01*
X115887261Y-98587261D02*
X115252261Y-98587261D01*
X115342976Y-98647738D01*
X115403452Y-98708214D01*
X115433690Y-98768690D01*
X115312738Y-98163928D02*
X115282500Y-98133690D01*
X115252261Y-98073214D01*
X115252261Y-97922023D01*
X115282500Y-97861547D01*
X115312738Y-97831309D01*
X115373214Y-97801071D01*
X115433690Y-97801071D01*
X115524404Y-97831309D01*
X115887261Y-98194166D01*
X115887261Y-97801071D01*
X115252261Y-97589404D02*
X115252261Y-97196309D01*
X115494166Y-97407976D01*
X115494166Y-97317261D01*
X115524404Y-97256785D01*
X115554642Y-97226547D01*
X115615119Y-97196309D01*
X115766309Y-97196309D01*
X115826785Y-97226547D01*
X115857023Y-97256785D01*
X115887261Y-97317261D01*
X115887261Y-97498690D01*
X115857023Y-97559166D01*
X115826785Y-97589404D01*
%TO.C,C122*%
X67026785Y-93510595D02*
X67057023Y-93540833D01*
X67087261Y-93631547D01*
X67087261Y-93692023D01*
X67057023Y-93782738D01*
X66996547Y-93843214D01*
X66936071Y-93873452D01*
X66815119Y-93903690D01*
X66724404Y-93903690D01*
X66603452Y-93873452D01*
X66542976Y-93843214D01*
X66482500Y-93782738D01*
X66452261Y-93692023D01*
X66452261Y-93631547D01*
X66482500Y-93540833D01*
X66512738Y-93510595D01*
X67087261Y-92905833D02*
X67087261Y-93268690D01*
X67087261Y-93087261D02*
X66452261Y-93087261D01*
X66542976Y-93147738D01*
X66603452Y-93208214D01*
X66633690Y-93268690D01*
X66512738Y-92663928D02*
X66482500Y-92633690D01*
X66452261Y-92573214D01*
X66452261Y-92422023D01*
X66482500Y-92361547D01*
X66512738Y-92331309D01*
X66573214Y-92301071D01*
X66633690Y-92301071D01*
X66724404Y-92331309D01*
X67087261Y-92694166D01*
X67087261Y-92301071D01*
X66512738Y-92059166D02*
X66482500Y-92028928D01*
X66452261Y-91968452D01*
X66452261Y-91817261D01*
X66482500Y-91756785D01*
X66512738Y-91726547D01*
X66573214Y-91696309D01*
X66633690Y-91696309D01*
X66724404Y-91726547D01*
X67087261Y-92089404D01*
X67087261Y-91696309D01*
%TO.C,C121*%
X68539404Y-86706785D02*
X68509166Y-86737023D01*
X68418452Y-86767261D01*
X68357976Y-86767261D01*
X68267261Y-86737023D01*
X68206785Y-86676547D01*
X68176547Y-86616071D01*
X68146309Y-86495119D01*
X68146309Y-86404404D01*
X68176547Y-86283452D01*
X68206785Y-86222976D01*
X68267261Y-86162500D01*
X68357976Y-86132261D01*
X68418452Y-86132261D01*
X68509166Y-86162500D01*
X68539404Y-86192738D01*
X69144166Y-86767261D02*
X68781309Y-86767261D01*
X68962738Y-86767261D02*
X68962738Y-86132261D01*
X68902261Y-86222976D01*
X68841785Y-86283452D01*
X68781309Y-86313690D01*
X69386071Y-86192738D02*
X69416309Y-86162500D01*
X69476785Y-86132261D01*
X69627976Y-86132261D01*
X69688452Y-86162500D01*
X69718690Y-86192738D01*
X69748928Y-86253214D01*
X69748928Y-86313690D01*
X69718690Y-86404404D01*
X69355833Y-86767261D01*
X69748928Y-86767261D01*
X70353690Y-86767261D02*
X69990833Y-86767261D01*
X70172261Y-86767261D02*
X70172261Y-86132261D01*
X70111785Y-86222976D01*
X70051309Y-86283452D01*
X69990833Y-86313690D01*
%TO.C,C120*%
X116289404Y-95526785D02*
X116259166Y-95557023D01*
X116168452Y-95587261D01*
X116107976Y-95587261D01*
X116017261Y-95557023D01*
X115956785Y-95496547D01*
X115926547Y-95436071D01*
X115896309Y-95315119D01*
X115896309Y-95224404D01*
X115926547Y-95103452D01*
X115956785Y-95042976D01*
X116017261Y-94982500D01*
X116107976Y-94952261D01*
X116168452Y-94952261D01*
X116259166Y-94982500D01*
X116289404Y-95012738D01*
X116894166Y-95587261D02*
X116531309Y-95587261D01*
X116712738Y-95587261D02*
X116712738Y-94952261D01*
X116652261Y-95042976D01*
X116591785Y-95103452D01*
X116531309Y-95133690D01*
X117136071Y-95012738D02*
X117166309Y-94982500D01*
X117226785Y-94952261D01*
X117377976Y-94952261D01*
X117438452Y-94982500D01*
X117468690Y-95012738D01*
X117498928Y-95073214D01*
X117498928Y-95133690D01*
X117468690Y-95224404D01*
X117105833Y-95587261D01*
X117498928Y-95587261D01*
X117892023Y-94952261D02*
X117952500Y-94952261D01*
X118012976Y-94982500D01*
X118043214Y-95012738D01*
X118073452Y-95073214D01*
X118103690Y-95194166D01*
X118103690Y-95345357D01*
X118073452Y-95466309D01*
X118043214Y-95526785D01*
X118012976Y-95557023D01*
X117952500Y-95587261D01*
X117892023Y-95587261D01*
X117831547Y-95557023D01*
X117801309Y-95526785D01*
X117771071Y-95466309D01*
X117740833Y-95345357D01*
X117740833Y-95194166D01*
X117771071Y-95073214D01*
X117801309Y-95012738D01*
X117831547Y-94982500D01*
X117892023Y-94952261D01*
%TO.C,C119*%
X116289404Y-96526785D02*
X116259166Y-96557023D01*
X116168452Y-96587261D01*
X116107976Y-96587261D01*
X116017261Y-96557023D01*
X115956785Y-96496547D01*
X115926547Y-96436071D01*
X115896309Y-96315119D01*
X115896309Y-96224404D01*
X115926547Y-96103452D01*
X115956785Y-96042976D01*
X116017261Y-95982500D01*
X116107976Y-95952261D01*
X116168452Y-95952261D01*
X116259166Y-95982500D01*
X116289404Y-96012738D01*
X116894166Y-96587261D02*
X116531309Y-96587261D01*
X116712738Y-96587261D02*
X116712738Y-95952261D01*
X116652261Y-96042976D01*
X116591785Y-96103452D01*
X116531309Y-96133690D01*
X117498928Y-96587261D02*
X117136071Y-96587261D01*
X117317500Y-96587261D02*
X117317500Y-95952261D01*
X117257023Y-96042976D01*
X117196547Y-96103452D01*
X117136071Y-96133690D01*
X117801309Y-96587261D02*
X117922261Y-96587261D01*
X117982738Y-96557023D01*
X118012976Y-96526785D01*
X118073452Y-96436071D01*
X118103690Y-96315119D01*
X118103690Y-96073214D01*
X118073452Y-96012738D01*
X118043214Y-95982500D01*
X117982738Y-95952261D01*
X117861785Y-95952261D01*
X117801309Y-95982500D01*
X117771071Y-96012738D01*
X117740833Y-96073214D01*
X117740833Y-96224404D01*
X117771071Y-96284880D01*
X117801309Y-96315119D01*
X117861785Y-96345357D01*
X117982738Y-96345357D01*
X118043214Y-96315119D01*
X118073452Y-96284880D01*
X118103690Y-96224404D01*
%TO.C,C118*%
X119926785Y-90210595D02*
X119957023Y-90240833D01*
X119987261Y-90331547D01*
X119987261Y-90392023D01*
X119957023Y-90482738D01*
X119896547Y-90543214D01*
X119836071Y-90573452D01*
X119715119Y-90603690D01*
X119624404Y-90603690D01*
X119503452Y-90573452D01*
X119442976Y-90543214D01*
X119382500Y-90482738D01*
X119352261Y-90392023D01*
X119352261Y-90331547D01*
X119382500Y-90240833D01*
X119412738Y-90210595D01*
X119987261Y-89605833D02*
X119987261Y-89968690D01*
X119987261Y-89787261D02*
X119352261Y-89787261D01*
X119442976Y-89847738D01*
X119503452Y-89908214D01*
X119533690Y-89968690D01*
X119987261Y-89001071D02*
X119987261Y-89363928D01*
X119987261Y-89182500D02*
X119352261Y-89182500D01*
X119442976Y-89242976D01*
X119503452Y-89303452D01*
X119533690Y-89363928D01*
X119624404Y-88638214D02*
X119594166Y-88698690D01*
X119563928Y-88728928D01*
X119503452Y-88759166D01*
X119473214Y-88759166D01*
X119412738Y-88728928D01*
X119382500Y-88698690D01*
X119352261Y-88638214D01*
X119352261Y-88517261D01*
X119382500Y-88456785D01*
X119412738Y-88426547D01*
X119473214Y-88396309D01*
X119503452Y-88396309D01*
X119563928Y-88426547D01*
X119594166Y-88456785D01*
X119624404Y-88517261D01*
X119624404Y-88638214D01*
X119654642Y-88698690D01*
X119684880Y-88728928D01*
X119745357Y-88759166D01*
X119866309Y-88759166D01*
X119926785Y-88728928D01*
X119957023Y-88698690D01*
X119987261Y-88638214D01*
X119987261Y-88517261D01*
X119957023Y-88456785D01*
X119926785Y-88426547D01*
X119866309Y-88396309D01*
X119745357Y-88396309D01*
X119684880Y-88426547D01*
X119654642Y-88456785D01*
X119624404Y-88517261D01*
%TO.C,C117*%
X119926785Y-98910595D02*
X119957023Y-98940833D01*
X119987261Y-99031547D01*
X119987261Y-99092023D01*
X119957023Y-99182738D01*
X119896547Y-99243214D01*
X119836071Y-99273452D01*
X119715119Y-99303690D01*
X119624404Y-99303690D01*
X119503452Y-99273452D01*
X119442976Y-99243214D01*
X119382500Y-99182738D01*
X119352261Y-99092023D01*
X119352261Y-99031547D01*
X119382500Y-98940833D01*
X119412738Y-98910595D01*
X119987261Y-98305833D02*
X119987261Y-98668690D01*
X119987261Y-98487261D02*
X119352261Y-98487261D01*
X119442976Y-98547738D01*
X119503452Y-98608214D01*
X119533690Y-98668690D01*
X119987261Y-97701071D02*
X119987261Y-98063928D01*
X119987261Y-97882500D02*
X119352261Y-97882500D01*
X119442976Y-97942976D01*
X119503452Y-98003452D01*
X119533690Y-98063928D01*
X119352261Y-97489404D02*
X119352261Y-97066071D01*
X119987261Y-97338214D01*
%TO.C,C116*%
X121689404Y-91026785D02*
X121659166Y-91057023D01*
X121568452Y-91087261D01*
X121507976Y-91087261D01*
X121417261Y-91057023D01*
X121356785Y-90996547D01*
X121326547Y-90936071D01*
X121296309Y-90815119D01*
X121296309Y-90724404D01*
X121326547Y-90603452D01*
X121356785Y-90542976D01*
X121417261Y-90482500D01*
X121507976Y-90452261D01*
X121568452Y-90452261D01*
X121659166Y-90482500D01*
X121689404Y-90512738D01*
X122294166Y-91087261D02*
X121931309Y-91087261D01*
X122112738Y-91087261D02*
X122112738Y-90452261D01*
X122052261Y-90542976D01*
X121991785Y-90603452D01*
X121931309Y-90633690D01*
X122898928Y-91087261D02*
X122536071Y-91087261D01*
X122717500Y-91087261D02*
X122717500Y-90452261D01*
X122657023Y-90542976D01*
X122596547Y-90603452D01*
X122536071Y-90633690D01*
X123443214Y-90452261D02*
X123322261Y-90452261D01*
X123261785Y-90482500D01*
X123231547Y-90512738D01*
X123171071Y-90603452D01*
X123140833Y-90724404D01*
X123140833Y-90966309D01*
X123171071Y-91026785D01*
X123201309Y-91057023D01*
X123261785Y-91087261D01*
X123382738Y-91087261D01*
X123443214Y-91057023D01*
X123473452Y-91026785D01*
X123503690Y-90966309D01*
X123503690Y-90815119D01*
X123473452Y-90754642D01*
X123443214Y-90724404D01*
X123382738Y-90694166D01*
X123261785Y-90694166D01*
X123201309Y-90724404D01*
X123171071Y-90754642D01*
X123140833Y-90815119D01*
%TO.C,C115*%
X123626785Y-98610595D02*
X123657023Y-98640833D01*
X123687261Y-98731547D01*
X123687261Y-98792023D01*
X123657023Y-98882738D01*
X123596547Y-98943214D01*
X123536071Y-98973452D01*
X123415119Y-99003690D01*
X123324404Y-99003690D01*
X123203452Y-98973452D01*
X123142976Y-98943214D01*
X123082500Y-98882738D01*
X123052261Y-98792023D01*
X123052261Y-98731547D01*
X123082500Y-98640833D01*
X123112738Y-98610595D01*
X123687261Y-98005833D02*
X123687261Y-98368690D01*
X123687261Y-98187261D02*
X123052261Y-98187261D01*
X123142976Y-98247738D01*
X123203452Y-98308214D01*
X123233690Y-98368690D01*
X123687261Y-97401071D02*
X123687261Y-97763928D01*
X123687261Y-97582500D02*
X123052261Y-97582500D01*
X123142976Y-97642976D01*
X123203452Y-97703452D01*
X123233690Y-97763928D01*
X123052261Y-96826547D02*
X123052261Y-97128928D01*
X123354642Y-97159166D01*
X123324404Y-97128928D01*
X123294166Y-97068452D01*
X123294166Y-96917261D01*
X123324404Y-96856785D01*
X123354642Y-96826547D01*
X123415119Y-96796309D01*
X123566309Y-96796309D01*
X123626785Y-96826547D01*
X123657023Y-96856785D01*
X123687261Y-96917261D01*
X123687261Y-97068452D01*
X123657023Y-97128928D01*
X123626785Y-97159166D01*
%TO.C,C114*%
X124189404Y-92126785D02*
X124159166Y-92157023D01*
X124068452Y-92187261D01*
X124007976Y-92187261D01*
X123917261Y-92157023D01*
X123856785Y-92096547D01*
X123826547Y-92036071D01*
X123796309Y-91915119D01*
X123796309Y-91824404D01*
X123826547Y-91703452D01*
X123856785Y-91642976D01*
X123917261Y-91582500D01*
X124007976Y-91552261D01*
X124068452Y-91552261D01*
X124159166Y-91582500D01*
X124189404Y-91612738D01*
X124794166Y-92187261D02*
X124431309Y-92187261D01*
X124612738Y-92187261D02*
X124612738Y-91552261D01*
X124552261Y-91642976D01*
X124491785Y-91703452D01*
X124431309Y-91733690D01*
X125398928Y-92187261D02*
X125036071Y-92187261D01*
X125217500Y-92187261D02*
X125217500Y-91552261D01*
X125157023Y-91642976D01*
X125096547Y-91703452D01*
X125036071Y-91733690D01*
X125943214Y-91763928D02*
X125943214Y-92187261D01*
X125792023Y-91522023D02*
X125640833Y-91975595D01*
X126033928Y-91975595D01*
%TO.C,C113*%
X126626785Y-98610595D02*
X126657023Y-98640833D01*
X126687261Y-98731547D01*
X126687261Y-98792023D01*
X126657023Y-98882738D01*
X126596547Y-98943214D01*
X126536071Y-98973452D01*
X126415119Y-99003690D01*
X126324404Y-99003690D01*
X126203452Y-98973452D01*
X126142976Y-98943214D01*
X126082500Y-98882738D01*
X126052261Y-98792023D01*
X126052261Y-98731547D01*
X126082500Y-98640833D01*
X126112738Y-98610595D01*
X126687261Y-98005833D02*
X126687261Y-98368690D01*
X126687261Y-98187261D02*
X126052261Y-98187261D01*
X126142976Y-98247738D01*
X126203452Y-98308214D01*
X126233690Y-98368690D01*
X126687261Y-97401071D02*
X126687261Y-97763928D01*
X126687261Y-97582500D02*
X126052261Y-97582500D01*
X126142976Y-97642976D01*
X126203452Y-97703452D01*
X126233690Y-97763928D01*
X126052261Y-97189404D02*
X126052261Y-96796309D01*
X126294166Y-97007976D01*
X126294166Y-96917261D01*
X126324404Y-96856785D01*
X126354642Y-96826547D01*
X126415119Y-96796309D01*
X126566309Y-96796309D01*
X126626785Y-96826547D01*
X126657023Y-96856785D01*
X126687261Y-96917261D01*
X126687261Y-97098690D01*
X126657023Y-97159166D01*
X126626785Y-97189404D01*
%TO.C,C112*%
X94539404Y-100246785D02*
X94509166Y-100277023D01*
X94418452Y-100307261D01*
X94357976Y-100307261D01*
X94267261Y-100277023D01*
X94206785Y-100216547D01*
X94176547Y-100156071D01*
X94146309Y-100035119D01*
X94146309Y-99944404D01*
X94176547Y-99823452D01*
X94206785Y-99762976D01*
X94267261Y-99702500D01*
X94357976Y-99672261D01*
X94418452Y-99672261D01*
X94509166Y-99702500D01*
X94539404Y-99732738D01*
X95144166Y-100307261D02*
X94781309Y-100307261D01*
X94962738Y-100307261D02*
X94962738Y-99672261D01*
X94902261Y-99762976D01*
X94841785Y-99823452D01*
X94781309Y-99853690D01*
X95748928Y-100307261D02*
X95386071Y-100307261D01*
X95567500Y-100307261D02*
X95567500Y-99672261D01*
X95507023Y-99762976D01*
X95446547Y-99823452D01*
X95386071Y-99853690D01*
X95990833Y-99732738D02*
X96021071Y-99702500D01*
X96081547Y-99672261D01*
X96232738Y-99672261D01*
X96293214Y-99702500D01*
X96323452Y-99732738D01*
X96353690Y-99793214D01*
X96353690Y-99853690D01*
X96323452Y-99944404D01*
X95960595Y-100307261D01*
X96353690Y-100307261D01*
%TO.C,C111*%
X104126785Y-93610595D02*
X104157023Y-93640833D01*
X104187261Y-93731547D01*
X104187261Y-93792023D01*
X104157023Y-93882738D01*
X104096547Y-93943214D01*
X104036071Y-93973452D01*
X103915119Y-94003690D01*
X103824404Y-94003690D01*
X103703452Y-93973452D01*
X103642976Y-93943214D01*
X103582500Y-93882738D01*
X103552261Y-93792023D01*
X103552261Y-93731547D01*
X103582500Y-93640833D01*
X103612738Y-93610595D01*
X104187261Y-93005833D02*
X104187261Y-93368690D01*
X104187261Y-93187261D02*
X103552261Y-93187261D01*
X103642976Y-93247738D01*
X103703452Y-93308214D01*
X103733690Y-93368690D01*
X104187261Y-92401071D02*
X104187261Y-92763928D01*
X104187261Y-92582500D02*
X103552261Y-92582500D01*
X103642976Y-92642976D01*
X103703452Y-92703452D01*
X103733690Y-92763928D01*
X104187261Y-91796309D02*
X104187261Y-92159166D01*
X104187261Y-91977738D02*
X103552261Y-91977738D01*
X103642976Y-92038214D01*
X103703452Y-92098690D01*
X103733690Y-92159166D01*
%TO.C,C110*%
X97539404Y-100226785D02*
X97509166Y-100257023D01*
X97418452Y-100287261D01*
X97357976Y-100287261D01*
X97267261Y-100257023D01*
X97206785Y-100196547D01*
X97176547Y-100136071D01*
X97146309Y-100015119D01*
X97146309Y-99924404D01*
X97176547Y-99803452D01*
X97206785Y-99742976D01*
X97267261Y-99682500D01*
X97357976Y-99652261D01*
X97418452Y-99652261D01*
X97509166Y-99682500D01*
X97539404Y-99712738D01*
X98144166Y-100287261D02*
X97781309Y-100287261D01*
X97962738Y-100287261D02*
X97962738Y-99652261D01*
X97902261Y-99742976D01*
X97841785Y-99803452D01*
X97781309Y-99833690D01*
X98748928Y-100287261D02*
X98386071Y-100287261D01*
X98567500Y-100287261D02*
X98567500Y-99652261D01*
X98507023Y-99742976D01*
X98446547Y-99803452D01*
X98386071Y-99833690D01*
X99142023Y-99652261D02*
X99202500Y-99652261D01*
X99262976Y-99682500D01*
X99293214Y-99712738D01*
X99323452Y-99773214D01*
X99353690Y-99894166D01*
X99353690Y-100045357D01*
X99323452Y-100166309D01*
X99293214Y-100226785D01*
X99262976Y-100257023D01*
X99202500Y-100287261D01*
X99142023Y-100287261D01*
X99081547Y-100257023D01*
X99051309Y-100226785D01*
X99021071Y-100166309D01*
X98990833Y-100045357D01*
X98990833Y-99894166D01*
X99021071Y-99773214D01*
X99051309Y-99712738D01*
X99081547Y-99682500D01*
X99142023Y-99652261D01*
%TO.C,C109*%
X93889404Y-89726785D02*
X93859166Y-89757023D01*
X93768452Y-89787261D01*
X93707976Y-89787261D01*
X93617261Y-89757023D01*
X93556785Y-89696547D01*
X93526547Y-89636071D01*
X93496309Y-89515119D01*
X93496309Y-89424404D01*
X93526547Y-89303452D01*
X93556785Y-89242976D01*
X93617261Y-89182500D01*
X93707976Y-89152261D01*
X93768452Y-89152261D01*
X93859166Y-89182500D01*
X93889404Y-89212738D01*
X94494166Y-89787261D02*
X94131309Y-89787261D01*
X94312738Y-89787261D02*
X94312738Y-89152261D01*
X94252261Y-89242976D01*
X94191785Y-89303452D01*
X94131309Y-89333690D01*
X94887261Y-89152261D02*
X94947738Y-89152261D01*
X95008214Y-89182500D01*
X95038452Y-89212738D01*
X95068690Y-89273214D01*
X95098928Y-89394166D01*
X95098928Y-89545357D01*
X95068690Y-89666309D01*
X95038452Y-89726785D01*
X95008214Y-89757023D01*
X94947738Y-89787261D01*
X94887261Y-89787261D01*
X94826785Y-89757023D01*
X94796547Y-89726785D01*
X94766309Y-89666309D01*
X94736071Y-89545357D01*
X94736071Y-89394166D01*
X94766309Y-89273214D01*
X94796547Y-89212738D01*
X94826785Y-89182500D01*
X94887261Y-89152261D01*
X95401309Y-89787261D02*
X95522261Y-89787261D01*
X95582738Y-89757023D01*
X95612976Y-89726785D01*
X95673452Y-89636071D01*
X95703690Y-89515119D01*
X95703690Y-89273214D01*
X95673452Y-89212738D01*
X95643214Y-89182500D01*
X95582738Y-89152261D01*
X95461785Y-89152261D01*
X95401309Y-89182500D01*
X95371071Y-89212738D01*
X95340833Y-89273214D01*
X95340833Y-89424404D01*
X95371071Y-89484880D01*
X95401309Y-89515119D01*
X95461785Y-89545357D01*
X95582738Y-89545357D01*
X95643214Y-89515119D01*
X95673452Y-89484880D01*
X95703690Y-89424404D01*
%TO.C,C108*%
X91026785Y-96110595D02*
X91057023Y-96140833D01*
X91087261Y-96231547D01*
X91087261Y-96292023D01*
X91057023Y-96382738D01*
X90996547Y-96443214D01*
X90936071Y-96473452D01*
X90815119Y-96503690D01*
X90724404Y-96503690D01*
X90603452Y-96473452D01*
X90542976Y-96443214D01*
X90482500Y-96382738D01*
X90452261Y-96292023D01*
X90452261Y-96231547D01*
X90482500Y-96140833D01*
X90512738Y-96110595D01*
X91087261Y-95505833D02*
X91087261Y-95868690D01*
X91087261Y-95687261D02*
X90452261Y-95687261D01*
X90542976Y-95747738D01*
X90603452Y-95808214D01*
X90633690Y-95868690D01*
X90452261Y-95112738D02*
X90452261Y-95052261D01*
X90482500Y-94991785D01*
X90512738Y-94961547D01*
X90573214Y-94931309D01*
X90694166Y-94901071D01*
X90845357Y-94901071D01*
X90966309Y-94931309D01*
X91026785Y-94961547D01*
X91057023Y-94991785D01*
X91087261Y-95052261D01*
X91087261Y-95112738D01*
X91057023Y-95173214D01*
X91026785Y-95203452D01*
X90966309Y-95233690D01*
X90845357Y-95263928D01*
X90694166Y-95263928D01*
X90573214Y-95233690D01*
X90512738Y-95203452D01*
X90482500Y-95173214D01*
X90452261Y-95112738D01*
X90724404Y-94538214D02*
X90694166Y-94598690D01*
X90663928Y-94628928D01*
X90603452Y-94659166D01*
X90573214Y-94659166D01*
X90512738Y-94628928D01*
X90482500Y-94598690D01*
X90452261Y-94538214D01*
X90452261Y-94417261D01*
X90482500Y-94356785D01*
X90512738Y-94326547D01*
X90573214Y-94296309D01*
X90603452Y-94296309D01*
X90663928Y-94326547D01*
X90694166Y-94356785D01*
X90724404Y-94417261D01*
X90724404Y-94538214D01*
X90754642Y-94598690D01*
X90784880Y-94628928D01*
X90845357Y-94659166D01*
X90966309Y-94659166D01*
X91026785Y-94628928D01*
X91057023Y-94598690D01*
X91087261Y-94538214D01*
X91087261Y-94417261D01*
X91057023Y-94356785D01*
X91026785Y-94326547D01*
X90966309Y-94296309D01*
X90845357Y-94296309D01*
X90784880Y-94326547D01*
X90754642Y-94356785D01*
X90724404Y-94417261D01*
%TO.C,C107*%
X104189404Y-102726785D02*
X104159166Y-102757023D01*
X104068452Y-102787261D01*
X104007976Y-102787261D01*
X103917261Y-102757023D01*
X103856785Y-102696547D01*
X103826547Y-102636071D01*
X103796309Y-102515119D01*
X103796309Y-102424404D01*
X103826547Y-102303452D01*
X103856785Y-102242976D01*
X103917261Y-102182500D01*
X104007976Y-102152261D01*
X104068452Y-102152261D01*
X104159166Y-102182500D01*
X104189404Y-102212738D01*
X104794166Y-102787261D02*
X104431309Y-102787261D01*
X104612738Y-102787261D02*
X104612738Y-102152261D01*
X104552261Y-102242976D01*
X104491785Y-102303452D01*
X104431309Y-102333690D01*
X105187261Y-102152261D02*
X105247738Y-102152261D01*
X105308214Y-102182500D01*
X105338452Y-102212738D01*
X105368690Y-102273214D01*
X105398928Y-102394166D01*
X105398928Y-102545357D01*
X105368690Y-102666309D01*
X105338452Y-102726785D01*
X105308214Y-102757023D01*
X105247738Y-102787261D01*
X105187261Y-102787261D01*
X105126785Y-102757023D01*
X105096547Y-102726785D01*
X105066309Y-102666309D01*
X105036071Y-102545357D01*
X105036071Y-102394166D01*
X105066309Y-102273214D01*
X105096547Y-102212738D01*
X105126785Y-102182500D01*
X105187261Y-102152261D01*
X105610595Y-102152261D02*
X106033928Y-102152261D01*
X105761785Y-102787261D01*
%TO.C,C106*%
X106426785Y-101010595D02*
X106457023Y-101040833D01*
X106487261Y-101131547D01*
X106487261Y-101192023D01*
X106457023Y-101282738D01*
X106396547Y-101343214D01*
X106336071Y-101373452D01*
X106215119Y-101403690D01*
X106124404Y-101403690D01*
X106003452Y-101373452D01*
X105942976Y-101343214D01*
X105882500Y-101282738D01*
X105852261Y-101192023D01*
X105852261Y-101131547D01*
X105882500Y-101040833D01*
X105912738Y-101010595D01*
X106487261Y-100405833D02*
X106487261Y-100768690D01*
X106487261Y-100587261D02*
X105852261Y-100587261D01*
X105942976Y-100647738D01*
X106003452Y-100708214D01*
X106033690Y-100768690D01*
X105852261Y-100012738D02*
X105852261Y-99952261D01*
X105882500Y-99891785D01*
X105912738Y-99861547D01*
X105973214Y-99831309D01*
X106094166Y-99801071D01*
X106245357Y-99801071D01*
X106366309Y-99831309D01*
X106426785Y-99861547D01*
X106457023Y-99891785D01*
X106487261Y-99952261D01*
X106487261Y-100012738D01*
X106457023Y-100073214D01*
X106426785Y-100103452D01*
X106366309Y-100133690D01*
X106245357Y-100163928D01*
X106094166Y-100163928D01*
X105973214Y-100133690D01*
X105912738Y-100103452D01*
X105882500Y-100073214D01*
X105852261Y-100012738D01*
X105852261Y-99256785D02*
X105852261Y-99377738D01*
X105882500Y-99438214D01*
X105912738Y-99468452D01*
X106003452Y-99528928D01*
X106124404Y-99559166D01*
X106366309Y-99559166D01*
X106426785Y-99528928D01*
X106457023Y-99498690D01*
X106487261Y-99438214D01*
X106487261Y-99317261D01*
X106457023Y-99256785D01*
X106426785Y-99226547D01*
X106366309Y-99196309D01*
X106215119Y-99196309D01*
X106154642Y-99226547D01*
X106124404Y-99256785D01*
X106094166Y-99317261D01*
X106094166Y-99438214D01*
X106124404Y-99498690D01*
X106154642Y-99528928D01*
X106215119Y-99559166D01*
D13*
%TO.C,C105*%
X89640050Y-103578707D02*
X89616223Y-103602534D01*
X89544740Y-103626362D01*
X89497085Y-103626362D01*
X89425602Y-103602534D01*
X89377947Y-103554879D01*
X89354119Y-103507224D01*
X89330291Y-103411913D01*
X89330291Y-103340430D01*
X89354119Y-103245120D01*
X89377947Y-103197465D01*
X89425602Y-103149810D01*
X89497085Y-103125982D01*
X89544740Y-103125982D01*
X89616223Y-103149810D01*
X89640050Y-103173637D01*
X90116603Y-103626362D02*
X89830671Y-103626362D01*
X89973637Y-103626362D02*
X89973637Y-103125982D01*
X89925982Y-103197465D01*
X89878327Y-103245120D01*
X89830671Y-103268948D01*
X90426362Y-103125982D02*
X90474017Y-103125982D01*
X90521672Y-103149810D01*
X90545500Y-103173637D01*
X90569328Y-103221292D01*
X90593155Y-103316603D01*
X90593155Y-103435741D01*
X90569328Y-103531051D01*
X90545500Y-103578707D01*
X90521672Y-103602534D01*
X90474017Y-103626362D01*
X90426362Y-103626362D01*
X90378707Y-103602534D01*
X90354879Y-103578707D01*
X90331051Y-103531051D01*
X90307224Y-103435741D01*
X90307224Y-103316603D01*
X90331051Y-103221292D01*
X90354879Y-103173637D01*
X90378707Y-103149810D01*
X90426362Y-103125982D01*
X91045880Y-103125982D02*
X90807604Y-103125982D01*
X90783776Y-103364258D01*
X90807604Y-103340430D01*
X90855259Y-103316603D01*
X90974397Y-103316603D01*
X91022052Y-103340430D01*
X91045880Y-103364258D01*
X91069708Y-103411913D01*
X91069708Y-103531051D01*
X91045880Y-103578707D01*
X91022052Y-103602534D01*
X90974397Y-103626362D01*
X90855259Y-103626362D01*
X90807604Y-103602534D01*
X90783776Y-103578707D01*
%TO.C,C104*%
X87278707Y-112759949D02*
X87302534Y-112783776D01*
X87326362Y-112855259D01*
X87326362Y-112902914D01*
X87302534Y-112974397D01*
X87254879Y-113022052D01*
X87207224Y-113045880D01*
X87111913Y-113069708D01*
X87040430Y-113069708D01*
X86945120Y-113045880D01*
X86897465Y-113022052D01*
X86849810Y-112974397D01*
X86825982Y-112902914D01*
X86825982Y-112855259D01*
X86849810Y-112783776D01*
X86873637Y-112759949D01*
X87326362Y-112283396D02*
X87326362Y-112569328D01*
X87326362Y-112426362D02*
X86825982Y-112426362D01*
X86897465Y-112474017D01*
X86945120Y-112521672D01*
X86968948Y-112569328D01*
X86825982Y-111973637D02*
X86825982Y-111925982D01*
X86849810Y-111878327D01*
X86873637Y-111854499D01*
X86921292Y-111830671D01*
X87016603Y-111806844D01*
X87135741Y-111806844D01*
X87231051Y-111830671D01*
X87278707Y-111854499D01*
X87302534Y-111878327D01*
X87326362Y-111925982D01*
X87326362Y-111973637D01*
X87302534Y-112021292D01*
X87278707Y-112045120D01*
X87231051Y-112068948D01*
X87135741Y-112092775D01*
X87016603Y-112092775D01*
X86921292Y-112068948D01*
X86873637Y-112045120D01*
X86849810Y-112021292D01*
X86825982Y-111973637D01*
X86992775Y-111377947D02*
X87326362Y-111377947D01*
X86802154Y-111497085D02*
X87159569Y-111616223D01*
X87159569Y-111306464D01*
D12*
%TO.C,C103*%
X87981428Y-109011628D02*
X88005619Y-109033400D01*
X88029809Y-109098714D01*
X88029809Y-109142257D01*
X88005619Y-109207571D01*
X87957238Y-109251114D01*
X87908857Y-109272885D01*
X87812095Y-109294657D01*
X87739523Y-109294657D01*
X87642761Y-109272885D01*
X87594380Y-109251114D01*
X87546000Y-109207571D01*
X87521809Y-109142257D01*
X87521809Y-109098714D01*
X87546000Y-109033400D01*
X87570190Y-109011628D01*
X88029809Y-108576200D02*
X88029809Y-108837457D01*
X88029809Y-108706828D02*
X87521809Y-108706828D01*
X87594380Y-108750371D01*
X87642761Y-108793914D01*
X87666952Y-108837457D01*
X87521809Y-108293171D02*
X87521809Y-108249628D01*
X87546000Y-108206085D01*
X87570190Y-108184314D01*
X87618571Y-108162542D01*
X87715333Y-108140771D01*
X87836285Y-108140771D01*
X87933047Y-108162542D01*
X87981428Y-108184314D01*
X88005619Y-108206085D01*
X88029809Y-108249628D01*
X88029809Y-108293171D01*
X88005619Y-108336714D01*
X87981428Y-108358485D01*
X87933047Y-108380257D01*
X87836285Y-108402028D01*
X87715333Y-108402028D01*
X87618571Y-108380257D01*
X87570190Y-108358485D01*
X87546000Y-108336714D01*
X87521809Y-108293171D01*
X87521809Y-107988371D02*
X87521809Y-107705342D01*
X87715333Y-107857742D01*
X87715333Y-107792428D01*
X87739523Y-107748885D01*
X87763714Y-107727114D01*
X87812095Y-107705342D01*
X87933047Y-107705342D01*
X87981428Y-107727114D01*
X88005619Y-107748885D01*
X88029809Y-107792428D01*
X88029809Y-107923057D01*
X88005619Y-107966600D01*
X87981428Y-107988371D01*
D13*
%TO.C,C102*%
X79278707Y-104759949D02*
X79302534Y-104783776D01*
X79326362Y-104855259D01*
X79326362Y-104902914D01*
X79302534Y-104974397D01*
X79254879Y-105022052D01*
X79207224Y-105045880D01*
X79111913Y-105069708D01*
X79040430Y-105069708D01*
X78945120Y-105045880D01*
X78897465Y-105022052D01*
X78849810Y-104974397D01*
X78825982Y-104902914D01*
X78825982Y-104855259D01*
X78849810Y-104783776D01*
X78873637Y-104759949D01*
X79326362Y-104283396D02*
X79326362Y-104569328D01*
X79326362Y-104426362D02*
X78825982Y-104426362D01*
X78897465Y-104474017D01*
X78945120Y-104521672D01*
X78968948Y-104569328D01*
X78825982Y-103973637D02*
X78825982Y-103925982D01*
X78849810Y-103878327D01*
X78873637Y-103854499D01*
X78921292Y-103830671D01*
X79016603Y-103806844D01*
X79135741Y-103806844D01*
X79231051Y-103830671D01*
X79278707Y-103854499D01*
X79302534Y-103878327D01*
X79326362Y-103925982D01*
X79326362Y-103973637D01*
X79302534Y-104021292D01*
X79278707Y-104045120D01*
X79231051Y-104068948D01*
X79135741Y-104092775D01*
X79016603Y-104092775D01*
X78921292Y-104068948D01*
X78873637Y-104045120D01*
X78849810Y-104021292D01*
X78825982Y-103973637D01*
X78873637Y-103616223D02*
X78849810Y-103592395D01*
X78825982Y-103544740D01*
X78825982Y-103425602D01*
X78849810Y-103377947D01*
X78873637Y-103354119D01*
X78921292Y-103330291D01*
X78968948Y-103330291D01*
X79040430Y-103354119D01*
X79326362Y-103640050D01*
X79326362Y-103330291D01*
%TO.C,C101*%
X76140050Y-103178707D02*
X76116223Y-103202534D01*
X76044740Y-103226362D01*
X75997085Y-103226362D01*
X75925602Y-103202534D01*
X75877947Y-103154879D01*
X75854119Y-103107224D01*
X75830291Y-103011913D01*
X75830291Y-102940430D01*
X75854119Y-102845120D01*
X75877947Y-102797465D01*
X75925602Y-102749810D01*
X75997085Y-102725982D01*
X76044740Y-102725982D01*
X76116223Y-102749810D01*
X76140050Y-102773637D01*
X76616603Y-103226362D02*
X76330671Y-103226362D01*
X76473637Y-103226362D02*
X76473637Y-102725982D01*
X76425982Y-102797465D01*
X76378327Y-102845120D01*
X76330671Y-102868948D01*
X76926362Y-102725982D02*
X76974017Y-102725982D01*
X77021672Y-102749810D01*
X77045500Y-102773637D01*
X77069328Y-102821292D01*
X77093155Y-102916603D01*
X77093155Y-103035741D01*
X77069328Y-103131051D01*
X77045500Y-103178707D01*
X77021672Y-103202534D01*
X76974017Y-103226362D01*
X76926362Y-103226362D01*
X76878707Y-103202534D01*
X76854879Y-103178707D01*
X76831051Y-103131051D01*
X76807224Y-103035741D01*
X76807224Y-102916603D01*
X76831051Y-102821292D01*
X76854879Y-102773637D01*
X76878707Y-102749810D01*
X76926362Y-102725982D01*
X77569708Y-103226362D02*
X77283776Y-103226362D01*
X77426742Y-103226362D02*
X77426742Y-102725982D01*
X77379087Y-102797465D01*
X77331431Y-102845120D01*
X77283776Y-102868948D01*
D11*
%TO.C,TP103*%
X132593928Y-106852261D02*
X132956785Y-106852261D01*
X132775357Y-107487261D02*
X132775357Y-106852261D01*
X133168452Y-107487261D02*
X133168452Y-106852261D01*
X133410357Y-106852261D01*
X133470833Y-106882500D01*
X133501071Y-106912738D01*
X133531309Y-106973214D01*
X133531309Y-107063928D01*
X133501071Y-107124404D01*
X133470833Y-107154642D01*
X133410357Y-107184880D01*
X133168452Y-107184880D01*
X134136071Y-107487261D02*
X133773214Y-107487261D01*
X133954642Y-107487261D02*
X133954642Y-106852261D01*
X133894166Y-106942976D01*
X133833690Y-107003452D01*
X133773214Y-107033690D01*
X134529166Y-106852261D02*
X134589642Y-106852261D01*
X134650119Y-106882500D01*
X134680357Y-106912738D01*
X134710595Y-106973214D01*
X134740833Y-107094166D01*
X134740833Y-107245357D01*
X134710595Y-107366309D01*
X134680357Y-107426785D01*
X134650119Y-107457023D01*
X134589642Y-107487261D01*
X134529166Y-107487261D01*
X134468690Y-107457023D01*
X134438452Y-107426785D01*
X134408214Y-107366309D01*
X134377976Y-107245357D01*
X134377976Y-107094166D01*
X134408214Y-106973214D01*
X134438452Y-106912738D01*
X134468690Y-106882500D01*
X134529166Y-106852261D01*
X134952500Y-106852261D02*
X135345595Y-106852261D01*
X135133928Y-107094166D01*
X135224642Y-107094166D01*
X135285119Y-107124404D01*
X135315357Y-107154642D01*
X135345595Y-107215119D01*
X135345595Y-107366309D01*
X135315357Y-107426785D01*
X135285119Y-107457023D01*
X135224642Y-107487261D01*
X135043214Y-107487261D01*
X134982738Y-107457023D01*
X134952500Y-107426785D01*
%TO.C,J105*%
X131514285Y-98852380D02*
X131514285Y-99566666D01*
X131466666Y-99709523D01*
X131371428Y-99804761D01*
X131228571Y-99852380D01*
X131133333Y-99852380D01*
X132514285Y-99852380D02*
X131942857Y-99852380D01*
X132228571Y-99852380D02*
X132228571Y-98852380D01*
X132133333Y-98995238D01*
X132038095Y-99090476D01*
X131942857Y-99138095D01*
X133133333Y-98852380D02*
X133228571Y-98852380D01*
X133323809Y-98900000D01*
X133371428Y-98947619D01*
X133419047Y-99042857D01*
X133466666Y-99233333D01*
X133466666Y-99471428D01*
X133419047Y-99661904D01*
X133371428Y-99757142D01*
X133323809Y-99804761D01*
X133228571Y-99852380D01*
X133133333Y-99852380D01*
X133038095Y-99804761D01*
X132990476Y-99757142D01*
X132942857Y-99661904D01*
X132895238Y-99471428D01*
X132895238Y-99233333D01*
X132942857Y-99042857D01*
X132990476Y-98947619D01*
X133038095Y-98900000D01*
X133133333Y-98852380D01*
X134371428Y-98852380D02*
X133895238Y-98852380D01*
X133847619Y-99328571D01*
X133895238Y-99280952D01*
X133990476Y-99233333D01*
X134228571Y-99233333D01*
X134323809Y-99280952D01*
X134371428Y-99328571D01*
X134419047Y-99423809D01*
X134419047Y-99661904D01*
X134371428Y-99757142D01*
X134323809Y-99804761D01*
X134228571Y-99852380D01*
X133990476Y-99852380D01*
X133895238Y-99804761D01*
X133847619Y-99757142D01*
D14*
%TO.C,D101*%
X79086238Y-112929809D02*
X79086238Y-112421809D01*
X79207190Y-112421809D01*
X79279761Y-112446000D01*
X79328142Y-112494380D01*
X79352333Y-112542761D01*
X79376523Y-112639523D01*
X79376523Y-112712095D01*
X79352333Y-112808857D01*
X79328142Y-112857238D01*
X79279761Y-112905619D01*
X79207190Y-112929809D01*
X79086238Y-112929809D01*
X79860333Y-112929809D02*
X79570047Y-112929809D01*
X79715190Y-112929809D02*
X79715190Y-112421809D01*
X79666809Y-112494380D01*
X79618428Y-112542761D01*
X79570047Y-112566952D01*
X80174809Y-112421809D02*
X80223190Y-112421809D01*
X80271571Y-112446000D01*
X80295761Y-112470190D01*
X80319952Y-112518571D01*
X80344142Y-112615333D01*
X80344142Y-112736285D01*
X80319952Y-112833047D01*
X80295761Y-112881428D01*
X80271571Y-112905619D01*
X80223190Y-112929809D01*
X80174809Y-112929809D01*
X80126428Y-112905619D01*
X80102238Y-112881428D01*
X80078047Y-112833047D01*
X80053857Y-112736285D01*
X80053857Y-112615333D01*
X80078047Y-112518571D01*
X80102238Y-112470190D01*
X80126428Y-112446000D01*
X80174809Y-112421809D01*
X80827952Y-112929809D02*
X80537666Y-112929809D01*
X80682809Y-112929809D02*
X80682809Y-112421809D01*
X80634428Y-112494380D01*
X80586047Y-112542761D01*
X80537666Y-112566952D01*
D11*
%TO.C,J101*%
X67409285Y-102452380D02*
X67409285Y-103166666D01*
X67361666Y-103309523D01*
X67266428Y-103404761D01*
X67123571Y-103452380D01*
X67028333Y-103452380D01*
X68409285Y-103452380D02*
X67837857Y-103452380D01*
X68123571Y-103452380D02*
X68123571Y-102452380D01*
X68028333Y-102595238D01*
X67933095Y-102690476D01*
X67837857Y-102738095D01*
X69028333Y-102452380D02*
X69123571Y-102452380D01*
X69218809Y-102500000D01*
X69266428Y-102547619D01*
X69314047Y-102642857D01*
X69361666Y-102833333D01*
X69361666Y-103071428D01*
X69314047Y-103261904D01*
X69266428Y-103357142D01*
X69218809Y-103404761D01*
X69123571Y-103452380D01*
X69028333Y-103452380D01*
X68933095Y-103404761D01*
X68885476Y-103357142D01*
X68837857Y-103261904D01*
X68790238Y-103071428D01*
X68790238Y-102833333D01*
X68837857Y-102642857D01*
X68885476Y-102547619D01*
X68933095Y-102500000D01*
X69028333Y-102452380D01*
X70314047Y-103452380D02*
X69742619Y-103452380D01*
X70028333Y-103452380D02*
X70028333Y-102452380D01*
X69933095Y-102595238D01*
X69837857Y-102690476D01*
X69742619Y-102738095D01*
%TO.C,U103*%
X100111428Y-89452261D02*
X100111428Y-89966309D01*
X100141666Y-90026785D01*
X100171904Y-90057023D01*
X100232380Y-90087261D01*
X100353333Y-90087261D01*
X100413809Y-90057023D01*
X100444047Y-90026785D01*
X100474285Y-89966309D01*
X100474285Y-89452261D01*
X101109285Y-90087261D02*
X100746428Y-90087261D01*
X100927857Y-90087261D02*
X100927857Y-89452261D01*
X100867380Y-89542976D01*
X100806904Y-89603452D01*
X100746428Y-89633690D01*
X101502380Y-89452261D02*
X101562857Y-89452261D01*
X101623333Y-89482500D01*
X101653571Y-89512738D01*
X101683809Y-89573214D01*
X101714047Y-89694166D01*
X101714047Y-89845357D01*
X101683809Y-89966309D01*
X101653571Y-90026785D01*
X101623333Y-90057023D01*
X101562857Y-90087261D01*
X101502380Y-90087261D01*
X101441904Y-90057023D01*
X101411666Y-90026785D01*
X101381428Y-89966309D01*
X101351190Y-89845357D01*
X101351190Y-89694166D01*
X101381428Y-89573214D01*
X101411666Y-89512738D01*
X101441904Y-89482500D01*
X101502380Y-89452261D01*
X101925714Y-89452261D02*
X102318809Y-89452261D01*
X102107142Y-89694166D01*
X102197857Y-89694166D01*
X102258333Y-89724404D01*
X102288571Y-89754642D01*
X102318809Y-89815119D01*
X102318809Y-89966309D01*
X102288571Y-90026785D01*
X102258333Y-90057023D01*
X102197857Y-90087261D01*
X102016428Y-90087261D01*
X101955952Y-90057023D01*
X101925714Y-90026785D01*
D14*
%TO.C,D103*%
X92429809Y-80058761D02*
X91921809Y-80058761D01*
X91921809Y-79937809D01*
X91946000Y-79865238D01*
X91994380Y-79816857D01*
X92042761Y-79792666D01*
X92139523Y-79768476D01*
X92212095Y-79768476D01*
X92308857Y-79792666D01*
X92357238Y-79816857D01*
X92405619Y-79865238D01*
X92429809Y-79937809D01*
X92429809Y-80058761D01*
X92429809Y-79284666D02*
X92429809Y-79574952D01*
X92429809Y-79429809D02*
X91921809Y-79429809D01*
X91994380Y-79478190D01*
X92042761Y-79526571D01*
X92066952Y-79574952D01*
X91921809Y-78970190D02*
X91921809Y-78921809D01*
X91946000Y-78873428D01*
X91970190Y-78849238D01*
X92018571Y-78825047D01*
X92115333Y-78800857D01*
X92236285Y-78800857D01*
X92333047Y-78825047D01*
X92381428Y-78849238D01*
X92405619Y-78873428D01*
X92429809Y-78921809D01*
X92429809Y-78970190D01*
X92405619Y-79018571D01*
X92381428Y-79042761D01*
X92333047Y-79066952D01*
X92236285Y-79091142D01*
X92115333Y-79091142D01*
X92018571Y-79066952D01*
X91970190Y-79042761D01*
X91946000Y-79018571D01*
X91921809Y-78970190D01*
X91921809Y-78631523D02*
X91921809Y-78317047D01*
X92115333Y-78486380D01*
X92115333Y-78413809D01*
X92139523Y-78365428D01*
X92163714Y-78341238D01*
X92212095Y-78317047D01*
X92333047Y-78317047D01*
X92381428Y-78341238D01*
X92405619Y-78365428D01*
X92429809Y-78413809D01*
X92429809Y-78558952D01*
X92405619Y-78607333D01*
X92381428Y-78631523D01*
D11*
%TO.C,J106*%
X60356785Y-91952380D02*
X60356785Y-92666666D01*
X60309166Y-92809523D01*
X60213928Y-92904761D01*
X60071071Y-92952380D01*
X59975833Y-92952380D01*
X61356785Y-92952380D02*
X60785357Y-92952380D01*
X61071071Y-92952380D02*
X61071071Y-91952380D01*
X60975833Y-92095238D01*
X60880595Y-92190476D01*
X60785357Y-92238095D01*
X61975833Y-91952380D02*
X62071071Y-91952380D01*
X62166309Y-92000000D01*
X62213928Y-92047619D01*
X62261547Y-92142857D01*
X62309166Y-92333333D01*
X62309166Y-92571428D01*
X62261547Y-92761904D01*
X62213928Y-92857142D01*
X62166309Y-92904761D01*
X62071071Y-92952380D01*
X61975833Y-92952380D01*
X61880595Y-92904761D01*
X61832976Y-92857142D01*
X61785357Y-92761904D01*
X61737738Y-92571428D01*
X61737738Y-92333333D01*
X61785357Y-92142857D01*
X61832976Y-92047619D01*
X61880595Y-92000000D01*
X61975833Y-91952380D01*
X63166309Y-91952380D02*
X62975833Y-91952380D01*
X62880595Y-92000000D01*
X62832976Y-92047619D01*
X62737738Y-92190476D01*
X62690119Y-92380952D01*
X62690119Y-92761904D01*
X62737738Y-92857142D01*
X62785357Y-92904761D01*
X62880595Y-92952380D01*
X63071071Y-92952380D01*
X63166309Y-92904761D01*
X63213928Y-92857142D01*
X63261547Y-92761904D01*
X63261547Y-92523809D01*
X63213928Y-92428571D01*
X63166309Y-92380952D01*
X63071071Y-92333333D01*
X62880595Y-92333333D01*
X62785357Y-92380952D01*
X62737738Y-92428571D01*
X62690119Y-92523809D01*
D14*
%TO.C,D104*%
X90829809Y-80058761D02*
X90321809Y-80058761D01*
X90321809Y-79937809D01*
X90346000Y-79865238D01*
X90394380Y-79816857D01*
X90442761Y-79792666D01*
X90539523Y-79768476D01*
X90612095Y-79768476D01*
X90708857Y-79792666D01*
X90757238Y-79816857D01*
X90805619Y-79865238D01*
X90829809Y-79937809D01*
X90829809Y-80058761D01*
X90829809Y-79284666D02*
X90829809Y-79574952D01*
X90829809Y-79429809D02*
X90321809Y-79429809D01*
X90394380Y-79478190D01*
X90442761Y-79526571D01*
X90466952Y-79574952D01*
X90321809Y-78970190D02*
X90321809Y-78921809D01*
X90346000Y-78873428D01*
X90370190Y-78849238D01*
X90418571Y-78825047D01*
X90515333Y-78800857D01*
X90636285Y-78800857D01*
X90733047Y-78825047D01*
X90781428Y-78849238D01*
X90805619Y-78873428D01*
X90829809Y-78921809D01*
X90829809Y-78970190D01*
X90805619Y-79018571D01*
X90781428Y-79042761D01*
X90733047Y-79066952D01*
X90636285Y-79091142D01*
X90515333Y-79091142D01*
X90418571Y-79066952D01*
X90370190Y-79042761D01*
X90346000Y-79018571D01*
X90321809Y-78970190D01*
X90491142Y-78365428D02*
X90829809Y-78365428D01*
X90297619Y-78486380D02*
X90660476Y-78607333D01*
X90660476Y-78292857D01*
D11*
%TO.C,TP101*%
X132593928Y-77852261D02*
X132956785Y-77852261D01*
X132775357Y-78487261D02*
X132775357Y-77852261D01*
X133168452Y-78487261D02*
X133168452Y-77852261D01*
X133410357Y-77852261D01*
X133470833Y-77882500D01*
X133501071Y-77912738D01*
X133531309Y-77973214D01*
X133531309Y-78063928D01*
X133501071Y-78124404D01*
X133470833Y-78154642D01*
X133410357Y-78184880D01*
X133168452Y-78184880D01*
X134136071Y-78487261D02*
X133773214Y-78487261D01*
X133954642Y-78487261D02*
X133954642Y-77852261D01*
X133894166Y-77942976D01*
X133833690Y-78003452D01*
X133773214Y-78033690D01*
X134529166Y-77852261D02*
X134589642Y-77852261D01*
X134650119Y-77882500D01*
X134680357Y-77912738D01*
X134710595Y-77973214D01*
X134740833Y-78094166D01*
X134740833Y-78245357D01*
X134710595Y-78366309D01*
X134680357Y-78426785D01*
X134650119Y-78457023D01*
X134589642Y-78487261D01*
X134529166Y-78487261D01*
X134468690Y-78457023D01*
X134438452Y-78426785D01*
X134408214Y-78366309D01*
X134377976Y-78245357D01*
X134377976Y-78094166D01*
X134408214Y-77973214D01*
X134438452Y-77912738D01*
X134468690Y-77882500D01*
X134529166Y-77852261D01*
X135345595Y-78487261D02*
X134982738Y-78487261D01*
X135164166Y-78487261D02*
X135164166Y-77852261D01*
X135103690Y-77942976D01*
X135043214Y-78003452D01*
X134982738Y-78033690D01*
D14*
%TO.C,D105*%
X89229809Y-80058761D02*
X88721809Y-80058761D01*
X88721809Y-79937809D01*
X88746000Y-79865238D01*
X88794380Y-79816857D01*
X88842761Y-79792666D01*
X88939523Y-79768476D01*
X89012095Y-79768476D01*
X89108857Y-79792666D01*
X89157238Y-79816857D01*
X89205619Y-79865238D01*
X89229809Y-79937809D01*
X89229809Y-80058761D01*
X89229809Y-79284666D02*
X89229809Y-79574952D01*
X89229809Y-79429809D02*
X88721809Y-79429809D01*
X88794380Y-79478190D01*
X88842761Y-79526571D01*
X88866952Y-79574952D01*
X88721809Y-78970190D02*
X88721809Y-78921809D01*
X88746000Y-78873428D01*
X88770190Y-78849238D01*
X88818571Y-78825047D01*
X88915333Y-78800857D01*
X89036285Y-78800857D01*
X89133047Y-78825047D01*
X89181428Y-78849238D01*
X89205619Y-78873428D01*
X89229809Y-78921809D01*
X89229809Y-78970190D01*
X89205619Y-79018571D01*
X89181428Y-79042761D01*
X89133047Y-79066952D01*
X89036285Y-79091142D01*
X88915333Y-79091142D01*
X88818571Y-79066952D01*
X88770190Y-79042761D01*
X88746000Y-79018571D01*
X88721809Y-78970190D01*
X88721809Y-78341238D02*
X88721809Y-78583142D01*
X88963714Y-78607333D01*
X88939523Y-78583142D01*
X88915333Y-78534761D01*
X88915333Y-78413809D01*
X88939523Y-78365428D01*
X88963714Y-78341238D01*
X89012095Y-78317047D01*
X89133047Y-78317047D01*
X89181428Y-78341238D01*
X89205619Y-78365428D01*
X89229809Y-78413809D01*
X89229809Y-78534761D01*
X89205619Y-78583142D01*
X89181428Y-78607333D01*
D11*
%TO.C,U101*%
X75352261Y-111588571D02*
X75866309Y-111588571D01*
X75926785Y-111558333D01*
X75957023Y-111528095D01*
X75987261Y-111467619D01*
X75987261Y-111346666D01*
X75957023Y-111286190D01*
X75926785Y-111255952D01*
X75866309Y-111225714D01*
X75352261Y-111225714D01*
X75987261Y-110590714D02*
X75987261Y-110953571D01*
X75987261Y-110772142D02*
X75352261Y-110772142D01*
X75442976Y-110832619D01*
X75503452Y-110893095D01*
X75533690Y-110953571D01*
X75352261Y-110197619D02*
X75352261Y-110137142D01*
X75382500Y-110076666D01*
X75412738Y-110046428D01*
X75473214Y-110016190D01*
X75594166Y-109985952D01*
X75745357Y-109985952D01*
X75866309Y-110016190D01*
X75926785Y-110046428D01*
X75957023Y-110076666D01*
X75987261Y-110137142D01*
X75987261Y-110197619D01*
X75957023Y-110258095D01*
X75926785Y-110288333D01*
X75866309Y-110318571D01*
X75745357Y-110348809D01*
X75594166Y-110348809D01*
X75473214Y-110318571D01*
X75412738Y-110288333D01*
X75382500Y-110258095D01*
X75352261Y-110197619D01*
X75987261Y-109381190D02*
X75987261Y-109744047D01*
X75987261Y-109562619D02*
X75352261Y-109562619D01*
X75442976Y-109623095D01*
X75503452Y-109683571D01*
X75533690Y-109744047D01*
D15*
%TO.C,U105*%
X78204971Y-84466171D02*
X78204971Y-84959657D01*
X78234000Y-85017714D01*
X78263028Y-85046742D01*
X78321085Y-85075771D01*
X78437200Y-85075771D01*
X78495257Y-85046742D01*
X78524285Y-85017714D01*
X78553314Y-84959657D01*
X78553314Y-84466171D01*
X79162914Y-85075771D02*
X78814571Y-85075771D01*
X78988742Y-85075771D02*
X78988742Y-84466171D01*
X78930685Y-84553257D01*
X78872628Y-84611314D01*
X78814571Y-84640342D01*
X79540285Y-84466171D02*
X79598342Y-84466171D01*
X79656400Y-84495200D01*
X79685428Y-84524228D01*
X79714457Y-84582285D01*
X79743485Y-84698400D01*
X79743485Y-84843542D01*
X79714457Y-84959657D01*
X79685428Y-85017714D01*
X79656400Y-85046742D01*
X79598342Y-85075771D01*
X79540285Y-85075771D01*
X79482228Y-85046742D01*
X79453200Y-85017714D01*
X79424171Y-84959657D01*
X79395142Y-84843542D01*
X79395142Y-84698400D01*
X79424171Y-84582285D01*
X79453200Y-84524228D01*
X79482228Y-84495200D01*
X79540285Y-84466171D01*
X80295028Y-84466171D02*
X80004742Y-84466171D01*
X79975714Y-84756457D01*
X80004742Y-84727428D01*
X80062800Y-84698400D01*
X80207942Y-84698400D01*
X80266000Y-84727428D01*
X80295028Y-84756457D01*
X80324057Y-84814514D01*
X80324057Y-84959657D01*
X80295028Y-85017714D01*
X80266000Y-85046742D01*
X80207942Y-85075771D01*
X80062800Y-85075771D01*
X80004742Y-85046742D01*
X79975714Y-85017714D01*
D11*
%TO.C,D102*%
X86187261Y-112773452D02*
X85552261Y-112773452D01*
X85552261Y-112622261D01*
X85582500Y-112531547D01*
X85642976Y-112471071D01*
X85703452Y-112440833D01*
X85824404Y-112410595D01*
X85915119Y-112410595D01*
X86036071Y-112440833D01*
X86096547Y-112471071D01*
X86157023Y-112531547D01*
X86187261Y-112622261D01*
X86187261Y-112773452D01*
X86187261Y-111805833D02*
X86187261Y-112168690D01*
X86187261Y-111987261D02*
X85552261Y-111987261D01*
X85642976Y-112047738D01*
X85703452Y-112108214D01*
X85733690Y-112168690D01*
X85552261Y-111412738D02*
X85552261Y-111352261D01*
X85582500Y-111291785D01*
X85612738Y-111261547D01*
X85673214Y-111231309D01*
X85794166Y-111201071D01*
X85945357Y-111201071D01*
X86066309Y-111231309D01*
X86126785Y-111261547D01*
X86157023Y-111291785D01*
X86187261Y-111352261D01*
X86187261Y-111412738D01*
X86157023Y-111473214D01*
X86126785Y-111503452D01*
X86066309Y-111533690D01*
X85945357Y-111563928D01*
X85794166Y-111563928D01*
X85673214Y-111533690D01*
X85612738Y-111503452D01*
X85582500Y-111473214D01*
X85552261Y-111412738D01*
X85612738Y-110959166D02*
X85582500Y-110928928D01*
X85552261Y-110868452D01*
X85552261Y-110717261D01*
X85582500Y-110656785D01*
X85612738Y-110626547D01*
X85673214Y-110596309D01*
X85733690Y-110596309D01*
X85824404Y-110626547D01*
X86187261Y-110989404D01*
X86187261Y-110596309D01*
%TO.C,J103*%
X101952261Y-83806428D02*
X102405833Y-83806428D01*
X102496547Y-83836666D01*
X102557023Y-83897142D01*
X102587261Y-83987857D01*
X102587261Y-84048333D01*
X102587261Y-83171428D02*
X102587261Y-83534285D01*
X102587261Y-83352857D02*
X101952261Y-83352857D01*
X102042976Y-83413333D01*
X102103452Y-83473809D01*
X102133690Y-83534285D01*
X101952261Y-82778333D02*
X101952261Y-82717857D01*
X101982500Y-82657380D01*
X102012738Y-82627142D01*
X102073214Y-82596904D01*
X102194166Y-82566666D01*
X102345357Y-82566666D01*
X102466309Y-82596904D01*
X102526785Y-82627142D01*
X102557023Y-82657380D01*
X102587261Y-82717857D01*
X102587261Y-82778333D01*
X102557023Y-82838809D01*
X102526785Y-82869047D01*
X102466309Y-82899285D01*
X102345357Y-82929523D01*
X102194166Y-82929523D01*
X102073214Y-82899285D01*
X102012738Y-82869047D01*
X101982500Y-82838809D01*
X101952261Y-82778333D01*
X101952261Y-82355000D02*
X101952261Y-81961904D01*
X102194166Y-82173571D01*
X102194166Y-82082857D01*
X102224404Y-82022380D01*
X102254642Y-81992142D01*
X102315119Y-81961904D01*
X102466309Y-81961904D01*
X102526785Y-81992142D01*
X102557023Y-82022380D01*
X102587261Y-82082857D01*
X102587261Y-82264285D01*
X102557023Y-82324761D01*
X102526785Y-82355000D01*
%TO.C,J102*%
X83109285Y-96652380D02*
X83109285Y-97366666D01*
X83061666Y-97509523D01*
X82966428Y-97604761D01*
X82823571Y-97652380D01*
X82728333Y-97652380D01*
X84109285Y-97652380D02*
X83537857Y-97652380D01*
X83823571Y-97652380D02*
X83823571Y-96652380D01*
X83728333Y-96795238D01*
X83633095Y-96890476D01*
X83537857Y-96938095D01*
X84728333Y-96652380D02*
X84823571Y-96652380D01*
X84918809Y-96700000D01*
X84966428Y-96747619D01*
X85014047Y-96842857D01*
X85061666Y-97033333D01*
X85061666Y-97271428D01*
X85014047Y-97461904D01*
X84966428Y-97557142D01*
X84918809Y-97604761D01*
X84823571Y-97652380D01*
X84728333Y-97652380D01*
X84633095Y-97604761D01*
X84585476Y-97557142D01*
X84537857Y-97461904D01*
X84490238Y-97271428D01*
X84490238Y-97033333D01*
X84537857Y-96842857D01*
X84585476Y-96747619D01*
X84633095Y-96700000D01*
X84728333Y-96652380D01*
X85442619Y-96747619D02*
X85490238Y-96700000D01*
X85585476Y-96652380D01*
X85823571Y-96652380D01*
X85918809Y-96700000D01*
X85966428Y-96747619D01*
X86014047Y-96842857D01*
X86014047Y-96938095D01*
X85966428Y-97080952D01*
X85395000Y-97652380D01*
X86014047Y-97652380D01*
%TO.C,TP104*%
X59593928Y-106852261D02*
X59956785Y-106852261D01*
X59775357Y-107487261D02*
X59775357Y-106852261D01*
X60168452Y-107487261D02*
X60168452Y-106852261D01*
X60410357Y-106852261D01*
X60470833Y-106882500D01*
X60501071Y-106912738D01*
X60531309Y-106973214D01*
X60531309Y-107063928D01*
X60501071Y-107124404D01*
X60470833Y-107154642D01*
X60410357Y-107184880D01*
X60168452Y-107184880D01*
X61136071Y-107487261D02*
X60773214Y-107487261D01*
X60954642Y-107487261D02*
X60954642Y-106852261D01*
X60894166Y-106942976D01*
X60833690Y-107003452D01*
X60773214Y-107033690D01*
X61529166Y-106852261D02*
X61589642Y-106852261D01*
X61650119Y-106882500D01*
X61680357Y-106912738D01*
X61710595Y-106973214D01*
X61740833Y-107094166D01*
X61740833Y-107245357D01*
X61710595Y-107366309D01*
X61680357Y-107426785D01*
X61650119Y-107457023D01*
X61589642Y-107487261D01*
X61529166Y-107487261D01*
X61468690Y-107457023D01*
X61438452Y-107426785D01*
X61408214Y-107366309D01*
X61377976Y-107245357D01*
X61377976Y-107094166D01*
X61408214Y-106973214D01*
X61438452Y-106912738D01*
X61468690Y-106882500D01*
X61529166Y-106852261D01*
X62285119Y-107063928D02*
X62285119Y-107487261D01*
X62133928Y-106822023D02*
X61982738Y-107275595D01*
X62375833Y-107275595D01*
%TO.C,J107*%
X70022380Y-82535714D02*
X70736666Y-82535714D01*
X70879523Y-82583333D01*
X70974761Y-82678571D01*
X71022380Y-82821428D01*
X71022380Y-82916666D01*
X71022380Y-81535714D02*
X71022380Y-82107142D01*
X71022380Y-81821428D02*
X70022380Y-81821428D01*
X70165238Y-81916666D01*
X70260476Y-82011904D01*
X70308095Y-82107142D01*
X70022380Y-80916666D02*
X70022380Y-80821428D01*
X70070000Y-80726190D01*
X70117619Y-80678571D01*
X70212857Y-80630952D01*
X70403333Y-80583333D01*
X70641428Y-80583333D01*
X70831904Y-80630952D01*
X70927142Y-80678571D01*
X70974761Y-80726190D01*
X71022380Y-80821428D01*
X71022380Y-80916666D01*
X70974761Y-81011904D01*
X70927142Y-81059523D01*
X70831904Y-81107142D01*
X70641428Y-81154761D01*
X70403333Y-81154761D01*
X70212857Y-81107142D01*
X70117619Y-81059523D01*
X70070000Y-81011904D01*
X70022380Y-80916666D01*
X70022380Y-80250000D02*
X70022380Y-79583333D01*
X71022380Y-80011904D01*
%TO.C,X101*%
X101781190Y-97752261D02*
X102204523Y-98387261D01*
X102204523Y-97752261D02*
X101781190Y-98387261D01*
X102779047Y-98387261D02*
X102416190Y-98387261D01*
X102597619Y-98387261D02*
X102597619Y-97752261D01*
X102537142Y-97842976D01*
X102476666Y-97903452D01*
X102416190Y-97933690D01*
X103172142Y-97752261D02*
X103232619Y-97752261D01*
X103293095Y-97782500D01*
X103323333Y-97812738D01*
X103353571Y-97873214D01*
X103383809Y-97994166D01*
X103383809Y-98145357D01*
X103353571Y-98266309D01*
X103323333Y-98326785D01*
X103293095Y-98357023D01*
X103232619Y-98387261D01*
X103172142Y-98387261D01*
X103111666Y-98357023D01*
X103081428Y-98326785D01*
X103051190Y-98266309D01*
X103020952Y-98145357D01*
X103020952Y-97994166D01*
X103051190Y-97873214D01*
X103081428Y-97812738D01*
X103111666Y-97782500D01*
X103172142Y-97752261D01*
X103988571Y-98387261D02*
X103625714Y-98387261D01*
X103807142Y-98387261D02*
X103807142Y-97752261D01*
X103746666Y-97842976D01*
X103686190Y-97903452D01*
X103625714Y-97933690D01*
%TO.C,J104*%
X93157261Y-105806428D02*
X93610833Y-105806428D01*
X93701547Y-105836666D01*
X93762023Y-105897142D01*
X93792261Y-105987857D01*
X93792261Y-106048333D01*
X93792261Y-105171428D02*
X93792261Y-105534285D01*
X93792261Y-105352857D02*
X93157261Y-105352857D01*
X93247976Y-105413333D01*
X93308452Y-105473809D01*
X93338690Y-105534285D01*
X93157261Y-104778333D02*
X93157261Y-104717857D01*
X93187500Y-104657380D01*
X93217738Y-104627142D01*
X93278214Y-104596904D01*
X93399166Y-104566666D01*
X93550357Y-104566666D01*
X93671309Y-104596904D01*
X93731785Y-104627142D01*
X93762023Y-104657380D01*
X93792261Y-104717857D01*
X93792261Y-104778333D01*
X93762023Y-104838809D01*
X93731785Y-104869047D01*
X93671309Y-104899285D01*
X93550357Y-104929523D01*
X93399166Y-104929523D01*
X93278214Y-104899285D01*
X93217738Y-104869047D01*
X93187500Y-104838809D01*
X93157261Y-104778333D01*
X93368928Y-104022380D02*
X93792261Y-104022380D01*
X93127023Y-104173571D02*
X93580595Y-104324761D01*
X93580595Y-103931666D01*
%TO.C,Q101*%
X84247738Y-113065238D02*
X84217500Y-113125714D01*
X84157023Y-113186190D01*
X84066309Y-113276904D01*
X84036071Y-113337380D01*
X84036071Y-113397857D01*
X84187261Y-113367619D02*
X84157023Y-113428095D01*
X84096547Y-113488571D01*
X83975595Y-113518809D01*
X83763928Y-113518809D01*
X83642976Y-113488571D01*
X83582500Y-113428095D01*
X83552261Y-113367619D01*
X83552261Y-113246666D01*
X83582500Y-113186190D01*
X83642976Y-113125714D01*
X83763928Y-113095476D01*
X83975595Y-113095476D01*
X84096547Y-113125714D01*
X84157023Y-113186190D01*
X84187261Y-113246666D01*
X84187261Y-113367619D01*
X84187261Y-112490714D02*
X84187261Y-112853571D01*
X84187261Y-112672142D02*
X83552261Y-112672142D01*
X83642976Y-112732619D01*
X83703452Y-112793095D01*
X83733690Y-112853571D01*
X83552261Y-112097619D02*
X83552261Y-112037142D01*
X83582500Y-111976666D01*
X83612738Y-111946428D01*
X83673214Y-111916190D01*
X83794166Y-111885952D01*
X83945357Y-111885952D01*
X84066309Y-111916190D01*
X84126785Y-111946428D01*
X84157023Y-111976666D01*
X84187261Y-112037142D01*
X84187261Y-112097619D01*
X84157023Y-112158095D01*
X84126785Y-112188333D01*
X84066309Y-112218571D01*
X83945357Y-112248809D01*
X83794166Y-112248809D01*
X83673214Y-112218571D01*
X83612738Y-112188333D01*
X83582500Y-112158095D01*
X83552261Y-112097619D01*
X84187261Y-111281190D02*
X84187261Y-111644047D01*
X84187261Y-111462619D02*
X83552261Y-111462619D01*
X83642976Y-111523095D01*
X83703452Y-111583571D01*
X83733690Y-111644047D01*
%TO.C,TP102*%
X59593928Y-77852261D02*
X59956785Y-77852261D01*
X59775357Y-78487261D02*
X59775357Y-77852261D01*
X60168452Y-78487261D02*
X60168452Y-77852261D01*
X60410357Y-77852261D01*
X60470833Y-77882500D01*
X60501071Y-77912738D01*
X60531309Y-77973214D01*
X60531309Y-78063928D01*
X60501071Y-78124404D01*
X60470833Y-78154642D01*
X60410357Y-78184880D01*
X60168452Y-78184880D01*
X61136071Y-78487261D02*
X60773214Y-78487261D01*
X60954642Y-78487261D02*
X60954642Y-77852261D01*
X60894166Y-77942976D01*
X60833690Y-78003452D01*
X60773214Y-78033690D01*
X61529166Y-77852261D02*
X61589642Y-77852261D01*
X61650119Y-77882500D01*
X61680357Y-77912738D01*
X61710595Y-77973214D01*
X61740833Y-78094166D01*
X61740833Y-78245357D01*
X61710595Y-78366309D01*
X61680357Y-78426785D01*
X61650119Y-78457023D01*
X61589642Y-78487261D01*
X61529166Y-78487261D01*
X61468690Y-78457023D01*
X61438452Y-78426785D01*
X61408214Y-78366309D01*
X61377976Y-78245357D01*
X61377976Y-78094166D01*
X61408214Y-77973214D01*
X61438452Y-77912738D01*
X61468690Y-77882500D01*
X61529166Y-77852261D01*
X61982738Y-77912738D02*
X62012976Y-77882500D01*
X62073452Y-77852261D01*
X62224642Y-77852261D01*
X62285119Y-77882500D01*
X62315357Y-77912738D01*
X62345595Y-77973214D01*
X62345595Y-78033690D01*
X62315357Y-78124404D01*
X61952500Y-78487261D01*
X62345595Y-78487261D01*
%TO.C,U106*%
X106711428Y-89752261D02*
X106711428Y-90266309D01*
X106741666Y-90326785D01*
X106771904Y-90357023D01*
X106832380Y-90387261D01*
X106953333Y-90387261D01*
X107013809Y-90357023D01*
X107044047Y-90326785D01*
X107074285Y-90266309D01*
X107074285Y-89752261D01*
X107709285Y-90387261D02*
X107346428Y-90387261D01*
X107527857Y-90387261D02*
X107527857Y-89752261D01*
X107467380Y-89842976D01*
X107406904Y-89903452D01*
X107346428Y-89933690D01*
X108102380Y-89752261D02*
X108162857Y-89752261D01*
X108223333Y-89782500D01*
X108253571Y-89812738D01*
X108283809Y-89873214D01*
X108314047Y-89994166D01*
X108314047Y-90145357D01*
X108283809Y-90266309D01*
X108253571Y-90326785D01*
X108223333Y-90357023D01*
X108162857Y-90387261D01*
X108102380Y-90387261D01*
X108041904Y-90357023D01*
X108011666Y-90326785D01*
X107981428Y-90266309D01*
X107951190Y-90145357D01*
X107951190Y-89994166D01*
X107981428Y-89873214D01*
X108011666Y-89812738D01*
X108041904Y-89782500D01*
X108102380Y-89752261D01*
X108858333Y-89752261D02*
X108737380Y-89752261D01*
X108676904Y-89782500D01*
X108646666Y-89812738D01*
X108586190Y-89903452D01*
X108555952Y-90024404D01*
X108555952Y-90266309D01*
X108586190Y-90326785D01*
X108616428Y-90357023D01*
X108676904Y-90387261D01*
X108797857Y-90387261D01*
X108858333Y-90357023D01*
X108888571Y-90326785D01*
X108918809Y-90266309D01*
X108918809Y-90115119D01*
X108888571Y-90054642D01*
X108858333Y-90024404D01*
X108797857Y-89994166D01*
X108676904Y-89994166D01*
X108616428Y-90024404D01*
X108586190Y-90054642D01*
X108555952Y-90115119D01*
%TO.C,X102*%
X109631190Y-102152261D02*
X110054523Y-102787261D01*
X110054523Y-102152261D02*
X109631190Y-102787261D01*
X110629047Y-102787261D02*
X110266190Y-102787261D01*
X110447619Y-102787261D02*
X110447619Y-102152261D01*
X110387142Y-102242976D01*
X110326666Y-102303452D01*
X110266190Y-102333690D01*
X111022142Y-102152261D02*
X111082619Y-102152261D01*
X111143095Y-102182500D01*
X111173333Y-102212738D01*
X111203571Y-102273214D01*
X111233809Y-102394166D01*
X111233809Y-102545357D01*
X111203571Y-102666309D01*
X111173333Y-102726785D01*
X111143095Y-102757023D01*
X111082619Y-102787261D01*
X111022142Y-102787261D01*
X110961666Y-102757023D01*
X110931428Y-102726785D01*
X110901190Y-102666309D01*
X110870952Y-102545357D01*
X110870952Y-102394166D01*
X110901190Y-102273214D01*
X110931428Y-102212738D01*
X110961666Y-102182500D01*
X111022142Y-102152261D01*
X111475714Y-102212738D02*
X111505952Y-102182500D01*
X111566428Y-102152261D01*
X111717619Y-102152261D01*
X111778095Y-102182500D01*
X111808333Y-102212738D01*
X111838571Y-102273214D01*
X111838571Y-102333690D01*
X111808333Y-102424404D01*
X111445476Y-102787261D01*
X111838571Y-102787261D01*
%TO.C,U102*%
X92152261Y-107488571D02*
X92666309Y-107488571D01*
X92726785Y-107458333D01*
X92757023Y-107428095D01*
X92787261Y-107367619D01*
X92787261Y-107246666D01*
X92757023Y-107186190D01*
X92726785Y-107155952D01*
X92666309Y-107125714D01*
X92152261Y-107125714D01*
X92787261Y-106490714D02*
X92787261Y-106853571D01*
X92787261Y-106672142D02*
X92152261Y-106672142D01*
X92242976Y-106732619D01*
X92303452Y-106793095D01*
X92333690Y-106853571D01*
X92152261Y-106097619D02*
X92152261Y-106037142D01*
X92182500Y-105976666D01*
X92212738Y-105946428D01*
X92273214Y-105916190D01*
X92394166Y-105885952D01*
X92545357Y-105885952D01*
X92666309Y-105916190D01*
X92726785Y-105946428D01*
X92757023Y-105976666D01*
X92787261Y-106037142D01*
X92787261Y-106097619D01*
X92757023Y-106158095D01*
X92726785Y-106188333D01*
X92666309Y-106218571D01*
X92545357Y-106248809D01*
X92394166Y-106248809D01*
X92273214Y-106218571D01*
X92212738Y-106188333D01*
X92182500Y-106158095D01*
X92152261Y-106097619D01*
X92212738Y-105644047D02*
X92182500Y-105613809D01*
X92152261Y-105553333D01*
X92152261Y-105402142D01*
X92182500Y-105341666D01*
X92212738Y-105311428D01*
X92273214Y-105281190D01*
X92333690Y-105281190D01*
X92424404Y-105311428D01*
X92787261Y-105674285D01*
X92787261Y-105281190D01*
%TO.C,R128*%
X71900000Y-94700000D02*
X71400000Y-94700000D01*
X71900000Y-93900000D02*
X71400000Y-93900000D01*
X71400000Y-94700000D02*
X71300000Y-94700000D01*
X71400000Y-93900000D02*
X71300000Y-93900000D01*
%TO.C,R127*%
X71900000Y-93600000D02*
X71400000Y-93600000D01*
X71900000Y-92800000D02*
X71400000Y-92800000D01*
X71400000Y-93600000D02*
X71300000Y-93600000D01*
X71400000Y-92800000D02*
X71300000Y-92800000D01*
%TO.C,R126*%
X72300000Y-96200000D02*
X72300000Y-95700000D01*
X73100000Y-96200000D02*
X73100000Y-95700000D01*
X72300000Y-95700000D02*
X72300000Y-95600000D01*
X73100000Y-95700000D02*
X73100000Y-95600000D01*
%TO.C,R125*%
X70199999Y-90599999D02*
X70699999Y-90599999D01*
X70199999Y-91399999D02*
X70699999Y-91399999D01*
X70699999Y-90599999D02*
X70799999Y-90599999D01*
X70699999Y-91399999D02*
X70799999Y-91399999D01*
%TO.C,R124*%
X93500000Y-93800000D02*
X93000000Y-93800000D01*
X93500000Y-93000000D02*
X93000000Y-93000000D01*
X93000000Y-93800000D02*
X92900000Y-93800000D01*
X93000000Y-93000000D02*
X92900000Y-93000000D01*
%TO.C,R123*%
X90600000Y-93200000D02*
X90600000Y-92700000D01*
X91400000Y-93200000D02*
X91400000Y-92700000D01*
X90600000Y-92700000D02*
X90600000Y-92600000D01*
X91400000Y-92700000D02*
X91400000Y-92600000D01*
%TO.C,R122*%
X88600000Y-84900000D02*
X88600000Y-84400000D01*
X89400000Y-84900000D02*
X89400000Y-84400000D01*
X88600000Y-84400000D02*
X88600000Y-84300000D01*
X89400000Y-84400000D02*
X89400000Y-84300000D01*
%TO.C,R121*%
X90200000Y-84900000D02*
X90200000Y-84400000D01*
X91000000Y-84900000D02*
X91000000Y-84400000D01*
X90200000Y-84400000D02*
X90200000Y-84300000D01*
X91000000Y-84400000D02*
X91000000Y-84300000D01*
%TO.C,R120*%
X91800000Y-84900000D02*
X91800000Y-84400000D01*
X92600000Y-84900000D02*
X92600000Y-84400000D01*
X91800000Y-84400000D02*
X91800000Y-84300000D01*
X92600000Y-84400000D02*
X92600000Y-84300000D01*
%TO.C,R119*%
X90370000Y-109950000D02*
X90870000Y-109950000D01*
X90370000Y-110750000D02*
X90870000Y-110750000D01*
X90870000Y-109950000D02*
X90970000Y-109950000D01*
X90870000Y-110750000D02*
X90970000Y-110750000D01*
%TO.C,R118*%
X90770000Y-112150000D02*
X90770000Y-111650000D01*
X91570000Y-112150000D02*
X91570000Y-111650000D01*
X90770000Y-111650000D02*
X90770000Y-111550000D01*
X91570000Y-111650000D02*
X91570000Y-111550000D01*
D14*
%TO.C,R117*%
X94013834Y-107769000D02*
X94013834Y-110055000D01*
X94013834Y-110055000D02*
X92743834Y-110055000D01*
X92743834Y-110055000D02*
X92743834Y-107769000D01*
X92743834Y-107769000D02*
X94013834Y-107769000D01*
%TO.C,R116*%
X94013834Y-110269000D02*
X94013834Y-112555000D01*
X94013834Y-112555000D02*
X92743834Y-112555000D01*
X92743834Y-112555000D02*
X92743834Y-110269000D01*
X92743834Y-110269000D02*
X94013834Y-110269000D01*
D11*
%TO.C,R115*%
X99400000Y-101350000D02*
X99400000Y-101850000D01*
X98600000Y-101350000D02*
X98600000Y-101850000D01*
X99400000Y-101850000D02*
X99400000Y-101950000D01*
X98600000Y-101850000D02*
X98600000Y-101950000D01*
%TO.C,R114*%
X98150000Y-101350000D02*
X98150000Y-101850000D01*
X97350000Y-101350000D02*
X97350000Y-101850000D01*
X98150000Y-101850000D02*
X98150000Y-101950000D01*
X97350000Y-101850000D02*
X97350000Y-101950000D01*
%TO.C,R113*%
X96900000Y-101350000D02*
X96900000Y-101850000D01*
X96100000Y-101350000D02*
X96100000Y-101850000D01*
X96900000Y-101850000D02*
X96900000Y-101950000D01*
X96100000Y-101850000D02*
X96100000Y-101950000D01*
%TO.C,R112*%
X99400000Y-79200000D02*
X99400000Y-79700000D01*
X98600000Y-79200000D02*
X98600000Y-79700000D01*
X99400000Y-79700000D02*
X99400000Y-79800000D01*
X98600000Y-79700000D02*
X98600000Y-79800000D01*
%TO.C,R111*%
X98150000Y-79200000D02*
X98150000Y-79700000D01*
X97350000Y-79200000D02*
X97350000Y-79700000D01*
X98150000Y-79700000D02*
X98150000Y-79800000D01*
X97350000Y-79700000D02*
X97350000Y-79800000D01*
%TO.C,R110*%
X96900000Y-79200000D02*
X96900000Y-79700000D01*
X96100000Y-79200000D02*
X96100000Y-79700000D01*
X96900000Y-79700000D02*
X96900000Y-79800000D01*
X96100000Y-79700000D02*
X96100000Y-79800000D01*
D14*
%TO.C,R109*%
X83080000Y-110757000D02*
X83080000Y-113043000D01*
X83080000Y-113043000D02*
X81810000Y-113043000D01*
X81810000Y-113043000D02*
X81810000Y-110757000D01*
X81810000Y-110757000D02*
X83080000Y-110757000D01*
D11*
%TO.C,R108*%
X98600000Y-108700000D02*
X98600000Y-108200000D01*
X99400000Y-108700000D02*
X99400000Y-108200000D01*
X98600000Y-108200000D02*
X98600000Y-108100000D01*
X99400000Y-108200000D02*
X99400000Y-108100000D01*
%TO.C,R107*%
X97350000Y-108700000D02*
X97350000Y-108200000D01*
X98150000Y-108700000D02*
X98150000Y-108200000D01*
X97350000Y-108200000D02*
X97350000Y-108100000D01*
X98150000Y-108200000D02*
X98150000Y-108100000D01*
%TO.C,R106*%
X96100000Y-108700000D02*
X96100000Y-108200000D01*
X96900000Y-108700000D02*
X96900000Y-108200000D01*
X96100000Y-108200000D02*
X96100000Y-108100000D01*
X96900000Y-108200000D02*
X96900000Y-108100000D01*
%TO.C,R105*%
X98600000Y-86800000D02*
X98600000Y-86300000D01*
X99400000Y-86800000D02*
X99400000Y-86300000D01*
X98600000Y-86300000D02*
X98600000Y-86200000D01*
X99400000Y-86300000D02*
X99400000Y-86200000D01*
%TO.C,R104*%
X97350000Y-86800000D02*
X97350000Y-86300000D01*
X98150000Y-86800000D02*
X98150000Y-86300000D01*
X97350000Y-86300000D02*
X97350000Y-86200000D01*
X98150000Y-86300000D02*
X98150000Y-86200000D01*
%TO.C,R103*%
X96100000Y-86800000D02*
X96100000Y-86300000D01*
X96900000Y-86800000D02*
X96900000Y-86300000D01*
X96100000Y-86300000D02*
X96100000Y-86200000D01*
X96900000Y-86300000D02*
X96900000Y-86200000D01*
D14*
%TO.C,R102*%
X78330000Y-109507000D02*
X78330000Y-111793000D01*
X78330000Y-111793000D02*
X77060000Y-111793000D01*
X77060000Y-111793000D02*
X77060000Y-109507000D01*
X77060000Y-109507000D02*
X78330000Y-109507000D01*
%TO.C,R101*%
X73310000Y-110293000D02*
X73310000Y-108007000D01*
X73310000Y-108007000D02*
X74580000Y-108007000D01*
X74580000Y-108007000D02*
X74580000Y-110293000D01*
X74580000Y-110293000D02*
X73310000Y-110293000D01*
D11*
%TO.C,L110*%
X110200000Y-90000000D02*
X110700000Y-90000000D01*
X110200000Y-90800000D02*
X110700000Y-90800000D01*
X110700000Y-90000000D02*
X110800000Y-90000000D01*
X110700000Y-90800000D02*
X110800000Y-90800000D01*
%TO.C,L109*%
X115500000Y-92500000D02*
X115500000Y-93000000D01*
X114700000Y-92500000D02*
X114700000Y-93000000D01*
X115500000Y-93000000D02*
X115500000Y-93100000D01*
X114700000Y-93000000D02*
X114700000Y-93100000D01*
%TO.C,L108*%
X114700000Y-95000000D02*
X114700000Y-94500000D01*
X115500000Y-95000000D02*
X115500000Y-94500000D01*
X114700000Y-94500000D02*
X114700000Y-94400000D01*
X115500000Y-94500000D02*
X115500000Y-94400000D01*
%TO.C,L107*%
X68400000Y-87950000D02*
X68400000Y-88450000D01*
X67600000Y-87950000D02*
X67600000Y-88450000D01*
X68400000Y-88450000D02*
X68400000Y-88550000D01*
X67600000Y-88450000D02*
X67600000Y-88550000D01*
%TO.C,L106*%
X118700000Y-93700000D02*
X118200000Y-93700000D01*
X118700000Y-92900000D02*
X118200000Y-92900000D01*
X118200000Y-93700000D02*
X118100000Y-93700000D01*
X118200000Y-92900000D02*
X118100000Y-92900000D01*
%TO.C,L105*%
X118700000Y-94600000D02*
X118200000Y-94600000D01*
X118700000Y-93800000D02*
X118200000Y-93800000D01*
X118200000Y-94600000D02*
X118100000Y-94600000D01*
X118200000Y-93800000D02*
X118100000Y-93800000D01*
%TO.C,L104*%
X121000000Y-92500000D02*
X121000000Y-93000000D01*
X120200000Y-92500000D02*
X120200000Y-93000000D01*
X121000000Y-93000000D02*
X121000000Y-93100000D01*
X120200000Y-93000000D02*
X120200000Y-93100000D01*
%TO.C,L103*%
X121000000Y-94400000D02*
X121000000Y-94900000D01*
X120200000Y-94400000D02*
X120200000Y-94900000D01*
X121000000Y-94900000D02*
X121000000Y-95000000D01*
X120200000Y-94900000D02*
X120200000Y-95000000D01*
%TO.C,L102*%
X122200000Y-94600000D02*
X121700000Y-94600000D01*
X122200000Y-93800000D02*
X121700000Y-93800000D01*
X121700000Y-94600000D02*
X121600000Y-94600000D01*
X121700000Y-93800000D02*
X121600000Y-93800000D01*
%TO.C,L101*%
X125200000Y-93700000D02*
X124700000Y-93700000D01*
X125200000Y-92900000D02*
X124700000Y-92900000D01*
X124700000Y-93700000D02*
X124600000Y-93700000D01*
X124700000Y-92900000D02*
X124600000Y-92900000D01*
%TO.C,C129*%
X108450000Y-97100000D02*
X108950000Y-97100000D01*
X108450000Y-97900000D02*
X108950000Y-97900000D01*
X108950000Y-97100000D02*
X109050000Y-97100000D01*
X108950000Y-97900000D02*
X109050000Y-97900000D01*
%TO.C,C128*%
X114200000Y-96800000D02*
X114200000Y-96300000D01*
X115000000Y-96800000D02*
X115000000Y-96300000D01*
X114200000Y-96300000D02*
X114200000Y-96200000D01*
X115000000Y-96300000D02*
X115000000Y-96200000D01*
%TO.C,C127*%
X113350000Y-96800000D02*
X113350000Y-96300000D01*
X114150000Y-96800000D02*
X114150000Y-96300000D01*
X113350000Y-96300000D02*
X113350000Y-96200000D01*
X114150000Y-96300000D02*
X114150000Y-96200000D01*
%TO.C,C126*%
X114200000Y-90600000D02*
X114200000Y-91100000D01*
X113400000Y-90600000D02*
X113400000Y-91100000D01*
X114200000Y-91100000D02*
X114200000Y-91200000D01*
X113400000Y-91100000D02*
X113400000Y-91200000D01*
%TO.C,C125*%
X110200000Y-89250000D02*
X110700000Y-89250000D01*
X110200000Y-90050000D02*
X110700000Y-90050000D01*
X110700000Y-89250000D02*
X110800000Y-89250000D01*
X110700000Y-90050000D02*
X110800000Y-90050000D01*
%TO.C,C124*%
X114600000Y-92500000D02*
X114600000Y-93000000D01*
X113800000Y-92500000D02*
X113800000Y-93000000D01*
X114600000Y-93000000D02*
X114600000Y-93100000D01*
X113800000Y-93000000D02*
X113800000Y-93100000D01*
%TO.C,C123*%
X113800000Y-95000000D02*
X113800000Y-94500000D01*
X114600000Y-95000000D02*
X114600000Y-94500000D01*
X113800000Y-94500000D02*
X113800000Y-94400000D01*
X114600000Y-94500000D02*
X114600000Y-94400000D01*
%TO.C,C122*%
X69650000Y-90200000D02*
X69650000Y-90700000D01*
X68850000Y-90200000D02*
X68850000Y-90700000D01*
X69650000Y-90700000D02*
X69650000Y-90800000D01*
X68850000Y-90700000D02*
X68850000Y-90800000D01*
%TO.C,C121*%
X69550000Y-88150000D02*
X69050000Y-88150000D01*
X69550000Y-87350000D02*
X69050000Y-87350000D01*
X69050000Y-88150000D02*
X68950000Y-88150000D01*
X69050000Y-87350000D02*
X68950000Y-87350000D01*
%TO.C,C120*%
X116300000Y-92900000D02*
X116800000Y-92900000D01*
X116300000Y-93700000D02*
X116800000Y-93700000D01*
X116800000Y-92900000D02*
X116900000Y-92900000D01*
X116800000Y-93700000D02*
X116900000Y-93700000D01*
%TO.C,C119*%
X116300000Y-93800000D02*
X116800000Y-93800000D01*
X116300000Y-94600000D02*
X116800000Y-94600000D01*
X116800000Y-93800000D02*
X116900000Y-93800000D01*
X116800000Y-94600000D02*
X116900000Y-94600000D01*
%TO.C,C118*%
X120100000Y-92500000D02*
X120100000Y-93000000D01*
X119300000Y-92500000D02*
X119300000Y-93000000D01*
X120100000Y-93000000D02*
X120100000Y-93100000D01*
X119300000Y-93000000D02*
X119300000Y-93100000D01*
%TO.C,C117*%
X119300000Y-95000000D02*
X119300000Y-94500000D01*
X120100000Y-95000000D02*
X120100000Y-94500000D01*
X119300000Y-94500000D02*
X119300000Y-94400000D01*
X120100000Y-94500000D02*
X120100000Y-94400000D01*
%TO.C,C116*%
X121600000Y-92900000D02*
X122100000Y-92900000D01*
X121600000Y-93700000D02*
X122100000Y-93700000D01*
X122100000Y-92900000D02*
X122200000Y-92900000D01*
X122100000Y-93700000D02*
X122200000Y-93700000D01*
%TO.C,C115*%
X123000000Y-94600000D02*
X123000000Y-94100000D01*
X123800000Y-94600000D02*
X123800000Y-94100000D01*
X123000000Y-94100000D02*
X123000000Y-94000000D01*
X123800000Y-94100000D02*
X123800000Y-94000000D01*
%TO.C,C114*%
X124600000Y-93800000D02*
X125100000Y-93800000D01*
X124600000Y-94600000D02*
X125100000Y-94600000D01*
X125100000Y-93800000D02*
X125200000Y-93800000D01*
X125100000Y-94600000D02*
X125200000Y-94600000D01*
%TO.C,C113*%
X126000000Y-94600000D02*
X126000000Y-94100000D01*
X126800000Y-94600000D02*
X126800000Y-94100000D01*
X126000000Y-94100000D02*
X126000000Y-94000000D01*
X126800000Y-94100000D02*
X126800000Y-94000000D01*
%TO.C,C112*%
X94950000Y-98350000D02*
X95450000Y-98350000D01*
X94950000Y-99150000D02*
X95450000Y-99150000D01*
X95450000Y-98350000D02*
X95550000Y-98350000D01*
X95450000Y-99150000D02*
X95550000Y-99150000D01*
%TO.C,C111*%
X102900000Y-92600000D02*
X102900000Y-93100000D01*
X102100000Y-92600000D02*
X102100000Y-93100000D01*
X102900000Y-93100000D02*
X102900000Y-93200000D01*
X102100000Y-93100000D02*
X102100000Y-93200000D01*
%TO.C,C110*%
X98550000Y-99150000D02*
X98050000Y-99150000D01*
X98550000Y-98350000D02*
X98050000Y-98350000D01*
X98050000Y-99150000D02*
X97950000Y-99150000D01*
X98050000Y-98350000D02*
X97950000Y-98350000D01*
%TO.C,C109*%
X96950000Y-89100000D02*
X97450000Y-89100000D01*
X96950000Y-89900000D02*
X97450000Y-89900000D01*
X97450000Y-89100000D02*
X97550000Y-89100000D01*
X97450000Y-89900000D02*
X97550000Y-89900000D01*
%TO.C,C108*%
X91500000Y-94200000D02*
X91500000Y-93700000D01*
X92300000Y-94200000D02*
X92300000Y-93700000D01*
X91500000Y-93700000D02*
X91500000Y-93600000D01*
X92300000Y-93700000D02*
X92300000Y-93600000D01*
%TO.C,C107*%
X102200000Y-102100000D02*
X102700000Y-102100000D01*
X102200000Y-102900000D02*
X102700000Y-102900000D01*
X102700000Y-102100000D02*
X102800000Y-102100000D01*
X102700000Y-102900000D02*
X102800000Y-102900000D01*
%TO.C,C106*%
X105400000Y-99950000D02*
X105400000Y-100450000D01*
X104600000Y-99950000D02*
X104600000Y-100450000D01*
X105400000Y-100450000D02*
X105400000Y-100550000D01*
X104600000Y-100450000D02*
X104600000Y-100550000D01*
D16*
%TO.C,C105*%
X91973000Y-103888000D02*
G75*
G03*
X91973000Y-103888000I-127000J0D01*
G01*
X90703000Y-103888000D02*
X91719000Y-103888000D01*
X91719000Y-103888000D02*
X91719000Y-105412000D01*
X91719000Y-105412000D02*
X90703000Y-105412000D01*
X89687000Y-105412000D02*
X88671000Y-105412000D01*
X88671000Y-105412000D02*
X88671000Y-103888000D01*
X88671000Y-103888000D02*
X89687000Y-103888000D01*
%TO.C,C104*%
X89584000Y-112801000D02*
G75*
G03*
X89584000Y-112801000I-127000J0D01*
G01*
X89457000Y-111658000D02*
X89457000Y-112674000D01*
X89457000Y-112674000D02*
X87933000Y-112674000D01*
X87933000Y-112674000D02*
X87933000Y-111658000D01*
X87933000Y-110642000D02*
X87933000Y-109626000D01*
X87933000Y-109626000D02*
X89457000Y-109626000D01*
X89457000Y-109626000D02*
X89457000Y-110642000D01*
D14*
%TO.C,C103*%
X85810000Y-109043000D02*
X85810000Y-106757000D01*
X85810000Y-106757000D02*
X87080000Y-106757000D01*
X87080000Y-106757000D02*
X87080000Y-109043000D01*
X87080000Y-109043000D02*
X85810000Y-109043000D01*
D16*
%TO.C,C102*%
X79810000Y-103749000D02*
G75*
G03*
X79810000Y-103749000I-127000J0D01*
G01*
X79683000Y-104892000D02*
X79683000Y-103876000D01*
X79683000Y-103876000D02*
X81207000Y-103876000D01*
X81207000Y-103876000D02*
X81207000Y-104892000D01*
X81207000Y-105908000D02*
X81207000Y-106924000D01*
X81207000Y-106924000D02*
X79683000Y-106924000D01*
X79683000Y-106924000D02*
X79683000Y-105908000D01*
%TO.C,C101*%
X78473000Y-103888000D02*
G75*
G03*
X78473000Y-103888000I-127000J0D01*
G01*
X77203000Y-103888000D02*
X78219000Y-103888000D01*
X78219000Y-103888000D02*
X78219000Y-105412000D01*
X78219000Y-105412000D02*
X77203000Y-105412000D01*
X76187000Y-105412000D02*
X75171000Y-105412000D01*
X75171000Y-105412000D02*
X75171000Y-103888000D01*
X75171000Y-103888000D02*
X76187000Y-103888000D01*
D11*
%TO.C,J105*%
X136300000Y-90300000D02*
X136300000Y-97300000D01*
X136300000Y-91600000D02*
X144400000Y-91600000D01*
X129300000Y-97300000D02*
X129300000Y-90300000D01*
X144400000Y-96000000D02*
X136300000Y-96000000D01*
X136300000Y-96000000D02*
X136300000Y-91600000D01*
X136300000Y-97300000D02*
X129300000Y-97300000D01*
X129300000Y-90300000D02*
X136300000Y-90300000D01*
X144400000Y-91600000D02*
X144400000Y-96000000D01*
D17*
%TO.C,D101*%
X80145000Y-110900000D02*
X79745000Y-111400000D01*
X79745000Y-111400000D02*
X80145000Y-111900000D01*
X80145000Y-111900000D02*
X80145000Y-110900000D01*
D18*
X79744720Y-110900000D02*
X79745000Y-111250140D01*
X79744720Y-111900000D02*
X79745000Y-111549860D01*
X79745000Y-111549860D02*
X79745000Y-111250140D01*
D15*
%TO.C,J101*%
X68470000Y-104350000D02*
X68470000Y-105100000D01*
X72180000Y-111960000D02*
X72180000Y-104340000D01*
X66210000Y-111960000D02*
X72180000Y-111960000D01*
X66970000Y-111950000D02*
X66970000Y-110150000D01*
X66970000Y-108650000D02*
X66970000Y-107650000D01*
X68470000Y-111950000D02*
X68470000Y-111200000D01*
X68470000Y-105100000D02*
X71420000Y-105100000D01*
X71420000Y-105100000D02*
X71420000Y-108150000D01*
X72180000Y-104340000D02*
X66210000Y-104340000D01*
X68470000Y-111200000D02*
X71420000Y-111200000D01*
X66970000Y-110150000D02*
X66220000Y-110150000D01*
X66220000Y-108650000D02*
X66970000Y-108650000D01*
X65920000Y-112250000D02*
X67170000Y-112250000D01*
X66970000Y-104350000D02*
X66220000Y-104350000D01*
X66970000Y-107650000D02*
X66220000Y-107650000D01*
X71420000Y-111200000D02*
X71420000Y-108150000D01*
X65920000Y-111000000D02*
X65920000Y-112250000D01*
X66220000Y-111950000D02*
X66970000Y-111950000D01*
X66220000Y-107650000D02*
X66220000Y-108650000D01*
X66970000Y-106150000D02*
X66970000Y-104350000D01*
X66210000Y-104340000D02*
X66210000Y-111960000D01*
X66220000Y-106150000D02*
X66970000Y-106150000D01*
X66220000Y-110150000D02*
X66220000Y-111950000D01*
X66220000Y-104350000D02*
X66220000Y-106150000D01*
%TO.C,U103*%
X94500000Y-90500000D02*
X101500000Y-90500000D01*
X101500000Y-90500000D02*
X101500000Y-97500000D01*
X101500000Y-97500000D02*
X94500000Y-97500000D01*
X94500000Y-97500000D02*
X94500000Y-90500000D01*
X94250000Y-91250000D02*
G75*
G03*
X94250000Y-91250000I-250000J0D01*
G01*
D17*
%TO.C,D103*%
X92200000Y-81800000D02*
X91700000Y-82200000D01*
X92700000Y-82200000D02*
X92200000Y-81800000D01*
D18*
X92050140Y-81800000D02*
X92349860Y-81800000D01*
D17*
X91700000Y-82200000D02*
X92700000Y-82200000D01*
D18*
X91700000Y-81799720D02*
X92050140Y-81800000D01*
X92700000Y-81799720D02*
X92349860Y-81800000D01*
D11*
%TO.C,J106*%
X50042500Y-85550000D02*
X58142500Y-85550000D01*
X50042500Y-89950000D02*
X50042500Y-85550000D01*
X58142500Y-84250000D02*
X65142500Y-84250000D01*
X65142500Y-91250000D02*
X58142500Y-91250000D01*
X65142500Y-84250000D02*
X65142500Y-91250000D01*
X58142500Y-91250000D02*
X58142500Y-84250000D01*
X58142500Y-89950000D02*
X50042500Y-89950000D01*
X58142500Y-85550000D02*
X58142500Y-89950000D01*
D17*
%TO.C,D104*%
X91100000Y-82200000D02*
X90600000Y-81800000D01*
D18*
X90450140Y-81800000D02*
X90749860Y-81800000D01*
X90100000Y-81799720D02*
X90450140Y-81800000D01*
X91100000Y-81799720D02*
X90749860Y-81800000D01*
D17*
X90100000Y-82200000D02*
X91100000Y-82200000D01*
X90600000Y-81800000D02*
X90100000Y-82200000D01*
D18*
%TO.C,D105*%
X89500000Y-81799720D02*
X89149860Y-81800000D01*
D17*
X89000000Y-81800000D02*
X88500000Y-82200000D01*
D18*
X88850140Y-81800000D02*
X89149860Y-81800000D01*
D17*
X89500000Y-82200000D02*
X89000000Y-81800000D01*
D18*
X88500000Y-81799720D02*
X88850140Y-81800000D01*
D17*
X88500000Y-82200000D02*
X89500000Y-82200000D01*
D11*
%TO.C,U101*%
X75545000Y-105900000D02*
X75545000Y-108900000D01*
X75545000Y-108900000D02*
X78345000Y-108900000D01*
X78345000Y-108900000D02*
X78345000Y-105900000D01*
X78345000Y-105900000D02*
X75545000Y-105900000D01*
X79695000Y-109400000D02*
G75*
G03*
X79695000Y-109400000I-250000J0D01*
G01*
D15*
%TO.C,U105*%
X84160000Y-85890000D02*
X74340000Y-85890000D01*
X74340000Y-96110000D02*
X74340000Y-95930000D01*
X84160000Y-96110000D02*
X74340000Y-96110000D01*
X84160000Y-96110000D02*
X84160000Y-95930000D01*
X74340000Y-85890000D02*
X74340000Y-86070000D01*
X84160000Y-85890000D02*
X84160000Y-86070000D01*
D19*
X84715000Y-96120000D02*
G75*
G03*
X84715000Y-96120000I-125000J0D01*
G01*
D11*
%TO.C,D102*%
X83645000Y-110300000D02*
X83645000Y-107500000D01*
X85245000Y-110300000D02*
X83645000Y-110300000D01*
X85245000Y-107900000D02*
X83645000Y-107900000D01*
X85245000Y-107500000D02*
X85245000Y-110300000D01*
X85245000Y-109400000D02*
X83645000Y-109400000D01*
X83645000Y-107500000D02*
X85245000Y-107500000D01*
X85245000Y-108200000D02*
X83645000Y-108200000D01*
X83645000Y-109400000D02*
X84445000Y-108200000D01*
X84445000Y-108200000D02*
X85245000Y-109400000D01*
D15*
%TO.C,J103*%
X100975000Y-82047470D02*
X100975000Y-81225000D01*
X95960000Y-84755000D02*
X95960000Y-84188471D01*
X94505000Y-81225000D02*
X100975000Y-81225000D01*
X95960000Y-84755000D02*
X100975000Y-84755000D01*
X95906529Y-82865000D02*
X95763471Y-82865000D01*
X100975000Y-84755000D02*
X100975000Y-83932530D01*
X95200000Y-84755000D02*
X94440000Y-84755000D01*
X94636529Y-82865000D02*
X94505000Y-82865000D01*
X100975000Y-83317470D02*
X100975000Y-82662530D01*
X95960000Y-83061529D02*
X95960000Y-82918471D01*
X94505000Y-82047470D02*
X94505000Y-81225000D01*
X94505000Y-82865000D02*
X94505000Y-82662530D01*
X94440000Y-84755000D02*
X94440000Y-83625000D01*
%TO.C,J102*%
X84220000Y-105950000D02*
X84220000Y-105200000D01*
X82720000Y-100150000D02*
X82720000Y-98350000D01*
X82720000Y-102650000D02*
X82720000Y-101650000D01*
X81970000Y-102650000D02*
X82720000Y-102650000D01*
X81970000Y-104150000D02*
X81970000Y-105950000D01*
X84220000Y-99100000D02*
X87170000Y-99100000D01*
X82720000Y-101650000D02*
X81970000Y-101650000D01*
X81970000Y-101650000D02*
X81970000Y-102650000D01*
X81670000Y-106250000D02*
X82920000Y-106250000D01*
X81970000Y-100150000D02*
X82720000Y-100150000D01*
X84220000Y-105200000D02*
X87170000Y-105200000D01*
X82720000Y-98350000D02*
X81970000Y-98350000D01*
X87170000Y-99100000D02*
X87170000Y-102150000D01*
X82720000Y-104150000D02*
X81970000Y-104150000D01*
X84220000Y-98350000D02*
X84220000Y-99100000D01*
X87930000Y-98340000D02*
X81960000Y-98340000D01*
X81970000Y-105950000D02*
X82720000Y-105950000D01*
X81960000Y-98340000D02*
X81960000Y-105960000D01*
X81670000Y-105000000D02*
X81670000Y-106250000D01*
X82720000Y-105950000D02*
X82720000Y-104150000D01*
X87930000Y-105960000D02*
X87930000Y-98340000D01*
X87170000Y-105200000D02*
X87170000Y-102150000D01*
X81960000Y-105960000D02*
X87930000Y-105960000D01*
X81970000Y-98350000D02*
X81970000Y-100150000D01*
%TO.C,J107*%
X71570000Y-82580000D02*
X71570000Y-81250000D01*
X72900000Y-82580000D02*
X71570000Y-82580000D01*
X74170000Y-79920000D02*
X86930000Y-79920000D01*
X74170000Y-82580000D02*
X74170000Y-79920000D01*
X86930000Y-82580000D02*
X86930000Y-79920000D01*
X74170000Y-82580000D02*
X86930000Y-82580000D01*
D11*
%TO.C,X101*%
X104100000Y-101500000D02*
X100900000Y-101500000D01*
X100900000Y-99000000D02*
X104100000Y-99000000D01*
X100900000Y-101500000D02*
X100900000Y-99000000D01*
X104100000Y-99000000D02*
X104100000Y-101500000D01*
X104730278Y-98350000D02*
G75*
G03*
X104730278Y-98350000I-180278J0D01*
G01*
D15*
%TO.C,J104*%
X95960000Y-106755000D02*
X100975000Y-106755000D01*
X95200000Y-106755000D02*
X94440000Y-106755000D01*
X94505000Y-103225000D02*
X100975000Y-103225000D01*
X100975000Y-106755000D02*
X100975000Y-105932530D01*
X94505000Y-104865000D02*
X94505000Y-104662530D01*
X95906529Y-104865000D02*
X95763471Y-104865000D01*
X100975000Y-105317470D02*
X100975000Y-104662530D01*
X95960000Y-106755000D02*
X95960000Y-106188471D01*
X94636529Y-104865000D02*
X94505000Y-104865000D01*
X94440000Y-106755000D02*
X94440000Y-105625000D01*
X94505000Y-104047470D02*
X94505000Y-103225000D01*
X95960000Y-105061529D02*
X95960000Y-104918471D01*
X100975000Y-104047470D02*
X100975000Y-103225000D01*
%TO.C,Q101*%
X80685000Y-110480000D02*
X80685000Y-109550000D01*
X80685000Y-110480000D02*
X82845000Y-110480000D01*
X80685000Y-107320000D02*
X82145000Y-107320000D01*
X80685000Y-107320000D02*
X80685000Y-108250000D01*
D11*
%TO.C,U106*%
X111750000Y-91850000D02*
X112400000Y-91850000D01*
X108100000Y-96150000D02*
X108100000Y-95500000D01*
X111750000Y-96150000D02*
X112400000Y-96150000D01*
X108750000Y-91850000D02*
X108100000Y-91850000D01*
X108100000Y-91850000D02*
X108100000Y-92500000D01*
X108750000Y-96150000D02*
X108100000Y-96150000D01*
X112400000Y-91850000D02*
X112400000Y-92500000D01*
X113600000Y-95950000D02*
G75*
G03*
X113600000Y-95950000I-150000J0D01*
G01*
%TO.C,X102*%
X109150000Y-100750000D02*
X109150000Y-98250000D01*
X112350000Y-100750000D02*
X109150000Y-100750000D01*
X112350000Y-98250000D02*
X112350000Y-100750000D01*
X109150000Y-98250000D02*
X112350000Y-98250000D01*
X112980278Y-97600000D02*
G75*
G03*
X112980278Y-97600000I-180278J0D01*
G01*
D15*
%TO.C,U102*%
X88695000Y-107150000D02*
X91695000Y-107150000D01*
X91695000Y-107150000D02*
X91695000Y-108150000D01*
X91695000Y-108150000D02*
X88695000Y-108150000D01*
X88695000Y-108150000D02*
X88695000Y-107150000D01*
X88836421Y-109650000D02*
G75*
G03*
X88836421Y-109650000I-141421J0D01*
G01*
%TD*%
D20*
%TO.C,J105*%
X132800000Y-93800000D03*
D21*
X130260000Y-96340000D03*
X135340000Y-91260000D03*
X130260000Y-91260000D03*
X135340000Y-96340000D03*
%TD*%
D20*
%TO.C,J106*%
X61642500Y-87750000D03*
D21*
X59102500Y-85210000D03*
X64182500Y-90290000D03*
X59102500Y-90290000D03*
X64182500Y-85210000D03*
%TD*%
%LPC*%
D10*
X104280714Y-106435000D02*
X104995000Y-106435000D01*
X104137857Y-106863571D02*
X104637857Y-105363571D01*
X105137857Y-106863571D01*
X105423571Y-105363571D02*
X106280714Y-105363571D01*
X105852142Y-106863571D02*
X105852142Y-105363571D01*
X106780714Y-106863571D02*
X106780714Y-105363571D01*
X107137857Y-105363571D01*
X107352142Y-105435000D01*
X107495000Y-105577857D01*
X107566428Y-105720714D01*
X107637857Y-106006428D01*
X107637857Y-106220714D01*
X107566428Y-106506428D01*
X107495000Y-106649285D01*
X107352142Y-106792142D01*
X107137857Y-106863571D01*
X106780714Y-106863571D01*
X108209285Y-106792142D02*
X108423571Y-106863571D01*
X108780714Y-106863571D01*
X108923571Y-106792142D01*
X108995000Y-106720714D01*
X109066428Y-106577857D01*
X109066428Y-106435000D01*
X108995000Y-106292142D01*
X108923571Y-106220714D01*
X108780714Y-106149285D01*
X108495000Y-106077857D01*
X108352142Y-106006428D01*
X108280714Y-105935000D01*
X108209285Y-105792142D01*
X108209285Y-105649285D01*
X108280714Y-105506428D01*
X108352142Y-105435000D01*
X108495000Y-105363571D01*
X108852142Y-105363571D01*
X109066428Y-105435000D01*
X110637857Y-105363571D02*
X111137857Y-106863571D01*
X111637857Y-105363571D01*
X112423571Y-105363571D02*
X112566428Y-105363571D01*
X112709285Y-105435000D01*
X112780714Y-105506428D01*
X112852142Y-105649285D01*
X112923571Y-105935000D01*
X112923571Y-106292142D01*
X112852142Y-106577857D01*
X112780714Y-106720714D01*
X112709285Y-106792142D01*
X112566428Y-106863571D01*
X112423571Y-106863571D01*
X112280714Y-106792142D01*
X112209285Y-106720714D01*
X112137857Y-106577857D01*
X112066428Y-106292142D01*
X112066428Y-105935000D01*
X112137857Y-105649285D01*
X112209285Y-105506428D01*
X112280714Y-105435000D01*
X112423571Y-105363571D01*
X113566428Y-106720714D02*
X113637857Y-106792142D01*
X113566428Y-106863571D01*
X113495000Y-106792142D01*
X113566428Y-106720714D01*
X113566428Y-106863571D01*
X115066428Y-106863571D02*
X114209285Y-106863571D01*
X114637857Y-106863571D02*
X114637857Y-105363571D01*
X114495000Y-105577857D01*
X114352142Y-105720714D01*
X114209285Y-105792142D01*
X104280714Y-108850000D02*
X104995000Y-108850000D01*
X104137857Y-109278571D02*
X104637857Y-107778571D01*
X105137857Y-109278571D01*
X105637857Y-109278571D02*
X105637857Y-107778571D01*
X106209285Y-107778571D01*
X106352142Y-107850000D01*
X106423571Y-107921428D01*
X106495000Y-108064285D01*
X106495000Y-108278571D01*
X106423571Y-108421428D01*
X106352142Y-108492857D01*
X106209285Y-108564285D01*
X105637857Y-108564285D01*
X107995000Y-109278571D02*
X107495000Y-108564285D01*
X107137857Y-109278571D02*
X107137857Y-107778571D01*
X107709285Y-107778571D01*
X107852142Y-107850000D01*
X107923571Y-107921428D01*
X107995000Y-108064285D01*
X107995000Y-108278571D01*
X107923571Y-108421428D01*
X107852142Y-108492857D01*
X107709285Y-108564285D01*
X107137857Y-108564285D01*
X108566428Y-109207142D02*
X108780714Y-109278571D01*
X109137857Y-109278571D01*
X109280714Y-109207142D01*
X109352142Y-109135714D01*
X109423571Y-108992857D01*
X109423571Y-108850000D01*
X109352142Y-108707142D01*
X109280714Y-108635714D01*
X109137857Y-108564285D01*
X108852142Y-108492857D01*
X108709285Y-108421428D01*
X108637857Y-108350000D01*
X108566428Y-108207142D01*
X108566428Y-108064285D01*
X108637857Y-107921428D01*
X108709285Y-107850000D01*
X108852142Y-107778571D01*
X109209285Y-107778571D01*
X109423571Y-107850000D01*
X112066428Y-109135714D02*
X111995000Y-109207142D01*
X111780714Y-109278571D01*
X111637857Y-109278571D01*
X111423571Y-109207142D01*
X111280714Y-109064285D01*
X111209285Y-108921428D01*
X111137857Y-108635714D01*
X111137857Y-108421428D01*
X111209285Y-108135714D01*
X111280714Y-107992857D01*
X111423571Y-107850000D01*
X111637857Y-107778571D01*
X111780714Y-107778571D01*
X111995000Y-107850000D01*
X112066428Y-107921428D01*
X112923571Y-109278571D02*
X112780714Y-109207142D01*
X112709285Y-109135714D01*
X112637857Y-108992857D01*
X112637857Y-108564285D01*
X112709285Y-108421428D01*
X112780714Y-108350000D01*
X112923571Y-108278571D01*
X113137857Y-108278571D01*
X113280714Y-108350000D01*
X113352142Y-108421428D01*
X113423571Y-108564285D01*
X113423571Y-108992857D01*
X113352142Y-109135714D01*
X113280714Y-109207142D01*
X113137857Y-109278571D01*
X112923571Y-109278571D01*
X114066428Y-109278571D02*
X114066428Y-108278571D01*
X114066428Y-108421428D02*
X114137857Y-108350000D01*
X114280714Y-108278571D01*
X114495000Y-108278571D01*
X114637857Y-108350000D01*
X114709285Y-108492857D01*
X114709285Y-109278571D01*
X114709285Y-108492857D02*
X114780714Y-108350000D01*
X114923571Y-108278571D01*
X115137857Y-108278571D01*
X115280714Y-108350000D01*
X115352142Y-108492857D01*
X115352142Y-109278571D01*
X116066428Y-108278571D02*
X116066428Y-109778571D01*
X116066428Y-108350000D02*
X116209285Y-108278571D01*
X116495000Y-108278571D01*
X116637857Y-108350000D01*
X116709285Y-108421428D01*
X116780714Y-108564285D01*
X116780714Y-108992857D01*
X116709285Y-109135714D01*
X116637857Y-109207142D01*
X116495000Y-109278571D01*
X116209285Y-109278571D01*
X116066428Y-109207142D01*
X117637857Y-109278571D02*
X117495000Y-109207142D01*
X117423571Y-109064285D01*
X117423571Y-107778571D01*
X118209285Y-109278571D02*
X118209285Y-108278571D01*
X118209285Y-107778571D02*
X118137857Y-107850000D01*
X118209285Y-107921428D01*
X118280714Y-107850000D01*
X118209285Y-107778571D01*
X118209285Y-107921428D01*
X119566428Y-109278571D02*
X119566428Y-108492857D01*
X119495000Y-108350000D01*
X119352142Y-108278571D01*
X119066428Y-108278571D01*
X118923571Y-108350000D01*
X119566428Y-109207142D02*
X119423571Y-109278571D01*
X119066428Y-109278571D01*
X118923571Y-109207142D01*
X118852142Y-109064285D01*
X118852142Y-108921428D01*
X118923571Y-108778571D01*
X119066428Y-108707142D01*
X119423571Y-108707142D01*
X119566428Y-108635714D01*
X120280714Y-108278571D02*
X120280714Y-109278571D01*
X120280714Y-108421428D02*
X120352142Y-108350000D01*
X120495000Y-108278571D01*
X120709285Y-108278571D01*
X120852142Y-108350000D01*
X120923571Y-108492857D01*
X120923571Y-109278571D01*
X121423571Y-108278571D02*
X121995000Y-108278571D01*
X121637857Y-107778571D02*
X121637857Y-109064285D01*
X121709285Y-109207142D01*
X121852142Y-109278571D01*
X121995000Y-109278571D01*
X123566428Y-109207142D02*
X123780714Y-109278571D01*
X124137857Y-109278571D01*
X124280714Y-109207142D01*
X124352142Y-109135714D01*
X124423571Y-108992857D01*
X124423571Y-108850000D01*
X124352142Y-108707142D01*
X124280714Y-108635714D01*
X124137857Y-108564285D01*
X123852142Y-108492857D01*
X123709285Y-108421428D01*
X123637857Y-108350000D01*
X123566428Y-108207142D01*
X123566428Y-108064285D01*
X123637857Y-107921428D01*
X123709285Y-107850000D01*
X123852142Y-107778571D01*
X124209285Y-107778571D01*
X124423571Y-107850000D01*
X124923571Y-108278571D02*
X125280714Y-109278571D01*
X125637857Y-108278571D02*
X125280714Y-109278571D01*
X125137857Y-109635714D01*
X125066428Y-109707142D01*
X124923571Y-109778571D01*
X126137857Y-109207142D02*
X126280714Y-109278571D01*
X126566428Y-109278571D01*
X126709285Y-109207142D01*
X126780714Y-109064285D01*
X126780714Y-108992857D01*
X126709285Y-108850000D01*
X126566428Y-108778571D01*
X126352142Y-108778571D01*
X126209285Y-108707142D01*
X126137857Y-108564285D01*
X126137857Y-108492857D01*
X126209285Y-108350000D01*
X126352142Y-108278571D01*
X126566428Y-108278571D01*
X126709285Y-108350000D01*
X127209285Y-108278571D02*
X127780714Y-108278571D01*
X127423571Y-107778571D02*
X127423571Y-109064285D01*
X127495000Y-109207142D01*
X127637857Y-109278571D01*
X127780714Y-109278571D01*
X128852142Y-109207142D02*
X128709285Y-109278571D01*
X128423571Y-109278571D01*
X128280714Y-109207142D01*
X128209285Y-109064285D01*
X128209285Y-108492857D01*
X128280714Y-108350000D01*
X128423571Y-108278571D01*
X128709285Y-108278571D01*
X128852142Y-108350000D01*
X128923571Y-108492857D01*
X128923571Y-108635714D01*
X128209285Y-108778571D01*
X129566428Y-109278571D02*
X129566428Y-108278571D01*
X129566428Y-108421428D02*
X129637857Y-108350000D01*
X129780714Y-108278571D01*
X129995000Y-108278571D01*
X130137857Y-108350000D01*
X130209285Y-108492857D01*
X130209285Y-109278571D01*
X130209285Y-108492857D02*
X130280714Y-108350000D01*
X130423571Y-108278571D01*
X130637857Y-108278571D01*
X130780714Y-108350000D01*
X130852142Y-108492857D01*
X130852142Y-109278571D01*
X104852142Y-110907857D02*
X104352142Y-110907857D01*
X104352142Y-111693571D02*
X104352142Y-110193571D01*
X105066428Y-110193571D01*
X106280714Y-110693571D02*
X106280714Y-111693571D01*
X105923571Y-110122142D02*
X105566428Y-111193571D01*
X106495000Y-111193571D01*
X107066428Y-111693571D02*
X107066428Y-110193571D01*
X107780714Y-111693571D02*
X107780714Y-110193571D01*
X107780714Y-110907857D02*
X108637857Y-110907857D01*
X108637857Y-111693571D02*
X108637857Y-110193571D01*
X109209285Y-110193571D02*
X110209285Y-111693571D01*
X110209285Y-110193571D02*
X109209285Y-111693571D01*
X111923571Y-111122142D02*
X113066428Y-111122142D01*
X115780714Y-111550714D02*
X115709285Y-111622142D01*
X115495000Y-111693571D01*
X115352142Y-111693571D01*
X115137857Y-111622142D01*
X114995000Y-111479285D01*
X114923571Y-111336428D01*
X114852142Y-111050714D01*
X114852142Y-110836428D01*
X114923571Y-110550714D01*
X114995000Y-110407857D01*
X115137857Y-110265000D01*
X115352142Y-110193571D01*
X115495000Y-110193571D01*
X115709285Y-110265000D01*
X115780714Y-110336428D01*
X117280714Y-111550714D02*
X117209285Y-111622142D01*
X116995000Y-111693571D01*
X116852142Y-111693571D01*
X116637857Y-111622142D01*
X116495000Y-111479285D01*
X116423571Y-111336428D01*
X116352142Y-111050714D01*
X116352142Y-110836428D01*
X116423571Y-110550714D01*
X116495000Y-110407857D01*
X116637857Y-110265000D01*
X116852142Y-110193571D01*
X116995000Y-110193571D01*
X117209285Y-110265000D01*
X117280714Y-110336428D01*
X117923571Y-111122142D02*
X119066428Y-111122142D01*
X120280714Y-110907857D02*
X120495000Y-110979285D01*
X120566428Y-111050714D01*
X120637857Y-111193571D01*
X120637857Y-111407857D01*
X120566428Y-111550714D01*
X120495000Y-111622142D01*
X120352142Y-111693571D01*
X119780714Y-111693571D01*
X119780714Y-110193571D01*
X120280714Y-110193571D01*
X120423571Y-110265000D01*
X120495000Y-110336428D01*
X120566428Y-110479285D01*
X120566428Y-110622142D01*
X120495000Y-110765000D01*
X120423571Y-110836428D01*
X120280714Y-110907857D01*
X119780714Y-110907857D01*
X121566428Y-110979285D02*
X121566428Y-111693571D01*
X121066428Y-110193571D02*
X121566428Y-110979285D01*
X122066428Y-110193571D01*
X122566428Y-111122142D02*
X123709285Y-111122142D01*
X124352142Y-111622142D02*
X124566428Y-111693571D01*
X124923571Y-111693571D01*
X125066428Y-111622142D01*
X125137857Y-111550714D01*
X125209285Y-111407857D01*
X125209285Y-111265000D01*
X125137857Y-111122142D01*
X125066428Y-111050714D01*
X124923571Y-110979285D01*
X124637857Y-110907857D01*
X124495000Y-110836428D01*
X124423571Y-110765000D01*
X124352142Y-110622142D01*
X124352142Y-110479285D01*
X124423571Y-110336428D01*
X124495000Y-110265000D01*
X124637857Y-110193571D01*
X124995000Y-110193571D01*
X125209285Y-110265000D01*
X125780714Y-111265000D02*
X126495000Y-111265000D01*
X125637857Y-111693571D02*
X126137857Y-110193571D01*
X126637857Y-111693571D01*
D22*
%TO.C,R128*%
X72100000Y-94300000D03*
X71100000Y-94300000D03*
%TD*%
%TO.C,R127*%
X72100000Y-93200000D03*
X71100000Y-93200000D03*
%TD*%
D23*
%TO.C,R126*%
X72700000Y-96400000D03*
X72700000Y-95400000D03*
%TD*%
D22*
%TO.C,R125*%
X69999999Y-90999999D03*
X70999999Y-90999999D03*
%TD*%
%TO.C,R124*%
X93700000Y-93400000D03*
X92700000Y-93400000D03*
%TD*%
D23*
%TO.C,R123*%
X91000000Y-93400000D03*
X91000000Y-92400000D03*
%TD*%
%TO.C,R122*%
X89000000Y-85100000D03*
X89000000Y-84100000D03*
%TD*%
%TO.C,R121*%
X90600000Y-85100000D03*
X90600000Y-84100000D03*
%TD*%
%TO.C,R120*%
X92200000Y-85100000D03*
X92200000Y-84100000D03*
%TD*%
D22*
%TO.C,R119*%
X90170000Y-110350000D03*
X91170000Y-110350000D03*
%TD*%
D23*
%TO.C,R118*%
X91170000Y-112350000D03*
X91170000Y-111350000D03*
%TD*%
D24*
%TO.C,R117*%
X93378834Y-108150000D03*
X93378834Y-109674000D03*
%TD*%
%TO.C,R116*%
X93378834Y-110650000D03*
X93378834Y-112174000D03*
%TD*%
D23*
%TO.C,R115*%
X99000000Y-101150000D03*
X99000000Y-102150000D03*
%TD*%
%TO.C,R114*%
X97750000Y-101150000D03*
X97750000Y-102150000D03*
%TD*%
%TO.C,R113*%
X96500000Y-101150000D03*
X96500000Y-102150000D03*
%TD*%
%TO.C,R112*%
X99000000Y-79000000D03*
X99000000Y-80000000D03*
%TD*%
%TO.C,R111*%
X97750000Y-79000000D03*
X97750000Y-80000000D03*
%TD*%
%TO.C,R110*%
X96500000Y-79000000D03*
X96500000Y-80000000D03*
%TD*%
D24*
%TO.C,R109*%
X82445000Y-111138000D03*
X82445000Y-112662000D03*
%TD*%
D23*
%TO.C,R108*%
X99000000Y-108900000D03*
X99000000Y-107900000D03*
%TD*%
%TO.C,R107*%
X97750000Y-108900000D03*
X97750000Y-107900000D03*
%TD*%
%TO.C,R106*%
X96500000Y-108900000D03*
X96500000Y-107900000D03*
%TD*%
%TO.C,R105*%
X99000000Y-87000000D03*
X99000000Y-86000000D03*
%TD*%
%TO.C,R104*%
X97750000Y-87000000D03*
X97750000Y-86000000D03*
%TD*%
%TO.C,R103*%
X96500000Y-87000000D03*
X96500000Y-86000000D03*
%TD*%
D24*
%TO.C,R102*%
X77695000Y-109888000D03*
X77695000Y-111412000D03*
%TD*%
%TO.C,R101*%
X73945000Y-109912000D03*
X73945000Y-108388000D03*
%TD*%
D22*
%TO.C,L110*%
X110000000Y-90400000D03*
X111000000Y-90400000D03*
%TD*%
D23*
%TO.C,L109*%
X115100000Y-92300000D03*
X115100000Y-93300000D03*
%TD*%
%TO.C,L108*%
X115100000Y-95200000D03*
X115100000Y-94200000D03*
%TD*%
%TO.C,L107*%
X68000000Y-87750000D03*
X68000000Y-88750000D03*
%TD*%
D22*
%TO.C,L106*%
X118900000Y-93300000D03*
X117900000Y-93300000D03*
%TD*%
%TO.C,L105*%
X118900000Y-94200000D03*
X117900000Y-94200000D03*
%TD*%
D23*
%TO.C,L104*%
X120600000Y-92300000D03*
X120600000Y-93300000D03*
%TD*%
%TO.C,L103*%
X120600000Y-94200000D03*
X120600000Y-95200000D03*
%TD*%
D22*
%TO.C,L102*%
X122400000Y-94200000D03*
X121400000Y-94200000D03*
%TD*%
%TO.C,L101*%
X125400000Y-93300000D03*
X124400000Y-93300000D03*
%TD*%
%TO.C,C129*%
X108250000Y-97500000D03*
X109250000Y-97500000D03*
%TD*%
D23*
%TO.C,C128*%
X114600000Y-97000000D03*
X114600000Y-96000000D03*
%TD*%
%TO.C,C127*%
X113750000Y-97000000D03*
X113750000Y-96000000D03*
%TD*%
%TO.C,C126*%
X113800000Y-90400000D03*
X113800000Y-91400000D03*
%TD*%
D22*
%TO.C,C125*%
X110000000Y-89650000D03*
X111000000Y-89650000D03*
%TD*%
D23*
%TO.C,C124*%
X114200000Y-92300000D03*
X114200000Y-93300000D03*
%TD*%
%TO.C,C123*%
X114200000Y-95200000D03*
X114200000Y-94200000D03*
%TD*%
%TO.C,C122*%
X69250000Y-90000000D03*
X69250000Y-91000000D03*
%TD*%
D22*
%TO.C,C121*%
X69750000Y-87750000D03*
X68750000Y-87750000D03*
%TD*%
%TO.C,C120*%
X116100000Y-93300000D03*
X117100000Y-93300000D03*
%TD*%
%TO.C,C119*%
X116100000Y-94200000D03*
X117100000Y-94200000D03*
%TD*%
D23*
%TO.C,C118*%
X119700000Y-92300000D03*
X119700000Y-93300000D03*
%TD*%
%TO.C,C117*%
X119700000Y-95200000D03*
X119700000Y-94200000D03*
%TD*%
D22*
%TO.C,C116*%
X121400000Y-93300000D03*
X122400000Y-93300000D03*
%TD*%
D23*
%TO.C,C115*%
X123400000Y-94800000D03*
X123400000Y-93800000D03*
%TD*%
D22*
%TO.C,C114*%
X124400000Y-94200000D03*
X125400000Y-94200000D03*
%TD*%
D23*
%TO.C,C113*%
X126400000Y-94800000D03*
X126400000Y-93800000D03*
%TD*%
D22*
%TO.C,C112*%
X94750000Y-98750000D03*
X95750000Y-98750000D03*
%TD*%
D23*
%TO.C,C111*%
X102500000Y-92400000D03*
X102500000Y-93400000D03*
%TD*%
D22*
%TO.C,C110*%
X98750000Y-98750000D03*
X97750000Y-98750000D03*
%TD*%
%TO.C,C109*%
X96750000Y-89500000D03*
X97750000Y-89500000D03*
%TD*%
D23*
%TO.C,C108*%
X91900000Y-94400000D03*
X91900000Y-93400000D03*
%TD*%
D22*
%TO.C,C107*%
X102000000Y-102500000D03*
X103000000Y-102500000D03*
%TD*%
D23*
%TO.C,C106*%
X105000000Y-99750000D03*
X105000000Y-100750000D03*
%TD*%
D25*
%TO.C,C105*%
X91147500Y-104650000D03*
X89242500Y-104650000D03*
%TD*%
D26*
%TO.C,C104*%
X88695000Y-112102500D03*
X88695000Y-110197500D03*
%TD*%
D24*
%TO.C,C103*%
X86445000Y-108662000D03*
X86445000Y-107138000D03*
%TD*%
D26*
%TO.C,C102*%
X80445000Y-104447500D03*
X80445000Y-106352500D03*
%TD*%
D25*
%TO.C,C101*%
X77647500Y-104650000D03*
X75742500Y-104650000D03*
%TD*%
D27*
%TO.C,TP103*%
X134000000Y-110000000D03*
%TD*%
D20*
%TO.C,J105*%
X132800000Y-93800000D03*
D21*
X130260000Y-96340000D03*
X135340000Y-91260000D03*
X130260000Y-91260000D03*
X135340000Y-96340000D03*
%TD*%
D28*
%TO.C,D101*%
X80694300Y-111400000D03*
X79195700Y-111400000D03*
%TD*%
D29*
%TO.C,J101*%
X68670000Y-109400000D03*
D30*
X68670000Y-106900000D03*
%TD*%
D31*
%TO.C,U103*%
X95000000Y-91800000D03*
X95000000Y-92200000D03*
X95000000Y-92600000D03*
X95000000Y-93000000D03*
X95000000Y-93400000D03*
X95000000Y-93800000D03*
X95000000Y-94200000D03*
X95000000Y-94600000D03*
X95000000Y-95000000D03*
X95000000Y-95400000D03*
X95000000Y-95800000D03*
X95000000Y-96200000D03*
D32*
X95800000Y-97000000D03*
X96200000Y-97000000D03*
X96600000Y-97000000D03*
X97000000Y-97000000D03*
X97400000Y-97000000D03*
X97800000Y-97000000D03*
X98200000Y-97000000D03*
X98600000Y-97000000D03*
X99000000Y-97000000D03*
X99400000Y-97000000D03*
X99800000Y-97000000D03*
X100200000Y-97000000D03*
D31*
X101000000Y-96200000D03*
X101000000Y-95800000D03*
X101000000Y-95400000D03*
X101000000Y-95000000D03*
X101000000Y-94600000D03*
X101000000Y-94200000D03*
X101000000Y-93800000D03*
X101000000Y-93400000D03*
X101000000Y-93000000D03*
X101000000Y-92600000D03*
X101000000Y-92200000D03*
X101000000Y-91800000D03*
D32*
X100200000Y-91000000D03*
X99800000Y-91000000D03*
X99400000Y-91000000D03*
X99000000Y-91000000D03*
X98600000Y-91000000D03*
X98200000Y-91000000D03*
X97800000Y-91000000D03*
X97400000Y-91000000D03*
X97000000Y-91000000D03*
X96600000Y-91000000D03*
X96200000Y-91000000D03*
X95800000Y-91000000D03*
D33*
X95050000Y-91050000D03*
D34*
X98000000Y-96000000D03*
D35*
X98000000Y-94000000D03*
D34*
X98000000Y-92000000D03*
X96000000Y-94000000D03*
X98000000Y-94000000D03*
X96000000Y-96000000D03*
X100000000Y-94000000D03*
X96000000Y-92000000D03*
D33*
X100950000Y-96950000D03*
X95050000Y-96950000D03*
D34*
X100000000Y-96000000D03*
D33*
X100950000Y-91050000D03*
D34*
X100000000Y-92000000D03*
%TD*%
D28*
%TO.C,D103*%
X92200000Y-82749300D03*
X92200000Y-81250700D03*
%TD*%
D20*
%TO.C,J106*%
X61642500Y-87750000D03*
D21*
X59102500Y-85210000D03*
X64182500Y-90290000D03*
X59102500Y-90290000D03*
X64182500Y-85210000D03*
%TD*%
D28*
%TO.C,D104*%
X90600000Y-82749300D03*
X90600000Y-81250700D03*
%TD*%
D27*
%TO.C,TP101*%
X134000000Y-81000000D03*
%TD*%
D28*
%TO.C,D105*%
X89000000Y-82749300D03*
X89000000Y-81250700D03*
%TD*%
D36*
%TO.C,U101*%
X78295000Y-108350000D03*
X78295000Y-107400000D03*
X78295000Y-106450000D03*
X75595000Y-106450000D03*
X75595000Y-108350000D03*
%TD*%
D37*
%TO.C,U105*%
X84000000Y-95400000D03*
D38*
X84000000Y-94300000D03*
X84000000Y-93200000D03*
X84000000Y-92100000D03*
X84000000Y-91000000D03*
X84000000Y-89900000D03*
X84000000Y-88800000D03*
X84000000Y-87700000D03*
D37*
X84000000Y-86600000D03*
X74500000Y-86600000D03*
D38*
X74500000Y-87700000D03*
X74500000Y-88800000D03*
X74500000Y-89900000D03*
X74500000Y-91000000D03*
X74500000Y-92100000D03*
X74500000Y-93200000D03*
X74500000Y-94300000D03*
D37*
X74500000Y-95400000D03*
%TD*%
D39*
%TO.C,D102*%
X84445000Y-110535000D03*
X84445000Y-107265000D03*
%TD*%
D40*
%TO.C,J103*%
X95200000Y-83625000D03*
D41*
X95200000Y-82355000D03*
X96470000Y-83625000D03*
X96470000Y-82355000D03*
X97740000Y-83625000D03*
X97740000Y-82355000D03*
X99010000Y-83625000D03*
X99010000Y-82355000D03*
X100280000Y-83625000D03*
X100280000Y-82355000D03*
%TD*%
D29*
%TO.C,J102*%
X84420000Y-103400000D03*
D30*
X84420000Y-100900000D03*
%TD*%
D27*
%TO.C,TP104*%
X61000000Y-110000000D03*
%TD*%
D42*
%TO.C,J107*%
X72900000Y-81250000D03*
D43*
X75440000Y-81250000D03*
X77980000Y-81250000D03*
X80520000Y-81250000D03*
X83060000Y-81250000D03*
X85600000Y-81250000D03*
%TD*%
D44*
%TO.C,X101*%
X103600000Y-99400000D03*
X101400000Y-99400000D03*
X101400000Y-101100000D03*
X103600000Y-101100000D03*
%TD*%
D40*
%TO.C,J104*%
X95200000Y-105625000D03*
D41*
X95200000Y-104355000D03*
X96470000Y-105625000D03*
X96470000Y-104355000D03*
X97740000Y-105625000D03*
X97740000Y-104355000D03*
X99010000Y-105625000D03*
X99010000Y-104355000D03*
X100280000Y-105625000D03*
X100280000Y-104355000D03*
%TD*%
D45*
%TO.C,Q101*%
X82445000Y-109850000D03*
X82445000Y-107950000D03*
X80445000Y-108900000D03*
%TD*%
D27*
%TO.C,TP102*%
X61000000Y-81000000D03*
%TD*%
D46*
%TO.C,U106*%
X112350000Y-95000000D03*
X112350000Y-94500000D03*
X112350000Y-94000000D03*
X112350000Y-93500000D03*
X112350000Y-93000000D03*
D47*
X111250000Y-91900000D03*
X110750000Y-91900000D03*
X110250000Y-91900000D03*
X109750000Y-91900000D03*
X109250000Y-91900000D03*
D46*
X108150000Y-93000000D03*
X108150000Y-93500000D03*
X108150000Y-94000000D03*
X108150000Y-94500000D03*
X108150000Y-95000000D03*
D47*
X109250000Y-96100000D03*
X109750000Y-96100000D03*
X110250000Y-96100000D03*
X110750000Y-96100000D03*
X111250000Y-96100000D03*
D48*
X110987500Y-94737500D03*
D49*
X109512500Y-93262500D03*
X109512500Y-94737500D03*
D48*
X109512500Y-94737500D03*
X110987500Y-93262500D03*
X109512500Y-93262500D03*
D49*
X110987500Y-94737500D03*
X110987500Y-93262500D03*
%TD*%
D44*
%TO.C,X102*%
X111850000Y-98650000D03*
X109650000Y-98650000D03*
X109650000Y-100350000D03*
X111850000Y-100350000D03*
%TD*%
D50*
%TO.C,U102*%
X89245000Y-108750000D03*
X90195000Y-108750000D03*
X91145000Y-108750000D03*
X91145000Y-106550000D03*
X89245000Y-106550000D03*
%TD*%
M02*
