%TF.GenerationSoftware,KiCad,Pcbnew,(6.0.7)*%
%TF.CreationDate,2022-08-15T11:29:02+02:00*%
%TF.ProjectId,atsd_tracker,61747364-5f74-4726-9163-6b65722e6b69,rev?*%
%TF.SameCoordinates,Original*%
%TF.FileFunction,Copper,L2,Inr*%
%TF.FilePolarity,Positive*%
%FSLAX46Y46*%
G04 Gerber Fmt 4.6, Leading zero omitted, Abs format (unit mm)*
G04 Created by KiCad (PCBNEW (6.0.7)) date 2022-08-15 11:29:02*
%MOMM*%
%LPD*%
G01*
G04 APERTURE LIST*
G04 Aperture macros list*
%AMRoundRect*
0 Rectangle with rounded corners*
0 $1 Rounding radius*
0 $2 $3 $4 $5 $6 $7 $8 $9 X,Y pos of 4 corners*
0 Add a 4 corners polygon primitive as box body*
4,1,4,$2,$3,$4,$5,$6,$7,$8,$9,$2,$3,0*
0 Add four circle primitives for the rounded corners*
1,1,$1+$1,$2,$3*
1,1,$1+$1,$4,$5*
1,1,$1+$1,$6,$7*
1,1,$1+$1,$8,$9*
0 Add four rect primitives between the rounded corners*
20,1,$1+$1,$2,$3,$4,$5,0*
20,1,$1+$1,$4,$5,$6,$7,0*
20,1,$1+$1,$6,$7,$8,$9,0*
20,1,$1+$1,$8,$9,$2,$3,0*%
G04 Aperture macros list end*
%TA.AperFunction,ComponentPad*%
%ADD10C,3.600000*%
%TD*%
%TA.AperFunction,ComponentPad*%
%ADD11C,2.500000*%
%TD*%
%TA.AperFunction,ComponentPad*%
%ADD12C,2.700000*%
%TD*%
%TA.AperFunction,ComponentPad*%
%ADD13RoundRect,0.250000X0.750000X-0.600000X0.750000X0.600000X-0.750000X0.600000X-0.750000X-0.600000X0*%
%TD*%
%TA.AperFunction,ComponentPad*%
%ADD14O,2.000000X1.700000*%
%TD*%
%TA.AperFunction,ComponentPad*%
%ADD15C,0.600000*%
%TD*%
%TA.AperFunction,ComponentPad*%
%ADD16R,1.000000X1.000000*%
%TD*%
%TA.AperFunction,ComponentPad*%
%ADD17O,1.000000X1.000000*%
%TD*%
%TA.AperFunction,ComponentPad*%
%ADD18R,1.700000X1.700000*%
%TD*%
%TA.AperFunction,ComponentPad*%
%ADD19O,1.700000X1.700000*%
%TD*%
%TA.AperFunction,ComponentPad*%
%ADD20C,0.737500*%
%TD*%
%TA.AperFunction,ViaPad*%
%ADD21C,0.500000*%
%TD*%
G04 APERTURE END LIST*
D10*
%TO.N,GND*%
%TO.C,TP103*%
X134000000Y-110000000D03*
%TD*%
D11*
%TO.N,Net-(C113-Pad2)*%
%TO.C,J105*%
X132800000Y-93800000D03*
D12*
%TO.N,GND*%
X130260000Y-96340000D03*
X135340000Y-91260000D03*
X130260000Y-91260000D03*
X135340000Y-96340000D03*
%TD*%
D13*
%TO.N,GND*%
%TO.C,J101*%
X68670000Y-109400000D03*
D14*
%TO.N,+5V*%
X68670000Y-106900000D03*
%TD*%
D15*
%TO.N,GND*%
%TO.C,U103*%
X98000000Y-96000000D03*
X98000000Y-92000000D03*
X96000000Y-94000000D03*
X98000000Y-94000000D03*
X96000000Y-96000000D03*
X100000000Y-94000000D03*
X96000000Y-92000000D03*
X100000000Y-96000000D03*
X100000000Y-92000000D03*
%TD*%
D11*
%TO.N,Net-(C121-Pad2)*%
%TO.C,J106*%
X61642500Y-87750000D03*
D12*
%TO.N,GND*%
X59102500Y-85210000D03*
X64182500Y-90290000D03*
X59102500Y-90290000D03*
X64182500Y-85210000D03*
%TD*%
D10*
%TO.N,GND*%
%TO.C,TP101*%
X134000000Y-81000000D03*
%TD*%
D16*
%TO.N,+3V3*%
%TO.C,J103*%
X95200000Y-83625000D03*
D17*
%TO.N,VCC*%
X95200000Y-82355000D03*
%TO.N,Net-(J103-Pad3)*%
X96470000Y-83625000D03*
%TO.N,Net-(J103-Pad4)*%
X96470000Y-82355000D03*
%TO.N,Net-(J103-Pad5)*%
X97740000Y-83625000D03*
%TO.N,Net-(J103-Pad6)*%
X97740000Y-82355000D03*
%TO.N,Net-(J103-Pad7)*%
X99010000Y-83625000D03*
%TO.N,Net-(J103-Pad8)*%
X99010000Y-82355000D03*
%TO.N,GND*%
X100280000Y-83625000D03*
X100280000Y-82355000D03*
%TD*%
D13*
%TO.N,Net-(C102-Pad2)*%
%TO.C,J102*%
X84420000Y-103400000D03*
D14*
%TO.N,GND*%
X84420000Y-100900000D03*
%TD*%
D10*
%TO.N,GND*%
%TO.C,TP104*%
X61000000Y-110000000D03*
%TD*%
D18*
%TO.N,/~{MCLR}*%
%TO.C,J107*%
X72900000Y-81250000D03*
D19*
%TO.N,+3V3*%
X75440000Y-81250000D03*
%TO.N,GND*%
X77980000Y-81250000D03*
%TO.N,/PGD*%
X80520000Y-81250000D03*
%TO.N,/PGC*%
X83060000Y-81250000D03*
%TO.N,unconnected-(J107-Pad6)*%
X85600000Y-81250000D03*
%TD*%
D16*
%TO.N,+3V3*%
%TO.C,J104*%
X95200000Y-105625000D03*
D17*
%TO.N,VCC*%
X95200000Y-104355000D03*
%TO.N,Net-(J104-Pad3)*%
X96470000Y-105625000D03*
%TO.N,Net-(J104-Pad4)*%
X96470000Y-104355000D03*
%TO.N,Net-(J104-Pad5)*%
X97740000Y-105625000D03*
%TO.N,Net-(J104-Pad6)*%
X97740000Y-104355000D03*
%TO.N,Net-(J104-Pad7)*%
X99010000Y-105625000D03*
%TO.N,Net-(J104-Pad8)*%
X99010000Y-104355000D03*
%TO.N,GND*%
X100280000Y-105625000D03*
X100280000Y-104355000D03*
%TD*%
D10*
%TO.N,GND*%
%TO.C,TP102*%
X61000000Y-81000000D03*
%TD*%
D20*
%TO.N,GND*%
%TO.C,U106*%
X109512500Y-93262500D03*
X109512500Y-94737500D03*
X110987500Y-94737500D03*
X110987500Y-93262500D03*
%TD*%
D21*
%TO.N,GND*%
X86620000Y-85100000D03*
X84080000Y-85100000D03*
X81540000Y-85100000D03*
X79000000Y-85100000D03*
X76460000Y-85100000D03*
X73920000Y-85100000D03*
X71380000Y-85100000D03*
X68840000Y-85100000D03*
X66300000Y-85100000D03*
X131440000Y-112500000D03*
X128900000Y-112500000D03*
X126360000Y-112500000D03*
X123820000Y-112500000D03*
X121280000Y-112500000D03*
X118740000Y-112500000D03*
X116200000Y-112500000D03*
X113660000Y-112500000D03*
X111120000Y-112500000D03*
X108580000Y-112500000D03*
X106040000Y-112500000D03*
X65300000Y-82379999D03*
X65300000Y-79839998D03*
X68100000Y-79859999D03*
X68100000Y-82400000D03*
X69400000Y-103319999D03*
X69400000Y-100779999D03*
X69400000Y-98239998D03*
X72200000Y-98259999D03*
X72200000Y-100800000D03*
X72200000Y-103340000D03*
X66500000Y-101240000D03*
X63700000Y-96139998D03*
X66500000Y-96159999D03*
X66500000Y-98700000D03*
X63700000Y-101219999D03*
X63700000Y-98679999D03*
X79000000Y-101400000D03*
X79000000Y-96320000D03*
X79000000Y-98860000D03*
X76460000Y-101400000D03*
X76460000Y-98860000D03*
X76460000Y-96320000D03*
X81000000Y-92200000D03*
X78460000Y-89660000D03*
X81000000Y-89660000D03*
X78460000Y-92200000D03*
X81000000Y-87120000D03*
X78460000Y-87120000D03*
X60800000Y-95100000D03*
X60800000Y-100180001D03*
X60800000Y-97640001D03*
X58000000Y-112860000D03*
X58000000Y-102700000D03*
X58000000Y-107780001D03*
X58000000Y-92540000D03*
X58000000Y-95079999D03*
X58000000Y-110320000D03*
X58000000Y-105240000D03*
X58000000Y-100160000D03*
X58000000Y-97620000D03*
X76320000Y-77800000D03*
X78860000Y-77800000D03*
X71240000Y-77800000D03*
X73780000Y-77800000D03*
X81400000Y-77800000D03*
X68700000Y-77800000D03*
X66160000Y-77800000D03*
X63620000Y-77800000D03*
X61080000Y-77800000D03*
X58540000Y-77800000D03*
X137000000Y-104920000D03*
X137000000Y-112540000D03*
X137000000Y-110000000D03*
X137000000Y-107460000D03*
X103500000Y-104880000D03*
X103500000Y-109960000D03*
X103500000Y-112500000D03*
X103500000Y-107420000D03*
X128360000Y-85620000D03*
X125820000Y-85620000D03*
X123280000Y-85620000D03*
X120740000Y-85620000D03*
X118200000Y-85620000D03*
X115660000Y-85620000D03*
X113120000Y-85620000D03*
X110580000Y-85620000D03*
X108040000Y-85620000D03*
X105500000Y-85620000D03*
X128360000Y-83080000D03*
X125820000Y-83080000D03*
X123280000Y-83080000D03*
X120740000Y-83080000D03*
X118200000Y-83080000D03*
X115660000Y-83080000D03*
X113120000Y-83080000D03*
X110580000Y-83080000D03*
X108040000Y-83080000D03*
X105500000Y-83080000D03*
X128360000Y-80540000D03*
X125820000Y-80540000D03*
X123280000Y-80540000D03*
X120740000Y-80540000D03*
X118200000Y-80540000D03*
X115660000Y-80540000D03*
X113120000Y-80540000D03*
X110580000Y-80540000D03*
X108040000Y-80540000D03*
X105500000Y-80540000D03*
X128360000Y-78000000D03*
X125820000Y-78000000D03*
X123280000Y-78000000D03*
X120740000Y-78000000D03*
X118200000Y-78000000D03*
X115660000Y-78000000D03*
X113120000Y-78000000D03*
X110580000Y-78000000D03*
X108040000Y-78000000D03*
X105500000Y-78000000D03*
X112300000Y-89000000D03*
X112300000Y-90200000D03*
X112300000Y-91300000D03*
X105600000Y-91800000D03*
X106700000Y-91800000D03*
X106300000Y-97600000D03*
X105100000Y-97600000D03*
X103900000Y-97600000D03*
X103400000Y-96800000D03*
X104500000Y-96800000D03*
X105600000Y-96800000D03*
X106800000Y-96800000D03*
X107900000Y-96300000D03*
X112400000Y-96300000D03*
X136760000Y-87800000D03*
X134220000Y-87800000D03*
X131680000Y-87800000D03*
X129140000Y-87800000D03*
X126600000Y-87800000D03*
X124060000Y-87800000D03*
X121520000Y-87800000D03*
X118980000Y-87800000D03*
X116440000Y-87800000D03*
X113900000Y-87800000D03*
X136760000Y-103000000D03*
X134220000Y-103000000D03*
X131680000Y-103000000D03*
X129140000Y-103000000D03*
X126600000Y-103000000D03*
X124060000Y-103000000D03*
X121520000Y-103000000D03*
X118980000Y-103000000D03*
X116440000Y-103000000D03*
X113900000Y-103000000D03*
%TO.N,+3V3*%
X97400000Y-88900000D03*
%TO.N,GND*%
X98700000Y-99300000D03*
%TO.N,+3V3*%
X95700000Y-99400000D03*
X97700000Y-99400000D03*
%TO.N,GND*%
X103100000Y-92300000D03*
%TO.N,+3V3*%
X103400000Y-93500000D03*
%TO.N,GND*%
X97200000Y-90100000D03*
X96200000Y-89000000D03*
%TO.N,VCC*%
X87200000Y-111100000D03*
X91200000Y-113000000D03*
X94700000Y-112400000D03*
%TO.N,GND*%
X127100000Y-95400000D03*
X126500000Y-95400000D03*
X125900000Y-95400000D03*
X124000000Y-95400000D03*
X123400000Y-95400000D03*
X122800000Y-95400000D03*
X120800000Y-91600000D03*
X120200000Y-91600000D03*
X119600000Y-91600000D03*
X120200000Y-95800000D03*
X120800000Y-95800000D03*
X119600000Y-95800000D03*
X113800000Y-89700000D03*
X115500000Y-95200000D03*
X115100000Y-91800000D03*
%TO.N,+3V3*%
X110000000Y-97500000D03*
%TO.N,GND*%
X92300000Y-106900000D03*
X95100000Y-107100000D03*
X95100000Y-108000000D03*
X92300000Y-108100000D03*
X92200000Y-104100000D03*
X92200000Y-105200000D03*
X90200000Y-107700000D03*
X90200000Y-111000000D03*
X90200000Y-109600000D03*
X89400000Y-113100000D03*
X88100000Y-113100000D03*
X87000000Y-109500000D03*
X85900000Y-109500000D03*
X83700000Y-112700000D03*
X83000000Y-113400000D03*
X81900000Y-113400000D03*
X80500000Y-102900000D03*
X81000000Y-103400000D03*
X79900000Y-103400000D03*
X79200000Y-104600000D03*
X78700000Y-105200000D03*
X78700000Y-104000000D03*
X79400000Y-108400000D03*
X79400000Y-107400000D03*
X77100000Y-107400000D03*
X74400000Y-110800000D03*
X73500000Y-110800000D03*
X92200000Y-80300000D03*
X90600000Y-80300000D03*
X89000000Y-80300000D03*
X113800000Y-97700000D03*
X102700000Y-98200000D03*
X105000000Y-101400000D03*
X105000000Y-102500000D03*
X103700000Y-102500000D03*
X113000000Y-100400000D03*
X113000000Y-101500000D03*
X111800000Y-101500000D03*
X107500000Y-98600000D03*
X107500000Y-97500000D03*
X108500000Y-98600000D03*
X84000000Y-96400000D03*
X85400000Y-95400000D03*
X82700000Y-95400000D03*
X73600000Y-97100000D03*
X71900000Y-97100000D03*
X72700000Y-97100000D03*
X75900000Y-86400000D03*
X75900000Y-89000000D03*
X69300000Y-89300000D03*
%TO.N,+3V3*%
X90100000Y-92400000D03*
X85800000Y-89600000D03*
X85800000Y-88000000D03*
X85800000Y-88800000D03*
X70600000Y-94300000D03*
X70600000Y-93200000D03*
X89200000Y-102100000D03*
X89200000Y-102800000D03*
X89200000Y-103500000D03*
%TO.N,/left_5*%
X99700000Y-87500000D03*
X99700000Y-89000000D03*
%TO.N,/left_4*%
X97750000Y-87500500D03*
X98800000Y-89100000D03*
%TO.N,/left_3*%
X96600000Y-87600000D03*
X98600000Y-89900000D03*
%TO.N,/left_2*%
X93100000Y-95700000D03*
X94100000Y-86800000D03*
%TO.N,/~{MCLR}*%
X88300000Y-93100000D03*
%TO.N,+3V3*%
X114400000Y-91400000D03*
X115200000Y-96000000D03*
%TO.N,/PGD*%
X104200000Y-92100000D03*
%TO.N,/PGC*%
X103400000Y-91700000D03*
%TO.N,/~{RF_CS}*%
X104900000Y-90900000D03*
X104900000Y-95400000D03*
%TO.N,/RF_CLK*%
X105700000Y-92600000D03*
X105700000Y-94800000D03*
%TO.N,/RF_MISO*%
X106400000Y-93300000D03*
X106400000Y-94300000D03*
%TO.N,/RF_IRQ*%
X106800000Y-95200000D03*
X96400000Y-98000000D03*
%TO.N,/GPS_SDA*%
X93200000Y-88000000D03*
X76100000Y-93200000D03*
%TO.N,/GPS_SCL*%
X76100000Y-94300000D03*
X93700000Y-87400000D03*
%TO.N,/left_0*%
X95400000Y-86200000D03*
X93100000Y-94200000D03*
%TO.N,/left_1*%
X94900000Y-86900000D03*
X93100000Y-94900000D03*
%TO.N,/right_3*%
X96500000Y-109800000D03*
X100400000Y-98400000D03*
%TO.N,/right_4*%
X97700000Y-109800000D03*
X101200000Y-98400000D03*
%TO.N,/right_5*%
X99000000Y-109800000D03*
X102100000Y-96800000D03*
%TD*%
%TA.AperFunction,Conductor*%
%TO.N,GND*%
G36*
X137823066Y-77167813D02*
G01*
X137848376Y-77211650D01*
X137849500Y-77224500D01*
X137849500Y-113775500D01*
X137832187Y-113823066D01*
X137788350Y-113848376D01*
X137775500Y-113849500D01*
X57224500Y-113849500D01*
X57176934Y-113832187D01*
X57151624Y-113788350D01*
X57150500Y-113775500D01*
X57150500Y-113000000D01*
X90774258Y-113000000D01*
X90775169Y-113005752D01*
X90794183Y-113125807D01*
X90794184Y-113125810D01*
X90795095Y-113131562D01*
X90797740Y-113136753D01*
X90797741Y-113136756D01*
X90852921Y-113245053D01*
X90852923Y-113245056D01*
X90855567Y-113250245D01*
X90949755Y-113344433D01*
X90954944Y-113347077D01*
X90954947Y-113347079D01*
X91063244Y-113402259D01*
X91063247Y-113402260D01*
X91068438Y-113404905D01*
X91074190Y-113405816D01*
X91074193Y-113405817D01*
X91194248Y-113424831D01*
X91200000Y-113425742D01*
X91205752Y-113424831D01*
X91325807Y-113405817D01*
X91325810Y-113405816D01*
X91331562Y-113404905D01*
X91336753Y-113402260D01*
X91336756Y-113402259D01*
X91445053Y-113347079D01*
X91445056Y-113347077D01*
X91450245Y-113344433D01*
X91544433Y-113250245D01*
X91547077Y-113245056D01*
X91547079Y-113245053D01*
X91602259Y-113136756D01*
X91602260Y-113136753D01*
X91604905Y-113131562D01*
X91605816Y-113125810D01*
X91605817Y-113125807D01*
X91624831Y-113005752D01*
X91625742Y-113000000D01*
X91624831Y-112994248D01*
X91605817Y-112874193D01*
X91605816Y-112874190D01*
X91604905Y-112868438D01*
X91602259Y-112863244D01*
X91547079Y-112754947D01*
X91547077Y-112754944D01*
X91544433Y-112749755D01*
X91450245Y-112655567D01*
X91445056Y-112652923D01*
X91445053Y-112652921D01*
X91336756Y-112597741D01*
X91336753Y-112597740D01*
X91331562Y-112595095D01*
X91325810Y-112594184D01*
X91325807Y-112594183D01*
X91205752Y-112575169D01*
X91200000Y-112574258D01*
X91194248Y-112575169D01*
X91074193Y-112594183D01*
X91074190Y-112594184D01*
X91068438Y-112595095D01*
X91063247Y-112597740D01*
X91063244Y-112597741D01*
X90954947Y-112652921D01*
X90954944Y-112652923D01*
X90949755Y-112655567D01*
X90855567Y-112749755D01*
X90852923Y-112754944D01*
X90852921Y-112754947D01*
X90797741Y-112863244D01*
X90795095Y-112868438D01*
X90794184Y-112874190D01*
X90794183Y-112874193D01*
X90775169Y-112994248D01*
X90774258Y-113000000D01*
X57150500Y-113000000D01*
X57150500Y-112400000D01*
X94274258Y-112400000D01*
X94275169Y-112405752D01*
X94294183Y-112525807D01*
X94294184Y-112525810D01*
X94295095Y-112531562D01*
X94297740Y-112536753D01*
X94297741Y-112536756D01*
X94352921Y-112645053D01*
X94352923Y-112645056D01*
X94355567Y-112650245D01*
X94449755Y-112744433D01*
X94454944Y-112747077D01*
X94454947Y-112747079D01*
X94563244Y-112802259D01*
X94563247Y-112802260D01*
X94568438Y-112804905D01*
X94574190Y-112805816D01*
X94574193Y-112805817D01*
X94694248Y-112824831D01*
X94700000Y-112825742D01*
X94705752Y-112824831D01*
X94825807Y-112805817D01*
X94825810Y-112805816D01*
X94831562Y-112804905D01*
X94836753Y-112802260D01*
X94836756Y-112802259D01*
X94945053Y-112747079D01*
X94945056Y-112747077D01*
X94950245Y-112744433D01*
X95044433Y-112650245D01*
X95047077Y-112645056D01*
X95047079Y-112645053D01*
X95102259Y-112536756D01*
X95102260Y-112536753D01*
X95104905Y-112531562D01*
X95105816Y-112525810D01*
X95105817Y-112525807D01*
X95124831Y-112405752D01*
X95125742Y-112400000D01*
X95124831Y-112394248D01*
X95105817Y-112274193D01*
X95105816Y-112274190D01*
X95104905Y-112268438D01*
X95102259Y-112263244D01*
X95047079Y-112154947D01*
X95047077Y-112154944D01*
X95044433Y-112149755D01*
X94950245Y-112055567D01*
X94945056Y-112052923D01*
X94945053Y-112052921D01*
X94836756Y-111997741D01*
X94836753Y-111997740D01*
X94831562Y-111995095D01*
X94825810Y-111994184D01*
X94825807Y-111994183D01*
X94705752Y-111975169D01*
X94700000Y-111974258D01*
X94694248Y-111975169D01*
X94574193Y-111994183D01*
X94574190Y-111994184D01*
X94568438Y-111995095D01*
X94563247Y-111997740D01*
X94563244Y-111997741D01*
X94454947Y-112052921D01*
X94454944Y-112052923D01*
X94449755Y-112055567D01*
X94355567Y-112149755D01*
X94352923Y-112154944D01*
X94352921Y-112154947D01*
X94297741Y-112263244D01*
X94295095Y-112268438D01*
X94294184Y-112274190D01*
X94294183Y-112274193D01*
X94275169Y-112394248D01*
X94274258Y-112400000D01*
X57150500Y-112400000D01*
X57150500Y-111100000D01*
X86774258Y-111100000D01*
X86775169Y-111105752D01*
X86794183Y-111225807D01*
X86794184Y-111225810D01*
X86795095Y-111231562D01*
X86797740Y-111236753D01*
X86797741Y-111236756D01*
X86852921Y-111345053D01*
X86852923Y-111345056D01*
X86855567Y-111350245D01*
X86949755Y-111444433D01*
X86954944Y-111447077D01*
X86954947Y-111447079D01*
X87063244Y-111502259D01*
X87063247Y-111502260D01*
X87068438Y-111504905D01*
X87074190Y-111505816D01*
X87074193Y-111505817D01*
X87194248Y-111524831D01*
X87200000Y-111525742D01*
X87205752Y-111524831D01*
X87325807Y-111505817D01*
X87325810Y-111505816D01*
X87331562Y-111504905D01*
X87336753Y-111502260D01*
X87336756Y-111502259D01*
X87445053Y-111447079D01*
X87445056Y-111447077D01*
X87450245Y-111444433D01*
X87544433Y-111350245D01*
X87547077Y-111345056D01*
X87547079Y-111345053D01*
X87602259Y-111236756D01*
X87602260Y-111236753D01*
X87604905Y-111231562D01*
X87605816Y-111225810D01*
X87605817Y-111225807D01*
X87624831Y-111105752D01*
X87625742Y-111100000D01*
X87624831Y-111094248D01*
X87605817Y-110974193D01*
X87605816Y-110974190D01*
X87604905Y-110968438D01*
X87602259Y-110963244D01*
X87547079Y-110854947D01*
X87547077Y-110854944D01*
X87544433Y-110849755D01*
X87450245Y-110755567D01*
X87445056Y-110752923D01*
X87445053Y-110752921D01*
X87336756Y-110697741D01*
X87336753Y-110697740D01*
X87331562Y-110695095D01*
X87325810Y-110694184D01*
X87325807Y-110694183D01*
X87205752Y-110675169D01*
X87200000Y-110674258D01*
X87194248Y-110675169D01*
X87074193Y-110694183D01*
X87074190Y-110694184D01*
X87068438Y-110695095D01*
X87063247Y-110697740D01*
X87063244Y-110697741D01*
X86954947Y-110752921D01*
X86954944Y-110752923D01*
X86949755Y-110755567D01*
X86855567Y-110849755D01*
X86852923Y-110854944D01*
X86852921Y-110854947D01*
X86797741Y-110963244D01*
X86795095Y-110968438D01*
X86794184Y-110974190D01*
X86794183Y-110974193D01*
X86775169Y-111094248D01*
X86774258Y-111100000D01*
X57150500Y-111100000D01*
X57150500Y-109800000D01*
X96074258Y-109800000D01*
X96075169Y-109805752D01*
X96094183Y-109925807D01*
X96094184Y-109925810D01*
X96095095Y-109931562D01*
X96097740Y-109936753D01*
X96097741Y-109936756D01*
X96152921Y-110045053D01*
X96152923Y-110045056D01*
X96155567Y-110050245D01*
X96249755Y-110144433D01*
X96254944Y-110147077D01*
X96254947Y-110147079D01*
X96363244Y-110202259D01*
X96363247Y-110202260D01*
X96368438Y-110204905D01*
X96374190Y-110205816D01*
X96374193Y-110205817D01*
X96494248Y-110224831D01*
X96500000Y-110225742D01*
X96505752Y-110224831D01*
X96625807Y-110205817D01*
X96625810Y-110205816D01*
X96631562Y-110204905D01*
X96636753Y-110202260D01*
X96636756Y-110202259D01*
X96745053Y-110147079D01*
X96745056Y-110147077D01*
X96750245Y-110144433D01*
X96844433Y-110050245D01*
X96847077Y-110045056D01*
X96847079Y-110045053D01*
X96902259Y-109936756D01*
X96902260Y-109936753D01*
X96904905Y-109931562D01*
X96905816Y-109925810D01*
X96905817Y-109925807D01*
X96924831Y-109805752D01*
X96925742Y-109800000D01*
X97274258Y-109800000D01*
X97275169Y-109805752D01*
X97294183Y-109925807D01*
X97294184Y-109925810D01*
X97295095Y-109931562D01*
X97297740Y-109936753D01*
X97297741Y-109936756D01*
X97352921Y-110045053D01*
X97352923Y-110045056D01*
X97355567Y-110050245D01*
X97449755Y-110144433D01*
X97454944Y-110147077D01*
X97454947Y-110147079D01*
X97563244Y-110202259D01*
X97563247Y-110202260D01*
X97568438Y-110204905D01*
X97574190Y-110205816D01*
X97574193Y-110205817D01*
X97694248Y-110224831D01*
X97700000Y-110225742D01*
X97705752Y-110224831D01*
X97825807Y-110205817D01*
X97825810Y-110205816D01*
X97831562Y-110204905D01*
X97836753Y-110202260D01*
X97836756Y-110202259D01*
X97945053Y-110147079D01*
X97945056Y-110147077D01*
X97950245Y-110144433D01*
X98044433Y-110050245D01*
X98047077Y-110045056D01*
X98047079Y-110045053D01*
X98102259Y-109936756D01*
X98102260Y-109936753D01*
X98104905Y-109931562D01*
X98105816Y-109925810D01*
X98105817Y-109925807D01*
X98124831Y-109805752D01*
X98125742Y-109800000D01*
X98574258Y-109800000D01*
X98575169Y-109805752D01*
X98594183Y-109925807D01*
X98594184Y-109925810D01*
X98595095Y-109931562D01*
X98597740Y-109936753D01*
X98597741Y-109936756D01*
X98652921Y-110045053D01*
X98652923Y-110045056D01*
X98655567Y-110050245D01*
X98749755Y-110144433D01*
X98754944Y-110147077D01*
X98754947Y-110147079D01*
X98863244Y-110202259D01*
X98863247Y-110202260D01*
X98868438Y-110204905D01*
X98874190Y-110205816D01*
X98874193Y-110205817D01*
X98994248Y-110224831D01*
X99000000Y-110225742D01*
X99005752Y-110224831D01*
X99125807Y-110205817D01*
X99125810Y-110205816D01*
X99131562Y-110204905D01*
X99136753Y-110202260D01*
X99136756Y-110202259D01*
X99245053Y-110147079D01*
X99245056Y-110147077D01*
X99250245Y-110144433D01*
X99344433Y-110050245D01*
X99347077Y-110045056D01*
X99347079Y-110045053D01*
X99402259Y-109936756D01*
X99402260Y-109936753D01*
X99404905Y-109931562D01*
X99405816Y-109925810D01*
X99405817Y-109925807D01*
X99424831Y-109805752D01*
X99425742Y-109800000D01*
X99424831Y-109794248D01*
X99405817Y-109674193D01*
X99405816Y-109674190D01*
X99404905Y-109668438D01*
X99402259Y-109663244D01*
X99347079Y-109554947D01*
X99347077Y-109554944D01*
X99344433Y-109549755D01*
X99250245Y-109455567D01*
X99245056Y-109452923D01*
X99245053Y-109452921D01*
X99136756Y-109397741D01*
X99136753Y-109397740D01*
X99131562Y-109395095D01*
X99125810Y-109394184D01*
X99125807Y-109394183D01*
X99005752Y-109375169D01*
X99000000Y-109374258D01*
X98994248Y-109375169D01*
X98874193Y-109394183D01*
X98874190Y-109394184D01*
X98868438Y-109395095D01*
X98863247Y-109397740D01*
X98863244Y-109397741D01*
X98754947Y-109452921D01*
X98754944Y-109452923D01*
X98749755Y-109455567D01*
X98655567Y-109549755D01*
X98652923Y-109554944D01*
X98652921Y-109554947D01*
X98597741Y-109663244D01*
X98595095Y-109668438D01*
X98594184Y-109674190D01*
X98594183Y-109674193D01*
X98575169Y-109794248D01*
X98574258Y-109800000D01*
X98125742Y-109800000D01*
X98124831Y-109794248D01*
X98105817Y-109674193D01*
X98105816Y-109674190D01*
X98104905Y-109668438D01*
X98102259Y-109663244D01*
X98047079Y-109554947D01*
X98047077Y-109554944D01*
X98044433Y-109549755D01*
X97950245Y-109455567D01*
X97945056Y-109452923D01*
X97945053Y-109452921D01*
X97836756Y-109397741D01*
X97836753Y-109397740D01*
X97831562Y-109395095D01*
X97825810Y-109394184D01*
X97825807Y-109394183D01*
X97705752Y-109375169D01*
X97700000Y-109374258D01*
X97694248Y-109375169D01*
X97574193Y-109394183D01*
X97574190Y-109394184D01*
X97568438Y-109395095D01*
X97563247Y-109397740D01*
X97563244Y-109397741D01*
X97454947Y-109452921D01*
X97454944Y-109452923D01*
X97449755Y-109455567D01*
X97355567Y-109549755D01*
X97352923Y-109554944D01*
X97352921Y-109554947D01*
X97297741Y-109663244D01*
X97295095Y-109668438D01*
X97294184Y-109674190D01*
X97294183Y-109674193D01*
X97275169Y-109794248D01*
X97274258Y-109800000D01*
X96925742Y-109800000D01*
X96924831Y-109794248D01*
X96905817Y-109674193D01*
X96905816Y-109674190D01*
X96904905Y-109668438D01*
X96902259Y-109663244D01*
X96847079Y-109554947D01*
X96847077Y-109554944D01*
X96844433Y-109549755D01*
X96750245Y-109455567D01*
X96745056Y-109452923D01*
X96745053Y-109452921D01*
X96636756Y-109397741D01*
X96636753Y-109397740D01*
X96631562Y-109395095D01*
X96625810Y-109394184D01*
X96625807Y-109394183D01*
X96505752Y-109375169D01*
X96500000Y-109374258D01*
X96494248Y-109375169D01*
X96374193Y-109394183D01*
X96374190Y-109394184D01*
X96368438Y-109395095D01*
X96363247Y-109397740D01*
X96363244Y-109397741D01*
X96254947Y-109452921D01*
X96254944Y-109452923D01*
X96249755Y-109455567D01*
X96155567Y-109549755D01*
X96152923Y-109554944D01*
X96152921Y-109554947D01*
X96097741Y-109663244D01*
X96095095Y-109668438D01*
X96094184Y-109674190D01*
X96094183Y-109674193D01*
X96075169Y-109794248D01*
X96074258Y-109800000D01*
X57150500Y-109800000D01*
X57150500Y-106949126D01*
X67515541Y-106949126D01*
X67545935Y-107150097D01*
X67616119Y-107340852D01*
X67618094Y-107344037D01*
X67673203Y-107432919D01*
X67723226Y-107513599D01*
X67862881Y-107661280D01*
X67865946Y-107663426D01*
X67865947Y-107663427D01*
X67955021Y-107725797D01*
X68029379Y-107777863D01*
X68110921Y-107813149D01*
X68212484Y-107857100D01*
X68212488Y-107857101D01*
X68215919Y-107858586D01*
X68219581Y-107859351D01*
X68219584Y-107859352D01*
X68401272Y-107897308D01*
X68414880Y-107900151D01*
X68417708Y-107900299D01*
X68417714Y-107900300D01*
X68420578Y-107900450D01*
X68420592Y-107900450D01*
X68421539Y-107900500D01*
X68870800Y-107900500D01*
X68872657Y-107900311D01*
X68872664Y-107900311D01*
X69018485Y-107885499D01*
X69022216Y-107885120D01*
X69104442Y-107859352D01*
X69212596Y-107825459D01*
X69212599Y-107825458D01*
X69216172Y-107824338D01*
X69393944Y-107725797D01*
X69466713Y-107663427D01*
X69545422Y-107595965D01*
X69545423Y-107595964D01*
X69548271Y-107593523D01*
X69672848Y-107432919D01*
X69762587Y-107250545D01*
X69813822Y-107053852D01*
X69819310Y-106949126D01*
X69824263Y-106854619D01*
X69824263Y-106854616D01*
X69824459Y-106850874D01*
X69794065Y-106649903D01*
X69723881Y-106459148D01*
X69668881Y-106370442D01*
X69618748Y-106289584D01*
X69618746Y-106289581D01*
X69616774Y-106286401D01*
X69605317Y-106274285D01*
X69498439Y-106161265D01*
X69477119Y-106138720D01*
X69473492Y-106136180D01*
X69313696Y-106024290D01*
X69313695Y-106024289D01*
X69310621Y-106022137D01*
X69229079Y-105986851D01*
X69127516Y-105942900D01*
X69127512Y-105942899D01*
X69124081Y-105941414D01*
X69120419Y-105940649D01*
X69120416Y-105940648D01*
X68927901Y-105900430D01*
X68925120Y-105899849D01*
X68922292Y-105899701D01*
X68922286Y-105899700D01*
X68919422Y-105899550D01*
X68919408Y-105899550D01*
X68918461Y-105899500D01*
X68469200Y-105899500D01*
X68467343Y-105899689D01*
X68467336Y-105899689D01*
X68321515Y-105914501D01*
X68317784Y-105914880D01*
X68314207Y-105916001D01*
X68127404Y-105974541D01*
X68127401Y-105974542D01*
X68123828Y-105975662D01*
X67946056Y-106074203D01*
X67943212Y-106076641D01*
X67943210Y-106076642D01*
X67846964Y-106159135D01*
X67791729Y-106206477D01*
X67667152Y-106367081D01*
X67577413Y-106549455D01*
X67526178Y-106746148D01*
X67525982Y-106749886D01*
X67525982Y-106749887D01*
X67520494Y-106854619D01*
X67515541Y-106949126D01*
X57150500Y-106949126D01*
X57150500Y-102768481D01*
X83269500Y-102768481D01*
X83269501Y-104031518D01*
X83269956Y-104034390D01*
X83269956Y-104034392D01*
X83271113Y-104041695D01*
X83284354Y-104125304D01*
X83313152Y-104181823D01*
X83339304Y-104233150D01*
X83339306Y-104233152D01*
X83341950Y-104238342D01*
X83431658Y-104328050D01*
X83436848Y-104330694D01*
X83436850Y-104330696D01*
X83539502Y-104383000D01*
X83539505Y-104383001D01*
X83544696Y-104385646D01*
X83550448Y-104386557D01*
X83550451Y-104386558D01*
X83635602Y-104400044D01*
X83638481Y-104400500D01*
X84420000Y-104400500D01*
X85201518Y-104400499D01*
X85204390Y-104400044D01*
X85204392Y-104400044D01*
X85236090Y-104395024D01*
X85295304Y-104385646D01*
X85360213Y-104352573D01*
X85368917Y-104348138D01*
X94544758Y-104348138D01*
X94562035Y-104504633D01*
X94563568Y-104508822D01*
X94612185Y-104641673D01*
X94616143Y-104652490D01*
X94618628Y-104656188D01*
X94618630Y-104656192D01*
X94630803Y-104674307D01*
X94703958Y-104783172D01*
X94724034Y-104801440D01*
X94772749Y-104845767D01*
X94796279Y-104890585D01*
X94785495Y-104940042D01*
X94745444Y-104970997D01*
X94722946Y-104974500D01*
X94685180Y-104974500D01*
X94681611Y-104975210D01*
X94681610Y-104975210D01*
X94648425Y-104981811D01*
X94648424Y-104981812D01*
X94641278Y-104983233D01*
X94591496Y-105016496D01*
X94558233Y-105066278D01*
X94549500Y-105110180D01*
X94549500Y-106139820D01*
X94550210Y-106143389D01*
X94550210Y-106143390D01*
X94556060Y-106172797D01*
X94558233Y-106183722D01*
X94591496Y-106233504D01*
X94641278Y-106266767D01*
X94648424Y-106268188D01*
X94648425Y-106268189D01*
X94681610Y-106274790D01*
X94681611Y-106274790D01*
X94685180Y-106275500D01*
X95714820Y-106275500D01*
X95718389Y-106274790D01*
X95718390Y-106274790D01*
X95751575Y-106268189D01*
X95751576Y-106268188D01*
X95758722Y-106266767D01*
X95808504Y-106233504D01*
X95841767Y-106183722D01*
X95843941Y-106172797D01*
X95849790Y-106143390D01*
X95849790Y-106143389D01*
X95850500Y-106139820D01*
X95850500Y-106108219D01*
X95867813Y-106060653D01*
X95911650Y-106035343D01*
X95961500Y-106044133D01*
X95974303Y-106053486D01*
X95986867Y-106064918D01*
X96090410Y-106159135D01*
X96094333Y-106161265D01*
X96224852Y-106232132D01*
X96224856Y-106232134D01*
X96228776Y-106234262D01*
X96381069Y-106274215D01*
X96459782Y-106275451D01*
X96534038Y-106276618D01*
X96538495Y-106276688D01*
X96542837Y-106275694D01*
X96542842Y-106275693D01*
X96687621Y-106242534D01*
X96687624Y-106242533D01*
X96691968Y-106241538D01*
X96832625Y-106170795D01*
X96866996Y-106141440D01*
X96948955Y-106071440D01*
X96952348Y-106068542D01*
X97044224Y-105940683D01*
X97045298Y-105941455D01*
X97079313Y-105911673D01*
X97129920Y-105910609D01*
X97167499Y-105939390D01*
X97168368Y-105940683D01*
X97243958Y-106053172D01*
X97360410Y-106159135D01*
X97364333Y-106161265D01*
X97494852Y-106232132D01*
X97494856Y-106232134D01*
X97498776Y-106234262D01*
X97651069Y-106274215D01*
X97729782Y-106275451D01*
X97804038Y-106276618D01*
X97808495Y-106276688D01*
X97812837Y-106275694D01*
X97812842Y-106275693D01*
X97957621Y-106242534D01*
X97957624Y-106242533D01*
X97961968Y-106241538D01*
X98102625Y-106170795D01*
X98136996Y-106141440D01*
X98218955Y-106071440D01*
X98222348Y-106068542D01*
X98314224Y-105940683D01*
X98315298Y-105941455D01*
X98349313Y-105911673D01*
X98399920Y-105910609D01*
X98437499Y-105939390D01*
X98438368Y-105940683D01*
X98513958Y-106053172D01*
X98630410Y-106159135D01*
X98634333Y-106161265D01*
X98764852Y-106232132D01*
X98764856Y-106232134D01*
X98768776Y-106234262D01*
X98921069Y-106274215D01*
X98999782Y-106275451D01*
X99074038Y-106276618D01*
X99078495Y-106276688D01*
X99082837Y-106275694D01*
X99082842Y-106275693D01*
X99227621Y-106242534D01*
X99227624Y-106242533D01*
X99231968Y-106241538D01*
X99372625Y-106170795D01*
X99406996Y-106141440D01*
X99488955Y-106071440D01*
X99492348Y-106068542D01*
X99584224Y-105940683D01*
X99600760Y-105899550D01*
X99641287Y-105798735D01*
X99641287Y-105798734D01*
X99642950Y-105794598D01*
X99665134Y-105638723D01*
X99665278Y-105625000D01*
X99646363Y-105468694D01*
X99610847Y-105374703D01*
X99592286Y-105325582D01*
X99592285Y-105325580D01*
X99590710Y-105321412D01*
X99501531Y-105191657D01*
X99414169Y-105113820D01*
X99387310Y-105089889D01*
X99387307Y-105089887D01*
X99383976Y-105086919D01*
X99324876Y-105055627D01*
X99290940Y-105018068D01*
X99289085Y-104967483D01*
X99320180Y-104927541D01*
X99326253Y-104924119D01*
X99368638Y-104902802D01*
X99368649Y-104902795D01*
X99372625Y-104900795D01*
X99384580Y-104890585D01*
X99488955Y-104801440D01*
X99492348Y-104798542D01*
X99584224Y-104670683D01*
X99642950Y-104524598D01*
X99665134Y-104368723D01*
X99665278Y-104355000D01*
X99646363Y-104198694D01*
X99610847Y-104104703D01*
X99592286Y-104055582D01*
X99592285Y-104055580D01*
X99590710Y-104051412D01*
X99501531Y-103921657D01*
X99410234Y-103840314D01*
X99387310Y-103819889D01*
X99387307Y-103819887D01*
X99383976Y-103816919D01*
X99244831Y-103743245D01*
X99092128Y-103704889D01*
X99010583Y-103704462D01*
X98939142Y-103704088D01*
X98939139Y-103704088D01*
X98934684Y-103704065D01*
X98930349Y-103705106D01*
X98930347Y-103705106D01*
X98850936Y-103724171D01*
X98781588Y-103740820D01*
X98641679Y-103813032D01*
X98638321Y-103815961D01*
X98638320Y-103815962D01*
X98539397Y-103902259D01*
X98523034Y-103916533D01*
X98444266Y-104028609D01*
X98435096Y-104041656D01*
X98393581Y-104070618D01*
X98343162Y-104066118D01*
X98313568Y-104041020D01*
X98234062Y-103925339D01*
X98234060Y-103925337D01*
X98231531Y-103921657D01*
X98140234Y-103840314D01*
X98117310Y-103819889D01*
X98117307Y-103819887D01*
X98113976Y-103816919D01*
X97974831Y-103743245D01*
X97822128Y-103704889D01*
X97740583Y-103704462D01*
X97669142Y-103704088D01*
X97669139Y-103704088D01*
X97664684Y-103704065D01*
X97660349Y-103705106D01*
X97660347Y-103705106D01*
X97580936Y-103724171D01*
X97511588Y-103740820D01*
X97371679Y-103813032D01*
X97368321Y-103815961D01*
X97368320Y-103815962D01*
X97269397Y-103902259D01*
X97253034Y-103916533D01*
X97174266Y-104028609D01*
X97165096Y-104041656D01*
X97123581Y-104070618D01*
X97073162Y-104066118D01*
X97043568Y-104041020D01*
X96964062Y-103925339D01*
X96964060Y-103925337D01*
X96961531Y-103921657D01*
X96870234Y-103840314D01*
X96847310Y-103819889D01*
X96847307Y-103819887D01*
X96843976Y-103816919D01*
X96704831Y-103743245D01*
X96552128Y-103704889D01*
X96470583Y-103704462D01*
X96399142Y-103704088D01*
X96399139Y-103704088D01*
X96394684Y-103704065D01*
X96390349Y-103705106D01*
X96390347Y-103705106D01*
X96310936Y-103724171D01*
X96241588Y-103740820D01*
X96101679Y-103813032D01*
X96098321Y-103815961D01*
X96098320Y-103815962D01*
X95999397Y-103902259D01*
X95983034Y-103916533D01*
X95904266Y-104028609D01*
X95895096Y-104041656D01*
X95853581Y-104070618D01*
X95803162Y-104066118D01*
X95773568Y-104041020D01*
X95694062Y-103925339D01*
X95694060Y-103925337D01*
X95691531Y-103921657D01*
X95600234Y-103840314D01*
X95577310Y-103819889D01*
X95577307Y-103819887D01*
X95573976Y-103816919D01*
X95434831Y-103743245D01*
X95282128Y-103704889D01*
X95200583Y-103704462D01*
X95129142Y-103704088D01*
X95129139Y-103704088D01*
X95124684Y-103704065D01*
X95120349Y-103705106D01*
X95120347Y-103705106D01*
X95040936Y-103724171D01*
X94971588Y-103740820D01*
X94831679Y-103813032D01*
X94828321Y-103815961D01*
X94828320Y-103815962D01*
X94729397Y-103902259D01*
X94713034Y-103916533D01*
X94710466Y-103920187D01*
X94710465Y-103920188D01*
X94625096Y-104041656D01*
X94622501Y-104045348D01*
X94620879Y-104049507D01*
X94620879Y-104049508D01*
X94589303Y-104130498D01*
X94565309Y-104192039D01*
X94564727Y-104196463D01*
X94564726Y-104196465D01*
X94547403Y-104328050D01*
X94544758Y-104348138D01*
X85368917Y-104348138D01*
X85403150Y-104330696D01*
X85403152Y-104330694D01*
X85408342Y-104328050D01*
X85498050Y-104238342D01*
X85500694Y-104233152D01*
X85500696Y-104233150D01*
X85553000Y-104130498D01*
X85553001Y-104130495D01*
X85555646Y-104125304D01*
X85556557Y-104119552D01*
X85556558Y-104119549D01*
X85570045Y-104034392D01*
X85570500Y-104031519D01*
X85570500Y-103500000D01*
X88774258Y-103500000D01*
X88775169Y-103505752D01*
X88794183Y-103625807D01*
X88794184Y-103625810D01*
X88795095Y-103631562D01*
X88797740Y-103636753D01*
X88797741Y-103636756D01*
X88852921Y-103745053D01*
X88852923Y-103745056D01*
X88855567Y-103750245D01*
X88949755Y-103844433D01*
X88954944Y-103847077D01*
X88954947Y-103847079D01*
X89063244Y-103902259D01*
X89063247Y-103902260D01*
X89068438Y-103904905D01*
X89074190Y-103905816D01*
X89074193Y-103905817D01*
X89194248Y-103924831D01*
X89200000Y-103925742D01*
X89205752Y-103924831D01*
X89325807Y-103905817D01*
X89325810Y-103905816D01*
X89331562Y-103904905D01*
X89336753Y-103902260D01*
X89336756Y-103902259D01*
X89445053Y-103847079D01*
X89445056Y-103847077D01*
X89450245Y-103844433D01*
X89544433Y-103750245D01*
X89547077Y-103745056D01*
X89547079Y-103745053D01*
X89602259Y-103636756D01*
X89602260Y-103636753D01*
X89604905Y-103631562D01*
X89605816Y-103625810D01*
X89605817Y-103625807D01*
X89624831Y-103505752D01*
X89625742Y-103500000D01*
X89624831Y-103494248D01*
X89605817Y-103374193D01*
X89605816Y-103374190D01*
X89604905Y-103368438D01*
X89602259Y-103363244D01*
X89547079Y-103254947D01*
X89547077Y-103254944D01*
X89544433Y-103249755D01*
X89497004Y-103202326D01*
X89475612Y-103156450D01*
X89488713Y-103107555D01*
X89497004Y-103097674D01*
X89544433Y-103050245D01*
X89547077Y-103045056D01*
X89547079Y-103045053D01*
X89602259Y-102936756D01*
X89602260Y-102936753D01*
X89604905Y-102931562D01*
X89605816Y-102925810D01*
X89605817Y-102925807D01*
X89624831Y-102805752D01*
X89625742Y-102800000D01*
X89606808Y-102680451D01*
X89605817Y-102674193D01*
X89605816Y-102674190D01*
X89604905Y-102668438D01*
X89602259Y-102663244D01*
X89547079Y-102554947D01*
X89547077Y-102554944D01*
X89544433Y-102549755D01*
X89497004Y-102502326D01*
X89475612Y-102456450D01*
X89488713Y-102407555D01*
X89497004Y-102397674D01*
X89544433Y-102350245D01*
X89547077Y-102345056D01*
X89547079Y-102345053D01*
X89602259Y-102236756D01*
X89602260Y-102236753D01*
X89604905Y-102231562D01*
X89605816Y-102225810D01*
X89605817Y-102225807D01*
X89624831Y-102105752D01*
X89625742Y-102100000D01*
X89624831Y-102094248D01*
X89605817Y-101974193D01*
X89605816Y-101974190D01*
X89604905Y-101968438D01*
X89602259Y-101963244D01*
X89547079Y-101854947D01*
X89547077Y-101854944D01*
X89544433Y-101849755D01*
X89450245Y-101755567D01*
X89445056Y-101752923D01*
X89445053Y-101752921D01*
X89336756Y-101697741D01*
X89336753Y-101697740D01*
X89331562Y-101695095D01*
X89325810Y-101694184D01*
X89325807Y-101694183D01*
X89205752Y-101675169D01*
X89200000Y-101674258D01*
X89194248Y-101675169D01*
X89074193Y-101694183D01*
X89074190Y-101694184D01*
X89068438Y-101695095D01*
X89063247Y-101697740D01*
X89063244Y-101697741D01*
X88954947Y-101752921D01*
X88954944Y-101752923D01*
X88949755Y-101755567D01*
X88855567Y-101849755D01*
X88852923Y-101854944D01*
X88852921Y-101854947D01*
X88797741Y-101963244D01*
X88795095Y-101968438D01*
X88794184Y-101974190D01*
X88794183Y-101974193D01*
X88775169Y-102094248D01*
X88774258Y-102100000D01*
X88775169Y-102105752D01*
X88794183Y-102225807D01*
X88794184Y-102225810D01*
X88795095Y-102231562D01*
X88797740Y-102236753D01*
X88797741Y-102236756D01*
X88852921Y-102345053D01*
X88852923Y-102345056D01*
X88855567Y-102350245D01*
X88902996Y-102397674D01*
X88924388Y-102443550D01*
X88911287Y-102492445D01*
X88902996Y-102502326D01*
X88855567Y-102549755D01*
X88852923Y-102554944D01*
X88852921Y-102554947D01*
X88797741Y-102663244D01*
X88795095Y-102668438D01*
X88794184Y-102674190D01*
X88794183Y-102674193D01*
X88793192Y-102680451D01*
X88774258Y-102800000D01*
X88775169Y-102805752D01*
X88794183Y-102925807D01*
X88794184Y-102925810D01*
X88795095Y-102931562D01*
X88797740Y-102936753D01*
X88797741Y-102936756D01*
X88852921Y-103045053D01*
X88852923Y-103045056D01*
X88855567Y-103050245D01*
X88902996Y-103097674D01*
X88924388Y-103143550D01*
X88911287Y-103192445D01*
X88902996Y-103202326D01*
X88855567Y-103249755D01*
X88852923Y-103254944D01*
X88852921Y-103254947D01*
X88797741Y-103363244D01*
X88795095Y-103368438D01*
X88794184Y-103374190D01*
X88794183Y-103374193D01*
X88775169Y-103494248D01*
X88774258Y-103500000D01*
X85570500Y-103500000D01*
X85570499Y-102768482D01*
X85555646Y-102674696D01*
X85526848Y-102618177D01*
X85500696Y-102566850D01*
X85500694Y-102566848D01*
X85498050Y-102561658D01*
X85408342Y-102471950D01*
X85403152Y-102469306D01*
X85403150Y-102469304D01*
X85300498Y-102417000D01*
X85300495Y-102416999D01*
X85295304Y-102414354D01*
X85289552Y-102413443D01*
X85289549Y-102413442D01*
X85204392Y-102399955D01*
X85201519Y-102399500D01*
X85198610Y-102399500D01*
X84420001Y-102399501D01*
X83638482Y-102399501D01*
X83635610Y-102399956D01*
X83635608Y-102399956D01*
X83603910Y-102404976D01*
X83544696Y-102414354D01*
X83488177Y-102443152D01*
X83436850Y-102469304D01*
X83436848Y-102469306D01*
X83431658Y-102471950D01*
X83341950Y-102561658D01*
X83339306Y-102566848D01*
X83339304Y-102566850D01*
X83287000Y-102669502D01*
X83284354Y-102674696D01*
X83283443Y-102680448D01*
X83283442Y-102680451D01*
X83269955Y-102765608D01*
X83269500Y-102768481D01*
X57150500Y-102768481D01*
X57150500Y-99400000D01*
X95274258Y-99400000D01*
X95275169Y-99405752D01*
X95294183Y-99525807D01*
X95294184Y-99525810D01*
X95295095Y-99531562D01*
X95297740Y-99536753D01*
X95297741Y-99536756D01*
X95352921Y-99645053D01*
X95352923Y-99645056D01*
X95355567Y-99650245D01*
X95449755Y-99744433D01*
X95454944Y-99747077D01*
X95454947Y-99747079D01*
X95563244Y-99802259D01*
X95563247Y-99802260D01*
X95568438Y-99804905D01*
X95574190Y-99805816D01*
X95574193Y-99805817D01*
X95694248Y-99824831D01*
X95700000Y-99825742D01*
X95705752Y-99824831D01*
X95825807Y-99805817D01*
X95825810Y-99805816D01*
X95831562Y-99804905D01*
X95836753Y-99802260D01*
X95836756Y-99802259D01*
X95945053Y-99747079D01*
X95945056Y-99747077D01*
X95950245Y-99744433D01*
X96044433Y-99650245D01*
X96047077Y-99645056D01*
X96047079Y-99645053D01*
X96102259Y-99536756D01*
X96102260Y-99536753D01*
X96104905Y-99531562D01*
X96105816Y-99525810D01*
X96105817Y-99525807D01*
X96124831Y-99405752D01*
X96125742Y-99400000D01*
X97274258Y-99400000D01*
X97275169Y-99405752D01*
X97294183Y-99525807D01*
X97294184Y-99525810D01*
X97295095Y-99531562D01*
X97297740Y-99536753D01*
X97297741Y-99536756D01*
X97352921Y-99645053D01*
X97352923Y-99645056D01*
X97355567Y-99650245D01*
X97449755Y-99744433D01*
X97454944Y-99747077D01*
X97454947Y-99747079D01*
X97563244Y-99802259D01*
X97563247Y-99802260D01*
X97568438Y-99804905D01*
X97574190Y-99805816D01*
X97574193Y-99805817D01*
X97694248Y-99824831D01*
X97700000Y-99825742D01*
X97705752Y-99824831D01*
X97825807Y-99805817D01*
X97825810Y-99805816D01*
X97831562Y-99804905D01*
X97836753Y-99802260D01*
X97836756Y-99802259D01*
X97945053Y-99747079D01*
X97945056Y-99747077D01*
X97950245Y-99744433D01*
X98044433Y-99650245D01*
X98047077Y-99645056D01*
X98047079Y-99645053D01*
X98102259Y-99536756D01*
X98102260Y-99536753D01*
X98104905Y-99531562D01*
X98105816Y-99525810D01*
X98105817Y-99525807D01*
X98124831Y-99405752D01*
X98125742Y-99400000D01*
X98124831Y-99394248D01*
X98105817Y-99274193D01*
X98105816Y-99274190D01*
X98104905Y-99268438D01*
X98102259Y-99263244D01*
X98047079Y-99154947D01*
X98047077Y-99154944D01*
X98044433Y-99149755D01*
X97950245Y-99055567D01*
X97945056Y-99052923D01*
X97945053Y-99052921D01*
X97836756Y-98997741D01*
X97836753Y-98997740D01*
X97831562Y-98995095D01*
X97825810Y-98994184D01*
X97825807Y-98994183D01*
X97705752Y-98975169D01*
X97700000Y-98974258D01*
X97694248Y-98975169D01*
X97574193Y-98994183D01*
X97574190Y-98994184D01*
X97568438Y-98995095D01*
X97563247Y-98997740D01*
X97563244Y-98997741D01*
X97454947Y-99052921D01*
X97454944Y-99052923D01*
X97449755Y-99055567D01*
X97355567Y-99149755D01*
X97352923Y-99154944D01*
X97352921Y-99154947D01*
X97297741Y-99263244D01*
X97295095Y-99268438D01*
X97294184Y-99274190D01*
X97294183Y-99274193D01*
X97275169Y-99394248D01*
X97274258Y-99400000D01*
X96125742Y-99400000D01*
X96124831Y-99394248D01*
X96105817Y-99274193D01*
X96105816Y-99274190D01*
X96104905Y-99268438D01*
X96102259Y-99263244D01*
X96047079Y-99154947D01*
X96047077Y-99154944D01*
X96044433Y-99149755D01*
X95950245Y-99055567D01*
X95945056Y-99052923D01*
X95945053Y-99052921D01*
X95836756Y-98997741D01*
X95836753Y-98997740D01*
X95831562Y-98995095D01*
X95825810Y-98994184D01*
X95825807Y-98994183D01*
X95705752Y-98975169D01*
X95700000Y-98974258D01*
X95694248Y-98975169D01*
X95574193Y-98994183D01*
X95574190Y-98994184D01*
X95568438Y-98995095D01*
X95563247Y-98997740D01*
X95563244Y-98997741D01*
X95454947Y-99052921D01*
X95454944Y-99052923D01*
X95449755Y-99055567D01*
X95355567Y-99149755D01*
X95352923Y-99154944D01*
X95352921Y-99154947D01*
X95297741Y-99263244D01*
X95295095Y-99268438D01*
X95294184Y-99274190D01*
X95294183Y-99274193D01*
X95275169Y-99394248D01*
X95274258Y-99400000D01*
X57150500Y-99400000D01*
X57150500Y-98000000D01*
X95974258Y-98000000D01*
X95975169Y-98005752D01*
X95994183Y-98125807D01*
X95994184Y-98125810D01*
X95995095Y-98131562D01*
X95997740Y-98136753D01*
X95997741Y-98136756D01*
X96052921Y-98245053D01*
X96052923Y-98245056D01*
X96055567Y-98250245D01*
X96149755Y-98344433D01*
X96154944Y-98347077D01*
X96154947Y-98347079D01*
X96263244Y-98402259D01*
X96263247Y-98402260D01*
X96268438Y-98404905D01*
X96274190Y-98405816D01*
X96274193Y-98405817D01*
X96394248Y-98424831D01*
X96400000Y-98425742D01*
X96405752Y-98424831D01*
X96525807Y-98405817D01*
X96525810Y-98405816D01*
X96531562Y-98404905D01*
X96536753Y-98402260D01*
X96536756Y-98402259D01*
X96541190Y-98400000D01*
X99974258Y-98400000D01*
X99975169Y-98405752D01*
X99994183Y-98525807D01*
X99994184Y-98525810D01*
X99995095Y-98531562D01*
X99997740Y-98536753D01*
X99997741Y-98536756D01*
X100052921Y-98645053D01*
X100052923Y-98645056D01*
X100055567Y-98650245D01*
X100149755Y-98744433D01*
X100154944Y-98747077D01*
X100154947Y-98747079D01*
X100263244Y-98802259D01*
X100263247Y-98802260D01*
X100268438Y-98804905D01*
X100274190Y-98805816D01*
X100274193Y-98805817D01*
X100394248Y-98824831D01*
X100400000Y-98825742D01*
X100405752Y-98824831D01*
X100525807Y-98805817D01*
X100525810Y-98805816D01*
X100531562Y-98804905D01*
X100536753Y-98802260D01*
X100536756Y-98802259D01*
X100645053Y-98747079D01*
X100645056Y-98747077D01*
X100650245Y-98744433D01*
X100744433Y-98650245D01*
X100745310Y-98651122D01*
X100782097Y-98626308D01*
X100832438Y-98631599D01*
X100855153Y-98650659D01*
X100855567Y-98650245D01*
X100949755Y-98744433D01*
X100954944Y-98747077D01*
X100954947Y-98747079D01*
X101063244Y-98802259D01*
X101063247Y-98802260D01*
X101068438Y-98804905D01*
X101074190Y-98805816D01*
X101074193Y-98805817D01*
X101194248Y-98824831D01*
X101200000Y-98825742D01*
X101205752Y-98824831D01*
X101325807Y-98805817D01*
X101325810Y-98805816D01*
X101331562Y-98804905D01*
X101336753Y-98802260D01*
X101336756Y-98802259D01*
X101445053Y-98747079D01*
X101445056Y-98747077D01*
X101450245Y-98744433D01*
X101544433Y-98650245D01*
X101547077Y-98645056D01*
X101547079Y-98645053D01*
X101602259Y-98536756D01*
X101602260Y-98536753D01*
X101604905Y-98531562D01*
X101605816Y-98525810D01*
X101605817Y-98525807D01*
X101624831Y-98405752D01*
X101625742Y-98400000D01*
X101616289Y-98340314D01*
X101605817Y-98274193D01*
X101605816Y-98274190D01*
X101604905Y-98268438D01*
X101597734Y-98254364D01*
X101547079Y-98154947D01*
X101547077Y-98154944D01*
X101544433Y-98149755D01*
X101450245Y-98055567D01*
X101445056Y-98052923D01*
X101445053Y-98052921D01*
X101336756Y-97997741D01*
X101336753Y-97997740D01*
X101331562Y-97995095D01*
X101325810Y-97994184D01*
X101325807Y-97994183D01*
X101205752Y-97975169D01*
X101200000Y-97974258D01*
X101194248Y-97975169D01*
X101074193Y-97994183D01*
X101074190Y-97994184D01*
X101068438Y-97995095D01*
X101063247Y-97997740D01*
X101063244Y-97997741D01*
X100954947Y-98052921D01*
X100954944Y-98052923D01*
X100949755Y-98055567D01*
X100855567Y-98149755D01*
X100854690Y-98148878D01*
X100817903Y-98173692D01*
X100767562Y-98168401D01*
X100744847Y-98149341D01*
X100744433Y-98149755D01*
X100650245Y-98055567D01*
X100645056Y-98052923D01*
X100645053Y-98052921D01*
X100536756Y-97997741D01*
X100536753Y-97997740D01*
X100531562Y-97995095D01*
X100525810Y-97994184D01*
X100525807Y-97994183D01*
X100405752Y-97975169D01*
X100400000Y-97974258D01*
X100394248Y-97975169D01*
X100274193Y-97994183D01*
X100274190Y-97994184D01*
X100268438Y-97995095D01*
X100263247Y-97997740D01*
X100263244Y-97997741D01*
X100154947Y-98052921D01*
X100154944Y-98052923D01*
X100149755Y-98055567D01*
X100055567Y-98149755D01*
X100052923Y-98154944D01*
X100052921Y-98154947D01*
X100002266Y-98254364D01*
X99995095Y-98268438D01*
X99994184Y-98274190D01*
X99994183Y-98274193D01*
X99983711Y-98340314D01*
X99974258Y-98400000D01*
X96541190Y-98400000D01*
X96645053Y-98347079D01*
X96645056Y-98347077D01*
X96650245Y-98344433D01*
X96744433Y-98250245D01*
X96747077Y-98245056D01*
X96747079Y-98245053D01*
X96802259Y-98136756D01*
X96802260Y-98136753D01*
X96804905Y-98131562D01*
X96805816Y-98125810D01*
X96805817Y-98125807D01*
X96824831Y-98005752D01*
X96825742Y-98000000D01*
X96813837Y-97924831D01*
X96805817Y-97874193D01*
X96805816Y-97874190D01*
X96804905Y-97868438D01*
X96802259Y-97863244D01*
X96747079Y-97754947D01*
X96747077Y-97754944D01*
X96744433Y-97749755D01*
X96650245Y-97655567D01*
X96645056Y-97652923D01*
X96645053Y-97652921D01*
X96536756Y-97597741D01*
X96536753Y-97597740D01*
X96531562Y-97595095D01*
X96525810Y-97594184D01*
X96525807Y-97594183D01*
X96405752Y-97575169D01*
X96400000Y-97574258D01*
X96394248Y-97575169D01*
X96274193Y-97594183D01*
X96274190Y-97594184D01*
X96268438Y-97595095D01*
X96263247Y-97597740D01*
X96263244Y-97597741D01*
X96154947Y-97652921D01*
X96154944Y-97652923D01*
X96149755Y-97655567D01*
X96055567Y-97749755D01*
X96052923Y-97754944D01*
X96052921Y-97754947D01*
X95997741Y-97863244D01*
X95995095Y-97868438D01*
X95994184Y-97874190D01*
X95994183Y-97874193D01*
X95986163Y-97924831D01*
X95974258Y-98000000D01*
X57150500Y-98000000D01*
X57150500Y-97500000D01*
X109574258Y-97500000D01*
X109575169Y-97505752D01*
X109594183Y-97625807D01*
X109594184Y-97625810D01*
X109595095Y-97631562D01*
X109597740Y-97636753D01*
X109597741Y-97636756D01*
X109652921Y-97745053D01*
X109652923Y-97745056D01*
X109655567Y-97750245D01*
X109749755Y-97844433D01*
X109754944Y-97847077D01*
X109754947Y-97847079D01*
X109863244Y-97902259D01*
X109863247Y-97902260D01*
X109868438Y-97904905D01*
X109874190Y-97905816D01*
X109874193Y-97905817D01*
X109994248Y-97924831D01*
X110000000Y-97925742D01*
X110005752Y-97924831D01*
X110125807Y-97905817D01*
X110125810Y-97905816D01*
X110131562Y-97904905D01*
X110136753Y-97902260D01*
X110136756Y-97902259D01*
X110245053Y-97847079D01*
X110245056Y-97847077D01*
X110250245Y-97844433D01*
X110344433Y-97750245D01*
X110347077Y-97745056D01*
X110347079Y-97745053D01*
X110402259Y-97636756D01*
X110402260Y-97636753D01*
X110404905Y-97631562D01*
X110405816Y-97625810D01*
X110405817Y-97625807D01*
X110424831Y-97505752D01*
X110425742Y-97500000D01*
X110424831Y-97494248D01*
X110405817Y-97374193D01*
X110405816Y-97374190D01*
X110404905Y-97368438D01*
X110402259Y-97363244D01*
X110347079Y-97254947D01*
X110347077Y-97254944D01*
X110344433Y-97249755D01*
X110250245Y-97155567D01*
X110245056Y-97152923D01*
X110245053Y-97152921D01*
X110136756Y-97097741D01*
X110136753Y-97097740D01*
X110131562Y-97095095D01*
X110125810Y-97094184D01*
X110125807Y-97094183D01*
X110005752Y-97075169D01*
X110000000Y-97074258D01*
X109994248Y-97075169D01*
X109874193Y-97094183D01*
X109874190Y-97094184D01*
X109868438Y-97095095D01*
X109863247Y-97097740D01*
X109863244Y-97097741D01*
X109754947Y-97152921D01*
X109754944Y-97152923D01*
X109749755Y-97155567D01*
X109655567Y-97249755D01*
X109652923Y-97254944D01*
X109652921Y-97254947D01*
X109597741Y-97363244D01*
X109595095Y-97368438D01*
X109594184Y-97374190D01*
X109594183Y-97374193D01*
X109575169Y-97494248D01*
X109574258Y-97500000D01*
X57150500Y-97500000D01*
X57150500Y-96800000D01*
X101674258Y-96800000D01*
X101675169Y-96805752D01*
X101694183Y-96925807D01*
X101694184Y-96925810D01*
X101695095Y-96931562D01*
X101697740Y-96936753D01*
X101697741Y-96936756D01*
X101752921Y-97045053D01*
X101752923Y-97045056D01*
X101755567Y-97050245D01*
X101849755Y-97144433D01*
X101854944Y-97147077D01*
X101854947Y-97147079D01*
X101963244Y-97202259D01*
X101963247Y-97202260D01*
X101968438Y-97204905D01*
X101974190Y-97205816D01*
X101974193Y-97205817D01*
X102094248Y-97224831D01*
X102100000Y-97225742D01*
X102105752Y-97224831D01*
X102225807Y-97205817D01*
X102225810Y-97205816D01*
X102231562Y-97204905D01*
X102236753Y-97202260D01*
X102236756Y-97202259D01*
X102345053Y-97147079D01*
X102345056Y-97147077D01*
X102350245Y-97144433D01*
X102444433Y-97050245D01*
X102447077Y-97045056D01*
X102447079Y-97045053D01*
X102502259Y-96936756D01*
X102502260Y-96936753D01*
X102504905Y-96931562D01*
X102505816Y-96925810D01*
X102505817Y-96925807D01*
X102524831Y-96805752D01*
X102525742Y-96800000D01*
X102524831Y-96794248D01*
X102505817Y-96674193D01*
X102505816Y-96674190D01*
X102504905Y-96668438D01*
X102502259Y-96663244D01*
X102447079Y-96554947D01*
X102447077Y-96554944D01*
X102444433Y-96549755D01*
X102350245Y-96455567D01*
X102345056Y-96452923D01*
X102345053Y-96452921D01*
X102236756Y-96397741D01*
X102236753Y-96397740D01*
X102231562Y-96395095D01*
X102225810Y-96394184D01*
X102225807Y-96394183D01*
X102105752Y-96375169D01*
X102100000Y-96374258D01*
X102094248Y-96375169D01*
X101974193Y-96394183D01*
X101974190Y-96394184D01*
X101968438Y-96395095D01*
X101963247Y-96397740D01*
X101963244Y-96397741D01*
X101854947Y-96452921D01*
X101854944Y-96452923D01*
X101849755Y-96455567D01*
X101755567Y-96549755D01*
X101752923Y-96554944D01*
X101752921Y-96554947D01*
X101697741Y-96663244D01*
X101695095Y-96668438D01*
X101694184Y-96674190D01*
X101694183Y-96674193D01*
X101675169Y-96794248D01*
X101674258Y-96800000D01*
X57150500Y-96800000D01*
X57150500Y-95700000D01*
X92674258Y-95700000D01*
X92675169Y-95705752D01*
X92694183Y-95825807D01*
X92694184Y-95825810D01*
X92695095Y-95831562D01*
X92697740Y-95836753D01*
X92697741Y-95836756D01*
X92752921Y-95945053D01*
X92752923Y-95945056D01*
X92755567Y-95950245D01*
X92849755Y-96044433D01*
X92854944Y-96047077D01*
X92854947Y-96047079D01*
X92963244Y-96102259D01*
X92963247Y-96102260D01*
X92968438Y-96104905D01*
X92974190Y-96105816D01*
X92974193Y-96105817D01*
X93094248Y-96124831D01*
X93100000Y-96125742D01*
X93105752Y-96124831D01*
X93225807Y-96105817D01*
X93225810Y-96105816D01*
X93231562Y-96104905D01*
X93236753Y-96102260D01*
X93236756Y-96102259D01*
X93345053Y-96047079D01*
X93345056Y-96047077D01*
X93350245Y-96044433D01*
X93394678Y-96000000D01*
X114774258Y-96000000D01*
X114775169Y-96005752D01*
X114794183Y-96125807D01*
X114794184Y-96125810D01*
X114795095Y-96131562D01*
X114797740Y-96136753D01*
X114797741Y-96136756D01*
X114852921Y-96245053D01*
X114852923Y-96245056D01*
X114855567Y-96250245D01*
X114949755Y-96344433D01*
X114954944Y-96347077D01*
X114954947Y-96347079D01*
X115063244Y-96402259D01*
X115063247Y-96402260D01*
X115068438Y-96404905D01*
X115074190Y-96405816D01*
X115074193Y-96405817D01*
X115194248Y-96424831D01*
X115200000Y-96425742D01*
X115205752Y-96424831D01*
X115325807Y-96405817D01*
X115325810Y-96405816D01*
X115331562Y-96404905D01*
X115336753Y-96402260D01*
X115336756Y-96402259D01*
X115445053Y-96347079D01*
X115445056Y-96347077D01*
X115450245Y-96344433D01*
X115544433Y-96250245D01*
X115547077Y-96245056D01*
X115547079Y-96245053D01*
X115602259Y-96136756D01*
X115602260Y-96136753D01*
X115604905Y-96131562D01*
X115605816Y-96125810D01*
X115605817Y-96125807D01*
X115624831Y-96005752D01*
X115625742Y-96000000D01*
X115617862Y-95950245D01*
X115605817Y-95874193D01*
X115605816Y-95874190D01*
X115604905Y-95868438D01*
X115602259Y-95863244D01*
X115547079Y-95754947D01*
X115547077Y-95754944D01*
X115544433Y-95749755D01*
X115450245Y-95655567D01*
X115445056Y-95652923D01*
X115445053Y-95652921D01*
X115336756Y-95597741D01*
X115336753Y-95597740D01*
X115331562Y-95595095D01*
X115325810Y-95594184D01*
X115325807Y-95594183D01*
X115205752Y-95575169D01*
X115200000Y-95574258D01*
X115194248Y-95575169D01*
X115074193Y-95594183D01*
X115074190Y-95594184D01*
X115068438Y-95595095D01*
X115063247Y-95597740D01*
X115063244Y-95597741D01*
X114954947Y-95652921D01*
X114954944Y-95652923D01*
X114949755Y-95655567D01*
X114855567Y-95749755D01*
X114852923Y-95754944D01*
X114852921Y-95754947D01*
X114797741Y-95863244D01*
X114795095Y-95868438D01*
X114794184Y-95874190D01*
X114794183Y-95874193D01*
X114782138Y-95950245D01*
X114774258Y-96000000D01*
X93394678Y-96000000D01*
X93444433Y-95950245D01*
X93447077Y-95945056D01*
X93447079Y-95945053D01*
X93502259Y-95836756D01*
X93502260Y-95836753D01*
X93504905Y-95831562D01*
X93505816Y-95825810D01*
X93505817Y-95825807D01*
X93524831Y-95705752D01*
X93525742Y-95700000D01*
X93517862Y-95650245D01*
X93505817Y-95574193D01*
X93505816Y-95574190D01*
X93504905Y-95568438D01*
X93502259Y-95563244D01*
X93447079Y-95454947D01*
X93447077Y-95454944D01*
X93444433Y-95449755D01*
X93394678Y-95400000D01*
X104474258Y-95400000D01*
X104475169Y-95405752D01*
X104494183Y-95525807D01*
X104494184Y-95525810D01*
X104495095Y-95531562D01*
X104497740Y-95536753D01*
X104497741Y-95536756D01*
X104552921Y-95645053D01*
X104552923Y-95645056D01*
X104555567Y-95650245D01*
X104649755Y-95744433D01*
X104654944Y-95747077D01*
X104654947Y-95747079D01*
X104763244Y-95802259D01*
X104763247Y-95802260D01*
X104768438Y-95804905D01*
X104774190Y-95805816D01*
X104774193Y-95805817D01*
X104894248Y-95824831D01*
X104900000Y-95825742D01*
X104905752Y-95824831D01*
X105025807Y-95805817D01*
X105025810Y-95805816D01*
X105031562Y-95804905D01*
X105036753Y-95802260D01*
X105036756Y-95802259D01*
X105145053Y-95747079D01*
X105145056Y-95747077D01*
X105150245Y-95744433D01*
X105244433Y-95650245D01*
X105247077Y-95645056D01*
X105247079Y-95645053D01*
X105302259Y-95536756D01*
X105302260Y-95536753D01*
X105304905Y-95531562D01*
X105305816Y-95525810D01*
X105305817Y-95525807D01*
X105324831Y-95405752D01*
X105325742Y-95400000D01*
X105318566Y-95354690D01*
X105305817Y-95274193D01*
X105305816Y-95274190D01*
X105304905Y-95268438D01*
X105292674Y-95244433D01*
X105247079Y-95154947D01*
X105247077Y-95154944D01*
X105244433Y-95149755D01*
X105150245Y-95055567D01*
X105145056Y-95052923D01*
X105145053Y-95052921D01*
X105036756Y-94997741D01*
X105036753Y-94997740D01*
X105031562Y-94995095D01*
X105025810Y-94994184D01*
X105025807Y-94994183D01*
X104905752Y-94975169D01*
X104900000Y-94974258D01*
X104894248Y-94975169D01*
X104774193Y-94994183D01*
X104774190Y-94994184D01*
X104768438Y-94995095D01*
X104763247Y-94997740D01*
X104763244Y-94997741D01*
X104654947Y-95052921D01*
X104654944Y-95052923D01*
X104649755Y-95055567D01*
X104555567Y-95149755D01*
X104552923Y-95154944D01*
X104552921Y-95154947D01*
X104507326Y-95244433D01*
X104495095Y-95268438D01*
X104494184Y-95274190D01*
X104494183Y-95274193D01*
X104481434Y-95354690D01*
X104474258Y-95400000D01*
X93394678Y-95400000D01*
X93350245Y-95355567D01*
X93351122Y-95354690D01*
X93326308Y-95317903D01*
X93331599Y-95267562D01*
X93350659Y-95244847D01*
X93350245Y-95244433D01*
X93444433Y-95150245D01*
X93447077Y-95145056D01*
X93447079Y-95145053D01*
X93502259Y-95036756D01*
X93502260Y-95036753D01*
X93504905Y-95031562D01*
X93505816Y-95025810D01*
X93505817Y-95025807D01*
X93524831Y-94905752D01*
X93525742Y-94900000D01*
X93524831Y-94894248D01*
X93509904Y-94800000D01*
X105274258Y-94800000D01*
X105275169Y-94805752D01*
X105294183Y-94925807D01*
X105294184Y-94925810D01*
X105295095Y-94931562D01*
X105297740Y-94936753D01*
X105297741Y-94936756D01*
X105352921Y-95045053D01*
X105352923Y-95045056D01*
X105355567Y-95050245D01*
X105449755Y-95144433D01*
X105454944Y-95147077D01*
X105454947Y-95147079D01*
X105563244Y-95202259D01*
X105563247Y-95202260D01*
X105568438Y-95204905D01*
X105574190Y-95205816D01*
X105574193Y-95205817D01*
X105694248Y-95224831D01*
X105700000Y-95225742D01*
X105705752Y-95224831D01*
X105825807Y-95205817D01*
X105825810Y-95205816D01*
X105831562Y-95204905D01*
X105836753Y-95202260D01*
X105836756Y-95202259D01*
X105841190Y-95200000D01*
X106374258Y-95200000D01*
X106375169Y-95205752D01*
X106394183Y-95325807D01*
X106394184Y-95325810D01*
X106395095Y-95331562D01*
X106397740Y-95336753D01*
X106397741Y-95336756D01*
X106452921Y-95445053D01*
X106452923Y-95445056D01*
X106455567Y-95450245D01*
X106549755Y-95544433D01*
X106554944Y-95547077D01*
X106554947Y-95547079D01*
X106663244Y-95602259D01*
X106663247Y-95602260D01*
X106668438Y-95604905D01*
X106674190Y-95605816D01*
X106674193Y-95605817D01*
X106794248Y-95624831D01*
X106800000Y-95625742D01*
X106805752Y-95624831D01*
X106925807Y-95605817D01*
X106925810Y-95605816D01*
X106931562Y-95604905D01*
X106936753Y-95602260D01*
X106936756Y-95602259D01*
X107045053Y-95547079D01*
X107045056Y-95547077D01*
X107050245Y-95544433D01*
X107144433Y-95450245D01*
X107147077Y-95445056D01*
X107147079Y-95445053D01*
X107202259Y-95336756D01*
X107202260Y-95336753D01*
X107204905Y-95331562D01*
X107205816Y-95325810D01*
X107205817Y-95325807D01*
X107224831Y-95205752D01*
X107225742Y-95200000D01*
X107221580Y-95173720D01*
X107205817Y-95074193D01*
X107205816Y-95074190D01*
X107204905Y-95068438D01*
X107196999Y-95052921D01*
X107147079Y-94954947D01*
X107147077Y-94954944D01*
X107144433Y-94949755D01*
X107050245Y-94855567D01*
X107045056Y-94852923D01*
X107045053Y-94852921D01*
X106936756Y-94797741D01*
X106936753Y-94797740D01*
X106931562Y-94795095D01*
X106925810Y-94794184D01*
X106925807Y-94794183D01*
X106805752Y-94775169D01*
X106800000Y-94774258D01*
X106674437Y-94794145D01*
X106624749Y-94784486D01*
X106606972Y-94762533D01*
X106606223Y-94805463D01*
X106570735Y-94844877D01*
X106549755Y-94855567D01*
X106455567Y-94949755D01*
X106452923Y-94954944D01*
X106452921Y-94954947D01*
X106403001Y-95052921D01*
X106395095Y-95068438D01*
X106394184Y-95074190D01*
X106394183Y-95074193D01*
X106378420Y-95173720D01*
X106374258Y-95200000D01*
X105841190Y-95200000D01*
X105945053Y-95147079D01*
X105945056Y-95147077D01*
X105950245Y-95144433D01*
X106044433Y-95050245D01*
X106047077Y-95045056D01*
X106047079Y-95045053D01*
X106102259Y-94936756D01*
X106102260Y-94936753D01*
X106104905Y-94931562D01*
X106105816Y-94925810D01*
X106105817Y-94925807D01*
X106124831Y-94805752D01*
X106125742Y-94800000D01*
X106119551Y-94760911D01*
X106129210Y-94711223D01*
X106168548Y-94679368D01*
X106219159Y-94680251D01*
X106226227Y-94683398D01*
X106268438Y-94704905D01*
X106274190Y-94705816D01*
X106274193Y-94705817D01*
X106394248Y-94724831D01*
X106400000Y-94725742D01*
X106525563Y-94705855D01*
X106575251Y-94715514D01*
X106593028Y-94737467D01*
X106593777Y-94694537D01*
X106629265Y-94655123D01*
X106650245Y-94644433D01*
X106744433Y-94550245D01*
X106747077Y-94545056D01*
X106747079Y-94545053D01*
X106802259Y-94436756D01*
X106802260Y-94436753D01*
X106804905Y-94431562D01*
X106805816Y-94425810D01*
X106805817Y-94425807D01*
X106824831Y-94305752D01*
X106825742Y-94300000D01*
X106824831Y-94294248D01*
X106805817Y-94174193D01*
X106805816Y-94174190D01*
X106804905Y-94168438D01*
X106768493Y-94096975D01*
X106747079Y-94054947D01*
X106747077Y-94054944D01*
X106744433Y-94049755D01*
X106650245Y-93955567D01*
X106645056Y-93952923D01*
X106645053Y-93952921D01*
X106536756Y-93897741D01*
X106536753Y-93897740D01*
X106531562Y-93895095D01*
X106525810Y-93894184D01*
X106525807Y-93894183D01*
X106405752Y-93875169D01*
X106400000Y-93874258D01*
X106394248Y-93875169D01*
X106274193Y-93894183D01*
X106274190Y-93894184D01*
X106268438Y-93895095D01*
X106263247Y-93897740D01*
X106263244Y-93897741D01*
X106154947Y-93952921D01*
X106154944Y-93952923D01*
X106149755Y-93955567D01*
X106055567Y-94049755D01*
X106052923Y-94054944D01*
X106052921Y-94054947D01*
X106031507Y-94096975D01*
X105995095Y-94168438D01*
X105994184Y-94174190D01*
X105994183Y-94174193D01*
X105975169Y-94294248D01*
X105974258Y-94300000D01*
X105980080Y-94336756D01*
X105980449Y-94339088D01*
X105970790Y-94388777D01*
X105931452Y-94420632D01*
X105880841Y-94419749D01*
X105873773Y-94416602D01*
X105831562Y-94395095D01*
X105825810Y-94394184D01*
X105825807Y-94394183D01*
X105705752Y-94375169D01*
X105700000Y-94374258D01*
X105694248Y-94375169D01*
X105574193Y-94394183D01*
X105574190Y-94394184D01*
X105568438Y-94395095D01*
X105563247Y-94397740D01*
X105563244Y-94397741D01*
X105454947Y-94452921D01*
X105454944Y-94452923D01*
X105449755Y-94455567D01*
X105355567Y-94549755D01*
X105352923Y-94554944D01*
X105352921Y-94554947D01*
X105297741Y-94663244D01*
X105295095Y-94668438D01*
X105294184Y-94674190D01*
X105294183Y-94674193D01*
X105288045Y-94712949D01*
X105274258Y-94800000D01*
X93509904Y-94800000D01*
X93505817Y-94774193D01*
X93505816Y-94774190D01*
X93504905Y-94768438D01*
X93502259Y-94763244D01*
X93447079Y-94654947D01*
X93447077Y-94654944D01*
X93444433Y-94649755D01*
X93397004Y-94602326D01*
X93375612Y-94556450D01*
X93388713Y-94507555D01*
X93397004Y-94497674D01*
X93444433Y-94450245D01*
X93447077Y-94445056D01*
X93447079Y-94445053D01*
X93502259Y-94336756D01*
X93502260Y-94336753D01*
X93504905Y-94331562D01*
X93505816Y-94325810D01*
X93505817Y-94325807D01*
X93524831Y-94205752D01*
X93525742Y-94200000D01*
X93508949Y-94093969D01*
X93505817Y-94074193D01*
X93505816Y-94074190D01*
X93504905Y-94068438D01*
X93469287Y-93998533D01*
X93447079Y-93954947D01*
X93447077Y-93954944D01*
X93444433Y-93949755D01*
X93350245Y-93855567D01*
X93345056Y-93852923D01*
X93345053Y-93852921D01*
X93236756Y-93797741D01*
X93236753Y-93797740D01*
X93231562Y-93795095D01*
X93225810Y-93794184D01*
X93225807Y-93794183D01*
X93105752Y-93775169D01*
X93100000Y-93774258D01*
X93094248Y-93775169D01*
X92974193Y-93794183D01*
X92974190Y-93794184D01*
X92968438Y-93795095D01*
X92963247Y-93797740D01*
X92963244Y-93797741D01*
X92854947Y-93852921D01*
X92854944Y-93852923D01*
X92849755Y-93855567D01*
X92755567Y-93949755D01*
X92752923Y-93954944D01*
X92752921Y-93954947D01*
X92730713Y-93998533D01*
X92695095Y-94068438D01*
X92694184Y-94074190D01*
X92694183Y-94074193D01*
X92691051Y-94093969D01*
X92674258Y-94200000D01*
X92675169Y-94205752D01*
X92694183Y-94325807D01*
X92694184Y-94325810D01*
X92695095Y-94331562D01*
X92697740Y-94336753D01*
X92697741Y-94336756D01*
X92752921Y-94445053D01*
X92752923Y-94445056D01*
X92755567Y-94450245D01*
X92802996Y-94497674D01*
X92824388Y-94543550D01*
X92811287Y-94592445D01*
X92802996Y-94602326D01*
X92755567Y-94649755D01*
X92752923Y-94654944D01*
X92752921Y-94654947D01*
X92697741Y-94763244D01*
X92695095Y-94768438D01*
X92694184Y-94774190D01*
X92694183Y-94774193D01*
X92675169Y-94894248D01*
X92674258Y-94900000D01*
X92675169Y-94905752D01*
X92694183Y-95025807D01*
X92694184Y-95025810D01*
X92695095Y-95031562D01*
X92697740Y-95036753D01*
X92697741Y-95036756D01*
X92752921Y-95145053D01*
X92752923Y-95145056D01*
X92755567Y-95150245D01*
X92849755Y-95244433D01*
X92848878Y-95245310D01*
X92873692Y-95282097D01*
X92868401Y-95332438D01*
X92849341Y-95355153D01*
X92849755Y-95355567D01*
X92755567Y-95449755D01*
X92752923Y-95454944D01*
X92752921Y-95454947D01*
X92697741Y-95563244D01*
X92695095Y-95568438D01*
X92694184Y-95574190D01*
X92694183Y-95574193D01*
X92682138Y-95650245D01*
X92674258Y-95700000D01*
X57150500Y-95700000D01*
X57150500Y-94300000D01*
X70174258Y-94300000D01*
X70175169Y-94305752D01*
X70194183Y-94425807D01*
X70194184Y-94425810D01*
X70195095Y-94431562D01*
X70197740Y-94436753D01*
X70197741Y-94436756D01*
X70252921Y-94545053D01*
X70252923Y-94545056D01*
X70255567Y-94550245D01*
X70349755Y-94644433D01*
X70354944Y-94647077D01*
X70354947Y-94647079D01*
X70463244Y-94702259D01*
X70463247Y-94702260D01*
X70468438Y-94704905D01*
X70474190Y-94705816D01*
X70474193Y-94705817D01*
X70594248Y-94724831D01*
X70600000Y-94725742D01*
X70605752Y-94724831D01*
X70725807Y-94705817D01*
X70725810Y-94705816D01*
X70731562Y-94704905D01*
X70736753Y-94702260D01*
X70736756Y-94702259D01*
X70845053Y-94647079D01*
X70845056Y-94647077D01*
X70850245Y-94644433D01*
X70944433Y-94550245D01*
X70947077Y-94545056D01*
X70947079Y-94545053D01*
X71002259Y-94436756D01*
X71002260Y-94436753D01*
X71004905Y-94431562D01*
X71005816Y-94425810D01*
X71005817Y-94425807D01*
X71024831Y-94305752D01*
X71025742Y-94300000D01*
X75674258Y-94300000D01*
X75675169Y-94305752D01*
X75694183Y-94425807D01*
X75694184Y-94425810D01*
X75695095Y-94431562D01*
X75697740Y-94436753D01*
X75697741Y-94436756D01*
X75752921Y-94545053D01*
X75752923Y-94545056D01*
X75755567Y-94550245D01*
X75849755Y-94644433D01*
X75854944Y-94647077D01*
X75854947Y-94647079D01*
X75963244Y-94702259D01*
X75963247Y-94702260D01*
X75968438Y-94704905D01*
X75974190Y-94705816D01*
X75974193Y-94705817D01*
X76094248Y-94724831D01*
X76100000Y-94725742D01*
X76105752Y-94724831D01*
X76225807Y-94705817D01*
X76225810Y-94705816D01*
X76231562Y-94704905D01*
X76236753Y-94702260D01*
X76236756Y-94702259D01*
X76345053Y-94647079D01*
X76345056Y-94647077D01*
X76350245Y-94644433D01*
X76444433Y-94550245D01*
X76447077Y-94545056D01*
X76447079Y-94545053D01*
X76502259Y-94436756D01*
X76502260Y-94436753D01*
X76504905Y-94431562D01*
X76505816Y-94425810D01*
X76505817Y-94425807D01*
X76524831Y-94305752D01*
X76525742Y-94300000D01*
X76524831Y-94294248D01*
X76505817Y-94174193D01*
X76505816Y-94174190D01*
X76504905Y-94168438D01*
X76468493Y-94096975D01*
X76447079Y-94054947D01*
X76447077Y-94054944D01*
X76444433Y-94049755D01*
X76350245Y-93955567D01*
X76345056Y-93952923D01*
X76345053Y-93952921D01*
X76236756Y-93897741D01*
X76236753Y-93897740D01*
X76231562Y-93895095D01*
X76225810Y-93894184D01*
X76225807Y-93894183D01*
X76105752Y-93875169D01*
X76100000Y-93874258D01*
X76094248Y-93875169D01*
X75974193Y-93894183D01*
X75974190Y-93894184D01*
X75968438Y-93895095D01*
X75963247Y-93897740D01*
X75963244Y-93897741D01*
X75854947Y-93952921D01*
X75854944Y-93952923D01*
X75849755Y-93955567D01*
X75755567Y-94049755D01*
X75752923Y-94054944D01*
X75752921Y-94054947D01*
X75731507Y-94096975D01*
X75695095Y-94168438D01*
X75694184Y-94174190D01*
X75694183Y-94174193D01*
X75675169Y-94294248D01*
X75674258Y-94300000D01*
X71025742Y-94300000D01*
X71024831Y-94294248D01*
X71005817Y-94174193D01*
X71005816Y-94174190D01*
X71004905Y-94168438D01*
X70968493Y-94096975D01*
X70947079Y-94054947D01*
X70947077Y-94054944D01*
X70944433Y-94049755D01*
X70850245Y-93955567D01*
X70845056Y-93952923D01*
X70845053Y-93952921D01*
X70736756Y-93897741D01*
X70736753Y-93897740D01*
X70731562Y-93895095D01*
X70725810Y-93894184D01*
X70725807Y-93894183D01*
X70605752Y-93875169D01*
X70600000Y-93874258D01*
X70594248Y-93875169D01*
X70474193Y-93894183D01*
X70474190Y-93894184D01*
X70468438Y-93895095D01*
X70463247Y-93897740D01*
X70463244Y-93897741D01*
X70354947Y-93952921D01*
X70354944Y-93952923D01*
X70349755Y-93955567D01*
X70255567Y-94049755D01*
X70252923Y-94054944D01*
X70252921Y-94054947D01*
X70231507Y-94096975D01*
X70195095Y-94168438D01*
X70194184Y-94174190D01*
X70194183Y-94174193D01*
X70175169Y-94294248D01*
X70174258Y-94300000D01*
X57150500Y-94300000D01*
X57150500Y-93200000D01*
X70174258Y-93200000D01*
X70175169Y-93205752D01*
X70194183Y-93325807D01*
X70194184Y-93325810D01*
X70195095Y-93331562D01*
X70197740Y-93336753D01*
X70197741Y-93336756D01*
X70252921Y-93445053D01*
X70252923Y-93445056D01*
X70255567Y-93450245D01*
X70349755Y-93544433D01*
X70354944Y-93547077D01*
X70354947Y-93547079D01*
X70463244Y-93602259D01*
X70463247Y-93602260D01*
X70468438Y-93604905D01*
X70474190Y-93605816D01*
X70474193Y-93605817D01*
X70594248Y-93624831D01*
X70600000Y-93625742D01*
X70605752Y-93624831D01*
X70725807Y-93605817D01*
X70725810Y-93605816D01*
X70731562Y-93604905D01*
X70736753Y-93602260D01*
X70736756Y-93602259D01*
X70845053Y-93547079D01*
X70845056Y-93547077D01*
X70850245Y-93544433D01*
X70944433Y-93450245D01*
X70947077Y-93445056D01*
X70947079Y-93445053D01*
X71002259Y-93336756D01*
X71002260Y-93336753D01*
X71004905Y-93331562D01*
X71005816Y-93325810D01*
X71005817Y-93325807D01*
X71024831Y-93205752D01*
X71025742Y-93200000D01*
X75674258Y-93200000D01*
X75675169Y-93205752D01*
X75694183Y-93325807D01*
X75694184Y-93325810D01*
X75695095Y-93331562D01*
X75697740Y-93336753D01*
X75697741Y-93336756D01*
X75752921Y-93445053D01*
X75752923Y-93445056D01*
X75755567Y-93450245D01*
X75849755Y-93544433D01*
X75854944Y-93547077D01*
X75854947Y-93547079D01*
X75963244Y-93602259D01*
X75963247Y-93602260D01*
X75968438Y-93604905D01*
X75974190Y-93605816D01*
X75974193Y-93605817D01*
X76094248Y-93624831D01*
X76100000Y-93625742D01*
X76105752Y-93624831D01*
X76225807Y-93605817D01*
X76225810Y-93605816D01*
X76231562Y-93604905D01*
X76236753Y-93602260D01*
X76236756Y-93602259D01*
X76345053Y-93547079D01*
X76345056Y-93547077D01*
X76350245Y-93544433D01*
X76444433Y-93450245D01*
X76447077Y-93445056D01*
X76447079Y-93445053D01*
X76502259Y-93336756D01*
X76502260Y-93336753D01*
X76504905Y-93331562D01*
X76505816Y-93325810D01*
X76505817Y-93325807D01*
X76524831Y-93205752D01*
X76525742Y-93200000D01*
X76515594Y-93135924D01*
X76509904Y-93100000D01*
X87874258Y-93100000D01*
X87875169Y-93105752D01*
X87894183Y-93225807D01*
X87894184Y-93225810D01*
X87895095Y-93231562D01*
X87897740Y-93236753D01*
X87897741Y-93236756D01*
X87952921Y-93345053D01*
X87952923Y-93345056D01*
X87955567Y-93350245D01*
X88049755Y-93444433D01*
X88054944Y-93447077D01*
X88054947Y-93447079D01*
X88163244Y-93502259D01*
X88163247Y-93502260D01*
X88168438Y-93504905D01*
X88174190Y-93505816D01*
X88174193Y-93505817D01*
X88294248Y-93524831D01*
X88300000Y-93525742D01*
X88305752Y-93524831D01*
X88425807Y-93505817D01*
X88425810Y-93505816D01*
X88431562Y-93504905D01*
X88436753Y-93502260D01*
X88436756Y-93502259D01*
X88441190Y-93500000D01*
X102974258Y-93500000D01*
X102975169Y-93505752D01*
X102994183Y-93625807D01*
X102994184Y-93625810D01*
X102995095Y-93631562D01*
X102997740Y-93636753D01*
X102997741Y-93636756D01*
X103052921Y-93745053D01*
X103052923Y-93745056D01*
X103055567Y-93750245D01*
X103149755Y-93844433D01*
X103154944Y-93847077D01*
X103154947Y-93847079D01*
X103263244Y-93902259D01*
X103263247Y-93902260D01*
X103268438Y-93904905D01*
X103274190Y-93905816D01*
X103274193Y-93905817D01*
X103394248Y-93924831D01*
X103400000Y-93925742D01*
X103405752Y-93924831D01*
X103525807Y-93905817D01*
X103525810Y-93905816D01*
X103531562Y-93904905D01*
X103536753Y-93902260D01*
X103536756Y-93902259D01*
X103645053Y-93847079D01*
X103645056Y-93847077D01*
X103650245Y-93844433D01*
X103729013Y-93765665D01*
X131395119Y-93765665D01*
X131395294Y-93768700D01*
X131408201Y-93992554D01*
X131408202Y-93992560D01*
X131408376Y-93995580D01*
X131409040Y-93998527D01*
X131409041Y-93998533D01*
X131458339Y-94217283D01*
X131459006Y-94220242D01*
X131545649Y-94433618D01*
X131547235Y-94436206D01*
X131649034Y-94602326D01*
X131665979Y-94629978D01*
X131667968Y-94632274D01*
X131667970Y-94632277D01*
X131783492Y-94765639D01*
X131816763Y-94804048D01*
X131993953Y-94951154D01*
X131996571Y-94952684D01*
X131996577Y-94952688D01*
X132190164Y-95065811D01*
X132190169Y-95065813D01*
X132192790Y-95067345D01*
X132210723Y-95074193D01*
X132405089Y-95148415D01*
X132405093Y-95148416D01*
X132407934Y-95149501D01*
X132410918Y-95150108D01*
X132410921Y-95150109D01*
X132514749Y-95171232D01*
X132633607Y-95195414D01*
X132721724Y-95198645D01*
X132860709Y-95203742D01*
X132860715Y-95203742D01*
X132863749Y-95203853D01*
X132866760Y-95203467D01*
X132866766Y-95203467D01*
X132998987Y-95186529D01*
X133092178Y-95174591D01*
X133192700Y-95144433D01*
X133309856Y-95109285D01*
X133309861Y-95109283D01*
X133312761Y-95108413D01*
X133519574Y-95007096D01*
X133707062Y-94873363D01*
X133709202Y-94871230D01*
X133709206Y-94871227D01*
X133868037Y-94712949D01*
X133868040Y-94712946D01*
X133870190Y-94710803D01*
X133873746Y-94705855D01*
X134002805Y-94526249D01*
X134004577Y-94523783D01*
X134106615Y-94317325D01*
X134173563Y-94096975D01*
X134179780Y-94049755D01*
X134203365Y-93870603D01*
X134203365Y-93870598D01*
X134203622Y-93868649D01*
X134205300Y-93800000D01*
X134205139Y-93798039D01*
X134186679Y-93573503D01*
X134186678Y-93573499D01*
X134186430Y-93570478D01*
X134182383Y-93554364D01*
X134134376Y-93363244D01*
X134130326Y-93347120D01*
X134038496Y-93135924D01*
X134020833Y-93108620D01*
X133924482Y-92959686D01*
X133913405Y-92942563D01*
X133807105Y-92825742D01*
X133760455Y-92774474D01*
X133760454Y-92774473D01*
X133758412Y-92772229D01*
X133737315Y-92755567D01*
X133603954Y-92650245D01*
X133577681Y-92629496D01*
X133409683Y-92536756D01*
X133378727Y-92519667D01*
X133378722Y-92519665D01*
X133376065Y-92518198D01*
X133373199Y-92517183D01*
X133161848Y-92442339D01*
X133161844Y-92442338D01*
X133158978Y-92441323D01*
X133155983Y-92440789D01*
X133155981Y-92440789D01*
X133045614Y-92421130D01*
X132932250Y-92400937D01*
X132785455Y-92399143D01*
X132705009Y-92398160D01*
X132705007Y-92398160D01*
X132701971Y-92398123D01*
X132577059Y-92417237D01*
X132477329Y-92432498D01*
X132477325Y-92432499D01*
X132474325Y-92432958D01*
X132471436Y-92433902D01*
X132471433Y-92433903D01*
X132258308Y-92503563D01*
X132258304Y-92503565D01*
X132255424Y-92504506D01*
X132098196Y-92586354D01*
X132060933Y-92605752D01*
X132051149Y-92610845D01*
X132048728Y-92612663D01*
X132048726Y-92612664D01*
X131935414Y-92697741D01*
X131866984Y-92749119D01*
X131823920Y-92794183D01*
X131709973Y-92913422D01*
X131709970Y-92913426D01*
X131707877Y-92915616D01*
X131578099Y-93105863D01*
X131576820Y-93108618D01*
X131576819Y-93108620D01*
X131564145Y-93135924D01*
X131481136Y-93314752D01*
X131419592Y-93536673D01*
X131395119Y-93765665D01*
X103729013Y-93765665D01*
X103744433Y-93750245D01*
X103747077Y-93745056D01*
X103747079Y-93745053D01*
X103802259Y-93636756D01*
X103802260Y-93636753D01*
X103804905Y-93631562D01*
X103805816Y-93625810D01*
X103805817Y-93625807D01*
X103824831Y-93505752D01*
X103825742Y-93500000D01*
X103817360Y-93447079D01*
X103805817Y-93374193D01*
X103805816Y-93374190D01*
X103804905Y-93368438D01*
X103797734Y-93354364D01*
X103770034Y-93300000D01*
X105974258Y-93300000D01*
X105975169Y-93305752D01*
X105994183Y-93425807D01*
X105994184Y-93425810D01*
X105995095Y-93431562D01*
X105997740Y-93436753D01*
X105997741Y-93436756D01*
X106052921Y-93545053D01*
X106052923Y-93545056D01*
X106055567Y-93550245D01*
X106149755Y-93644433D01*
X106154944Y-93647077D01*
X106154947Y-93647079D01*
X106263244Y-93702259D01*
X106263247Y-93702260D01*
X106268438Y-93704905D01*
X106274190Y-93705816D01*
X106274193Y-93705817D01*
X106394248Y-93724831D01*
X106400000Y-93725742D01*
X106405752Y-93724831D01*
X106525807Y-93705817D01*
X106525810Y-93705816D01*
X106531562Y-93704905D01*
X106536753Y-93702260D01*
X106536756Y-93702259D01*
X106645053Y-93647079D01*
X106645056Y-93647077D01*
X106650245Y-93644433D01*
X106744433Y-93550245D01*
X106747077Y-93545056D01*
X106747079Y-93545053D01*
X106802259Y-93436756D01*
X106802260Y-93436753D01*
X106804905Y-93431562D01*
X106805816Y-93425810D01*
X106805817Y-93425807D01*
X106824831Y-93305752D01*
X106825742Y-93300000D01*
X106824831Y-93294248D01*
X106805817Y-93174193D01*
X106805816Y-93174190D01*
X106804905Y-93168438D01*
X106796999Y-93152921D01*
X106747079Y-93054947D01*
X106747077Y-93054944D01*
X106744433Y-93049755D01*
X106650245Y-92955567D01*
X106645056Y-92952923D01*
X106645053Y-92952921D01*
X106536756Y-92897741D01*
X106536753Y-92897740D01*
X106531562Y-92895095D01*
X106525810Y-92894184D01*
X106525807Y-92894183D01*
X106405752Y-92875169D01*
X106400000Y-92874258D01*
X106394248Y-92875169D01*
X106274193Y-92894183D01*
X106274190Y-92894184D01*
X106268438Y-92895095D01*
X106263247Y-92897740D01*
X106263244Y-92897741D01*
X106154947Y-92952921D01*
X106154944Y-92952923D01*
X106149755Y-92955567D01*
X106055567Y-93049755D01*
X106052923Y-93054944D01*
X106052921Y-93054947D01*
X106003001Y-93152921D01*
X105995095Y-93168438D01*
X105994184Y-93174190D01*
X105994183Y-93174193D01*
X105975169Y-93294248D01*
X105974258Y-93300000D01*
X103770034Y-93300000D01*
X103747079Y-93254947D01*
X103747077Y-93254944D01*
X103744433Y-93249755D01*
X103650245Y-93155567D01*
X103645056Y-93152923D01*
X103645053Y-93152921D01*
X103536756Y-93097741D01*
X103536753Y-93097740D01*
X103531562Y-93095095D01*
X103525810Y-93094184D01*
X103525807Y-93094183D01*
X103405752Y-93075169D01*
X103400000Y-93074258D01*
X103394248Y-93075169D01*
X103274193Y-93094183D01*
X103274190Y-93094184D01*
X103268438Y-93095095D01*
X103263247Y-93097740D01*
X103263244Y-93097741D01*
X103154947Y-93152921D01*
X103154944Y-93152923D01*
X103149755Y-93155567D01*
X103055567Y-93249755D01*
X103052923Y-93254944D01*
X103052921Y-93254947D01*
X103002266Y-93354364D01*
X102995095Y-93368438D01*
X102994184Y-93374190D01*
X102994183Y-93374193D01*
X102982640Y-93447079D01*
X102974258Y-93500000D01*
X88441190Y-93500000D01*
X88545053Y-93447079D01*
X88545056Y-93447077D01*
X88550245Y-93444433D01*
X88644433Y-93350245D01*
X88647077Y-93345056D01*
X88647079Y-93345053D01*
X88702259Y-93236756D01*
X88702260Y-93236753D01*
X88704905Y-93231562D01*
X88705816Y-93225810D01*
X88705817Y-93225807D01*
X88724831Y-93105752D01*
X88725742Y-93100000D01*
X88719921Y-93063244D01*
X88705817Y-92974193D01*
X88705816Y-92974190D01*
X88704905Y-92968438D01*
X88695386Y-92949755D01*
X88647079Y-92854947D01*
X88647077Y-92854944D01*
X88644433Y-92849755D01*
X88550245Y-92755567D01*
X88545056Y-92752923D01*
X88545053Y-92752921D01*
X88436756Y-92697741D01*
X88436753Y-92697740D01*
X88431562Y-92695095D01*
X88425810Y-92694184D01*
X88425807Y-92694183D01*
X88305752Y-92675169D01*
X88300000Y-92674258D01*
X88294248Y-92675169D01*
X88174193Y-92694183D01*
X88174190Y-92694184D01*
X88168438Y-92695095D01*
X88163247Y-92697740D01*
X88163244Y-92697741D01*
X88054947Y-92752921D01*
X88054944Y-92752923D01*
X88049755Y-92755567D01*
X87955567Y-92849755D01*
X87952923Y-92854944D01*
X87952921Y-92854947D01*
X87904614Y-92949755D01*
X87895095Y-92968438D01*
X87894184Y-92974190D01*
X87894183Y-92974193D01*
X87880079Y-93063244D01*
X87874258Y-93100000D01*
X76509904Y-93100000D01*
X76505817Y-93074193D01*
X76505816Y-93074190D01*
X76504905Y-93068438D01*
X76493287Y-93045636D01*
X76447079Y-92954947D01*
X76447077Y-92954944D01*
X76444433Y-92949755D01*
X76350245Y-92855567D01*
X76345056Y-92852923D01*
X76345053Y-92852921D01*
X76236756Y-92797741D01*
X76236753Y-92797740D01*
X76231562Y-92795095D01*
X76225810Y-92794184D01*
X76225807Y-92794183D01*
X76105752Y-92775169D01*
X76100000Y-92774258D01*
X76094248Y-92775169D01*
X75974193Y-92794183D01*
X75974190Y-92794184D01*
X75968438Y-92795095D01*
X75963247Y-92797740D01*
X75963244Y-92797741D01*
X75854947Y-92852921D01*
X75854944Y-92852923D01*
X75849755Y-92855567D01*
X75755567Y-92949755D01*
X75752923Y-92954944D01*
X75752921Y-92954947D01*
X75706713Y-93045636D01*
X75695095Y-93068438D01*
X75694184Y-93074190D01*
X75694183Y-93074193D01*
X75684406Y-93135924D01*
X75674258Y-93200000D01*
X71025742Y-93200000D01*
X71015594Y-93135924D01*
X71005817Y-93074193D01*
X71005816Y-93074190D01*
X71004905Y-93068438D01*
X70993287Y-93045636D01*
X70947079Y-92954947D01*
X70947077Y-92954944D01*
X70944433Y-92949755D01*
X70850245Y-92855567D01*
X70845056Y-92852923D01*
X70845053Y-92852921D01*
X70736756Y-92797741D01*
X70736753Y-92797740D01*
X70731562Y-92795095D01*
X70725810Y-92794184D01*
X70725807Y-92794183D01*
X70605752Y-92775169D01*
X70600000Y-92774258D01*
X70594248Y-92775169D01*
X70474193Y-92794183D01*
X70474190Y-92794184D01*
X70468438Y-92795095D01*
X70463247Y-92797740D01*
X70463244Y-92797741D01*
X70354947Y-92852921D01*
X70354944Y-92852923D01*
X70349755Y-92855567D01*
X70255567Y-92949755D01*
X70252923Y-92954944D01*
X70252921Y-92954947D01*
X70206713Y-93045636D01*
X70195095Y-93068438D01*
X70194184Y-93074190D01*
X70194183Y-93074193D01*
X70184406Y-93135924D01*
X70174258Y-93200000D01*
X57150500Y-93200000D01*
X57150500Y-92400000D01*
X89674258Y-92400000D01*
X89675169Y-92405752D01*
X89694183Y-92525807D01*
X89694184Y-92525810D01*
X89695095Y-92531562D01*
X89697740Y-92536753D01*
X89697741Y-92536756D01*
X89752921Y-92645053D01*
X89752923Y-92645056D01*
X89755567Y-92650245D01*
X89849755Y-92744433D01*
X89854944Y-92747077D01*
X89854947Y-92747079D01*
X89963244Y-92802259D01*
X89963247Y-92802260D01*
X89968438Y-92804905D01*
X89974190Y-92805816D01*
X89974193Y-92805817D01*
X90094248Y-92824831D01*
X90100000Y-92825742D01*
X90105752Y-92824831D01*
X90225807Y-92805817D01*
X90225810Y-92805816D01*
X90231562Y-92804905D01*
X90236753Y-92802260D01*
X90236756Y-92802259D01*
X90345053Y-92747079D01*
X90345056Y-92747077D01*
X90350245Y-92744433D01*
X90444433Y-92650245D01*
X90447077Y-92645056D01*
X90447079Y-92645053D01*
X90470035Y-92600000D01*
X105274258Y-92600000D01*
X105275169Y-92605752D01*
X105294183Y-92725807D01*
X105294184Y-92725810D01*
X105295095Y-92731562D01*
X105297740Y-92736753D01*
X105297741Y-92736756D01*
X105352921Y-92845053D01*
X105352923Y-92845056D01*
X105355567Y-92850245D01*
X105449755Y-92944433D01*
X105454944Y-92947077D01*
X105454947Y-92947079D01*
X105563244Y-93002259D01*
X105563247Y-93002260D01*
X105568438Y-93004905D01*
X105574190Y-93005816D01*
X105574193Y-93005817D01*
X105694248Y-93024831D01*
X105700000Y-93025742D01*
X105705752Y-93024831D01*
X105825807Y-93005817D01*
X105825810Y-93005816D01*
X105831562Y-93004905D01*
X105836753Y-93002260D01*
X105836756Y-93002259D01*
X105945053Y-92947079D01*
X105945056Y-92947077D01*
X105950245Y-92944433D01*
X106044433Y-92850245D01*
X106047077Y-92845056D01*
X106047079Y-92845053D01*
X106102259Y-92736756D01*
X106102260Y-92736753D01*
X106104905Y-92731562D01*
X106105816Y-92725810D01*
X106105817Y-92725807D01*
X106124831Y-92605752D01*
X106125742Y-92600000D01*
X106124831Y-92594248D01*
X106105817Y-92474193D01*
X106105816Y-92474190D01*
X106104905Y-92468438D01*
X106102259Y-92463244D01*
X106047079Y-92354947D01*
X106047077Y-92354944D01*
X106044433Y-92349755D01*
X105950245Y-92255567D01*
X105945056Y-92252923D01*
X105945053Y-92252921D01*
X105836756Y-92197741D01*
X105836753Y-92197740D01*
X105831562Y-92195095D01*
X105825810Y-92194184D01*
X105825807Y-92194183D01*
X105705752Y-92175169D01*
X105700000Y-92174258D01*
X105694248Y-92175169D01*
X105574193Y-92194183D01*
X105574190Y-92194184D01*
X105568438Y-92195095D01*
X105563247Y-92197740D01*
X105563244Y-92197741D01*
X105454947Y-92252921D01*
X105454944Y-92252923D01*
X105449755Y-92255567D01*
X105355567Y-92349755D01*
X105352923Y-92354944D01*
X105352921Y-92354947D01*
X105297741Y-92463244D01*
X105295095Y-92468438D01*
X105294184Y-92474190D01*
X105294183Y-92474193D01*
X105275169Y-92594248D01*
X105274258Y-92600000D01*
X90470035Y-92600000D01*
X90502259Y-92536756D01*
X90502260Y-92536753D01*
X90504905Y-92531562D01*
X90505816Y-92525810D01*
X90505817Y-92525807D01*
X90524831Y-92405752D01*
X90525742Y-92400000D01*
X90524831Y-92394248D01*
X90505817Y-92274193D01*
X90505816Y-92274190D01*
X90504905Y-92268438D01*
X90496999Y-92252921D01*
X90447079Y-92154947D01*
X90447077Y-92154944D01*
X90444433Y-92149755D01*
X90350245Y-92055567D01*
X90345056Y-92052923D01*
X90345053Y-92052921D01*
X90236756Y-91997741D01*
X90236753Y-91997740D01*
X90231562Y-91995095D01*
X90225810Y-91994184D01*
X90225807Y-91994183D01*
X90105752Y-91975169D01*
X90100000Y-91974258D01*
X90094248Y-91975169D01*
X89974193Y-91994183D01*
X89974190Y-91994184D01*
X89968438Y-91995095D01*
X89963247Y-91997740D01*
X89963244Y-91997741D01*
X89854947Y-92052921D01*
X89854944Y-92052923D01*
X89849755Y-92055567D01*
X89755567Y-92149755D01*
X89752923Y-92154944D01*
X89752921Y-92154947D01*
X89703001Y-92252921D01*
X89695095Y-92268438D01*
X89694184Y-92274190D01*
X89694183Y-92274193D01*
X89675169Y-92394248D01*
X89674258Y-92400000D01*
X57150500Y-92400000D01*
X57150500Y-91700000D01*
X102974258Y-91700000D01*
X102975169Y-91705752D01*
X102994183Y-91825807D01*
X102994184Y-91825810D01*
X102995095Y-91831562D01*
X102997740Y-91836753D01*
X102997741Y-91836756D01*
X103052921Y-91945053D01*
X103052923Y-91945056D01*
X103055567Y-91950245D01*
X103149755Y-92044433D01*
X103154944Y-92047077D01*
X103154947Y-92047079D01*
X103263244Y-92102259D01*
X103263247Y-92102260D01*
X103268438Y-92104905D01*
X103274190Y-92105816D01*
X103274193Y-92105817D01*
X103394248Y-92124831D01*
X103400000Y-92125742D01*
X103405752Y-92124831D01*
X103525807Y-92105817D01*
X103525810Y-92105816D01*
X103531562Y-92104905D01*
X103536753Y-92102260D01*
X103536756Y-92102259D01*
X103645057Y-92047077D01*
X103645060Y-92047075D01*
X103650245Y-92044433D01*
X103654359Y-92040319D01*
X103657676Y-92037909D01*
X103706334Y-92023959D01*
X103752576Y-92044549D01*
X103774764Y-92090046D01*
X103775030Y-92095125D01*
X103774258Y-92100000D01*
X103775169Y-92105752D01*
X103794183Y-92225807D01*
X103794184Y-92225810D01*
X103795095Y-92231562D01*
X103797740Y-92236753D01*
X103797741Y-92236756D01*
X103852921Y-92345053D01*
X103852923Y-92345056D01*
X103855567Y-92350245D01*
X103949755Y-92444433D01*
X103954944Y-92447077D01*
X103954947Y-92447079D01*
X104063244Y-92502259D01*
X104063247Y-92502260D01*
X104068438Y-92504905D01*
X104074190Y-92505816D01*
X104074193Y-92505817D01*
X104194248Y-92524831D01*
X104200000Y-92525742D01*
X104205752Y-92524831D01*
X104325807Y-92505817D01*
X104325810Y-92505816D01*
X104331562Y-92504905D01*
X104336753Y-92502260D01*
X104336756Y-92502259D01*
X104445053Y-92447079D01*
X104445056Y-92447077D01*
X104450245Y-92444433D01*
X104544433Y-92350245D01*
X104547077Y-92345056D01*
X104547079Y-92345053D01*
X104602259Y-92236756D01*
X104602260Y-92236753D01*
X104604905Y-92231562D01*
X104605816Y-92225810D01*
X104605817Y-92225807D01*
X104624831Y-92105752D01*
X104625742Y-92100000D01*
X104608983Y-91994183D01*
X104605817Y-91974193D01*
X104605816Y-91974190D01*
X104604905Y-91968438D01*
X104597734Y-91954364D01*
X104547079Y-91854947D01*
X104547077Y-91854944D01*
X104544433Y-91849755D01*
X104450245Y-91755567D01*
X104445056Y-91752923D01*
X104445053Y-91752921D01*
X104336756Y-91697741D01*
X104336753Y-91697740D01*
X104331562Y-91695095D01*
X104325810Y-91694184D01*
X104325807Y-91694183D01*
X104205752Y-91675169D01*
X104200000Y-91674258D01*
X104194248Y-91675169D01*
X104074193Y-91694183D01*
X104074190Y-91694184D01*
X104068438Y-91695095D01*
X104063247Y-91697740D01*
X104063244Y-91697741D01*
X103954943Y-91752923D01*
X103954940Y-91752925D01*
X103949755Y-91755567D01*
X103945641Y-91759681D01*
X103942324Y-91762091D01*
X103893666Y-91776041D01*
X103847424Y-91755451D01*
X103825236Y-91709954D01*
X103824970Y-91704875D01*
X103825742Y-91700000D01*
X103817862Y-91650245D01*
X103805817Y-91574193D01*
X103805816Y-91574190D01*
X103804905Y-91568438D01*
X103802259Y-91563244D01*
X103747079Y-91454947D01*
X103747077Y-91454944D01*
X103744433Y-91449755D01*
X103694678Y-91400000D01*
X113974258Y-91400000D01*
X113975169Y-91405752D01*
X113994183Y-91525807D01*
X113994184Y-91525810D01*
X113995095Y-91531562D01*
X113997740Y-91536753D01*
X113997741Y-91536756D01*
X114052921Y-91645053D01*
X114052923Y-91645056D01*
X114055567Y-91650245D01*
X114149755Y-91744433D01*
X114154944Y-91747077D01*
X114154947Y-91747079D01*
X114263244Y-91802259D01*
X114263247Y-91802260D01*
X114268438Y-91804905D01*
X114274190Y-91805816D01*
X114274193Y-91805817D01*
X114394248Y-91824831D01*
X114400000Y-91825742D01*
X114405752Y-91824831D01*
X114525807Y-91805817D01*
X114525810Y-91805816D01*
X114531562Y-91804905D01*
X114536753Y-91802260D01*
X114536756Y-91802259D01*
X114645053Y-91747079D01*
X114645056Y-91747077D01*
X114650245Y-91744433D01*
X114744433Y-91650245D01*
X114747077Y-91645056D01*
X114747079Y-91645053D01*
X114802259Y-91536756D01*
X114802260Y-91536753D01*
X114804905Y-91531562D01*
X114805816Y-91525810D01*
X114805817Y-91525807D01*
X114824831Y-91405752D01*
X114825742Y-91400000D01*
X114813837Y-91324831D01*
X114805817Y-91274193D01*
X114805816Y-91274190D01*
X114804905Y-91268438D01*
X114802259Y-91263244D01*
X114747079Y-91154947D01*
X114747077Y-91154944D01*
X114744433Y-91149755D01*
X114650245Y-91055567D01*
X114645056Y-91052923D01*
X114645053Y-91052921D01*
X114536756Y-90997741D01*
X114536753Y-90997740D01*
X114531562Y-90995095D01*
X114525810Y-90994184D01*
X114525807Y-90994183D01*
X114405752Y-90975169D01*
X114400000Y-90974258D01*
X114394248Y-90975169D01*
X114274193Y-90994183D01*
X114274190Y-90994184D01*
X114268438Y-90995095D01*
X114263247Y-90997740D01*
X114263244Y-90997741D01*
X114154947Y-91052921D01*
X114154944Y-91052923D01*
X114149755Y-91055567D01*
X114055567Y-91149755D01*
X114052923Y-91154944D01*
X114052921Y-91154947D01*
X113997741Y-91263244D01*
X113995095Y-91268438D01*
X113994184Y-91274190D01*
X113994183Y-91274193D01*
X113986163Y-91324831D01*
X113974258Y-91400000D01*
X103694678Y-91400000D01*
X103650245Y-91355567D01*
X103645056Y-91352923D01*
X103645053Y-91352921D01*
X103536756Y-91297741D01*
X103536753Y-91297740D01*
X103531562Y-91295095D01*
X103525810Y-91294184D01*
X103525807Y-91294183D01*
X103405752Y-91275169D01*
X103400000Y-91274258D01*
X103394248Y-91275169D01*
X103274193Y-91294183D01*
X103274190Y-91294184D01*
X103268438Y-91295095D01*
X103263247Y-91297740D01*
X103263244Y-91297741D01*
X103154947Y-91352921D01*
X103154944Y-91352923D01*
X103149755Y-91355567D01*
X103055567Y-91449755D01*
X103052923Y-91454944D01*
X103052921Y-91454947D01*
X102997741Y-91563244D01*
X102995095Y-91568438D01*
X102994184Y-91574190D01*
X102994183Y-91574193D01*
X102982138Y-91650245D01*
X102974258Y-91700000D01*
X57150500Y-91700000D01*
X57150500Y-90900000D01*
X104474258Y-90900000D01*
X104475169Y-90905752D01*
X104494183Y-91025807D01*
X104494184Y-91025810D01*
X104495095Y-91031562D01*
X104497740Y-91036753D01*
X104497741Y-91036756D01*
X104552921Y-91145053D01*
X104552923Y-91145056D01*
X104555567Y-91150245D01*
X104649755Y-91244433D01*
X104654944Y-91247077D01*
X104654947Y-91247079D01*
X104763244Y-91302259D01*
X104763247Y-91302260D01*
X104768438Y-91304905D01*
X104774190Y-91305816D01*
X104774193Y-91305817D01*
X104894248Y-91324831D01*
X104900000Y-91325742D01*
X104905752Y-91324831D01*
X105025807Y-91305817D01*
X105025810Y-91305816D01*
X105031562Y-91304905D01*
X105036753Y-91302260D01*
X105036756Y-91302259D01*
X105145053Y-91247079D01*
X105145056Y-91247077D01*
X105150245Y-91244433D01*
X105244433Y-91150245D01*
X105247077Y-91145056D01*
X105247079Y-91145053D01*
X105302259Y-91036756D01*
X105302260Y-91036753D01*
X105304905Y-91031562D01*
X105305816Y-91025810D01*
X105305817Y-91025807D01*
X105324831Y-90905752D01*
X105325742Y-90900000D01*
X105324831Y-90894248D01*
X105305817Y-90774193D01*
X105305816Y-90774190D01*
X105304905Y-90768438D01*
X105302259Y-90763244D01*
X105247079Y-90654947D01*
X105247077Y-90654944D01*
X105244433Y-90649755D01*
X105150245Y-90555567D01*
X105145056Y-90552923D01*
X105145053Y-90552921D01*
X105036756Y-90497741D01*
X105036753Y-90497740D01*
X105031562Y-90495095D01*
X105025810Y-90494184D01*
X105025807Y-90494183D01*
X104905752Y-90475169D01*
X104900000Y-90474258D01*
X104894248Y-90475169D01*
X104774193Y-90494183D01*
X104774190Y-90494184D01*
X104768438Y-90495095D01*
X104763247Y-90497740D01*
X104763244Y-90497741D01*
X104654947Y-90552921D01*
X104654944Y-90552923D01*
X104649755Y-90555567D01*
X104555567Y-90649755D01*
X104552923Y-90654944D01*
X104552921Y-90654947D01*
X104497741Y-90763244D01*
X104495095Y-90768438D01*
X104494184Y-90774190D01*
X104494183Y-90774193D01*
X104475169Y-90894248D01*
X104474258Y-90900000D01*
X57150500Y-90900000D01*
X57150500Y-89600000D01*
X85374258Y-89600000D01*
X85375169Y-89605752D01*
X85394183Y-89725807D01*
X85394184Y-89725810D01*
X85395095Y-89731562D01*
X85397740Y-89736753D01*
X85397741Y-89736756D01*
X85452921Y-89845053D01*
X85452923Y-89845056D01*
X85455567Y-89850245D01*
X85549755Y-89944433D01*
X85554944Y-89947077D01*
X85554947Y-89947079D01*
X85663244Y-90002259D01*
X85663247Y-90002260D01*
X85668438Y-90004905D01*
X85674190Y-90005816D01*
X85674193Y-90005817D01*
X85794248Y-90024831D01*
X85800000Y-90025742D01*
X85805752Y-90024831D01*
X85925807Y-90005817D01*
X85925810Y-90005816D01*
X85931562Y-90004905D01*
X85936753Y-90002260D01*
X85936756Y-90002259D01*
X86045053Y-89947079D01*
X86045056Y-89947077D01*
X86050245Y-89944433D01*
X86094678Y-89900000D01*
X98174258Y-89900000D01*
X98175169Y-89905752D01*
X98194183Y-90025807D01*
X98194184Y-90025810D01*
X98195095Y-90031562D01*
X98197740Y-90036753D01*
X98197741Y-90036756D01*
X98252921Y-90145053D01*
X98252923Y-90145056D01*
X98255567Y-90150245D01*
X98349755Y-90244433D01*
X98354944Y-90247077D01*
X98354947Y-90247079D01*
X98463244Y-90302259D01*
X98463247Y-90302260D01*
X98468438Y-90304905D01*
X98474190Y-90305816D01*
X98474193Y-90305817D01*
X98594248Y-90324831D01*
X98600000Y-90325742D01*
X98605752Y-90324831D01*
X98725807Y-90305817D01*
X98725810Y-90305816D01*
X98731562Y-90304905D01*
X98736753Y-90302260D01*
X98736756Y-90302259D01*
X98845053Y-90247079D01*
X98845056Y-90247077D01*
X98850245Y-90244433D01*
X98944433Y-90150245D01*
X98947077Y-90145056D01*
X98947079Y-90145053D01*
X99002259Y-90036756D01*
X99002260Y-90036753D01*
X99004905Y-90031562D01*
X99005816Y-90025810D01*
X99005817Y-90025807D01*
X99024831Y-89905752D01*
X99025742Y-89900000D01*
X99017862Y-89850245D01*
X99005817Y-89774193D01*
X99005816Y-89774190D01*
X99004905Y-89768438D01*
X99002259Y-89763244D01*
X98947079Y-89654947D01*
X98947077Y-89654944D01*
X98944433Y-89649755D01*
X98916151Y-89621473D01*
X98894759Y-89575597D01*
X98907860Y-89526702D01*
X98934878Y-89503215D01*
X99050245Y-89444433D01*
X99144433Y-89350245D01*
X99147077Y-89345056D01*
X99147079Y-89345053D01*
X99202260Y-89236754D01*
X99202261Y-89236752D01*
X99204905Y-89231562D01*
X99205194Y-89229738D01*
X99235241Y-89191285D01*
X99284755Y-89180764D01*
X99329447Y-89204531D01*
X99340381Y-89220441D01*
X99355567Y-89250245D01*
X99449755Y-89344433D01*
X99454944Y-89347077D01*
X99454947Y-89347079D01*
X99563244Y-89402259D01*
X99563247Y-89402260D01*
X99568438Y-89404905D01*
X99574190Y-89405816D01*
X99574193Y-89405817D01*
X99694248Y-89424831D01*
X99700000Y-89425742D01*
X99705752Y-89424831D01*
X99825807Y-89405817D01*
X99825810Y-89405816D01*
X99831562Y-89404905D01*
X99836753Y-89402260D01*
X99836756Y-89402259D01*
X99945053Y-89347079D01*
X99945056Y-89347077D01*
X99950245Y-89344433D01*
X100044433Y-89250245D01*
X100047077Y-89245056D01*
X100047079Y-89245053D01*
X100102259Y-89136756D01*
X100102260Y-89136753D01*
X100104905Y-89131562D01*
X100105816Y-89125810D01*
X100105817Y-89125807D01*
X100124831Y-89005752D01*
X100125742Y-89000000D01*
X100119921Y-88963244D01*
X100105817Y-88874193D01*
X100105816Y-88874190D01*
X100104905Y-88868438D01*
X100098031Y-88854947D01*
X100047079Y-88754947D01*
X100047077Y-88754944D01*
X100044433Y-88749755D01*
X99950245Y-88655567D01*
X99945056Y-88652923D01*
X99945053Y-88652921D01*
X99836756Y-88597741D01*
X99836753Y-88597740D01*
X99831562Y-88595095D01*
X99825810Y-88594184D01*
X99825807Y-88594183D01*
X99705752Y-88575169D01*
X99700000Y-88574258D01*
X99694248Y-88575169D01*
X99574193Y-88594183D01*
X99574190Y-88594184D01*
X99568438Y-88595095D01*
X99563247Y-88597740D01*
X99563244Y-88597741D01*
X99454947Y-88652921D01*
X99454944Y-88652923D01*
X99449755Y-88655567D01*
X99355567Y-88749755D01*
X99352923Y-88754944D01*
X99352921Y-88754947D01*
X99301969Y-88854947D01*
X99295095Y-88868438D01*
X99294806Y-88870262D01*
X99264759Y-88908715D01*
X99215245Y-88919236D01*
X99170553Y-88895469D01*
X99159619Y-88879559D01*
X99144433Y-88849755D01*
X99050245Y-88755567D01*
X99045056Y-88752923D01*
X99045053Y-88752921D01*
X98936756Y-88697741D01*
X98936753Y-88697740D01*
X98931562Y-88695095D01*
X98925810Y-88694184D01*
X98925807Y-88694183D01*
X98805752Y-88675169D01*
X98800000Y-88674258D01*
X98794248Y-88675169D01*
X98674193Y-88694183D01*
X98674190Y-88694184D01*
X98668438Y-88695095D01*
X98663247Y-88697740D01*
X98663244Y-88697741D01*
X98554947Y-88752921D01*
X98554944Y-88752923D01*
X98549755Y-88755567D01*
X98455567Y-88849755D01*
X98452923Y-88854944D01*
X98452921Y-88854947D01*
X98401772Y-88955333D01*
X98395095Y-88968438D01*
X98394184Y-88974190D01*
X98394183Y-88974193D01*
X98375169Y-89094248D01*
X98374258Y-89100000D01*
X98375169Y-89105752D01*
X98394183Y-89225807D01*
X98394184Y-89225810D01*
X98395095Y-89231562D01*
X98397740Y-89236753D01*
X98397741Y-89236756D01*
X98452921Y-89345053D01*
X98452923Y-89345056D01*
X98455567Y-89350245D01*
X98483849Y-89378527D01*
X98505241Y-89424403D01*
X98492140Y-89473298D01*
X98465122Y-89496785D01*
X98349755Y-89555567D01*
X98255567Y-89649755D01*
X98252923Y-89654944D01*
X98252921Y-89654947D01*
X98197741Y-89763244D01*
X98195095Y-89768438D01*
X98194184Y-89774190D01*
X98194183Y-89774193D01*
X98182138Y-89850245D01*
X98174258Y-89900000D01*
X86094678Y-89900000D01*
X86144433Y-89850245D01*
X86147077Y-89845056D01*
X86147079Y-89845053D01*
X86202259Y-89736756D01*
X86202260Y-89736753D01*
X86204905Y-89731562D01*
X86205816Y-89725810D01*
X86205817Y-89725807D01*
X86224831Y-89605752D01*
X86225742Y-89600000D01*
X86210413Y-89503212D01*
X86205817Y-89474193D01*
X86205816Y-89474190D01*
X86204905Y-89468438D01*
X86192674Y-89444433D01*
X86147079Y-89354947D01*
X86147077Y-89354944D01*
X86144433Y-89349755D01*
X86050245Y-89255567D01*
X86051122Y-89254690D01*
X86026308Y-89217903D01*
X86031599Y-89167562D01*
X86050659Y-89144847D01*
X86050245Y-89144433D01*
X86144433Y-89050245D01*
X86147077Y-89045056D01*
X86147079Y-89045053D01*
X86202259Y-88936756D01*
X86202260Y-88936753D01*
X86204905Y-88931562D01*
X86205816Y-88925810D01*
X86205817Y-88925807D01*
X86209904Y-88900000D01*
X96974258Y-88900000D01*
X96975169Y-88905752D01*
X96994183Y-89025807D01*
X96994184Y-89025810D01*
X96995095Y-89031562D01*
X96997740Y-89036753D01*
X96997741Y-89036756D01*
X97052921Y-89145053D01*
X97052923Y-89145056D01*
X97055567Y-89150245D01*
X97149755Y-89244433D01*
X97154944Y-89247077D01*
X97154947Y-89247079D01*
X97263244Y-89302259D01*
X97263247Y-89302260D01*
X97268438Y-89304905D01*
X97274190Y-89305816D01*
X97274193Y-89305817D01*
X97394248Y-89324831D01*
X97400000Y-89325742D01*
X97405752Y-89324831D01*
X97525807Y-89305817D01*
X97525810Y-89305816D01*
X97531562Y-89304905D01*
X97536753Y-89302260D01*
X97536756Y-89302259D01*
X97645053Y-89247079D01*
X97645056Y-89247077D01*
X97650245Y-89244433D01*
X97744433Y-89150245D01*
X97747077Y-89145056D01*
X97747079Y-89145053D01*
X97802259Y-89036756D01*
X97802260Y-89036753D01*
X97804905Y-89031562D01*
X97805816Y-89025810D01*
X97805817Y-89025807D01*
X97824831Y-88905752D01*
X97825742Y-88900000D01*
X97819921Y-88863244D01*
X97805817Y-88774193D01*
X97805816Y-88774190D01*
X97804905Y-88768438D01*
X97796999Y-88752921D01*
X97747079Y-88654947D01*
X97747077Y-88654944D01*
X97744433Y-88649755D01*
X97650245Y-88555567D01*
X97645056Y-88552923D01*
X97645053Y-88552921D01*
X97536756Y-88497741D01*
X97536753Y-88497740D01*
X97531562Y-88495095D01*
X97525810Y-88494184D01*
X97525807Y-88494183D01*
X97405752Y-88475169D01*
X97400000Y-88474258D01*
X97394248Y-88475169D01*
X97274193Y-88494183D01*
X97274190Y-88494184D01*
X97268438Y-88495095D01*
X97263247Y-88497740D01*
X97263244Y-88497741D01*
X97154947Y-88552921D01*
X97154944Y-88552923D01*
X97149755Y-88555567D01*
X97055567Y-88649755D01*
X97052923Y-88654944D01*
X97052921Y-88654947D01*
X97003001Y-88752921D01*
X96995095Y-88768438D01*
X96994184Y-88774190D01*
X96994183Y-88774193D01*
X96980079Y-88863244D01*
X96974258Y-88900000D01*
X86209904Y-88900000D01*
X86224831Y-88805752D01*
X86225742Y-88800000D01*
X86218705Y-88755567D01*
X86205817Y-88674193D01*
X86205816Y-88674190D01*
X86204905Y-88668438D01*
X86202259Y-88663244D01*
X86147079Y-88554947D01*
X86147077Y-88554944D01*
X86144433Y-88549755D01*
X86050245Y-88455567D01*
X86051122Y-88454690D01*
X86026308Y-88417903D01*
X86031599Y-88367562D01*
X86050659Y-88344847D01*
X86050245Y-88344433D01*
X86144433Y-88250245D01*
X86147077Y-88245056D01*
X86147079Y-88245053D01*
X86202259Y-88136756D01*
X86202260Y-88136753D01*
X86204905Y-88131562D01*
X86205816Y-88125810D01*
X86205817Y-88125807D01*
X86224831Y-88005752D01*
X86225742Y-88000000D01*
X92774258Y-88000000D01*
X92775169Y-88005752D01*
X92794183Y-88125807D01*
X92794184Y-88125810D01*
X92795095Y-88131562D01*
X92797740Y-88136753D01*
X92797741Y-88136756D01*
X92852921Y-88245053D01*
X92852923Y-88245056D01*
X92855567Y-88250245D01*
X92949755Y-88344433D01*
X92954944Y-88347077D01*
X92954947Y-88347079D01*
X93063244Y-88402259D01*
X93063247Y-88402260D01*
X93068438Y-88404905D01*
X93074190Y-88405816D01*
X93074193Y-88405817D01*
X93194248Y-88424831D01*
X93200000Y-88425742D01*
X93205752Y-88424831D01*
X93325807Y-88405817D01*
X93325810Y-88405816D01*
X93331562Y-88404905D01*
X93336753Y-88402260D01*
X93336756Y-88402259D01*
X93445053Y-88347079D01*
X93445056Y-88347077D01*
X93450245Y-88344433D01*
X93544433Y-88250245D01*
X93547077Y-88245056D01*
X93547079Y-88245053D01*
X93602259Y-88136756D01*
X93602260Y-88136753D01*
X93604905Y-88131562D01*
X93605816Y-88125810D01*
X93605817Y-88125807D01*
X93624831Y-88005752D01*
X93625742Y-88000000D01*
X93611455Y-87909792D01*
X93621114Y-87860103D01*
X93660452Y-87828247D01*
X93688424Y-87825802D01*
X93688424Y-87824831D01*
X93694248Y-87824831D01*
X93700000Y-87825742D01*
X93705752Y-87824831D01*
X93825807Y-87805817D01*
X93825810Y-87805816D01*
X93831562Y-87804905D01*
X93836753Y-87802260D01*
X93836756Y-87802259D01*
X93945053Y-87747079D01*
X93945056Y-87747077D01*
X93950245Y-87744433D01*
X94044433Y-87650245D01*
X94047077Y-87645056D01*
X94047079Y-87645053D01*
X94070035Y-87600000D01*
X96174258Y-87600000D01*
X96175169Y-87605752D01*
X96194183Y-87725807D01*
X96194184Y-87725810D01*
X96195095Y-87731562D01*
X96197740Y-87736753D01*
X96197741Y-87736756D01*
X96252921Y-87845053D01*
X96252923Y-87845056D01*
X96255567Y-87850245D01*
X96349755Y-87944433D01*
X96354944Y-87947077D01*
X96354947Y-87947079D01*
X96463244Y-88002259D01*
X96463247Y-88002260D01*
X96468438Y-88004905D01*
X96474190Y-88005816D01*
X96474193Y-88005817D01*
X96594248Y-88024831D01*
X96600000Y-88025742D01*
X96605752Y-88024831D01*
X96725807Y-88005817D01*
X96725810Y-88005816D01*
X96731562Y-88004905D01*
X96736753Y-88002260D01*
X96736756Y-88002259D01*
X96845053Y-87947079D01*
X96845056Y-87947077D01*
X96850245Y-87944433D01*
X96944433Y-87850245D01*
X96947077Y-87845056D01*
X96947079Y-87845053D01*
X97002259Y-87736756D01*
X97002260Y-87736753D01*
X97004905Y-87731562D01*
X97005816Y-87725810D01*
X97005817Y-87725807D01*
X97024831Y-87605752D01*
X97025742Y-87600000D01*
X97021665Y-87574258D01*
X97009983Y-87500500D01*
X97324258Y-87500500D01*
X97325169Y-87506252D01*
X97344183Y-87626307D01*
X97344184Y-87626310D01*
X97345095Y-87632062D01*
X97347740Y-87637253D01*
X97347741Y-87637256D01*
X97402921Y-87745553D01*
X97402923Y-87745556D01*
X97405567Y-87750745D01*
X97499755Y-87844933D01*
X97504944Y-87847577D01*
X97504947Y-87847579D01*
X97613244Y-87902759D01*
X97613247Y-87902760D01*
X97618438Y-87905405D01*
X97624190Y-87906316D01*
X97624193Y-87906317D01*
X97744248Y-87925331D01*
X97750000Y-87926242D01*
X97755752Y-87925331D01*
X97875807Y-87906317D01*
X97875810Y-87906316D01*
X97881562Y-87905405D01*
X97886753Y-87902760D01*
X97886756Y-87902759D01*
X97995053Y-87847579D01*
X97995056Y-87847577D01*
X98000245Y-87844933D01*
X98094433Y-87750745D01*
X98097077Y-87745556D01*
X98097079Y-87745553D01*
X98152259Y-87637256D01*
X98152260Y-87637253D01*
X98154905Y-87632062D01*
X98155816Y-87626310D01*
X98155817Y-87626307D01*
X98174831Y-87506252D01*
X98175742Y-87500500D01*
X98175663Y-87500000D01*
X99274258Y-87500000D01*
X99275169Y-87505752D01*
X99294183Y-87625807D01*
X99294184Y-87625810D01*
X99295095Y-87631562D01*
X99297740Y-87636753D01*
X99297741Y-87636756D01*
X99352921Y-87745053D01*
X99352923Y-87745056D01*
X99355567Y-87750245D01*
X99449755Y-87844433D01*
X99454944Y-87847077D01*
X99454947Y-87847079D01*
X99563244Y-87902259D01*
X99563247Y-87902260D01*
X99568438Y-87904905D01*
X99574190Y-87905816D01*
X99574193Y-87905817D01*
X99694248Y-87924831D01*
X99700000Y-87925742D01*
X99705752Y-87924831D01*
X99825807Y-87905817D01*
X99825810Y-87905816D01*
X99831562Y-87904905D01*
X99836753Y-87902260D01*
X99836756Y-87902259D01*
X99945053Y-87847079D01*
X99945056Y-87847077D01*
X99950245Y-87844433D01*
X100044433Y-87750245D01*
X100047077Y-87745056D01*
X100047079Y-87745053D01*
X100102259Y-87636756D01*
X100102260Y-87636753D01*
X100104905Y-87631562D01*
X100105816Y-87625810D01*
X100105817Y-87625807D01*
X100124831Y-87505752D01*
X100125742Y-87500000D01*
X100105896Y-87374693D01*
X100105817Y-87374193D01*
X100105816Y-87374190D01*
X100104905Y-87368438D01*
X100093287Y-87345636D01*
X100047079Y-87254947D01*
X100047077Y-87254944D01*
X100044433Y-87249755D01*
X99950245Y-87155567D01*
X99945056Y-87152923D01*
X99945053Y-87152921D01*
X99836756Y-87097741D01*
X99836753Y-87097740D01*
X99831562Y-87095095D01*
X99825810Y-87094184D01*
X99825807Y-87094183D01*
X99705752Y-87075169D01*
X99700000Y-87074258D01*
X99694248Y-87075169D01*
X99574193Y-87094183D01*
X99574190Y-87094184D01*
X99568438Y-87095095D01*
X99563247Y-87097740D01*
X99563244Y-87097741D01*
X99454947Y-87152921D01*
X99454944Y-87152923D01*
X99449755Y-87155567D01*
X99355567Y-87249755D01*
X99352923Y-87254944D01*
X99352921Y-87254947D01*
X99306713Y-87345636D01*
X99295095Y-87368438D01*
X99294184Y-87374190D01*
X99294183Y-87374193D01*
X99294104Y-87374693D01*
X99274258Y-87500000D01*
X98175663Y-87500000D01*
X98173089Y-87483747D01*
X98155817Y-87374693D01*
X98155816Y-87374690D01*
X98154905Y-87368938D01*
X98152004Y-87363244D01*
X98097079Y-87255447D01*
X98097077Y-87255444D01*
X98094433Y-87250255D01*
X98000245Y-87156067D01*
X97995056Y-87153423D01*
X97995053Y-87153421D01*
X97886756Y-87098241D01*
X97886753Y-87098240D01*
X97881562Y-87095595D01*
X97875810Y-87094684D01*
X97875807Y-87094683D01*
X97755752Y-87075669D01*
X97750000Y-87074758D01*
X97744248Y-87075669D01*
X97624193Y-87094683D01*
X97624190Y-87094684D01*
X97618438Y-87095595D01*
X97613247Y-87098240D01*
X97613244Y-87098241D01*
X97504947Y-87153421D01*
X97504944Y-87153423D01*
X97499755Y-87156067D01*
X97405567Y-87250255D01*
X97402923Y-87255444D01*
X97402921Y-87255447D01*
X97347996Y-87363244D01*
X97345095Y-87368938D01*
X97344184Y-87374690D01*
X97344183Y-87374693D01*
X97326911Y-87483747D01*
X97324258Y-87500500D01*
X97009983Y-87500500D01*
X97005817Y-87474193D01*
X97005816Y-87474190D01*
X97004905Y-87468438D01*
X96972965Y-87405752D01*
X96947079Y-87354947D01*
X96947077Y-87354944D01*
X96944433Y-87349755D01*
X96850245Y-87255567D01*
X96845056Y-87252923D01*
X96845053Y-87252921D01*
X96736756Y-87197741D01*
X96736753Y-87197740D01*
X96731562Y-87195095D01*
X96725810Y-87194184D01*
X96725807Y-87194183D01*
X96605752Y-87175169D01*
X96600000Y-87174258D01*
X96594248Y-87175169D01*
X96474193Y-87194183D01*
X96474190Y-87194184D01*
X96468438Y-87195095D01*
X96463247Y-87197740D01*
X96463244Y-87197741D01*
X96354947Y-87252921D01*
X96354944Y-87252923D01*
X96349755Y-87255567D01*
X96255567Y-87349755D01*
X96252923Y-87354944D01*
X96252921Y-87354947D01*
X96227035Y-87405752D01*
X96195095Y-87468438D01*
X96194184Y-87474190D01*
X96194183Y-87474193D01*
X96178335Y-87574258D01*
X96174258Y-87600000D01*
X94070035Y-87600000D01*
X94102259Y-87536756D01*
X94102260Y-87536753D01*
X94104905Y-87531562D01*
X94105816Y-87525810D01*
X94105817Y-87525807D01*
X94124831Y-87405752D01*
X94125742Y-87400000D01*
X94109764Y-87299118D01*
X94119423Y-87249429D01*
X94158761Y-87217574D01*
X94171277Y-87214453D01*
X94225807Y-87205817D01*
X94225810Y-87205816D01*
X94231562Y-87204905D01*
X94236753Y-87202260D01*
X94236756Y-87202259D01*
X94345053Y-87147079D01*
X94345056Y-87147077D01*
X94350245Y-87144433D01*
X94412281Y-87082397D01*
X94458157Y-87061005D01*
X94507052Y-87074106D01*
X94530539Y-87101124D01*
X94555567Y-87150245D01*
X94649755Y-87244433D01*
X94654944Y-87247077D01*
X94654947Y-87247079D01*
X94763244Y-87302259D01*
X94763247Y-87302260D01*
X94768438Y-87304905D01*
X94774190Y-87305816D01*
X94774193Y-87305817D01*
X94894248Y-87324831D01*
X94900000Y-87325742D01*
X94905752Y-87324831D01*
X95025807Y-87305817D01*
X95025810Y-87305816D01*
X95031562Y-87304905D01*
X95036753Y-87302260D01*
X95036756Y-87302259D01*
X95145053Y-87247079D01*
X95145056Y-87247077D01*
X95150245Y-87244433D01*
X95244433Y-87150245D01*
X95247077Y-87145056D01*
X95247079Y-87145053D01*
X95302259Y-87036756D01*
X95302260Y-87036753D01*
X95304905Y-87031562D01*
X95305816Y-87025810D01*
X95305817Y-87025807D01*
X95324831Y-86905752D01*
X95325742Y-86900000D01*
X95324209Y-86890319D01*
X95305817Y-86774193D01*
X95305816Y-86774190D01*
X95304905Y-86768438D01*
X95283401Y-86726234D01*
X95277233Y-86675993D01*
X95304802Y-86633541D01*
X95353210Y-86618741D01*
X95360909Y-86619551D01*
X95400000Y-86625742D01*
X95405752Y-86624831D01*
X95525807Y-86605817D01*
X95525810Y-86605816D01*
X95531562Y-86604905D01*
X95536753Y-86602260D01*
X95536756Y-86602259D01*
X95645053Y-86547079D01*
X95645056Y-86547077D01*
X95650245Y-86544433D01*
X95744433Y-86450245D01*
X95747077Y-86445056D01*
X95747079Y-86445053D01*
X95802259Y-86336756D01*
X95802260Y-86336753D01*
X95804905Y-86331562D01*
X95805816Y-86325810D01*
X95805817Y-86325807D01*
X95824831Y-86205752D01*
X95825742Y-86200000D01*
X95824831Y-86194248D01*
X95805817Y-86074193D01*
X95805816Y-86074190D01*
X95804905Y-86068438D01*
X95802259Y-86063244D01*
X95747079Y-85954947D01*
X95747077Y-85954944D01*
X95744433Y-85949755D01*
X95650245Y-85855567D01*
X95645056Y-85852923D01*
X95645053Y-85852921D01*
X95536756Y-85797741D01*
X95536753Y-85797740D01*
X95531562Y-85795095D01*
X95525810Y-85794184D01*
X95525807Y-85794183D01*
X95405752Y-85775169D01*
X95400000Y-85774258D01*
X95394248Y-85775169D01*
X95274193Y-85794183D01*
X95274190Y-85794184D01*
X95268438Y-85795095D01*
X95263247Y-85797740D01*
X95263244Y-85797741D01*
X95154947Y-85852921D01*
X95154944Y-85852923D01*
X95149755Y-85855567D01*
X95055567Y-85949755D01*
X95052923Y-85954944D01*
X95052921Y-85954947D01*
X94997741Y-86063244D01*
X94995095Y-86068438D01*
X94994184Y-86074190D01*
X94994183Y-86074193D01*
X94975169Y-86194248D01*
X94974258Y-86200000D01*
X94975169Y-86205752D01*
X94994183Y-86325807D01*
X94994184Y-86325810D01*
X94995095Y-86331562D01*
X95016599Y-86373766D01*
X95022767Y-86424007D01*
X94995198Y-86466459D01*
X94946790Y-86481259D01*
X94939091Y-86480449D01*
X94900000Y-86474258D01*
X94894248Y-86475169D01*
X94774193Y-86494183D01*
X94774190Y-86494184D01*
X94768438Y-86495095D01*
X94763247Y-86497740D01*
X94763244Y-86497741D01*
X94654947Y-86552921D01*
X94654944Y-86552923D01*
X94649755Y-86555567D01*
X94587719Y-86617603D01*
X94541843Y-86638995D01*
X94492948Y-86625894D01*
X94469461Y-86598876D01*
X94444433Y-86549755D01*
X94350245Y-86455567D01*
X94345056Y-86452923D01*
X94345053Y-86452921D01*
X94236756Y-86397741D01*
X94236753Y-86397740D01*
X94231562Y-86395095D01*
X94225810Y-86394184D01*
X94225807Y-86394183D01*
X94105752Y-86375169D01*
X94100000Y-86374258D01*
X94094248Y-86375169D01*
X93974193Y-86394183D01*
X93974190Y-86394184D01*
X93968438Y-86395095D01*
X93963247Y-86397740D01*
X93963244Y-86397741D01*
X93854947Y-86452921D01*
X93854944Y-86452923D01*
X93849755Y-86455567D01*
X93755567Y-86549755D01*
X93752924Y-86554943D01*
X93752921Y-86554947D01*
X93704614Y-86649755D01*
X93695095Y-86668438D01*
X93694184Y-86674190D01*
X93694183Y-86674193D01*
X93679257Y-86768438D01*
X93674258Y-86800000D01*
X93675169Y-86805752D01*
X93690236Y-86900882D01*
X93680577Y-86950571D01*
X93641239Y-86982426D01*
X93628723Y-86985547D01*
X93574193Y-86994183D01*
X93574190Y-86994184D01*
X93568438Y-86995095D01*
X93563247Y-86997740D01*
X93563244Y-86997741D01*
X93454947Y-87052921D01*
X93454944Y-87052923D01*
X93449755Y-87055567D01*
X93355567Y-87149755D01*
X93352923Y-87154944D01*
X93352921Y-87154947D01*
X93303001Y-87252921D01*
X93295095Y-87268438D01*
X93294184Y-87274190D01*
X93294183Y-87274193D01*
X93280079Y-87363244D01*
X93274258Y-87400000D01*
X93275169Y-87405752D01*
X93288545Y-87490208D01*
X93278886Y-87539897D01*
X93239548Y-87571753D01*
X93211576Y-87574198D01*
X93211576Y-87575169D01*
X93205752Y-87575169D01*
X93200000Y-87574258D01*
X93194248Y-87575169D01*
X93074193Y-87594183D01*
X93074190Y-87594184D01*
X93068438Y-87595095D01*
X93063247Y-87597740D01*
X93063244Y-87597741D01*
X92954947Y-87652921D01*
X92954944Y-87652923D01*
X92949755Y-87655567D01*
X92855567Y-87749755D01*
X92852923Y-87754944D01*
X92852921Y-87754947D01*
X92797741Y-87863244D01*
X92795095Y-87868438D01*
X92794184Y-87874190D01*
X92794183Y-87874193D01*
X92788545Y-87909792D01*
X92774258Y-88000000D01*
X86225742Y-88000000D01*
X86211455Y-87909792D01*
X86205817Y-87874193D01*
X86205816Y-87874190D01*
X86204905Y-87868438D01*
X86202259Y-87863244D01*
X86147079Y-87754947D01*
X86147077Y-87754944D01*
X86144433Y-87749755D01*
X86050245Y-87655567D01*
X86045056Y-87652923D01*
X86045053Y-87652921D01*
X85936756Y-87597741D01*
X85936753Y-87597740D01*
X85931562Y-87595095D01*
X85925810Y-87594184D01*
X85925807Y-87594183D01*
X85805752Y-87575169D01*
X85800000Y-87574258D01*
X85794248Y-87575169D01*
X85674193Y-87594183D01*
X85674190Y-87594184D01*
X85668438Y-87595095D01*
X85663247Y-87597740D01*
X85663244Y-87597741D01*
X85554947Y-87652921D01*
X85554944Y-87652923D01*
X85549755Y-87655567D01*
X85455567Y-87749755D01*
X85452923Y-87754944D01*
X85452921Y-87754947D01*
X85397741Y-87863244D01*
X85395095Y-87868438D01*
X85394184Y-87874190D01*
X85394183Y-87874193D01*
X85388545Y-87909792D01*
X85374258Y-88000000D01*
X85375169Y-88005752D01*
X85394183Y-88125807D01*
X85394184Y-88125810D01*
X85395095Y-88131562D01*
X85397740Y-88136753D01*
X85397741Y-88136756D01*
X85452921Y-88245053D01*
X85452923Y-88245056D01*
X85455567Y-88250245D01*
X85549755Y-88344433D01*
X85548878Y-88345310D01*
X85573692Y-88382097D01*
X85568401Y-88432438D01*
X85549341Y-88455153D01*
X85549755Y-88455567D01*
X85455567Y-88549755D01*
X85452923Y-88554944D01*
X85452921Y-88554947D01*
X85397741Y-88663244D01*
X85395095Y-88668438D01*
X85394184Y-88674190D01*
X85394183Y-88674193D01*
X85381295Y-88755567D01*
X85374258Y-88800000D01*
X85375169Y-88805752D01*
X85394183Y-88925807D01*
X85394184Y-88925810D01*
X85395095Y-88931562D01*
X85397740Y-88936753D01*
X85397741Y-88936756D01*
X85452921Y-89045053D01*
X85452923Y-89045056D01*
X85455567Y-89050245D01*
X85549755Y-89144433D01*
X85548878Y-89145310D01*
X85573692Y-89182097D01*
X85568401Y-89232438D01*
X85549341Y-89255153D01*
X85549755Y-89255567D01*
X85455567Y-89349755D01*
X85452923Y-89354944D01*
X85452921Y-89354947D01*
X85407326Y-89444433D01*
X85395095Y-89468438D01*
X85394184Y-89474190D01*
X85394183Y-89474193D01*
X85389587Y-89503212D01*
X85374258Y-89600000D01*
X57150500Y-89600000D01*
X57150500Y-87715665D01*
X60237619Y-87715665D01*
X60237794Y-87718700D01*
X60250701Y-87942554D01*
X60250702Y-87942560D01*
X60250876Y-87945580D01*
X60251540Y-87948527D01*
X60251541Y-87948533D01*
X60300839Y-88167283D01*
X60301506Y-88170242D01*
X60388149Y-88383618D01*
X60389735Y-88386206D01*
X60504974Y-88574258D01*
X60508479Y-88579978D01*
X60510468Y-88582274D01*
X60510470Y-88582277D01*
X60590147Y-88674258D01*
X60659263Y-88754048D01*
X60836453Y-88901154D01*
X60839071Y-88902684D01*
X60839077Y-88902688D01*
X61032664Y-89015811D01*
X61032669Y-89015813D01*
X61035290Y-89017345D01*
X61038129Y-89018429D01*
X61247589Y-89098415D01*
X61247593Y-89098416D01*
X61250434Y-89099501D01*
X61253418Y-89100108D01*
X61253421Y-89100109D01*
X61357249Y-89121232D01*
X61476107Y-89145414D01*
X61564224Y-89148645D01*
X61703209Y-89153742D01*
X61703215Y-89153742D01*
X61706249Y-89153853D01*
X61709260Y-89153467D01*
X61709266Y-89153467D01*
X61841487Y-89136529D01*
X61934678Y-89124591D01*
X62035817Y-89094248D01*
X62152356Y-89059285D01*
X62152361Y-89059283D01*
X62155261Y-89058413D01*
X62362074Y-88957096D01*
X62549562Y-88823363D01*
X62551702Y-88821230D01*
X62551706Y-88821227D01*
X62710537Y-88662949D01*
X62710540Y-88662946D01*
X62712690Y-88660803D01*
X62716453Y-88655567D01*
X62845305Y-88476249D01*
X62847077Y-88473783D01*
X62949115Y-88267325D01*
X63016063Y-88046975D01*
X63018859Y-88025742D01*
X63045865Y-87820603D01*
X63045865Y-87820598D01*
X63046122Y-87818649D01*
X63047800Y-87750000D01*
X63047441Y-87745636D01*
X63029179Y-87523503D01*
X63029178Y-87523499D01*
X63028930Y-87520478D01*
X63022342Y-87494248D01*
X62992311Y-87374693D01*
X62972826Y-87297120D01*
X62880996Y-87085924D01*
X62878715Y-87082397D01*
X62793432Y-86950571D01*
X62755905Y-86892563D01*
X62642959Y-86768438D01*
X62602955Y-86724474D01*
X62602954Y-86724473D01*
X62600912Y-86722229D01*
X62420181Y-86579496D01*
X62330703Y-86530101D01*
X62221227Y-86469667D01*
X62221222Y-86469665D01*
X62218565Y-86468198D01*
X62215699Y-86467183D01*
X62004348Y-86392339D01*
X62004344Y-86392338D01*
X62001478Y-86391323D01*
X61998483Y-86390789D01*
X61998481Y-86390789D01*
X61888114Y-86371130D01*
X61774750Y-86350937D01*
X61627955Y-86349143D01*
X61547509Y-86348160D01*
X61547507Y-86348160D01*
X61544471Y-86348123D01*
X61419559Y-86367237D01*
X61319829Y-86382498D01*
X61319825Y-86382499D01*
X61316825Y-86382958D01*
X61313936Y-86383902D01*
X61313933Y-86383903D01*
X61100808Y-86453563D01*
X61100804Y-86453565D01*
X61097924Y-86454506D01*
X60940696Y-86536354D01*
X60904987Y-86554943D01*
X60893649Y-86560845D01*
X60891228Y-86562663D01*
X60891226Y-86562664D01*
X60742683Y-86674193D01*
X60709484Y-86699119D01*
X60643242Y-86768438D01*
X60552473Y-86863422D01*
X60552470Y-86863426D01*
X60550377Y-86865616D01*
X60548667Y-86868123D01*
X60548666Y-86868124D01*
X60530257Y-86895111D01*
X60420599Y-87055863D01*
X60419320Y-87058618D01*
X60419319Y-87058620D01*
X60406645Y-87085924D01*
X60323636Y-87264752D01*
X60262092Y-87486673D01*
X60237619Y-87715665D01*
X57150500Y-87715665D01*
X57150500Y-82348138D01*
X94544758Y-82348138D01*
X94562035Y-82504633D01*
X94563568Y-82508822D01*
X94612185Y-82641673D01*
X94616143Y-82652490D01*
X94618628Y-82656188D01*
X94618630Y-82656192D01*
X94630803Y-82674307D01*
X94703958Y-82783172D01*
X94724034Y-82801440D01*
X94772749Y-82845767D01*
X94796279Y-82890585D01*
X94785495Y-82940042D01*
X94745444Y-82970997D01*
X94722946Y-82974500D01*
X94685180Y-82974500D01*
X94681611Y-82975210D01*
X94681610Y-82975210D01*
X94648425Y-82981811D01*
X94648424Y-82981812D01*
X94641278Y-82983233D01*
X94591496Y-83016496D01*
X94558233Y-83066278D01*
X94549500Y-83110180D01*
X94549500Y-84139820D01*
X94550210Y-84143389D01*
X94550210Y-84143390D01*
X94556060Y-84172797D01*
X94558233Y-84183722D01*
X94591496Y-84233504D01*
X94641278Y-84266767D01*
X94648424Y-84268188D01*
X94648425Y-84268189D01*
X94681610Y-84274790D01*
X94681611Y-84274790D01*
X94685180Y-84275500D01*
X95714820Y-84275500D01*
X95718389Y-84274790D01*
X95718390Y-84274790D01*
X95751575Y-84268189D01*
X95751576Y-84268188D01*
X95758722Y-84266767D01*
X95808504Y-84233504D01*
X95841767Y-84183722D01*
X95843941Y-84172797D01*
X95849790Y-84143390D01*
X95849790Y-84143389D01*
X95850500Y-84139820D01*
X95850500Y-84108219D01*
X95867813Y-84060653D01*
X95911650Y-84035343D01*
X95961500Y-84044133D01*
X95974303Y-84053486D01*
X95986867Y-84064918D01*
X96090410Y-84159135D01*
X96094333Y-84161265D01*
X96224852Y-84232132D01*
X96224856Y-84232134D01*
X96228776Y-84234262D01*
X96381069Y-84274215D01*
X96459782Y-84275451D01*
X96534038Y-84276618D01*
X96538495Y-84276688D01*
X96542837Y-84275694D01*
X96542842Y-84275693D01*
X96687621Y-84242534D01*
X96687624Y-84242533D01*
X96691968Y-84241538D01*
X96832625Y-84170795D01*
X96952348Y-84068542D01*
X97044224Y-83940683D01*
X97045298Y-83941455D01*
X97079313Y-83911673D01*
X97129920Y-83910609D01*
X97167499Y-83939390D01*
X97243958Y-84053172D01*
X97360410Y-84159135D01*
X97364333Y-84161265D01*
X97494852Y-84232132D01*
X97494856Y-84232134D01*
X97498776Y-84234262D01*
X97651069Y-84274215D01*
X97729782Y-84275451D01*
X97804038Y-84276618D01*
X97808495Y-84276688D01*
X97812837Y-84275694D01*
X97812842Y-84275693D01*
X97957621Y-84242534D01*
X97957624Y-84242533D01*
X97961968Y-84241538D01*
X98102625Y-84170795D01*
X98222348Y-84068542D01*
X98314224Y-83940683D01*
X98315298Y-83941455D01*
X98349313Y-83911673D01*
X98399920Y-83910609D01*
X98437499Y-83939390D01*
X98513958Y-84053172D01*
X98630410Y-84159135D01*
X98634333Y-84161265D01*
X98764852Y-84232132D01*
X98764856Y-84232134D01*
X98768776Y-84234262D01*
X98921069Y-84274215D01*
X98999782Y-84275451D01*
X99074038Y-84276618D01*
X99078495Y-84276688D01*
X99082837Y-84275694D01*
X99082842Y-84275693D01*
X99227621Y-84242534D01*
X99227624Y-84242533D01*
X99231968Y-84241538D01*
X99372625Y-84170795D01*
X99492348Y-84068542D01*
X99584224Y-83940683D01*
X99642950Y-83794598D01*
X99665134Y-83638723D01*
X99665278Y-83625000D01*
X99646363Y-83468694D01*
X99610847Y-83374703D01*
X99592286Y-83325582D01*
X99592285Y-83325580D01*
X99590710Y-83321412D01*
X99501531Y-83191657D01*
X99414169Y-83113820D01*
X99387310Y-83089889D01*
X99387307Y-83089887D01*
X99383976Y-83086919D01*
X99324876Y-83055627D01*
X99290940Y-83018068D01*
X99289085Y-82967483D01*
X99320180Y-82927541D01*
X99326253Y-82924119D01*
X99368638Y-82902802D01*
X99368649Y-82902795D01*
X99372625Y-82900795D01*
X99384580Y-82890585D01*
X99488955Y-82801440D01*
X99492348Y-82798542D01*
X99584224Y-82670683D01*
X99642950Y-82524598D01*
X99665134Y-82368723D01*
X99665278Y-82355000D01*
X99646363Y-82198694D01*
X99599825Y-82075535D01*
X99592286Y-82055582D01*
X99592285Y-82055580D01*
X99590710Y-82051412D01*
X99540282Y-81978040D01*
X99504062Y-81925339D01*
X99504060Y-81925337D01*
X99501531Y-81921657D01*
X99398109Y-81829511D01*
X99387310Y-81819889D01*
X99387307Y-81819887D01*
X99383976Y-81816919D01*
X99244831Y-81743245D01*
X99092128Y-81704889D01*
X99010583Y-81704462D01*
X98939142Y-81704088D01*
X98939139Y-81704088D01*
X98934684Y-81704065D01*
X98930349Y-81705106D01*
X98930347Y-81705106D01*
X98850936Y-81724171D01*
X98781588Y-81740820D01*
X98641679Y-81813032D01*
X98638321Y-81815961D01*
X98638320Y-81815962D01*
X98626392Y-81826368D01*
X98523034Y-81916533D01*
X98520466Y-81920187D01*
X98520465Y-81920188D01*
X98435096Y-82041656D01*
X98393581Y-82070618D01*
X98343162Y-82066118D01*
X98313568Y-82041020D01*
X98234062Y-81925339D01*
X98234060Y-81925337D01*
X98231531Y-81921657D01*
X98128109Y-81829511D01*
X98117310Y-81819889D01*
X98117307Y-81819887D01*
X98113976Y-81816919D01*
X97974831Y-81743245D01*
X97822128Y-81704889D01*
X97740583Y-81704462D01*
X97669142Y-81704088D01*
X97669139Y-81704088D01*
X97664684Y-81704065D01*
X97660349Y-81705106D01*
X97660347Y-81705106D01*
X97580936Y-81724171D01*
X97511588Y-81740820D01*
X97371679Y-81813032D01*
X97368321Y-81815961D01*
X97368320Y-81815962D01*
X97356392Y-81826368D01*
X97253034Y-81916533D01*
X97250466Y-81920187D01*
X97250465Y-81920188D01*
X97165096Y-82041656D01*
X97123581Y-82070618D01*
X97073162Y-82066118D01*
X97043568Y-82041020D01*
X96964062Y-81925339D01*
X96964060Y-81925337D01*
X96961531Y-81921657D01*
X96858109Y-81829511D01*
X96847310Y-81819889D01*
X96847307Y-81819887D01*
X96843976Y-81816919D01*
X96704831Y-81743245D01*
X96552128Y-81704889D01*
X96470583Y-81704462D01*
X96399142Y-81704088D01*
X96399139Y-81704088D01*
X96394684Y-81704065D01*
X96390349Y-81705106D01*
X96390347Y-81705106D01*
X96310936Y-81724171D01*
X96241588Y-81740820D01*
X96101679Y-81813032D01*
X96098321Y-81815961D01*
X96098320Y-81815962D01*
X96086392Y-81826368D01*
X95983034Y-81916533D01*
X95980466Y-81920187D01*
X95980465Y-81920188D01*
X95895096Y-82041656D01*
X95853581Y-82070618D01*
X95803162Y-82066118D01*
X95773568Y-82041020D01*
X95694062Y-81925339D01*
X95694060Y-81925337D01*
X95691531Y-81921657D01*
X95588109Y-81829511D01*
X95577310Y-81819889D01*
X95577307Y-81819887D01*
X95573976Y-81816919D01*
X95434831Y-81743245D01*
X95282128Y-81704889D01*
X95200583Y-81704462D01*
X95129142Y-81704088D01*
X95129139Y-81704088D01*
X95124684Y-81704065D01*
X95120349Y-81705106D01*
X95120347Y-81705106D01*
X95040936Y-81724171D01*
X94971588Y-81740820D01*
X94831679Y-81813032D01*
X94828321Y-81815961D01*
X94828320Y-81815962D01*
X94816392Y-81826368D01*
X94713034Y-81916533D01*
X94710466Y-81920187D01*
X94710465Y-81920188D01*
X94625096Y-82041656D01*
X94622501Y-82045348D01*
X94620879Y-82049507D01*
X94620879Y-82049508D01*
X94573412Y-82171257D01*
X94565309Y-82192039D01*
X94564727Y-82196463D01*
X94564726Y-82196465D01*
X94557041Y-82254843D01*
X94544758Y-82348138D01*
X57150500Y-82348138D01*
X57150500Y-82114820D01*
X71899500Y-82114820D01*
X71908233Y-82158722D01*
X71941496Y-82208504D01*
X71991278Y-82241767D01*
X71998424Y-82243188D01*
X71998425Y-82243189D01*
X72031610Y-82249790D01*
X72031611Y-82249790D01*
X72035180Y-82250500D01*
X73764820Y-82250500D01*
X73768389Y-82249790D01*
X73768390Y-82249790D01*
X73801575Y-82243189D01*
X73801576Y-82243188D01*
X73808722Y-82241767D01*
X73858504Y-82208504D01*
X73891767Y-82158722D01*
X73900500Y-82114820D01*
X73900500Y-81235963D01*
X74434757Y-81235963D01*
X74435060Y-81239572D01*
X74435060Y-81239574D01*
X74438293Y-81278071D01*
X74451175Y-81431483D01*
X74505258Y-81620091D01*
X74506911Y-81623307D01*
X74593288Y-81791380D01*
X74593291Y-81791385D01*
X74594944Y-81794601D01*
X74716818Y-81948369D01*
X74866238Y-82075535D01*
X74869400Y-82077302D01*
X75034354Y-82169492D01*
X75034358Y-82169494D01*
X75037513Y-82171257D01*
X75040949Y-82172374D01*
X75040955Y-82172376D01*
X75152147Y-82208504D01*
X75224118Y-82231889D01*
X75284541Y-82239094D01*
X75415346Y-82254692D01*
X75415349Y-82254692D01*
X75418946Y-82255121D01*
X75488228Y-82249790D01*
X75610965Y-82240346D01*
X75610966Y-82240346D01*
X75614576Y-82240068D01*
X75803556Y-82187303D01*
X75806783Y-82185673D01*
X75975455Y-82100471D01*
X75975458Y-82100469D01*
X75978689Y-82098837D01*
X76133303Y-81978040D01*
X76261509Y-81829511D01*
X76263292Y-81826372D01*
X76263295Y-81826368D01*
X76332181Y-81705106D01*
X76358425Y-81658909D01*
X76370269Y-81623307D01*
X76419215Y-81476168D01*
X76420358Y-81472732D01*
X76425130Y-81434962D01*
X76444691Y-81280115D01*
X76444691Y-81280111D01*
X76444949Y-81278071D01*
X76445341Y-81250000D01*
X76443965Y-81235963D01*
X79514757Y-81235963D01*
X79515060Y-81239572D01*
X79515060Y-81239574D01*
X79518293Y-81278071D01*
X79531175Y-81431483D01*
X79585258Y-81620091D01*
X79586911Y-81623307D01*
X79673288Y-81791380D01*
X79673291Y-81791385D01*
X79674944Y-81794601D01*
X79796818Y-81948369D01*
X79946238Y-82075535D01*
X79949400Y-82077302D01*
X80114354Y-82169492D01*
X80114358Y-82169494D01*
X80117513Y-82171257D01*
X80120949Y-82172374D01*
X80120955Y-82172376D01*
X80232147Y-82208504D01*
X80304118Y-82231889D01*
X80364541Y-82239094D01*
X80495346Y-82254692D01*
X80495349Y-82254692D01*
X80498946Y-82255121D01*
X80568228Y-82249790D01*
X80690965Y-82240346D01*
X80690966Y-82240346D01*
X80694576Y-82240068D01*
X80883556Y-82187303D01*
X80886783Y-82185673D01*
X81055455Y-82100471D01*
X81055458Y-82100469D01*
X81058689Y-82098837D01*
X81213303Y-81978040D01*
X81341509Y-81829511D01*
X81343292Y-81826372D01*
X81343295Y-81826368D01*
X81412181Y-81705106D01*
X81438425Y-81658909D01*
X81450269Y-81623307D01*
X81499215Y-81476168D01*
X81500358Y-81472732D01*
X81505130Y-81434962D01*
X81524691Y-81280115D01*
X81524691Y-81280111D01*
X81524949Y-81278071D01*
X81525341Y-81250000D01*
X81523965Y-81235963D01*
X82054757Y-81235963D01*
X82055060Y-81239572D01*
X82055060Y-81239574D01*
X82058293Y-81278071D01*
X82071175Y-81431483D01*
X82125258Y-81620091D01*
X82126911Y-81623307D01*
X82213288Y-81791380D01*
X82213291Y-81791385D01*
X82214944Y-81794601D01*
X82336818Y-81948369D01*
X82486238Y-82075535D01*
X82489400Y-82077302D01*
X82654354Y-82169492D01*
X82654358Y-82169494D01*
X82657513Y-82171257D01*
X82660949Y-82172374D01*
X82660955Y-82172376D01*
X82772147Y-82208504D01*
X82844118Y-82231889D01*
X82904541Y-82239094D01*
X83035346Y-82254692D01*
X83035349Y-82254692D01*
X83038946Y-82255121D01*
X83108228Y-82249790D01*
X83230965Y-82240346D01*
X83230966Y-82240346D01*
X83234576Y-82240068D01*
X83423556Y-82187303D01*
X83426783Y-82185673D01*
X83595455Y-82100471D01*
X83595458Y-82100469D01*
X83598689Y-82098837D01*
X83753303Y-81978040D01*
X83881509Y-81829511D01*
X83883292Y-81826372D01*
X83883295Y-81826368D01*
X83952181Y-81705106D01*
X83978425Y-81658909D01*
X83990269Y-81623307D01*
X84039215Y-81476168D01*
X84040358Y-81472732D01*
X84045130Y-81434962D01*
X84064691Y-81280115D01*
X84064691Y-81280111D01*
X84064949Y-81278071D01*
X84065341Y-81250000D01*
X84063965Y-81235963D01*
X84594757Y-81235963D01*
X84595060Y-81239572D01*
X84595060Y-81239574D01*
X84598293Y-81278071D01*
X84611175Y-81431483D01*
X84665258Y-81620091D01*
X84666911Y-81623307D01*
X84753288Y-81791380D01*
X84753291Y-81791385D01*
X84754944Y-81794601D01*
X84876818Y-81948369D01*
X85026238Y-82075535D01*
X85029400Y-82077302D01*
X85194354Y-82169492D01*
X85194358Y-82169494D01*
X85197513Y-82171257D01*
X85200949Y-82172374D01*
X85200955Y-82172376D01*
X85312147Y-82208504D01*
X85384118Y-82231889D01*
X85444541Y-82239094D01*
X85575346Y-82254692D01*
X85575349Y-82254692D01*
X85578946Y-82255121D01*
X85648228Y-82249790D01*
X85770965Y-82240346D01*
X85770966Y-82240346D01*
X85774576Y-82240068D01*
X85963556Y-82187303D01*
X85966783Y-82185673D01*
X86135455Y-82100471D01*
X86135458Y-82100469D01*
X86138689Y-82098837D01*
X86293303Y-81978040D01*
X86421509Y-81829511D01*
X86423292Y-81826372D01*
X86423295Y-81826368D01*
X86492181Y-81705106D01*
X86518425Y-81658909D01*
X86530269Y-81623307D01*
X86579215Y-81476168D01*
X86580358Y-81472732D01*
X86585130Y-81434962D01*
X86604691Y-81280115D01*
X86604691Y-81280111D01*
X86604949Y-81278071D01*
X86605341Y-81250000D01*
X86586194Y-81054728D01*
X86529484Y-80866894D01*
X86437370Y-80693653D01*
X86313361Y-80541602D01*
X86162180Y-80416535D01*
X86147814Y-80408767D01*
X85992768Y-80324934D01*
X85989585Y-80323213D01*
X85986135Y-80322145D01*
X85986130Y-80322143D01*
X85867841Y-80285527D01*
X85802152Y-80265193D01*
X85607019Y-80244683D01*
X85411618Y-80262466D01*
X85408145Y-80263488D01*
X85408146Y-80263488D01*
X85226864Y-80316842D01*
X85226860Y-80316844D01*
X85223393Y-80317864D01*
X85132115Y-80365583D01*
X85052719Y-80407090D01*
X85052716Y-80407092D01*
X85049512Y-80408767D01*
X85046694Y-80411033D01*
X85046692Y-80411034D01*
X84899419Y-80529444D01*
X84899416Y-80529447D01*
X84896600Y-80531711D01*
X84770480Y-80682016D01*
X84675956Y-80853954D01*
X84674864Y-80857397D01*
X84674863Y-80857399D01*
X84670753Y-80870357D01*
X84616628Y-81040978D01*
X84616225Y-81044574D01*
X84616224Y-81044577D01*
X84607311Y-81124039D01*
X84594757Y-81235963D01*
X84063965Y-81235963D01*
X84046194Y-81054728D01*
X83989484Y-80866894D01*
X83897370Y-80693653D01*
X83773361Y-80541602D01*
X83622180Y-80416535D01*
X83607814Y-80408767D01*
X83452768Y-80324934D01*
X83449585Y-80323213D01*
X83446135Y-80322145D01*
X83446130Y-80322143D01*
X83327841Y-80285527D01*
X83262152Y-80265193D01*
X83067019Y-80244683D01*
X82871618Y-80262466D01*
X82868145Y-80263488D01*
X82868146Y-80263488D01*
X82686864Y-80316842D01*
X82686860Y-80316844D01*
X82683393Y-80317864D01*
X82592115Y-80365583D01*
X82512719Y-80407090D01*
X82512716Y-80407092D01*
X82509512Y-80408767D01*
X82506694Y-80411033D01*
X82506692Y-80411034D01*
X82359419Y-80529444D01*
X82359416Y-80529447D01*
X82356600Y-80531711D01*
X82230480Y-80682016D01*
X82135956Y-80853954D01*
X82134864Y-80857397D01*
X82134863Y-80857399D01*
X82130753Y-80870357D01*
X82076628Y-81040978D01*
X82076225Y-81044574D01*
X82076224Y-81044577D01*
X82067311Y-81124039D01*
X82054757Y-81235963D01*
X81523965Y-81235963D01*
X81506194Y-81054728D01*
X81449484Y-80866894D01*
X81357370Y-80693653D01*
X81233361Y-80541602D01*
X81082180Y-80416535D01*
X81067814Y-80408767D01*
X80912768Y-80324934D01*
X80909585Y-80323213D01*
X80906135Y-80322145D01*
X80906130Y-80322143D01*
X80787841Y-80285527D01*
X80722152Y-80265193D01*
X80527019Y-80244683D01*
X80331618Y-80262466D01*
X80328145Y-80263488D01*
X80328146Y-80263488D01*
X80146864Y-80316842D01*
X80146860Y-80316844D01*
X80143393Y-80317864D01*
X80052115Y-80365583D01*
X79972719Y-80407090D01*
X79972716Y-80407092D01*
X79969512Y-80408767D01*
X79966694Y-80411033D01*
X79966692Y-80411034D01*
X79819419Y-80529444D01*
X79819416Y-80529447D01*
X79816600Y-80531711D01*
X79690480Y-80682016D01*
X79595956Y-80853954D01*
X79594864Y-80857397D01*
X79594863Y-80857399D01*
X79590753Y-80870357D01*
X79536628Y-81040978D01*
X79536225Y-81044574D01*
X79536224Y-81044577D01*
X79527311Y-81124039D01*
X79514757Y-81235963D01*
X76443965Y-81235963D01*
X76426194Y-81054728D01*
X76369484Y-80866894D01*
X76277370Y-80693653D01*
X76153361Y-80541602D01*
X76002180Y-80416535D01*
X75987814Y-80408767D01*
X75832768Y-80324934D01*
X75829585Y-80323213D01*
X75826135Y-80322145D01*
X75826130Y-80322143D01*
X75707841Y-80285527D01*
X75642152Y-80265193D01*
X75447019Y-80244683D01*
X75251618Y-80262466D01*
X75248145Y-80263488D01*
X75248146Y-80263488D01*
X75066864Y-80316842D01*
X75066860Y-80316844D01*
X75063393Y-80317864D01*
X74972115Y-80365583D01*
X74892719Y-80407090D01*
X74892716Y-80407092D01*
X74889512Y-80408767D01*
X74886694Y-80411033D01*
X74886692Y-80411034D01*
X74739419Y-80529444D01*
X74739416Y-80529447D01*
X74736600Y-80531711D01*
X74610480Y-80682016D01*
X74515956Y-80853954D01*
X74514864Y-80857397D01*
X74514863Y-80857399D01*
X74510753Y-80870357D01*
X74456628Y-81040978D01*
X74456225Y-81044574D01*
X74456224Y-81044577D01*
X74447311Y-81124039D01*
X74434757Y-81235963D01*
X73900500Y-81235963D01*
X73900500Y-80385180D01*
X73891767Y-80341278D01*
X73858504Y-80291496D01*
X73808722Y-80258233D01*
X73801576Y-80256812D01*
X73801575Y-80256811D01*
X73768390Y-80250210D01*
X73768389Y-80250210D01*
X73764820Y-80249500D01*
X72035180Y-80249500D01*
X72031611Y-80250210D01*
X72031610Y-80250210D01*
X71998425Y-80256811D01*
X71998424Y-80256812D01*
X71991278Y-80258233D01*
X71941496Y-80291496D01*
X71908233Y-80341278D01*
X71899500Y-80385180D01*
X71899500Y-82114820D01*
X57150500Y-82114820D01*
X57150500Y-77224500D01*
X57167813Y-77176934D01*
X57211650Y-77151624D01*
X57224500Y-77150500D01*
X137775500Y-77150500D01*
X137823066Y-77167813D01*
G37*
%TD.AperFunction*%
%TD*%
M02*
