M48
; DRILL file {KiCad (6.0.7)} date Mon Aug 15 11:29:11 2022
; FORMAT={-:-/ absolute / inch / decimal}
; #@! TF.CreationDate,2022-08-15T11:29:11+02:00
; #@! TF.GenerationSoftware,Kicad,Pcbnew,(6.0.7)
; #@! TF.FileFunction,Plated,1,4,PTH
FMAT,2
INCH
; #@! TA.AperFunction,Plated,PTH,ComponentDrill
T1C0.0079
; #@! TA.AperFunction,Plated,PTH,ViaDrill
T2C0.0118
; #@! TA.AperFunction,Plated,PTH,ComponentDrill
T3C0.0256
; #@! TA.AperFunction,Plated,PTH,ComponentDrill
T4C0.0394
; #@! TA.AperFunction,Plated,PTH,ComponentDrill
T5C0.0591
; #@! TA.AperFunction,Plated,PTH,ComponentDrill
T6C0.0669
; #@! TA.AperFunction,Plated,PTH,ComponentDrill
T7C0.1220
%
G90
G05
T1
X3.7795Y-3.622
X3.7795Y-3.7008
X3.7795Y-3.7795
X3.8583Y-3.622
X3.8583Y-3.7008
X3.8583Y-3.7795
X3.937Y-3.622
X3.937Y-3.7008
X3.937Y-3.7795
X4.3115Y-3.6718
X4.3115Y-3.7298
X4.3696Y-3.6718
X4.3696Y-3.7298
T2
X2.2835Y-3.6433
X2.2835Y-3.7433
X2.2835Y-3.8433
X2.2835Y-3.9433
X2.2835Y-4.0433
X2.2835Y-4.1433
X2.2835Y-4.2433
X2.2835Y-4.3433
X2.2835Y-4.4433
X2.3047Y-3.063
X2.3937Y-3.7441
X2.3937Y-3.8441
X2.3937Y-3.9441
X2.4047Y-3.063
X2.5047Y-3.063
X2.5079Y-3.785
X2.5079Y-3.885
X2.5079Y-3.985
X2.5709Y-3.1433
X2.5709Y-3.2433
X2.6047Y-3.063
X2.6102Y-3.3504
X2.6181Y-3.7858
X2.6181Y-3.8858
X2.6181Y-3.9858
X2.6811Y-3.1441
X2.6811Y-3.2441
X2.7047Y-3.063
X2.7102Y-3.3504
X2.7283Y-3.5157
X2.7323Y-3.8677
X2.7323Y-3.9677
X2.7323Y-4.0677
X2.7795Y-3.6693
X2.7795Y-3.7126
X2.8047Y-3.063
X2.8102Y-3.3504
X2.8307Y-3.8228
X2.8425Y-3.8685
X2.8425Y-3.9685
X2.8425Y-4.0685
X2.8622Y-3.8228
X2.8937Y-4.3622
X2.8976Y-3.8228
X2.9047Y-3.063
X2.9102Y-3.3504
X2.9291Y-4.3622
X2.9882Y-3.4016
X2.9882Y-3.5039
X2.9961Y-3.6693
X2.9961Y-3.7126
X3.0047Y-3.063
X3.0102Y-3.3504
X3.0102Y-3.7921
X3.0102Y-3.8921
X3.0102Y-3.9921
X3.0354Y-4.2283
X3.089Y-3.4299
X3.089Y-3.5299
X3.089Y-3.6299
X3.0984Y-4.0945
X3.0984Y-4.1417
X3.1047Y-3.063
X3.1102Y-3.3504
X3.1102Y-3.7921
X3.1102Y-3.8921
X3.1102Y-3.9921
X3.1181Y-4.1181
X3.126Y-4.2283
X3.126Y-4.2677
X3.1457Y-4.0709
X3.1693Y-4.0512
X3.189Y-3.4299
X3.189Y-3.5299
X3.189Y-3.6299
X3.189Y-4.0709
X3.2047Y-3.063
X3.2102Y-3.3504
X3.2244Y-4.4646
X3.2559Y-3.7559
X3.2677Y-4.4646
X3.2953Y-4.437
X3.3071Y-3.7953
X3.3102Y-3.3504
X3.3622Y-3.7559
X3.378Y-3.4646
X3.378Y-3.4961
X3.378Y-3.5276
X3.3819Y-4.311
X3.4102Y-3.3504
X3.4252Y-4.311
X3.4331Y-4.374
X3.4685Y-4.4528
X3.4764Y-3.6654
X3.5039Y-3.1614
X3.5118Y-4.0197
X3.5118Y-4.0472
X3.5118Y-4.0748
X3.5197Y-4.4528
X3.5472Y-3.6378
X3.5512Y-4.2402
X3.5512Y-4.315
X3.5512Y-4.3701
X3.5669Y-3.1614
X3.5906Y-4.4488
X3.6299Y-3.1614
X3.6299Y-4.0984
X3.6299Y-4.1417
X3.6339Y-4.2087
X3.6339Y-4.2559
X3.6654Y-3.7087
X3.6654Y-3.7362
X3.6654Y-3.7677
X3.6693Y-3.4646
X3.689Y-3.4409
X3.7047Y-3.4173
X3.7283Y-4.4252
X3.7362Y-3.4213
X3.7441Y-4.2165
X3.7441Y-4.252
X3.7559Y-3.3937
X3.7677Y-3.9134
X3.7874Y-3.5039
X3.7953Y-3.8583
X3.7992Y-4.3228
X3.8031Y-3.4488
X3.8268Y-3.5472
X3.8346Y-3.5
X3.8465Y-3.9134
X3.8465Y-4.3228
X3.8484Y-3.4449
X3.8819Y-3.5394
X3.8858Y-3.9094
X3.8898Y-3.5079
X3.8976Y-4.3228
X3.9252Y-3.4449
X3.9252Y-3.5039
X3.9528Y-3.874
X3.9843Y-3.874
X4.0197Y-3.811
X4.0433Y-3.8661
X4.0591Y-3.6339
X4.0709Y-3.6102
X4.0709Y-3.6811
X4.0709Y-3.811
X4.0748Y-4.1291
X4.0748Y-4.2291
X4.0748Y-4.3291
X4.0748Y-4.4291
X4.0827Y-4.0354
X4.0906Y-3.8425
X4.1024Y-3.626
X4.1142Y-3.811
X4.1299Y-3.5787
X4.1299Y-3.7559
X4.1339Y-3.9921
X4.1339Y-4.0354
X4.1378Y-3.8425
X4.1535Y-3.0709
X4.1535Y-3.1709
X4.1535Y-3.2709
X4.1535Y-3.3709
X4.1575Y-3.6142
X4.1575Y-3.811
X4.1614Y-3.6457
X4.1614Y-3.7323
X4.1748Y-4.4291
X4.185Y-3.8425
X4.189Y-3.6732
X4.189Y-3.7126
X4.2008Y-3.6142
X4.2047Y-3.748
X4.2047Y-3.811
X4.2323Y-3.8386
X4.2323Y-3.8819
X4.248Y-3.7913
X4.2535Y-3.0709
X4.2535Y-3.1709
X4.2535Y-3.2709
X4.2535Y-3.3709
X4.2717Y-3.8819
X4.2748Y-4.4291
X4.3307Y-3.8386
X4.3535Y-3.0709
X4.3535Y-3.1709
X4.3535Y-3.2709
X4.3535Y-3.3709
X4.3748Y-4.4291
X4.4016Y-3.9961
X4.4213Y-3.5039
X4.4213Y-3.5512
X4.4213Y-3.5945
X4.4252Y-3.7913
X4.4488Y-3.9528
X4.4488Y-3.9961
X4.4535Y-3.0709
X4.4535Y-3.1709
X4.4535Y-3.2709
X4.4535Y-3.3709
X4.4748Y-4.4291
X4.4803Y-3.5315
X4.4803Y-3.8465
X4.4843Y-3.4567
X4.4843Y-4.0551
X4.5039Y-3.5984
X4.5315Y-3.6142
X4.5354Y-3.7795
X4.5472Y-3.748
X4.5535Y-3.0709
X4.5535Y-3.1709
X4.5535Y-3.2709
X4.5535Y-3.3709
X4.5748Y-4.4291
X4.5843Y-3.4567
X4.5843Y-4.0551
X4.6535Y-3.0709
X4.6535Y-3.1709
X4.6535Y-3.2709
X4.6535Y-3.3709
X4.6748Y-4.4291
X4.6843Y-3.4567
X4.6843Y-4.0551
X4.7087Y-3.6063
X4.7087Y-3.7717
X4.7323Y-3.6063
X4.7323Y-3.7717
X4.7535Y-3.0709
X4.7535Y-3.1709
X4.7535Y-3.2709
X4.7535Y-3.3709
X4.7559Y-3.6063
X4.7559Y-3.7717
X4.7748Y-4.4291
X4.7843Y-3.4567
X4.7843Y-4.0551
X4.8346Y-3.7559
X4.8535Y-3.0709
X4.8535Y-3.1709
X4.8535Y-3.2709
X4.8535Y-3.3709
X4.8583Y-3.7559
X4.8748Y-4.4291
X4.8819Y-3.7559
X4.8843Y-3.4567
X4.8843Y-4.0551
X4.9535Y-3.0709
X4.9535Y-3.1709
X4.9535Y-3.2709
X4.9535Y-3.3709
X4.9567Y-3.7559
X4.9748Y-4.4291
X4.9803Y-3.7559
X4.9843Y-3.4567
X4.9843Y-4.0551
X5.0039Y-3.7559
X5.0535Y-3.0709
X5.0535Y-3.1709
X5.0535Y-3.2709
X5.0535Y-3.3709
X5.0748Y-4.4291
X5.0843Y-3.4567
X5.0843Y-4.0551
X5.1748Y-4.4291
X5.1843Y-3.4567
X5.1843Y-4.0551
X5.2843Y-3.4567
X5.2843Y-4.0551
X5.3843Y-3.4567
X5.3843Y-4.0551
X5.3937Y-4.1307
X5.3937Y-4.2307
X5.3937Y-4.3307
X5.3937Y-4.4307
T3
X3.748Y-3.2423
X3.748Y-3.2923
X3.748Y-4.1085
X3.748Y-4.1585
X3.798Y-3.2423
X3.798Y-3.2923
X3.798Y-4.1085
X3.798Y-4.1585
X3.848Y-3.2423
X3.848Y-3.2923
X3.848Y-4.1085
X3.848Y-4.1585
X3.898Y-3.2423
X3.898Y-3.2923
X3.898Y-4.1085
X3.898Y-4.1585
X3.948Y-3.2423
X3.948Y-3.2923
X3.948Y-4.1085
X3.948Y-4.1585
T4
X2.7035Y-4.2087
X2.7035Y-4.3071
X2.8701Y-3.1988
X2.9701Y-3.1988
X3.0701Y-3.1988
X3.1701Y-3.1988
X3.2701Y-3.1988
X3.3236Y-3.9724
X3.3236Y-4.0709
X3.3701Y-3.1988
T5
X2.4269Y-3.4547
X5.2283Y-3.6929
T6
X2.3269Y-3.3547
X2.3269Y-3.5547
X2.5269Y-3.3547
X2.5269Y-3.5547
X5.1283Y-3.5929
X5.1283Y-3.7929
X5.3283Y-3.5929
X5.3283Y-3.7929
T7
X2.4016Y-3.189
X2.4016Y-4.3307
X5.2756Y-3.189
X5.2756Y-4.3307
T0
M30
