%TF.GenerationSoftware,KiCad,Pcbnew,(6.0.7)*%
%TF.CreationDate,2022-08-15T11:29:02+02:00*%
%TF.ProjectId,atsd_tracker,61747364-5f74-4726-9163-6b65722e6b69,rev?*%
%TF.SameCoordinates,Original*%
%TF.FileFunction,Soldermask,Bot*%
%TF.FilePolarity,Negative*%
%FSLAX46Y46*%
G04 Gerber Fmt 4.6, Leading zero omitted, Abs format (unit mm)*
G04 Created by KiCad (PCBNEW (6.0.7)) date 2022-08-15 11:29:02*
%MOMM*%
%LPD*%
G01*
G04 APERTURE LIST*
G04 Aperture macros list*
%AMRoundRect*
0 Rectangle with rounded corners*
0 $1 Rounding radius*
0 $2 $3 $4 $5 $6 $7 $8 $9 X,Y pos of 4 corners*
0 Add a 4 corners polygon primitive as box body*
4,1,4,$2,$3,$4,$5,$6,$7,$8,$9,$2,$3,0*
0 Add four circle primitives for the rounded corners*
1,1,$1+$1,$2,$3*
1,1,$1+$1,$4,$5*
1,1,$1+$1,$6,$7*
1,1,$1+$1,$8,$9*
0 Add four rect primitives between the rounded corners*
20,1,$1+$1,$2,$3,$4,$5,0*
20,1,$1+$1,$4,$5,$6,$7,0*
20,1,$1+$1,$6,$7,$8,$9,0*
20,1,$1+$1,$8,$9,$2,$3,0*%
G04 Aperture macros list end*
%ADD10C,4.200000*%
%ADD11C,2.500000*%
%ADD12C,2.700000*%
%ADD13RoundRect,0.250000X0.750000X-0.600000X0.750000X0.600000X-0.750000X0.600000X-0.750000X-0.600000X0*%
%ADD14O,2.000000X1.700000*%
%ADD15C,0.600000*%
%ADD16R,1.000000X1.000000*%
%ADD17O,1.000000X1.000000*%
%ADD18R,1.700000X1.700000*%
%ADD19O,1.700000X1.700000*%
%ADD20C,0.737500*%
G04 APERTURE END LIST*
D10*
%TO.C,TP103*%
X134000000Y-110000000D03*
%TD*%
D11*
%TO.C,J105*%
X132800000Y-93800000D03*
D12*
X130260000Y-96340000D03*
X135340000Y-91260000D03*
X130260000Y-91260000D03*
X135340000Y-96340000D03*
%TD*%
D13*
%TO.C,J101*%
X68670000Y-109400000D03*
D14*
X68670000Y-106900000D03*
%TD*%
D15*
%TO.C,U103*%
X98000000Y-96000000D03*
X98000000Y-92000000D03*
X96000000Y-94000000D03*
X98000000Y-94000000D03*
X96000000Y-96000000D03*
X100000000Y-94000000D03*
X96000000Y-92000000D03*
X100000000Y-96000000D03*
X100000000Y-92000000D03*
%TD*%
D11*
%TO.C,J106*%
X61642500Y-87750000D03*
D12*
X59102500Y-85210000D03*
X64182500Y-90290000D03*
X59102500Y-90290000D03*
X64182500Y-85210000D03*
%TD*%
D10*
%TO.C,TP101*%
X134000000Y-81000000D03*
%TD*%
D16*
%TO.C,J103*%
X95200000Y-83625000D03*
D17*
X95200000Y-82355000D03*
X96470000Y-83625000D03*
X96470000Y-82355000D03*
X97740000Y-83625000D03*
X97740000Y-82355000D03*
X99010000Y-83625000D03*
X99010000Y-82355000D03*
X100280000Y-83625000D03*
X100280000Y-82355000D03*
%TD*%
D13*
%TO.C,J102*%
X84420000Y-103400000D03*
D14*
X84420000Y-100900000D03*
%TD*%
D10*
%TO.C,TP104*%
X61000000Y-110000000D03*
%TD*%
D18*
%TO.C,J107*%
X72900000Y-81250000D03*
D19*
X75440000Y-81250000D03*
X77980000Y-81250000D03*
X80520000Y-81250000D03*
X83060000Y-81250000D03*
X85600000Y-81250000D03*
%TD*%
D16*
%TO.C,J104*%
X95200000Y-105625000D03*
D17*
X95200000Y-104355000D03*
X96470000Y-105625000D03*
X96470000Y-104355000D03*
X97740000Y-105625000D03*
X97740000Y-104355000D03*
X99010000Y-105625000D03*
X99010000Y-104355000D03*
X100280000Y-105625000D03*
X100280000Y-104355000D03*
%TD*%
D10*
%TO.C,TP102*%
X61000000Y-81000000D03*
%TD*%
D20*
%TO.C,U106*%
X109512500Y-93262500D03*
X109512500Y-94737500D03*
X110987500Y-94737500D03*
X110987500Y-93262500D03*
%TD*%
M02*
